G04 #@! TF.GenerationSoftware,KiCad,Pcbnew,(6.0.0-rc1-dev-1233-g630baa372)*
G04 #@! TF.CreationDate,2018-11-22T01:35:06+01:00*
G04 #@! TF.ProjectId,sdi-devboard,7364692d-6465-4766-926f-6172642e6b69,rev?*
G04 #@! TF.SameCoordinates,Original*
G04 #@! TF.FileFunction,Soldermask,Top*
G04 #@! TF.FilePolarity,Negative*
%FSLAX46Y46*%
G04 Gerber Fmt 4.6, Leading zero omitted, Abs format (unit mm)*
G04 Created by KiCad (PCBNEW (6.0.0-rc1-dev-1233-g630baa372)) date Thu 22 Nov 2018 01:35:06 AM CET*
%MOMM*%
%LPD*%
G01*
G04 APERTURE LIST*
%ADD10C,0.100000*%
G04 APERTURE END LIST*
D10*
G36*
X123190000Y-71882000D02*
X126365000Y-71882000D01*
X126301500Y-64262000D01*
X184086500Y-64262000D01*
X184150000Y-110617000D01*
X126365000Y-110617000D01*
X126365000Y-102997000D01*
X123190000Y-102997000D01*
X123190000Y-113157000D01*
X186690000Y-113157000D01*
X186690000Y-61087000D01*
X123190000Y-61087000D01*
X123190000Y-71882000D01*
G37*
X123190000Y-71882000D02*
X126365000Y-71882000D01*
X126301500Y-64262000D01*
X184086500Y-64262000D01*
X184150000Y-110617000D01*
X126365000Y-110617000D01*
X126365000Y-102997000D01*
X123190000Y-102997000D01*
X123190000Y-113157000D01*
X186690000Y-113157000D01*
X186690000Y-61087000D01*
X123190000Y-61087000D01*
X123190000Y-71882000D01*
G36*
X131897286Y-104896814D02*
X132187606Y-104954562D01*
X132706455Y-105169476D01*
X132737970Y-105190534D01*
X133173410Y-105481486D01*
X133570514Y-105878590D01*
X133570516Y-105878593D01*
X133882524Y-106345545D01*
X133915420Y-106424963D01*
X134097438Y-106864395D01*
X134206006Y-107410201D01*
X134207000Y-107415201D01*
X134207000Y-107976799D01*
X134097438Y-108527606D01*
X133882524Y-109046455D01*
X133573857Y-109508407D01*
X133570514Y-109513410D01*
X133173410Y-109910514D01*
X133173407Y-109910516D01*
X132706455Y-110222524D01*
X132187606Y-110437438D01*
X131912202Y-110492219D01*
X131636800Y-110547000D01*
X131075200Y-110547000D01*
X130799798Y-110492219D01*
X130524394Y-110437438D01*
X130005545Y-110222524D01*
X129538593Y-109910516D01*
X129538590Y-109910514D01*
X129141486Y-109513410D01*
X129138143Y-109508407D01*
X128829476Y-109046455D01*
X128614562Y-108527606D01*
X128505000Y-107976799D01*
X128505000Y-107415201D01*
X128505995Y-107410201D01*
X128614562Y-106864395D01*
X128796580Y-106424963D01*
X128829476Y-106345545D01*
X129141484Y-105878593D01*
X129141486Y-105878590D01*
X129538590Y-105481486D01*
X129974030Y-105190534D01*
X130005545Y-105169476D01*
X130524394Y-104954562D01*
X130814714Y-104896814D01*
X131075200Y-104845000D01*
X131636800Y-104845000D01*
X131897286Y-104896814D01*
X131897286Y-104896814D01*
G37*
G36*
X181912202Y-104894781D02*
X182187606Y-104949562D01*
X182706455Y-105164476D01*
X182745453Y-105190534D01*
X183173410Y-105476486D01*
X183570514Y-105873590D01*
X183570516Y-105873593D01*
X183882524Y-106340545D01*
X184097438Y-106859394D01*
X184098433Y-106864395D01*
X184207000Y-107410200D01*
X184207000Y-107971800D01*
X184206005Y-107976800D01*
X184097438Y-108522606D01*
X183882524Y-109041455D01*
X183572620Y-109505259D01*
X183570514Y-109508410D01*
X183173410Y-109905514D01*
X183173407Y-109905516D01*
X182706455Y-110217524D01*
X182187606Y-110432438D01*
X181912202Y-110487219D01*
X181636800Y-110542000D01*
X181075200Y-110542000D01*
X180799798Y-110487219D01*
X180524394Y-110432438D01*
X180005545Y-110217524D01*
X179538593Y-109905516D01*
X179538590Y-109905514D01*
X179141486Y-109508410D01*
X179139380Y-109505259D01*
X178829476Y-109041455D01*
X178614562Y-108522606D01*
X178505995Y-107976800D01*
X178505000Y-107971800D01*
X178505000Y-107410200D01*
X178613567Y-106864395D01*
X178614562Y-106859394D01*
X178829476Y-106340545D01*
X179141484Y-105873593D01*
X179141486Y-105873590D01*
X179538590Y-105476486D01*
X179966547Y-105190534D01*
X180005545Y-105164476D01*
X180524394Y-104949562D01*
X180799798Y-104894781D01*
X181075200Y-104840000D01*
X181636800Y-104840000D01*
X181912202Y-104894781D01*
X181912202Y-104894781D01*
G37*
G36*
X157082442Y-104642518D02*
X157148627Y-104649037D01*
X157261853Y-104683384D01*
X157318467Y-104700557D01*
X157457087Y-104774652D01*
X157474991Y-104784222D01*
X157510729Y-104813552D01*
X157612186Y-104896814D01*
X157695448Y-104998271D01*
X157724778Y-105034009D01*
X157724779Y-105034011D01*
X157808443Y-105190533D01*
X157808443Y-105190534D01*
X157859963Y-105360373D01*
X157877359Y-105537000D01*
X157859963Y-105713627D01*
X157825616Y-105826853D01*
X157808443Y-105883467D01*
X157734348Y-106022087D01*
X157724778Y-106039991D01*
X157695448Y-106075729D01*
X157612186Y-106177186D01*
X157510729Y-106260448D01*
X157474991Y-106289778D01*
X157474989Y-106289779D01*
X157318467Y-106373443D01*
X157261853Y-106390616D01*
X157148627Y-106424963D01*
X157082443Y-106431481D01*
X157016260Y-106438000D01*
X156927740Y-106438000D01*
X156861557Y-106431481D01*
X156795373Y-106424963D01*
X156682147Y-106390616D01*
X156625533Y-106373443D01*
X156469011Y-106289779D01*
X156469009Y-106289778D01*
X156433271Y-106260448D01*
X156331814Y-106177186D01*
X156248552Y-106075729D01*
X156219222Y-106039991D01*
X156209652Y-106022087D01*
X156135557Y-105883467D01*
X156118384Y-105826853D01*
X156084037Y-105713627D01*
X156066641Y-105537000D01*
X156084037Y-105360373D01*
X156135557Y-105190534D01*
X156135557Y-105190533D01*
X156219221Y-105034011D01*
X156219222Y-105034009D01*
X156248552Y-104998271D01*
X156331814Y-104896814D01*
X156433271Y-104813552D01*
X156469009Y-104784222D01*
X156486913Y-104774652D01*
X156625533Y-104700557D01*
X156682147Y-104683384D01*
X156795373Y-104649037D01*
X156861557Y-104642519D01*
X156927740Y-104636000D01*
X157016260Y-104636000D01*
X157082442Y-104642518D01*
X157082442Y-104642518D01*
G37*
G36*
X164702442Y-104642518D02*
X164768627Y-104649037D01*
X164881853Y-104683384D01*
X164938467Y-104700557D01*
X165077087Y-104774652D01*
X165094991Y-104784222D01*
X165130729Y-104813552D01*
X165232186Y-104896814D01*
X165315448Y-104998271D01*
X165344778Y-105034009D01*
X165344779Y-105034011D01*
X165428443Y-105190533D01*
X165428443Y-105190534D01*
X165479963Y-105360373D01*
X165497359Y-105537000D01*
X165479963Y-105713627D01*
X165445616Y-105826853D01*
X165428443Y-105883467D01*
X165354348Y-106022087D01*
X165344778Y-106039991D01*
X165315448Y-106075729D01*
X165232186Y-106177186D01*
X165130729Y-106260448D01*
X165094991Y-106289778D01*
X165094989Y-106289779D01*
X164938467Y-106373443D01*
X164881853Y-106390616D01*
X164768627Y-106424963D01*
X164702443Y-106431481D01*
X164636260Y-106438000D01*
X164547740Y-106438000D01*
X164481557Y-106431481D01*
X164415373Y-106424963D01*
X164302147Y-106390616D01*
X164245533Y-106373443D01*
X164089011Y-106289779D01*
X164089009Y-106289778D01*
X164053271Y-106260448D01*
X163951814Y-106177186D01*
X163868552Y-106075729D01*
X163839222Y-106039991D01*
X163829652Y-106022087D01*
X163755557Y-105883467D01*
X163738384Y-105826853D01*
X163704037Y-105713627D01*
X163686641Y-105537000D01*
X163704037Y-105360373D01*
X163755557Y-105190534D01*
X163755557Y-105190533D01*
X163839221Y-105034011D01*
X163839222Y-105034009D01*
X163868552Y-104998271D01*
X163951814Y-104896814D01*
X164053271Y-104813552D01*
X164089009Y-104784222D01*
X164106913Y-104774652D01*
X164245533Y-104700557D01*
X164302147Y-104683384D01*
X164415373Y-104649037D01*
X164481557Y-104642519D01*
X164547740Y-104636000D01*
X164636260Y-104636000D01*
X164702442Y-104642518D01*
X164702442Y-104642518D01*
G37*
G36*
X162162442Y-104642518D02*
X162228627Y-104649037D01*
X162341853Y-104683384D01*
X162398467Y-104700557D01*
X162537087Y-104774652D01*
X162554991Y-104784222D01*
X162590729Y-104813552D01*
X162692186Y-104896814D01*
X162775448Y-104998271D01*
X162804778Y-105034009D01*
X162804779Y-105034011D01*
X162888443Y-105190533D01*
X162888443Y-105190534D01*
X162939963Y-105360373D01*
X162957359Y-105537000D01*
X162939963Y-105713627D01*
X162905616Y-105826853D01*
X162888443Y-105883467D01*
X162814348Y-106022087D01*
X162804778Y-106039991D01*
X162775448Y-106075729D01*
X162692186Y-106177186D01*
X162590729Y-106260448D01*
X162554991Y-106289778D01*
X162554989Y-106289779D01*
X162398467Y-106373443D01*
X162341853Y-106390616D01*
X162228627Y-106424963D01*
X162162443Y-106431481D01*
X162096260Y-106438000D01*
X162007740Y-106438000D01*
X161941557Y-106431481D01*
X161875373Y-106424963D01*
X161762147Y-106390616D01*
X161705533Y-106373443D01*
X161549011Y-106289779D01*
X161549009Y-106289778D01*
X161513271Y-106260448D01*
X161411814Y-106177186D01*
X161328552Y-106075729D01*
X161299222Y-106039991D01*
X161289652Y-106022087D01*
X161215557Y-105883467D01*
X161198384Y-105826853D01*
X161164037Y-105713627D01*
X161146641Y-105537000D01*
X161164037Y-105360373D01*
X161215557Y-105190534D01*
X161215557Y-105190533D01*
X161299221Y-105034011D01*
X161299222Y-105034009D01*
X161328552Y-104998271D01*
X161411814Y-104896814D01*
X161513271Y-104813552D01*
X161549009Y-104784222D01*
X161566913Y-104774652D01*
X161705533Y-104700557D01*
X161762147Y-104683384D01*
X161875373Y-104649037D01*
X161941557Y-104642519D01*
X162007740Y-104636000D01*
X162096260Y-104636000D01*
X162162442Y-104642518D01*
X162162442Y-104642518D01*
G37*
G36*
X159622442Y-104642518D02*
X159688627Y-104649037D01*
X159801853Y-104683384D01*
X159858467Y-104700557D01*
X159997087Y-104774652D01*
X160014991Y-104784222D01*
X160050729Y-104813552D01*
X160152186Y-104896814D01*
X160235448Y-104998271D01*
X160264778Y-105034009D01*
X160264779Y-105034011D01*
X160348443Y-105190533D01*
X160348443Y-105190534D01*
X160399963Y-105360373D01*
X160417359Y-105537000D01*
X160399963Y-105713627D01*
X160365616Y-105826853D01*
X160348443Y-105883467D01*
X160274348Y-106022087D01*
X160264778Y-106039991D01*
X160235448Y-106075729D01*
X160152186Y-106177186D01*
X160050729Y-106260448D01*
X160014991Y-106289778D01*
X160014989Y-106289779D01*
X159858467Y-106373443D01*
X159801853Y-106390616D01*
X159688627Y-106424963D01*
X159622443Y-106431481D01*
X159556260Y-106438000D01*
X159467740Y-106438000D01*
X159401557Y-106431481D01*
X159335373Y-106424963D01*
X159222147Y-106390616D01*
X159165533Y-106373443D01*
X159009011Y-106289779D01*
X159009009Y-106289778D01*
X158973271Y-106260448D01*
X158871814Y-106177186D01*
X158788552Y-106075729D01*
X158759222Y-106039991D01*
X158749652Y-106022087D01*
X158675557Y-105883467D01*
X158658384Y-105826853D01*
X158624037Y-105713627D01*
X158606641Y-105537000D01*
X158624037Y-105360373D01*
X158675557Y-105190534D01*
X158675557Y-105190533D01*
X158759221Y-105034011D01*
X158759222Y-105034009D01*
X158788552Y-104998271D01*
X158871814Y-104896814D01*
X158973271Y-104813552D01*
X159009009Y-104784222D01*
X159026913Y-104774652D01*
X159165533Y-104700557D01*
X159222147Y-104683384D01*
X159335373Y-104649037D01*
X159401557Y-104642519D01*
X159467740Y-104636000D01*
X159556260Y-104636000D01*
X159622442Y-104642518D01*
X159622442Y-104642518D01*
G37*
G36*
X154542442Y-104642518D02*
X154608627Y-104649037D01*
X154721853Y-104683384D01*
X154778467Y-104700557D01*
X154917087Y-104774652D01*
X154934991Y-104784222D01*
X154970729Y-104813552D01*
X155072186Y-104896814D01*
X155155448Y-104998271D01*
X155184778Y-105034009D01*
X155184779Y-105034011D01*
X155268443Y-105190533D01*
X155268443Y-105190534D01*
X155319963Y-105360373D01*
X155337359Y-105537000D01*
X155319963Y-105713627D01*
X155285616Y-105826853D01*
X155268443Y-105883467D01*
X155194348Y-106022087D01*
X155184778Y-106039991D01*
X155155448Y-106075729D01*
X155072186Y-106177186D01*
X154970729Y-106260448D01*
X154934991Y-106289778D01*
X154934989Y-106289779D01*
X154778467Y-106373443D01*
X154721853Y-106390616D01*
X154608627Y-106424963D01*
X154542443Y-106431481D01*
X154476260Y-106438000D01*
X154387740Y-106438000D01*
X154321557Y-106431481D01*
X154255373Y-106424963D01*
X154142147Y-106390616D01*
X154085533Y-106373443D01*
X153929011Y-106289779D01*
X153929009Y-106289778D01*
X153893271Y-106260448D01*
X153791814Y-106177186D01*
X153708552Y-106075729D01*
X153679222Y-106039991D01*
X153669652Y-106022087D01*
X153595557Y-105883467D01*
X153578384Y-105826853D01*
X153544037Y-105713627D01*
X153526641Y-105537000D01*
X153544037Y-105360373D01*
X153595557Y-105190534D01*
X153595557Y-105190533D01*
X153679221Y-105034011D01*
X153679222Y-105034009D01*
X153708552Y-104998271D01*
X153791814Y-104896814D01*
X153893271Y-104813552D01*
X153929009Y-104784222D01*
X153946913Y-104774652D01*
X154085533Y-104700557D01*
X154142147Y-104683384D01*
X154255373Y-104649037D01*
X154321557Y-104642519D01*
X154387740Y-104636000D01*
X154476260Y-104636000D01*
X154542442Y-104642518D01*
X154542442Y-104642518D01*
G37*
G36*
X152002442Y-104642518D02*
X152068627Y-104649037D01*
X152181853Y-104683384D01*
X152238467Y-104700557D01*
X152377087Y-104774652D01*
X152394991Y-104784222D01*
X152430729Y-104813552D01*
X152532186Y-104896814D01*
X152615448Y-104998271D01*
X152644778Y-105034009D01*
X152644779Y-105034011D01*
X152728443Y-105190533D01*
X152728443Y-105190534D01*
X152779963Y-105360373D01*
X152797359Y-105537000D01*
X152779963Y-105713627D01*
X152745616Y-105826853D01*
X152728443Y-105883467D01*
X152654348Y-106022087D01*
X152644778Y-106039991D01*
X152615448Y-106075729D01*
X152532186Y-106177186D01*
X152430729Y-106260448D01*
X152394991Y-106289778D01*
X152394989Y-106289779D01*
X152238467Y-106373443D01*
X152181853Y-106390616D01*
X152068627Y-106424963D01*
X152002443Y-106431481D01*
X151936260Y-106438000D01*
X151847740Y-106438000D01*
X151781557Y-106431481D01*
X151715373Y-106424963D01*
X151602147Y-106390616D01*
X151545533Y-106373443D01*
X151389011Y-106289779D01*
X151389009Y-106289778D01*
X151353271Y-106260448D01*
X151251814Y-106177186D01*
X151168552Y-106075729D01*
X151139222Y-106039991D01*
X151129652Y-106022087D01*
X151055557Y-105883467D01*
X151038384Y-105826853D01*
X151004037Y-105713627D01*
X150986641Y-105537000D01*
X151004037Y-105360373D01*
X151055557Y-105190534D01*
X151055557Y-105190533D01*
X151139221Y-105034011D01*
X151139222Y-105034009D01*
X151168552Y-104998271D01*
X151251814Y-104896814D01*
X151353271Y-104813552D01*
X151389009Y-104784222D01*
X151406913Y-104774652D01*
X151545533Y-104700557D01*
X151602147Y-104683384D01*
X151715373Y-104649037D01*
X151781557Y-104642519D01*
X151847740Y-104636000D01*
X151936260Y-104636000D01*
X152002442Y-104642518D01*
X152002442Y-104642518D01*
G37*
G36*
X149462442Y-104642518D02*
X149528627Y-104649037D01*
X149641853Y-104683384D01*
X149698467Y-104700557D01*
X149837087Y-104774652D01*
X149854991Y-104784222D01*
X149890729Y-104813552D01*
X149992186Y-104896814D01*
X150075448Y-104998271D01*
X150104778Y-105034009D01*
X150104779Y-105034011D01*
X150188443Y-105190533D01*
X150188443Y-105190534D01*
X150239963Y-105360373D01*
X150257359Y-105537000D01*
X150239963Y-105713627D01*
X150205616Y-105826853D01*
X150188443Y-105883467D01*
X150114348Y-106022087D01*
X150104778Y-106039991D01*
X150075448Y-106075729D01*
X149992186Y-106177186D01*
X149890729Y-106260448D01*
X149854991Y-106289778D01*
X149854989Y-106289779D01*
X149698467Y-106373443D01*
X149641853Y-106390616D01*
X149528627Y-106424963D01*
X149462443Y-106431481D01*
X149396260Y-106438000D01*
X149307740Y-106438000D01*
X149241557Y-106431481D01*
X149175373Y-106424963D01*
X149062147Y-106390616D01*
X149005533Y-106373443D01*
X148849011Y-106289779D01*
X148849009Y-106289778D01*
X148813271Y-106260448D01*
X148711814Y-106177186D01*
X148628552Y-106075729D01*
X148599222Y-106039991D01*
X148589652Y-106022087D01*
X148515557Y-105883467D01*
X148498384Y-105826853D01*
X148464037Y-105713627D01*
X148446641Y-105537000D01*
X148464037Y-105360373D01*
X148515557Y-105190534D01*
X148515557Y-105190533D01*
X148599221Y-105034011D01*
X148599222Y-105034009D01*
X148628552Y-104998271D01*
X148711814Y-104896814D01*
X148813271Y-104813552D01*
X148849009Y-104784222D01*
X148866913Y-104774652D01*
X149005533Y-104700557D01*
X149062147Y-104683384D01*
X149175373Y-104649037D01*
X149241557Y-104642519D01*
X149307740Y-104636000D01*
X149396260Y-104636000D01*
X149462442Y-104642518D01*
X149462442Y-104642518D01*
G37*
G36*
X146922442Y-104642518D02*
X146988627Y-104649037D01*
X147101853Y-104683384D01*
X147158467Y-104700557D01*
X147297087Y-104774652D01*
X147314991Y-104784222D01*
X147350729Y-104813552D01*
X147452186Y-104896814D01*
X147535448Y-104998271D01*
X147564778Y-105034009D01*
X147564779Y-105034011D01*
X147648443Y-105190533D01*
X147648443Y-105190534D01*
X147699963Y-105360373D01*
X147717359Y-105537000D01*
X147699963Y-105713627D01*
X147665616Y-105826853D01*
X147648443Y-105883467D01*
X147574348Y-106022087D01*
X147564778Y-106039991D01*
X147535448Y-106075729D01*
X147452186Y-106177186D01*
X147350729Y-106260448D01*
X147314991Y-106289778D01*
X147314989Y-106289779D01*
X147158467Y-106373443D01*
X147101853Y-106390616D01*
X146988627Y-106424963D01*
X146922443Y-106431481D01*
X146856260Y-106438000D01*
X146767740Y-106438000D01*
X146701557Y-106431481D01*
X146635373Y-106424963D01*
X146522147Y-106390616D01*
X146465533Y-106373443D01*
X146309011Y-106289779D01*
X146309009Y-106289778D01*
X146273271Y-106260448D01*
X146171814Y-106177186D01*
X146088552Y-106075729D01*
X146059222Y-106039991D01*
X146049652Y-106022087D01*
X145975557Y-105883467D01*
X145958384Y-105826853D01*
X145924037Y-105713627D01*
X145906641Y-105537000D01*
X145924037Y-105360373D01*
X145975557Y-105190534D01*
X145975557Y-105190533D01*
X146059221Y-105034011D01*
X146059222Y-105034009D01*
X146088552Y-104998271D01*
X146171814Y-104896814D01*
X146273271Y-104813552D01*
X146309009Y-104784222D01*
X146326913Y-104774652D01*
X146465533Y-104700557D01*
X146522147Y-104683384D01*
X146635373Y-104649037D01*
X146701557Y-104642519D01*
X146767740Y-104636000D01*
X146856260Y-104636000D01*
X146922442Y-104642518D01*
X146922442Y-104642518D01*
G37*
G36*
X145173000Y-106438000D02*
X143371000Y-106438000D01*
X143371000Y-104636000D01*
X145173000Y-104636000D01*
X145173000Y-106438000D01*
X145173000Y-106438000D01*
G37*
G36*
X157082443Y-102102519D02*
X157148627Y-102109037D01*
X157261853Y-102143384D01*
X157318467Y-102160557D01*
X157457087Y-102234652D01*
X157474991Y-102244222D01*
X157510729Y-102273552D01*
X157612186Y-102356814D01*
X157695448Y-102458271D01*
X157724778Y-102494009D01*
X157724779Y-102494011D01*
X157808443Y-102650533D01*
X157808443Y-102650534D01*
X157859963Y-102820373D01*
X157877359Y-102997000D01*
X157859963Y-103173627D01*
X157825616Y-103286853D01*
X157808443Y-103343467D01*
X157734348Y-103482087D01*
X157724778Y-103499991D01*
X157695448Y-103535729D01*
X157612186Y-103637186D01*
X157510729Y-103720448D01*
X157474991Y-103749778D01*
X157474989Y-103749779D01*
X157318467Y-103833443D01*
X157261853Y-103850616D01*
X157148627Y-103884963D01*
X157082442Y-103891482D01*
X157016260Y-103898000D01*
X156927740Y-103898000D01*
X156861557Y-103891481D01*
X156795373Y-103884963D01*
X156682147Y-103850616D01*
X156625533Y-103833443D01*
X156469011Y-103749779D01*
X156469009Y-103749778D01*
X156433271Y-103720448D01*
X156331814Y-103637186D01*
X156248552Y-103535729D01*
X156219222Y-103499991D01*
X156209652Y-103482087D01*
X156135557Y-103343467D01*
X156118384Y-103286853D01*
X156084037Y-103173627D01*
X156066641Y-102997000D01*
X156084037Y-102820373D01*
X156135557Y-102650534D01*
X156135557Y-102650533D01*
X156219221Y-102494011D01*
X156219222Y-102494009D01*
X156248552Y-102458271D01*
X156331814Y-102356814D01*
X156433271Y-102273552D01*
X156469009Y-102244222D01*
X156486913Y-102234652D01*
X156625533Y-102160557D01*
X156682147Y-102143384D01*
X156795373Y-102109037D01*
X156861558Y-102102518D01*
X156927740Y-102096000D01*
X157016260Y-102096000D01*
X157082443Y-102102519D01*
X157082443Y-102102519D01*
G37*
G36*
X144382443Y-102102519D02*
X144448627Y-102109037D01*
X144561853Y-102143384D01*
X144618467Y-102160557D01*
X144757087Y-102234652D01*
X144774991Y-102244222D01*
X144810729Y-102273552D01*
X144912186Y-102356814D01*
X144995448Y-102458271D01*
X145024778Y-102494009D01*
X145024779Y-102494011D01*
X145108443Y-102650533D01*
X145108443Y-102650534D01*
X145159963Y-102820373D01*
X145177359Y-102997000D01*
X145159963Y-103173627D01*
X145125616Y-103286853D01*
X145108443Y-103343467D01*
X145034348Y-103482087D01*
X145024778Y-103499991D01*
X144995448Y-103535729D01*
X144912186Y-103637186D01*
X144810729Y-103720448D01*
X144774991Y-103749778D01*
X144774989Y-103749779D01*
X144618467Y-103833443D01*
X144561853Y-103850616D01*
X144448627Y-103884963D01*
X144382442Y-103891482D01*
X144316260Y-103898000D01*
X144227740Y-103898000D01*
X144161557Y-103891481D01*
X144095373Y-103884963D01*
X143982147Y-103850616D01*
X143925533Y-103833443D01*
X143769011Y-103749779D01*
X143769009Y-103749778D01*
X143733271Y-103720448D01*
X143631814Y-103637186D01*
X143548552Y-103535729D01*
X143519222Y-103499991D01*
X143509652Y-103482087D01*
X143435557Y-103343467D01*
X143418384Y-103286853D01*
X143384037Y-103173627D01*
X143366641Y-102997000D01*
X143384037Y-102820373D01*
X143435557Y-102650534D01*
X143435557Y-102650533D01*
X143519221Y-102494011D01*
X143519222Y-102494009D01*
X143548552Y-102458271D01*
X143631814Y-102356814D01*
X143733271Y-102273552D01*
X143769009Y-102244222D01*
X143786913Y-102234652D01*
X143925533Y-102160557D01*
X143982147Y-102143384D01*
X144095373Y-102109037D01*
X144161558Y-102102518D01*
X144227740Y-102096000D01*
X144316260Y-102096000D01*
X144382443Y-102102519D01*
X144382443Y-102102519D01*
G37*
G36*
X146922443Y-102102519D02*
X146988627Y-102109037D01*
X147101853Y-102143384D01*
X147158467Y-102160557D01*
X147297087Y-102234652D01*
X147314991Y-102244222D01*
X147350729Y-102273552D01*
X147452186Y-102356814D01*
X147535448Y-102458271D01*
X147564778Y-102494009D01*
X147564779Y-102494011D01*
X147648443Y-102650533D01*
X147648443Y-102650534D01*
X147699963Y-102820373D01*
X147717359Y-102997000D01*
X147699963Y-103173627D01*
X147665616Y-103286853D01*
X147648443Y-103343467D01*
X147574348Y-103482087D01*
X147564778Y-103499991D01*
X147535448Y-103535729D01*
X147452186Y-103637186D01*
X147350729Y-103720448D01*
X147314991Y-103749778D01*
X147314989Y-103749779D01*
X147158467Y-103833443D01*
X147101853Y-103850616D01*
X146988627Y-103884963D01*
X146922442Y-103891482D01*
X146856260Y-103898000D01*
X146767740Y-103898000D01*
X146701557Y-103891481D01*
X146635373Y-103884963D01*
X146522147Y-103850616D01*
X146465533Y-103833443D01*
X146309011Y-103749779D01*
X146309009Y-103749778D01*
X146273271Y-103720448D01*
X146171814Y-103637186D01*
X146088552Y-103535729D01*
X146059222Y-103499991D01*
X146049652Y-103482087D01*
X145975557Y-103343467D01*
X145958384Y-103286853D01*
X145924037Y-103173627D01*
X145906641Y-102997000D01*
X145924037Y-102820373D01*
X145975557Y-102650534D01*
X145975557Y-102650533D01*
X146059221Y-102494011D01*
X146059222Y-102494009D01*
X146088552Y-102458271D01*
X146171814Y-102356814D01*
X146273271Y-102273552D01*
X146309009Y-102244222D01*
X146326913Y-102234652D01*
X146465533Y-102160557D01*
X146522147Y-102143384D01*
X146635373Y-102109037D01*
X146701558Y-102102518D01*
X146767740Y-102096000D01*
X146856260Y-102096000D01*
X146922443Y-102102519D01*
X146922443Y-102102519D01*
G37*
G36*
X152002443Y-102102519D02*
X152068627Y-102109037D01*
X152181853Y-102143384D01*
X152238467Y-102160557D01*
X152377087Y-102234652D01*
X152394991Y-102244222D01*
X152430729Y-102273552D01*
X152532186Y-102356814D01*
X152615448Y-102458271D01*
X152644778Y-102494009D01*
X152644779Y-102494011D01*
X152728443Y-102650533D01*
X152728443Y-102650534D01*
X152779963Y-102820373D01*
X152797359Y-102997000D01*
X152779963Y-103173627D01*
X152745616Y-103286853D01*
X152728443Y-103343467D01*
X152654348Y-103482087D01*
X152644778Y-103499991D01*
X152615448Y-103535729D01*
X152532186Y-103637186D01*
X152430729Y-103720448D01*
X152394991Y-103749778D01*
X152394989Y-103749779D01*
X152238467Y-103833443D01*
X152181853Y-103850616D01*
X152068627Y-103884963D01*
X152002442Y-103891482D01*
X151936260Y-103898000D01*
X151847740Y-103898000D01*
X151781557Y-103891481D01*
X151715373Y-103884963D01*
X151602147Y-103850616D01*
X151545533Y-103833443D01*
X151389011Y-103749779D01*
X151389009Y-103749778D01*
X151353271Y-103720448D01*
X151251814Y-103637186D01*
X151168552Y-103535729D01*
X151139222Y-103499991D01*
X151129652Y-103482087D01*
X151055557Y-103343467D01*
X151038384Y-103286853D01*
X151004037Y-103173627D01*
X150986641Y-102997000D01*
X151004037Y-102820373D01*
X151055557Y-102650534D01*
X151055557Y-102650533D01*
X151139221Y-102494011D01*
X151139222Y-102494009D01*
X151168552Y-102458271D01*
X151251814Y-102356814D01*
X151353271Y-102273552D01*
X151389009Y-102244222D01*
X151406913Y-102234652D01*
X151545533Y-102160557D01*
X151602147Y-102143384D01*
X151715373Y-102109037D01*
X151781558Y-102102518D01*
X151847740Y-102096000D01*
X151936260Y-102096000D01*
X152002443Y-102102519D01*
X152002443Y-102102519D01*
G37*
G36*
X154542443Y-102102519D02*
X154608627Y-102109037D01*
X154721853Y-102143384D01*
X154778467Y-102160557D01*
X154917087Y-102234652D01*
X154934991Y-102244222D01*
X154970729Y-102273552D01*
X155072186Y-102356814D01*
X155155448Y-102458271D01*
X155184778Y-102494009D01*
X155184779Y-102494011D01*
X155268443Y-102650533D01*
X155268443Y-102650534D01*
X155319963Y-102820373D01*
X155337359Y-102997000D01*
X155319963Y-103173627D01*
X155285616Y-103286853D01*
X155268443Y-103343467D01*
X155194348Y-103482087D01*
X155184778Y-103499991D01*
X155155448Y-103535729D01*
X155072186Y-103637186D01*
X154970729Y-103720448D01*
X154934991Y-103749778D01*
X154934989Y-103749779D01*
X154778467Y-103833443D01*
X154721853Y-103850616D01*
X154608627Y-103884963D01*
X154542442Y-103891482D01*
X154476260Y-103898000D01*
X154387740Y-103898000D01*
X154321557Y-103891481D01*
X154255373Y-103884963D01*
X154142147Y-103850616D01*
X154085533Y-103833443D01*
X153929011Y-103749779D01*
X153929009Y-103749778D01*
X153893271Y-103720448D01*
X153791814Y-103637186D01*
X153708552Y-103535729D01*
X153679222Y-103499991D01*
X153669652Y-103482087D01*
X153595557Y-103343467D01*
X153578384Y-103286853D01*
X153544037Y-103173627D01*
X153526641Y-102997000D01*
X153544037Y-102820373D01*
X153595557Y-102650534D01*
X153595557Y-102650533D01*
X153679221Y-102494011D01*
X153679222Y-102494009D01*
X153708552Y-102458271D01*
X153791814Y-102356814D01*
X153893271Y-102273552D01*
X153929009Y-102244222D01*
X153946913Y-102234652D01*
X154085533Y-102160557D01*
X154142147Y-102143384D01*
X154255373Y-102109037D01*
X154321558Y-102102518D01*
X154387740Y-102096000D01*
X154476260Y-102096000D01*
X154542443Y-102102519D01*
X154542443Y-102102519D01*
G37*
G36*
X159622443Y-102102519D02*
X159688627Y-102109037D01*
X159801853Y-102143384D01*
X159858467Y-102160557D01*
X159997087Y-102234652D01*
X160014991Y-102244222D01*
X160050729Y-102273552D01*
X160152186Y-102356814D01*
X160235448Y-102458271D01*
X160264778Y-102494009D01*
X160264779Y-102494011D01*
X160348443Y-102650533D01*
X160348443Y-102650534D01*
X160399963Y-102820373D01*
X160417359Y-102997000D01*
X160399963Y-103173627D01*
X160365616Y-103286853D01*
X160348443Y-103343467D01*
X160274348Y-103482087D01*
X160264778Y-103499991D01*
X160235448Y-103535729D01*
X160152186Y-103637186D01*
X160050729Y-103720448D01*
X160014991Y-103749778D01*
X160014989Y-103749779D01*
X159858467Y-103833443D01*
X159801853Y-103850616D01*
X159688627Y-103884963D01*
X159622442Y-103891482D01*
X159556260Y-103898000D01*
X159467740Y-103898000D01*
X159401557Y-103891481D01*
X159335373Y-103884963D01*
X159222147Y-103850616D01*
X159165533Y-103833443D01*
X159009011Y-103749779D01*
X159009009Y-103749778D01*
X158973271Y-103720448D01*
X158871814Y-103637186D01*
X158788552Y-103535729D01*
X158759222Y-103499991D01*
X158749652Y-103482087D01*
X158675557Y-103343467D01*
X158658384Y-103286853D01*
X158624037Y-103173627D01*
X158606641Y-102997000D01*
X158624037Y-102820373D01*
X158675557Y-102650534D01*
X158675557Y-102650533D01*
X158759221Y-102494011D01*
X158759222Y-102494009D01*
X158788552Y-102458271D01*
X158871814Y-102356814D01*
X158973271Y-102273552D01*
X159009009Y-102244222D01*
X159026913Y-102234652D01*
X159165533Y-102160557D01*
X159222147Y-102143384D01*
X159335373Y-102109037D01*
X159401558Y-102102518D01*
X159467740Y-102096000D01*
X159556260Y-102096000D01*
X159622443Y-102102519D01*
X159622443Y-102102519D01*
G37*
G36*
X162162443Y-102102519D02*
X162228627Y-102109037D01*
X162341853Y-102143384D01*
X162398467Y-102160557D01*
X162537087Y-102234652D01*
X162554991Y-102244222D01*
X162590729Y-102273552D01*
X162692186Y-102356814D01*
X162775448Y-102458271D01*
X162804778Y-102494009D01*
X162804779Y-102494011D01*
X162888443Y-102650533D01*
X162888443Y-102650534D01*
X162939963Y-102820373D01*
X162957359Y-102997000D01*
X162939963Y-103173627D01*
X162905616Y-103286853D01*
X162888443Y-103343467D01*
X162814348Y-103482087D01*
X162804778Y-103499991D01*
X162775448Y-103535729D01*
X162692186Y-103637186D01*
X162590729Y-103720448D01*
X162554991Y-103749778D01*
X162554989Y-103749779D01*
X162398467Y-103833443D01*
X162341853Y-103850616D01*
X162228627Y-103884963D01*
X162162442Y-103891482D01*
X162096260Y-103898000D01*
X162007740Y-103898000D01*
X161941557Y-103891481D01*
X161875373Y-103884963D01*
X161762147Y-103850616D01*
X161705533Y-103833443D01*
X161549011Y-103749779D01*
X161549009Y-103749778D01*
X161513271Y-103720448D01*
X161411814Y-103637186D01*
X161328552Y-103535729D01*
X161299222Y-103499991D01*
X161289652Y-103482087D01*
X161215557Y-103343467D01*
X161198384Y-103286853D01*
X161164037Y-103173627D01*
X161146641Y-102997000D01*
X161164037Y-102820373D01*
X161215557Y-102650534D01*
X161215557Y-102650533D01*
X161299221Y-102494011D01*
X161299222Y-102494009D01*
X161328552Y-102458271D01*
X161411814Y-102356814D01*
X161513271Y-102273552D01*
X161549009Y-102244222D01*
X161566913Y-102234652D01*
X161705533Y-102160557D01*
X161762147Y-102143384D01*
X161875373Y-102109037D01*
X161941558Y-102102518D01*
X162007740Y-102096000D01*
X162096260Y-102096000D01*
X162162443Y-102102519D01*
X162162443Y-102102519D01*
G37*
G36*
X164702443Y-102102519D02*
X164768627Y-102109037D01*
X164881853Y-102143384D01*
X164938467Y-102160557D01*
X165077087Y-102234652D01*
X165094991Y-102244222D01*
X165130729Y-102273552D01*
X165232186Y-102356814D01*
X165315448Y-102458271D01*
X165344778Y-102494009D01*
X165344779Y-102494011D01*
X165428443Y-102650533D01*
X165428443Y-102650534D01*
X165479963Y-102820373D01*
X165497359Y-102997000D01*
X165479963Y-103173627D01*
X165445616Y-103286853D01*
X165428443Y-103343467D01*
X165354348Y-103482087D01*
X165344778Y-103499991D01*
X165315448Y-103535729D01*
X165232186Y-103637186D01*
X165130729Y-103720448D01*
X165094991Y-103749778D01*
X165094989Y-103749779D01*
X164938467Y-103833443D01*
X164881853Y-103850616D01*
X164768627Y-103884963D01*
X164702442Y-103891482D01*
X164636260Y-103898000D01*
X164547740Y-103898000D01*
X164481557Y-103891481D01*
X164415373Y-103884963D01*
X164302147Y-103850616D01*
X164245533Y-103833443D01*
X164089011Y-103749779D01*
X164089009Y-103749778D01*
X164053271Y-103720448D01*
X163951814Y-103637186D01*
X163868552Y-103535729D01*
X163839222Y-103499991D01*
X163829652Y-103482087D01*
X163755557Y-103343467D01*
X163738384Y-103286853D01*
X163704037Y-103173627D01*
X163686641Y-102997000D01*
X163704037Y-102820373D01*
X163755557Y-102650534D01*
X163755557Y-102650533D01*
X163839221Y-102494011D01*
X163839222Y-102494009D01*
X163868552Y-102458271D01*
X163951814Y-102356814D01*
X164053271Y-102273552D01*
X164089009Y-102244222D01*
X164106913Y-102234652D01*
X164245533Y-102160557D01*
X164302147Y-102143384D01*
X164415373Y-102109037D01*
X164481558Y-102102518D01*
X164547740Y-102096000D01*
X164636260Y-102096000D01*
X164702443Y-102102519D01*
X164702443Y-102102519D01*
G37*
G36*
X149462443Y-102102519D02*
X149528627Y-102109037D01*
X149641853Y-102143384D01*
X149698467Y-102160557D01*
X149837087Y-102234652D01*
X149854991Y-102244222D01*
X149890729Y-102273552D01*
X149992186Y-102356814D01*
X150075448Y-102458271D01*
X150104778Y-102494009D01*
X150104779Y-102494011D01*
X150188443Y-102650533D01*
X150188443Y-102650534D01*
X150239963Y-102820373D01*
X150257359Y-102997000D01*
X150239963Y-103173627D01*
X150205616Y-103286853D01*
X150188443Y-103343467D01*
X150114348Y-103482087D01*
X150104778Y-103499991D01*
X150075448Y-103535729D01*
X149992186Y-103637186D01*
X149890729Y-103720448D01*
X149854991Y-103749778D01*
X149854989Y-103749779D01*
X149698467Y-103833443D01*
X149641853Y-103850616D01*
X149528627Y-103884963D01*
X149462442Y-103891482D01*
X149396260Y-103898000D01*
X149307740Y-103898000D01*
X149241557Y-103891481D01*
X149175373Y-103884963D01*
X149062147Y-103850616D01*
X149005533Y-103833443D01*
X148849011Y-103749779D01*
X148849009Y-103749778D01*
X148813271Y-103720448D01*
X148711814Y-103637186D01*
X148628552Y-103535729D01*
X148599222Y-103499991D01*
X148589652Y-103482087D01*
X148515557Y-103343467D01*
X148498384Y-103286853D01*
X148464037Y-103173627D01*
X148446641Y-102997000D01*
X148464037Y-102820373D01*
X148515557Y-102650534D01*
X148515557Y-102650533D01*
X148599221Y-102494011D01*
X148599222Y-102494009D01*
X148628552Y-102458271D01*
X148711814Y-102356814D01*
X148813271Y-102273552D01*
X148849009Y-102244222D01*
X148866913Y-102234652D01*
X149005533Y-102160557D01*
X149062147Y-102143384D01*
X149175373Y-102109037D01*
X149241558Y-102102518D01*
X149307740Y-102096000D01*
X149396260Y-102096000D01*
X149462443Y-102102519D01*
X149462443Y-102102519D01*
G37*
G36*
X131877000Y-102669000D02*
X126695000Y-102669000D01*
X126695000Y-100147000D01*
X131877000Y-100147000D01*
X131877000Y-102669000D01*
X131877000Y-102669000D01*
G37*
G36*
X182895331Y-97580211D02*
X183223092Y-97715974D01*
X183518073Y-97913074D01*
X183768926Y-98163927D01*
X183966026Y-98458908D01*
X184101789Y-98786669D01*
X184171000Y-99134616D01*
X184171000Y-99489384D01*
X184101789Y-99837331D01*
X183966026Y-100165092D01*
X183768926Y-100460073D01*
X183518073Y-100710926D01*
X183223092Y-100908026D01*
X182895331Y-101043789D01*
X182547384Y-101113000D01*
X182192616Y-101113000D01*
X181844669Y-101043789D01*
X181516908Y-100908026D01*
X181221927Y-100710926D01*
X180971074Y-100460073D01*
X180773974Y-100165092D01*
X180638211Y-99837331D01*
X180569000Y-99489384D01*
X180569000Y-99134616D01*
X180638211Y-98786669D01*
X180773974Y-98458908D01*
X180971074Y-98163927D01*
X181221927Y-97913074D01*
X181516908Y-97715974D01*
X181844669Y-97580211D01*
X182192616Y-97511000D01*
X182547384Y-97511000D01*
X182895331Y-97580211D01*
X182895331Y-97580211D01*
G37*
G36*
X176295331Y-97580211D02*
X176623092Y-97715974D01*
X176918073Y-97913074D01*
X177168926Y-98163927D01*
X177366026Y-98458908D01*
X177501789Y-98786669D01*
X177571000Y-99134616D01*
X177571000Y-99489384D01*
X177501789Y-99837331D01*
X177366026Y-100165092D01*
X177168926Y-100460073D01*
X176918073Y-100710926D01*
X176623092Y-100908026D01*
X176295331Y-101043789D01*
X175947384Y-101113000D01*
X175592616Y-101113000D01*
X175244669Y-101043789D01*
X174916908Y-100908026D01*
X174621927Y-100710926D01*
X174371074Y-100460073D01*
X174173974Y-100165092D01*
X174038211Y-99837331D01*
X173969000Y-99489384D01*
X173969000Y-99134616D01*
X174038211Y-98786669D01*
X174173974Y-98458908D01*
X174371074Y-98163927D01*
X174621927Y-97913074D01*
X174916908Y-97715974D01*
X175244669Y-97580211D01*
X175592616Y-97511000D01*
X175947384Y-97511000D01*
X176295331Y-97580211D01*
X176295331Y-97580211D01*
G37*
G36*
X131877000Y-98224000D02*
X126695000Y-98224000D01*
X126695000Y-95832000D01*
X131877000Y-95832000D01*
X131877000Y-98224000D01*
X131877000Y-98224000D01*
G37*
G36*
X135281811Y-95047105D02*
X135320867Y-95058953D01*
X135356863Y-95078193D01*
X135388414Y-95104086D01*
X135414307Y-95135637D01*
X135433547Y-95171633D01*
X135445395Y-95210689D01*
X135450000Y-95257449D01*
X135450000Y-96004551D01*
X135445395Y-96051311D01*
X135433547Y-96090367D01*
X135414307Y-96126363D01*
X135388414Y-96157914D01*
X135356863Y-96183807D01*
X135320867Y-96203047D01*
X135281811Y-96214895D01*
X135239092Y-96219102D01*
X135215059Y-96223882D01*
X135192420Y-96233260D01*
X135172045Y-96246874D01*
X135154718Y-96264201D01*
X135141104Y-96284575D01*
X135131727Y-96307214D01*
X135126946Y-96331248D01*
X135126946Y-96355752D01*
X135131726Y-96379785D01*
X135141104Y-96402424D01*
X135154718Y-96422799D01*
X135172045Y-96440126D01*
X135192419Y-96453740D01*
X135215058Y-96463117D01*
X135239092Y-96467898D01*
X135281811Y-96472105D01*
X135320867Y-96483953D01*
X135356863Y-96503193D01*
X135388414Y-96529086D01*
X135414307Y-96560637D01*
X135433547Y-96596633D01*
X135445395Y-96635689D01*
X135450000Y-96682449D01*
X135450000Y-97429551D01*
X135445395Y-97476311D01*
X135433547Y-97515367D01*
X135414307Y-97551363D01*
X135388414Y-97582914D01*
X135356863Y-97608807D01*
X135320867Y-97628047D01*
X135281811Y-97639895D01*
X135235051Y-97644500D01*
X134512949Y-97644500D01*
X134466189Y-97639895D01*
X134427133Y-97628047D01*
X134391137Y-97608807D01*
X134359586Y-97582914D01*
X134333693Y-97551363D01*
X134314453Y-97515367D01*
X134302605Y-97476311D01*
X134298000Y-97429551D01*
X134298000Y-96682449D01*
X134302605Y-96635689D01*
X134314453Y-96596633D01*
X134333693Y-96560637D01*
X134359586Y-96529086D01*
X134391137Y-96503193D01*
X134427133Y-96483953D01*
X134466189Y-96472105D01*
X134508908Y-96467898D01*
X134532941Y-96463118D01*
X134555580Y-96453740D01*
X134575955Y-96440126D01*
X134593282Y-96422799D01*
X134606896Y-96402425D01*
X134616273Y-96379786D01*
X134621054Y-96355752D01*
X134621054Y-96331248D01*
X134616274Y-96307215D01*
X134606896Y-96284576D01*
X134593282Y-96264201D01*
X134575955Y-96246874D01*
X134555581Y-96233260D01*
X134532942Y-96223883D01*
X134508908Y-96219102D01*
X134466189Y-96214895D01*
X134427133Y-96203047D01*
X134391137Y-96183807D01*
X134359586Y-96157914D01*
X134333693Y-96126363D01*
X134314453Y-96090367D01*
X134302605Y-96051311D01*
X134298000Y-96004551D01*
X134298000Y-95257449D01*
X134302605Y-95210689D01*
X134314453Y-95171633D01*
X134333693Y-95135637D01*
X134359586Y-95104086D01*
X134391137Y-95078193D01*
X134427133Y-95058953D01*
X134466189Y-95047105D01*
X134512949Y-95042500D01*
X135235051Y-95042500D01*
X135281811Y-95047105D01*
X135281811Y-95047105D01*
G37*
G36*
X179376565Y-95001389D02*
X179567834Y-95080615D01*
X179739976Y-95195637D01*
X179886363Y-95342024D01*
X180001385Y-95514166D01*
X180080611Y-95705435D01*
X180121000Y-95908484D01*
X180121000Y-96115516D01*
X180080611Y-96318565D01*
X180001385Y-96509834D01*
X179886363Y-96681976D01*
X179739976Y-96828363D01*
X179567834Y-96943385D01*
X179376565Y-97022611D01*
X179173516Y-97063000D01*
X178966484Y-97063000D01*
X178763435Y-97022611D01*
X178572166Y-96943385D01*
X178400024Y-96828363D01*
X178253637Y-96681976D01*
X178138615Y-96509834D01*
X178059389Y-96318565D01*
X178019000Y-96115516D01*
X178019000Y-95908484D01*
X178059389Y-95705435D01*
X178138615Y-95514166D01*
X178253637Y-95342024D01*
X178400024Y-95195637D01*
X178572166Y-95080615D01*
X178763435Y-95001389D01*
X178966484Y-94961000D01*
X179173516Y-94961000D01*
X179376565Y-95001389D01*
X179376565Y-95001389D01*
G37*
G36*
X163701591Y-95299085D02*
X163735569Y-95309393D01*
X163766887Y-95326133D01*
X163794339Y-95348661D01*
X163816867Y-95376113D01*
X163833607Y-95407431D01*
X163843915Y-95441409D01*
X163848000Y-95482890D01*
X163848000Y-96084110D01*
X163843915Y-96125591D01*
X163833607Y-96159569D01*
X163816867Y-96190887D01*
X163794339Y-96218339D01*
X163766887Y-96240867D01*
X163735569Y-96257607D01*
X163701591Y-96267915D01*
X163660110Y-96272000D01*
X162983890Y-96272000D01*
X162942409Y-96267915D01*
X162908431Y-96257607D01*
X162877113Y-96240867D01*
X162849661Y-96218339D01*
X162827133Y-96190887D01*
X162810393Y-96159569D01*
X162800085Y-96125591D01*
X162796000Y-96084110D01*
X162796000Y-95482890D01*
X162800085Y-95441409D01*
X162810393Y-95407431D01*
X162827133Y-95376113D01*
X162849661Y-95348661D01*
X162877113Y-95326133D01*
X162908431Y-95309393D01*
X162942409Y-95299085D01*
X162983890Y-95295000D01*
X163660110Y-95295000D01*
X163701591Y-95299085D01*
X163701591Y-95299085D01*
G37*
G36*
X146683591Y-94308585D02*
X146717569Y-94318893D01*
X146748887Y-94335633D01*
X146776339Y-94358161D01*
X146798867Y-94385613D01*
X146815607Y-94416931D01*
X146825915Y-94450909D01*
X146830000Y-94492390D01*
X146830000Y-95093610D01*
X146825915Y-95135091D01*
X146815607Y-95169069D01*
X146798867Y-95200387D01*
X146776339Y-95227839D01*
X146748887Y-95250367D01*
X146717569Y-95267107D01*
X146683591Y-95277415D01*
X146642110Y-95281500D01*
X145965890Y-95281500D01*
X145924409Y-95277415D01*
X145890431Y-95267107D01*
X145859113Y-95250367D01*
X145831661Y-95227839D01*
X145809133Y-95200387D01*
X145792393Y-95169069D01*
X145782085Y-95135091D01*
X145778000Y-95093610D01*
X145778000Y-94492390D01*
X145782085Y-94450909D01*
X145792393Y-94416931D01*
X145809133Y-94385613D01*
X145831661Y-94358161D01*
X145859113Y-94335633D01*
X145890431Y-94318893D01*
X145924409Y-94308585D01*
X145965890Y-94304500D01*
X146642110Y-94304500D01*
X146683591Y-94308585D01*
X146683591Y-94308585D01*
G37*
G36*
X148334591Y-94283085D02*
X148368569Y-94293393D01*
X148399887Y-94310133D01*
X148427339Y-94332661D01*
X148449867Y-94360113D01*
X148466607Y-94391431D01*
X148476915Y-94425409D01*
X148481000Y-94466890D01*
X148481000Y-95068110D01*
X148476915Y-95109591D01*
X148466607Y-95143569D01*
X148449867Y-95174887D01*
X148427339Y-95202339D01*
X148399887Y-95224867D01*
X148368569Y-95241607D01*
X148334591Y-95251915D01*
X148293110Y-95256000D01*
X147616890Y-95256000D01*
X147575409Y-95251915D01*
X147541431Y-95241607D01*
X147510113Y-95224867D01*
X147482661Y-95202339D01*
X147460133Y-95174887D01*
X147443393Y-95143569D01*
X147433085Y-95109591D01*
X147429000Y-95068110D01*
X147429000Y-94466890D01*
X147433085Y-94425409D01*
X147443393Y-94391431D01*
X147460133Y-94360113D01*
X147482661Y-94332661D01*
X147510113Y-94310133D01*
X147541431Y-94293393D01*
X147575409Y-94283085D01*
X147616890Y-94279000D01*
X148293110Y-94279000D01*
X148334591Y-94283085D01*
X148334591Y-94283085D01*
G37*
G36*
X145032591Y-94283085D02*
X145066569Y-94293393D01*
X145097887Y-94310133D01*
X145125339Y-94332661D01*
X145147867Y-94360113D01*
X145164607Y-94391431D01*
X145174915Y-94425409D01*
X145179000Y-94466890D01*
X145179000Y-95068110D01*
X145174915Y-95109591D01*
X145164607Y-95143569D01*
X145147867Y-95174887D01*
X145125339Y-95202339D01*
X145097887Y-95224867D01*
X145066569Y-95241607D01*
X145032591Y-95251915D01*
X144991110Y-95256000D01*
X144314890Y-95256000D01*
X144273409Y-95251915D01*
X144239431Y-95241607D01*
X144208113Y-95224867D01*
X144180661Y-95202339D01*
X144158133Y-95174887D01*
X144141393Y-95143569D01*
X144131085Y-95109591D01*
X144127000Y-95068110D01*
X144127000Y-94466890D01*
X144131085Y-94425409D01*
X144141393Y-94391431D01*
X144158133Y-94360113D01*
X144180661Y-94332661D01*
X144208113Y-94310133D01*
X144239431Y-94293393D01*
X144273409Y-94283085D01*
X144314890Y-94279000D01*
X144991110Y-94279000D01*
X145032591Y-94283085D01*
X145032591Y-94283085D01*
G37*
G36*
X156462591Y-94283085D02*
X156496569Y-94293393D01*
X156527887Y-94310133D01*
X156555339Y-94332661D01*
X156577867Y-94360113D01*
X156594607Y-94391431D01*
X156604915Y-94425409D01*
X156609000Y-94466890D01*
X156609000Y-95068110D01*
X156604915Y-95109591D01*
X156594607Y-95143569D01*
X156577867Y-95174887D01*
X156555339Y-95202339D01*
X156527887Y-95224867D01*
X156496569Y-95241607D01*
X156462591Y-95251915D01*
X156421110Y-95256000D01*
X155744890Y-95256000D01*
X155703409Y-95251915D01*
X155669431Y-95241607D01*
X155638113Y-95224867D01*
X155610661Y-95202339D01*
X155588133Y-95174887D01*
X155571393Y-95143569D01*
X155561085Y-95109591D01*
X155557000Y-95068110D01*
X155557000Y-94466890D01*
X155561085Y-94425409D01*
X155571393Y-94391431D01*
X155588133Y-94360113D01*
X155610661Y-94332661D01*
X155638113Y-94310133D01*
X155669431Y-94293393D01*
X155703409Y-94283085D01*
X155744890Y-94279000D01*
X156421110Y-94279000D01*
X156462591Y-94283085D01*
X156462591Y-94283085D01*
G37*
G36*
X154811591Y-94283085D02*
X154845569Y-94293393D01*
X154876887Y-94310133D01*
X154904339Y-94332661D01*
X154926867Y-94360113D01*
X154943607Y-94391431D01*
X154953915Y-94425409D01*
X154958000Y-94466890D01*
X154958000Y-95068110D01*
X154953915Y-95109591D01*
X154943607Y-95143569D01*
X154926867Y-95174887D01*
X154904339Y-95202339D01*
X154876887Y-95224867D01*
X154845569Y-95241607D01*
X154811591Y-95251915D01*
X154770110Y-95256000D01*
X154093890Y-95256000D01*
X154052409Y-95251915D01*
X154018431Y-95241607D01*
X153987113Y-95224867D01*
X153959661Y-95202339D01*
X153937133Y-95174887D01*
X153920393Y-95143569D01*
X153910085Y-95109591D01*
X153906000Y-95068110D01*
X153906000Y-94466890D01*
X153910085Y-94425409D01*
X153920393Y-94391431D01*
X153937133Y-94360113D01*
X153959661Y-94332661D01*
X153987113Y-94310133D01*
X154018431Y-94293393D01*
X154052409Y-94283085D01*
X154093890Y-94279000D01*
X154770110Y-94279000D01*
X154811591Y-94283085D01*
X154811591Y-94283085D01*
G37*
G36*
X158113591Y-94283085D02*
X158147569Y-94293393D01*
X158178887Y-94310133D01*
X158206339Y-94332661D01*
X158228867Y-94360113D01*
X158245607Y-94391431D01*
X158255915Y-94425409D01*
X158260000Y-94466890D01*
X158260000Y-95068110D01*
X158255915Y-95109591D01*
X158245607Y-95143569D01*
X158228867Y-95174887D01*
X158206339Y-95202339D01*
X158178887Y-95224867D01*
X158147569Y-95241607D01*
X158113591Y-95251915D01*
X158072110Y-95256000D01*
X157395890Y-95256000D01*
X157354409Y-95251915D01*
X157320431Y-95241607D01*
X157289113Y-95224867D01*
X157261661Y-95202339D01*
X157239133Y-95174887D01*
X157222393Y-95143569D01*
X157212085Y-95109591D01*
X157208000Y-95068110D01*
X157208000Y-94466890D01*
X157212085Y-94425409D01*
X157222393Y-94391431D01*
X157239133Y-94360113D01*
X157261661Y-94332661D01*
X157289113Y-94310133D01*
X157320431Y-94293393D01*
X157354409Y-94283085D01*
X157395890Y-94279000D01*
X158072110Y-94279000D01*
X158113591Y-94283085D01*
X158113591Y-94283085D01*
G37*
G36*
X163701591Y-93724085D02*
X163735569Y-93734393D01*
X163766887Y-93751133D01*
X163794339Y-93773661D01*
X163816867Y-93801113D01*
X163833607Y-93832431D01*
X163843915Y-93866409D01*
X163848000Y-93907890D01*
X163848000Y-94509110D01*
X163843915Y-94550591D01*
X163833607Y-94584569D01*
X163816867Y-94615887D01*
X163794339Y-94643339D01*
X163766887Y-94665867D01*
X163735569Y-94682607D01*
X163701591Y-94692915D01*
X163660110Y-94697000D01*
X162983890Y-94697000D01*
X162942409Y-94692915D01*
X162908431Y-94682607D01*
X162877113Y-94665867D01*
X162849661Y-94643339D01*
X162827133Y-94615887D01*
X162810393Y-94584569D01*
X162800085Y-94550591D01*
X162796000Y-94509110D01*
X162796000Y-93907890D01*
X162800085Y-93866409D01*
X162810393Y-93832431D01*
X162827133Y-93801113D01*
X162849661Y-93773661D01*
X162877113Y-93751133D01*
X162908431Y-93734393D01*
X162942409Y-93724085D01*
X162983890Y-93720000D01*
X163660110Y-93720000D01*
X163701591Y-93724085D01*
X163701591Y-93724085D01*
G37*
G36*
X182895331Y-90980211D02*
X183223092Y-91115974D01*
X183518073Y-91313074D01*
X183768926Y-91563927D01*
X183966026Y-91858908D01*
X184101789Y-92186669D01*
X184171000Y-92534616D01*
X184171000Y-92889384D01*
X184101789Y-93237331D01*
X183966026Y-93565092D01*
X183768926Y-93860073D01*
X183518073Y-94110926D01*
X183223092Y-94308026D01*
X182895331Y-94443789D01*
X182547384Y-94513000D01*
X182192616Y-94513000D01*
X181844669Y-94443789D01*
X181516908Y-94308026D01*
X181221927Y-94110926D01*
X180971074Y-93860073D01*
X180773974Y-93565092D01*
X180638211Y-93237331D01*
X180569000Y-92889384D01*
X180569000Y-92534616D01*
X180638211Y-92186669D01*
X180773974Y-91858908D01*
X180971074Y-91563927D01*
X181221927Y-91313074D01*
X181516908Y-91115974D01*
X181844669Y-90980211D01*
X182192616Y-90911000D01*
X182547384Y-90911000D01*
X182895331Y-90980211D01*
X182895331Y-90980211D01*
G37*
G36*
X176295331Y-90980211D02*
X176623092Y-91115974D01*
X176918073Y-91313074D01*
X177168926Y-91563927D01*
X177366026Y-91858908D01*
X177501789Y-92186669D01*
X177571000Y-92534616D01*
X177571000Y-92889384D01*
X177501789Y-93237331D01*
X177366026Y-93565092D01*
X177168926Y-93860073D01*
X176918073Y-94110926D01*
X176623092Y-94308026D01*
X176295331Y-94443789D01*
X175947384Y-94513000D01*
X175592616Y-94513000D01*
X175244669Y-94443789D01*
X174916908Y-94308026D01*
X174621927Y-94110926D01*
X174371074Y-93860073D01*
X174173974Y-93565092D01*
X174038211Y-93237331D01*
X173969000Y-92889384D01*
X173969000Y-92534616D01*
X174038211Y-92186669D01*
X174173974Y-91858908D01*
X174371074Y-91563927D01*
X174621927Y-91313074D01*
X174916908Y-91115974D01*
X175244669Y-90980211D01*
X175592616Y-90911000D01*
X175947384Y-90911000D01*
X176295331Y-90980211D01*
X176295331Y-90980211D01*
G37*
G36*
X131877000Y-93909000D02*
X126695000Y-93909000D01*
X126695000Y-91387000D01*
X131877000Y-91387000D01*
X131877000Y-93909000D01*
X131877000Y-93909000D01*
G37*
G36*
X146683591Y-92733585D02*
X146717569Y-92743893D01*
X146748887Y-92760633D01*
X146776339Y-92783161D01*
X146798867Y-92810613D01*
X146815607Y-92841931D01*
X146825915Y-92875909D01*
X146830000Y-92917390D01*
X146830000Y-93518610D01*
X146825915Y-93560091D01*
X146815607Y-93594069D01*
X146798867Y-93625387D01*
X146776339Y-93652839D01*
X146748887Y-93675367D01*
X146717569Y-93692107D01*
X146683591Y-93702415D01*
X146642110Y-93706500D01*
X145965890Y-93706500D01*
X145924409Y-93702415D01*
X145890431Y-93692107D01*
X145859113Y-93675367D01*
X145831661Y-93652839D01*
X145809133Y-93625387D01*
X145792393Y-93594069D01*
X145782085Y-93560091D01*
X145778000Y-93518610D01*
X145778000Y-92917390D01*
X145782085Y-92875909D01*
X145792393Y-92841931D01*
X145809133Y-92810613D01*
X145831661Y-92783161D01*
X145859113Y-92760633D01*
X145890431Y-92743893D01*
X145924409Y-92733585D01*
X145965890Y-92729500D01*
X146642110Y-92729500D01*
X146683591Y-92733585D01*
X146683591Y-92733585D01*
G37*
G36*
X148334591Y-92708085D02*
X148368569Y-92718393D01*
X148399887Y-92735133D01*
X148427339Y-92757661D01*
X148449867Y-92785113D01*
X148466607Y-92816431D01*
X148476915Y-92850409D01*
X148481000Y-92891890D01*
X148481000Y-93493110D01*
X148476915Y-93534591D01*
X148466607Y-93568569D01*
X148449867Y-93599887D01*
X148427339Y-93627339D01*
X148399887Y-93649867D01*
X148368569Y-93666607D01*
X148334591Y-93676915D01*
X148293110Y-93681000D01*
X147616890Y-93681000D01*
X147575409Y-93676915D01*
X147541431Y-93666607D01*
X147510113Y-93649867D01*
X147482661Y-93627339D01*
X147460133Y-93599887D01*
X147443393Y-93568569D01*
X147433085Y-93534591D01*
X147429000Y-93493110D01*
X147429000Y-92891890D01*
X147433085Y-92850409D01*
X147443393Y-92816431D01*
X147460133Y-92785113D01*
X147482661Y-92757661D01*
X147510113Y-92735133D01*
X147541431Y-92718393D01*
X147575409Y-92708085D01*
X147616890Y-92704000D01*
X148293110Y-92704000D01*
X148334591Y-92708085D01*
X148334591Y-92708085D01*
G37*
G36*
X156462591Y-92708085D02*
X156496569Y-92718393D01*
X156527887Y-92735133D01*
X156555339Y-92757661D01*
X156577867Y-92785113D01*
X156594607Y-92816431D01*
X156604915Y-92850409D01*
X156609000Y-92891890D01*
X156609000Y-93493110D01*
X156604915Y-93534591D01*
X156594607Y-93568569D01*
X156577867Y-93599887D01*
X156555339Y-93627339D01*
X156527887Y-93649867D01*
X156496569Y-93666607D01*
X156462591Y-93676915D01*
X156421110Y-93681000D01*
X155744890Y-93681000D01*
X155703409Y-93676915D01*
X155669431Y-93666607D01*
X155638113Y-93649867D01*
X155610661Y-93627339D01*
X155588133Y-93599887D01*
X155571393Y-93568569D01*
X155561085Y-93534591D01*
X155557000Y-93493110D01*
X155557000Y-92891890D01*
X155561085Y-92850409D01*
X155571393Y-92816431D01*
X155588133Y-92785113D01*
X155610661Y-92757661D01*
X155638113Y-92735133D01*
X155669431Y-92718393D01*
X155703409Y-92708085D01*
X155744890Y-92704000D01*
X156421110Y-92704000D01*
X156462591Y-92708085D01*
X156462591Y-92708085D01*
G37*
G36*
X158113591Y-92708085D02*
X158147569Y-92718393D01*
X158178887Y-92735133D01*
X158206339Y-92757661D01*
X158228867Y-92785113D01*
X158245607Y-92816431D01*
X158255915Y-92850409D01*
X158260000Y-92891890D01*
X158260000Y-93493110D01*
X158255915Y-93534591D01*
X158245607Y-93568569D01*
X158228867Y-93599887D01*
X158206339Y-93627339D01*
X158178887Y-93649867D01*
X158147569Y-93666607D01*
X158113591Y-93676915D01*
X158072110Y-93681000D01*
X157395890Y-93681000D01*
X157354409Y-93676915D01*
X157320431Y-93666607D01*
X157289113Y-93649867D01*
X157261661Y-93627339D01*
X157239133Y-93599887D01*
X157222393Y-93568569D01*
X157212085Y-93534591D01*
X157208000Y-93493110D01*
X157208000Y-92891890D01*
X157212085Y-92850409D01*
X157222393Y-92816431D01*
X157239133Y-92785113D01*
X157261661Y-92757661D01*
X157289113Y-92735133D01*
X157320431Y-92718393D01*
X157354409Y-92708085D01*
X157395890Y-92704000D01*
X158072110Y-92704000D01*
X158113591Y-92708085D01*
X158113591Y-92708085D01*
G37*
G36*
X154811591Y-92708085D02*
X154845569Y-92718393D01*
X154876887Y-92735133D01*
X154904339Y-92757661D01*
X154926867Y-92785113D01*
X154943607Y-92816431D01*
X154953915Y-92850409D01*
X154958000Y-92891890D01*
X154958000Y-93493110D01*
X154953915Y-93534591D01*
X154943607Y-93568569D01*
X154926867Y-93599887D01*
X154904339Y-93627339D01*
X154876887Y-93649867D01*
X154845569Y-93666607D01*
X154811591Y-93676915D01*
X154770110Y-93681000D01*
X154093890Y-93681000D01*
X154052409Y-93676915D01*
X154018431Y-93666607D01*
X153987113Y-93649867D01*
X153959661Y-93627339D01*
X153937133Y-93599887D01*
X153920393Y-93568569D01*
X153910085Y-93534591D01*
X153906000Y-93493110D01*
X153906000Y-92891890D01*
X153910085Y-92850409D01*
X153920393Y-92816431D01*
X153937133Y-92785113D01*
X153959661Y-92757661D01*
X153987113Y-92735133D01*
X154018431Y-92718393D01*
X154052409Y-92708085D01*
X154093890Y-92704000D01*
X154770110Y-92704000D01*
X154811591Y-92708085D01*
X154811591Y-92708085D01*
G37*
G36*
X145032591Y-92708085D02*
X145066569Y-92718393D01*
X145097887Y-92735133D01*
X145125339Y-92757661D01*
X145147867Y-92785113D01*
X145164607Y-92816431D01*
X145174915Y-92850409D01*
X145179000Y-92891890D01*
X145179000Y-93493110D01*
X145174915Y-93534591D01*
X145164607Y-93568569D01*
X145147867Y-93599887D01*
X145125339Y-93627339D01*
X145097887Y-93649867D01*
X145066569Y-93666607D01*
X145032591Y-93676915D01*
X144991110Y-93681000D01*
X144314890Y-93681000D01*
X144273409Y-93676915D01*
X144239431Y-93666607D01*
X144208113Y-93649867D01*
X144180661Y-93627339D01*
X144158133Y-93599887D01*
X144141393Y-93568569D01*
X144131085Y-93534591D01*
X144127000Y-93493110D01*
X144127000Y-92891890D01*
X144131085Y-92850409D01*
X144141393Y-92816431D01*
X144158133Y-92785113D01*
X144180661Y-92757661D01*
X144208113Y-92735133D01*
X144239431Y-92718393D01*
X144273409Y-92708085D01*
X144314890Y-92704000D01*
X144991110Y-92704000D01*
X145032591Y-92708085D01*
X145032591Y-92708085D01*
G37*
G36*
X152379238Y-89232598D02*
X152381259Y-89233000D01*
X152424922Y-89241685D01*
X152466051Y-89258721D01*
X152503067Y-89283454D01*
X152534546Y-89314933D01*
X152559279Y-89351949D01*
X152559281Y-89351953D01*
X152559610Y-89352446D01*
X152575156Y-89371389D01*
X152585000Y-89379468D01*
X152585000Y-90335000D01*
X150183000Y-90335000D01*
X150183000Y-89379467D01*
X150192844Y-89371388D01*
X150208390Y-89352446D01*
X150208719Y-89351953D01*
X150208721Y-89351949D01*
X150233454Y-89314933D01*
X150264933Y-89283454D01*
X150301949Y-89258721D01*
X150343078Y-89241685D01*
X150386741Y-89233000D01*
X150388762Y-89232598D01*
X150409000Y-89226459D01*
X150429238Y-89232598D01*
X150431259Y-89233000D01*
X150474922Y-89241685D01*
X150516051Y-89258721D01*
X150553067Y-89283454D01*
X150584546Y-89314933D01*
X150609279Y-89351949D01*
X150609281Y-89351953D01*
X150609610Y-89352446D01*
X150625156Y-89371389D01*
X150644098Y-89386934D01*
X150665709Y-89398485D01*
X150689158Y-89405598D01*
X150713544Y-89408000D01*
X150754456Y-89408000D01*
X150778842Y-89405598D01*
X150802291Y-89398485D01*
X150823902Y-89386934D01*
X150842844Y-89371388D01*
X150858390Y-89352446D01*
X150858719Y-89351953D01*
X150858721Y-89351949D01*
X150883454Y-89314933D01*
X150914933Y-89283454D01*
X150951949Y-89258721D01*
X150993078Y-89241685D01*
X151036741Y-89233000D01*
X151038762Y-89232598D01*
X151059000Y-89226459D01*
X151079238Y-89232598D01*
X151081259Y-89233000D01*
X151124922Y-89241685D01*
X151166051Y-89258721D01*
X151203067Y-89283454D01*
X151234546Y-89314933D01*
X151259279Y-89351949D01*
X151259281Y-89351953D01*
X151259610Y-89352446D01*
X151275156Y-89371389D01*
X151294098Y-89386934D01*
X151315709Y-89398485D01*
X151339158Y-89405598D01*
X151363544Y-89408000D01*
X151404456Y-89408000D01*
X151428842Y-89405598D01*
X151452291Y-89398485D01*
X151473902Y-89386934D01*
X151492844Y-89371388D01*
X151508390Y-89352446D01*
X151508719Y-89351953D01*
X151508721Y-89351949D01*
X151533454Y-89314933D01*
X151564933Y-89283454D01*
X151601949Y-89258721D01*
X151643078Y-89241685D01*
X151686741Y-89233000D01*
X151688762Y-89232598D01*
X151709000Y-89226459D01*
X151729238Y-89232598D01*
X151731259Y-89233000D01*
X151774922Y-89241685D01*
X151816051Y-89258721D01*
X151853067Y-89283454D01*
X151884546Y-89314933D01*
X151909279Y-89351949D01*
X151909281Y-89351953D01*
X151909610Y-89352446D01*
X151925156Y-89371389D01*
X151944098Y-89386934D01*
X151965709Y-89398485D01*
X151989158Y-89405598D01*
X152013544Y-89408000D01*
X152054456Y-89408000D01*
X152078842Y-89405598D01*
X152102291Y-89398485D01*
X152123902Y-89386934D01*
X152142844Y-89371388D01*
X152158390Y-89352446D01*
X152158719Y-89351953D01*
X152158721Y-89351949D01*
X152183454Y-89314933D01*
X152214933Y-89283454D01*
X152251949Y-89258721D01*
X152293078Y-89241685D01*
X152336741Y-89233000D01*
X152338762Y-89232598D01*
X152359000Y-89226459D01*
X152379238Y-89232598D01*
X152379238Y-89232598D01*
G37*
G36*
X146683591Y-89203085D02*
X146717569Y-89213393D01*
X146748887Y-89230133D01*
X146776339Y-89252661D01*
X146798867Y-89280113D01*
X146815607Y-89311431D01*
X146825915Y-89345409D01*
X146830000Y-89386890D01*
X146830000Y-89988110D01*
X146825915Y-90029591D01*
X146815607Y-90063569D01*
X146798867Y-90094887D01*
X146776339Y-90122339D01*
X146748887Y-90144867D01*
X146717569Y-90161607D01*
X146683591Y-90171915D01*
X146642110Y-90176000D01*
X145965890Y-90176000D01*
X145924409Y-90171915D01*
X145890431Y-90161607D01*
X145859113Y-90144867D01*
X145831661Y-90122339D01*
X145809133Y-90094887D01*
X145792393Y-90063569D01*
X145782085Y-90029591D01*
X145778000Y-89988110D01*
X145778000Y-89386890D01*
X145782085Y-89345409D01*
X145792393Y-89311431D01*
X145809133Y-89280113D01*
X145831661Y-89252661D01*
X145859113Y-89230133D01*
X145890431Y-89213393D01*
X145924409Y-89203085D01*
X145965890Y-89199000D01*
X146642110Y-89199000D01*
X146683591Y-89203085D01*
X146683591Y-89203085D01*
G37*
G36*
X156679811Y-88963605D02*
X156718867Y-88975453D01*
X156754863Y-88994693D01*
X156786414Y-89020586D01*
X156812307Y-89052137D01*
X156831547Y-89088133D01*
X156843395Y-89127189D01*
X156847602Y-89169908D01*
X156852382Y-89193941D01*
X156861760Y-89216580D01*
X156875374Y-89236955D01*
X156892701Y-89254282D01*
X156913075Y-89267896D01*
X156935714Y-89277273D01*
X156959748Y-89282054D01*
X156984252Y-89282054D01*
X157008285Y-89277274D01*
X157030924Y-89267896D01*
X157051299Y-89254282D01*
X157068626Y-89236955D01*
X157082240Y-89216581D01*
X157091617Y-89193942D01*
X157096398Y-89169908D01*
X157100605Y-89127189D01*
X157112453Y-89088133D01*
X157131693Y-89052137D01*
X157157586Y-89020586D01*
X157189137Y-88994693D01*
X157225133Y-88975453D01*
X157264189Y-88963605D01*
X157310949Y-88959000D01*
X158058051Y-88959000D01*
X158104811Y-88963605D01*
X158143867Y-88975453D01*
X158179863Y-88994693D01*
X158211414Y-89020586D01*
X158237307Y-89052137D01*
X158256547Y-89088133D01*
X158268395Y-89127189D01*
X158273000Y-89173949D01*
X158273000Y-89896051D01*
X158268395Y-89942811D01*
X158256547Y-89981867D01*
X158237307Y-90017863D01*
X158211414Y-90049414D01*
X158179863Y-90075307D01*
X158143867Y-90094547D01*
X158104811Y-90106395D01*
X158058051Y-90111000D01*
X157310949Y-90111000D01*
X157264189Y-90106395D01*
X157225133Y-90094547D01*
X157189137Y-90075307D01*
X157157586Y-90049414D01*
X157131693Y-90017863D01*
X157112453Y-89981867D01*
X157100605Y-89942811D01*
X157096398Y-89900092D01*
X157091618Y-89876059D01*
X157082240Y-89853420D01*
X157068626Y-89833045D01*
X157051299Y-89815718D01*
X157030925Y-89802104D01*
X157008286Y-89792727D01*
X156984252Y-89787946D01*
X156959748Y-89787946D01*
X156935715Y-89792726D01*
X156913076Y-89802104D01*
X156892701Y-89815718D01*
X156875374Y-89833045D01*
X156861760Y-89853419D01*
X156852383Y-89876058D01*
X156847602Y-89900092D01*
X156843395Y-89942811D01*
X156831547Y-89981867D01*
X156812307Y-90017863D01*
X156786414Y-90049414D01*
X156754863Y-90075307D01*
X156718867Y-90094547D01*
X156679811Y-90106395D01*
X156633051Y-90111000D01*
X155885949Y-90111000D01*
X155839189Y-90106395D01*
X155800133Y-90094547D01*
X155764137Y-90075307D01*
X155732586Y-90049414D01*
X155706693Y-90017863D01*
X155687453Y-89981867D01*
X155675605Y-89942811D01*
X155671000Y-89896051D01*
X155671000Y-89173949D01*
X155675605Y-89127189D01*
X155687453Y-89088133D01*
X155706693Y-89052137D01*
X155732586Y-89020586D01*
X155764137Y-88994693D01*
X155800133Y-88975453D01*
X155839189Y-88963605D01*
X155885949Y-88959000D01*
X156633051Y-88959000D01*
X156679811Y-88963605D01*
X156679811Y-88963605D01*
G37*
G36*
X159600091Y-89013085D02*
X159634069Y-89023393D01*
X159665387Y-89040133D01*
X159692839Y-89062661D01*
X159715367Y-89090113D01*
X159732107Y-89121431D01*
X159742415Y-89155409D01*
X159746500Y-89196890D01*
X159746500Y-89873110D01*
X159742415Y-89914591D01*
X159732107Y-89948569D01*
X159715367Y-89979887D01*
X159692839Y-90007339D01*
X159665387Y-90029867D01*
X159634069Y-90046607D01*
X159600091Y-90056915D01*
X159558610Y-90061000D01*
X158957390Y-90061000D01*
X158915909Y-90056915D01*
X158881931Y-90046607D01*
X158850613Y-90029867D01*
X158823161Y-90007339D01*
X158800633Y-89979887D01*
X158783893Y-89948569D01*
X158773585Y-89914591D01*
X158769500Y-89873110D01*
X158769500Y-89196890D01*
X158773585Y-89155409D01*
X158783893Y-89121431D01*
X158800633Y-89090113D01*
X158823161Y-89062661D01*
X158850613Y-89040133D01*
X158881931Y-89023393D01*
X158915909Y-89013085D01*
X158957390Y-89009000D01*
X159558610Y-89009000D01*
X159600091Y-89013085D01*
X159600091Y-89013085D01*
G37*
G36*
X161175091Y-89013085D02*
X161209069Y-89023393D01*
X161240387Y-89040133D01*
X161267839Y-89062661D01*
X161290367Y-89090113D01*
X161307107Y-89121431D01*
X161317415Y-89155409D01*
X161321500Y-89196890D01*
X161321500Y-89873110D01*
X161317415Y-89914591D01*
X161307107Y-89948569D01*
X161290367Y-89979887D01*
X161267839Y-90007339D01*
X161240387Y-90029867D01*
X161209069Y-90046607D01*
X161175091Y-90056915D01*
X161133610Y-90061000D01*
X160532390Y-90061000D01*
X160490909Y-90056915D01*
X160456931Y-90046607D01*
X160425613Y-90029867D01*
X160398161Y-90007339D01*
X160375633Y-89979887D01*
X160358893Y-89948569D01*
X160348585Y-89914591D01*
X160344500Y-89873110D01*
X160344500Y-89196890D01*
X160348585Y-89155409D01*
X160358893Y-89121431D01*
X160375633Y-89090113D01*
X160398161Y-89062661D01*
X160425613Y-89040133D01*
X160456931Y-89023393D01*
X160490909Y-89013085D01*
X160532390Y-89009000D01*
X161133610Y-89009000D01*
X161175091Y-89013085D01*
X161175091Y-89013085D01*
G37*
G36*
X149896612Y-86692844D02*
X149915554Y-86708390D01*
X149916047Y-86708719D01*
X149916051Y-86708721D01*
X149953067Y-86733454D01*
X149984546Y-86764933D01*
X150004528Y-86794839D01*
X150009279Y-86801949D01*
X150026315Y-86843078D01*
X150035402Y-86888762D01*
X150041541Y-86909000D01*
X150035402Y-86929238D01*
X150035000Y-86931259D01*
X150026315Y-86974922D01*
X150009279Y-87016051D01*
X149984546Y-87053067D01*
X149953067Y-87084546D01*
X149916051Y-87109279D01*
X149916047Y-87109281D01*
X149915554Y-87109610D01*
X149896611Y-87125156D01*
X149881066Y-87144098D01*
X149869515Y-87165709D01*
X149862402Y-87189158D01*
X149860000Y-87213544D01*
X149860000Y-87254456D01*
X149862402Y-87278842D01*
X149869515Y-87302291D01*
X149881066Y-87323902D01*
X149896612Y-87342844D01*
X149915554Y-87358390D01*
X149916047Y-87358719D01*
X149916051Y-87358721D01*
X149953067Y-87383454D01*
X149984546Y-87414933D01*
X150005638Y-87446500D01*
X150009279Y-87451949D01*
X150026315Y-87493078D01*
X150035402Y-87538762D01*
X150041541Y-87559000D01*
X150035402Y-87579238D01*
X150035000Y-87581259D01*
X150026315Y-87624922D01*
X150009279Y-87666051D01*
X149984546Y-87703067D01*
X149953067Y-87734546D01*
X149916051Y-87759279D01*
X149916047Y-87759281D01*
X149915554Y-87759610D01*
X149896611Y-87775156D01*
X149881066Y-87794098D01*
X149869515Y-87815709D01*
X149862402Y-87839158D01*
X149860000Y-87863544D01*
X149860000Y-87904456D01*
X149862402Y-87928842D01*
X149869515Y-87952291D01*
X149881066Y-87973902D01*
X149896612Y-87992844D01*
X149915554Y-88008390D01*
X149916047Y-88008719D01*
X149916051Y-88008721D01*
X149953067Y-88033454D01*
X149984546Y-88064933D01*
X150009279Y-88101949D01*
X150026315Y-88143078D01*
X150035402Y-88188762D01*
X150041541Y-88209000D01*
X150035402Y-88229238D01*
X150035000Y-88231259D01*
X150026315Y-88274922D01*
X150009279Y-88316051D01*
X149984546Y-88353067D01*
X149953067Y-88384546D01*
X149916051Y-88409279D01*
X149916047Y-88409281D01*
X149915554Y-88409610D01*
X149896611Y-88425156D01*
X149881066Y-88444098D01*
X149869515Y-88465709D01*
X149862402Y-88489158D01*
X149860000Y-88513544D01*
X149860000Y-88554456D01*
X149862402Y-88578842D01*
X149869515Y-88602291D01*
X149881066Y-88623902D01*
X149896612Y-88642844D01*
X149915554Y-88658390D01*
X149916047Y-88658719D01*
X149916051Y-88658721D01*
X149953067Y-88683454D01*
X149984546Y-88714933D01*
X150009279Y-88751949D01*
X150026315Y-88793078D01*
X150035402Y-88838762D01*
X150041541Y-88859000D01*
X150035402Y-88879238D01*
X150035000Y-88881259D01*
X150026315Y-88924922D01*
X150009279Y-88966051D01*
X149984546Y-89003067D01*
X149953067Y-89034546D01*
X149916051Y-89059279D01*
X149916047Y-89059281D01*
X149915554Y-89059610D01*
X149896611Y-89075156D01*
X149888532Y-89085000D01*
X148933000Y-89085000D01*
X148933000Y-86683000D01*
X149888533Y-86683000D01*
X149896612Y-86692844D01*
X149896612Y-86692844D01*
G37*
G36*
X153835000Y-89085000D02*
X152879467Y-89085000D01*
X152871388Y-89075156D01*
X152852446Y-89059610D01*
X152851953Y-89059281D01*
X152851949Y-89059279D01*
X152814933Y-89034546D01*
X152783454Y-89003067D01*
X152758721Y-88966051D01*
X152741685Y-88924922D01*
X152733000Y-88881259D01*
X152732598Y-88879238D01*
X152726459Y-88859000D01*
X152732598Y-88838762D01*
X152741685Y-88793078D01*
X152758721Y-88751949D01*
X152783454Y-88714933D01*
X152814933Y-88683454D01*
X152851949Y-88658721D01*
X152851953Y-88658719D01*
X152852446Y-88658390D01*
X152871389Y-88642844D01*
X152886934Y-88623902D01*
X152898485Y-88602291D01*
X152905598Y-88578842D01*
X152908000Y-88554456D01*
X152908000Y-88513544D01*
X152905598Y-88489158D01*
X152898485Y-88465709D01*
X152886934Y-88444098D01*
X152871388Y-88425156D01*
X152852446Y-88409610D01*
X152851953Y-88409281D01*
X152851949Y-88409279D01*
X152814933Y-88384546D01*
X152783454Y-88353067D01*
X152758721Y-88316051D01*
X152741685Y-88274922D01*
X152733000Y-88231259D01*
X152732598Y-88229238D01*
X152726459Y-88209000D01*
X152732598Y-88188762D01*
X152741685Y-88143078D01*
X152758721Y-88101949D01*
X152783454Y-88064933D01*
X152814933Y-88033454D01*
X152851949Y-88008721D01*
X152851953Y-88008719D01*
X152852446Y-88008390D01*
X152871389Y-87992844D01*
X152886934Y-87973902D01*
X152898485Y-87952291D01*
X152905598Y-87928842D01*
X152908000Y-87904456D01*
X152908000Y-87863544D01*
X152905598Y-87839158D01*
X152898485Y-87815709D01*
X152886934Y-87794098D01*
X152871388Y-87775156D01*
X152852446Y-87759610D01*
X152851953Y-87759281D01*
X152851949Y-87759279D01*
X152814933Y-87734546D01*
X152783454Y-87703067D01*
X152758721Y-87666051D01*
X152741685Y-87624922D01*
X152733000Y-87581259D01*
X152732598Y-87579238D01*
X152726459Y-87559000D01*
X152732598Y-87538762D01*
X152741685Y-87493078D01*
X152758721Y-87451949D01*
X152762362Y-87446500D01*
X152783454Y-87414933D01*
X152814933Y-87383454D01*
X152851949Y-87358721D01*
X152851953Y-87358719D01*
X152852446Y-87358390D01*
X152871389Y-87342844D01*
X152886934Y-87323902D01*
X152898485Y-87302291D01*
X152905598Y-87278842D01*
X152908000Y-87254456D01*
X152908000Y-87213544D01*
X152905598Y-87189158D01*
X152898485Y-87165709D01*
X152886934Y-87144098D01*
X152871388Y-87125156D01*
X152852446Y-87109610D01*
X152851953Y-87109281D01*
X152851949Y-87109279D01*
X152814933Y-87084546D01*
X152783454Y-87053067D01*
X152758721Y-87016051D01*
X152741685Y-86974922D01*
X152733000Y-86931259D01*
X152732598Y-86929238D01*
X152726459Y-86909000D01*
X152732598Y-86888762D01*
X152741685Y-86843078D01*
X152758721Y-86801949D01*
X152763472Y-86794839D01*
X152783454Y-86764933D01*
X152814933Y-86733454D01*
X152851949Y-86708721D01*
X152851953Y-86708719D01*
X152852446Y-86708390D01*
X152871389Y-86692844D01*
X152879468Y-86683000D01*
X153835000Y-86683000D01*
X153835000Y-89085000D01*
X153835000Y-89085000D01*
G37*
G36*
X152379239Y-86780598D02*
X152403625Y-86783000D01*
X152485000Y-86783000D01*
X152485000Y-86864375D01*
X152487402Y-86888761D01*
X152493541Y-86909000D01*
X152487402Y-86929239D01*
X152485000Y-86953625D01*
X152485000Y-87514375D01*
X152487402Y-87538761D01*
X152493541Y-87559000D01*
X152487402Y-87579239D01*
X152485000Y-87603625D01*
X152485000Y-88164375D01*
X152487402Y-88188761D01*
X152493541Y-88209000D01*
X152487402Y-88229239D01*
X152485000Y-88253625D01*
X152485000Y-88814375D01*
X152487402Y-88838761D01*
X152493541Y-88859000D01*
X152487402Y-88879239D01*
X152485000Y-88903625D01*
X152485000Y-88985000D01*
X152403625Y-88985000D01*
X152379239Y-88987402D01*
X152359000Y-88993541D01*
X152338761Y-88987402D01*
X152314375Y-88985000D01*
X151753625Y-88985000D01*
X151729239Y-88987402D01*
X151709000Y-88993541D01*
X151688761Y-88987402D01*
X151664375Y-88985000D01*
X151103625Y-88985000D01*
X151079239Y-88987402D01*
X151059000Y-88993541D01*
X151038761Y-88987402D01*
X151014375Y-88985000D01*
X150453625Y-88985000D01*
X150429239Y-88987402D01*
X150409000Y-88993541D01*
X150388761Y-88987402D01*
X150364375Y-88985000D01*
X150283000Y-88985000D01*
X150283000Y-88903625D01*
X150280598Y-88879239D01*
X150274459Y-88859000D01*
X150280598Y-88838761D01*
X150283000Y-88814375D01*
X150283000Y-88253625D01*
X150280598Y-88229239D01*
X150274459Y-88209000D01*
X150280598Y-88188761D01*
X150283000Y-88164375D01*
X150283000Y-87603625D01*
X150280598Y-87579239D01*
X150274459Y-87559000D01*
X150280598Y-87538761D01*
X150283000Y-87514375D01*
X150283000Y-86953625D01*
X150280598Y-86929239D01*
X150274459Y-86909000D01*
X150280598Y-86888761D01*
X150283000Y-86864375D01*
X150283000Y-86783000D01*
X150364375Y-86783000D01*
X150388761Y-86780598D01*
X150409000Y-86774459D01*
X150429239Y-86780598D01*
X150453625Y-86783000D01*
X151014375Y-86783000D01*
X151038761Y-86780598D01*
X151059000Y-86774459D01*
X151079239Y-86780598D01*
X151103625Y-86783000D01*
X151664375Y-86783000D01*
X151688761Y-86780598D01*
X151709000Y-86774459D01*
X151729239Y-86780598D01*
X151753625Y-86783000D01*
X152314375Y-86783000D01*
X152338761Y-86780598D01*
X152359000Y-86774459D01*
X152379239Y-86780598D01*
X152379239Y-86780598D01*
G37*
G36*
X146683591Y-87628085D02*
X146717569Y-87638393D01*
X146748887Y-87655133D01*
X146776339Y-87677661D01*
X146798867Y-87705113D01*
X146815607Y-87736431D01*
X146825915Y-87770409D01*
X146830000Y-87811890D01*
X146830000Y-88413110D01*
X146825915Y-88454591D01*
X146815607Y-88488569D01*
X146798867Y-88519887D01*
X146776339Y-88547339D01*
X146748887Y-88569867D01*
X146717569Y-88586607D01*
X146683591Y-88596915D01*
X146642110Y-88601000D01*
X145965890Y-88601000D01*
X145924409Y-88596915D01*
X145890431Y-88586607D01*
X145859113Y-88569867D01*
X145831661Y-88547339D01*
X145809133Y-88519887D01*
X145792393Y-88488569D01*
X145782085Y-88454591D01*
X145778000Y-88413110D01*
X145778000Y-87811890D01*
X145782085Y-87770409D01*
X145792393Y-87736431D01*
X145809133Y-87705113D01*
X145831661Y-87677661D01*
X145859113Y-87655133D01*
X145890431Y-87638393D01*
X145924409Y-87628085D01*
X145965890Y-87624000D01*
X146642110Y-87624000D01*
X146683591Y-87628085D01*
X146683591Y-87628085D01*
G37*
G36*
X145159591Y-87450585D02*
X145193569Y-87460893D01*
X145224887Y-87477633D01*
X145252339Y-87500161D01*
X145274867Y-87527613D01*
X145291607Y-87558931D01*
X145301915Y-87592909D01*
X145306000Y-87634390D01*
X145306000Y-88235610D01*
X145301915Y-88277091D01*
X145291607Y-88311069D01*
X145274867Y-88342387D01*
X145252339Y-88369839D01*
X145224887Y-88392367D01*
X145193569Y-88409107D01*
X145159591Y-88419415D01*
X145118110Y-88423500D01*
X144441890Y-88423500D01*
X144400409Y-88419415D01*
X144366431Y-88409107D01*
X144335113Y-88392367D01*
X144307661Y-88369839D01*
X144285133Y-88342387D01*
X144268393Y-88311069D01*
X144258085Y-88277091D01*
X144254000Y-88235610D01*
X144254000Y-87634390D01*
X144258085Y-87592909D01*
X144268393Y-87558931D01*
X144285133Y-87527613D01*
X144307661Y-87500161D01*
X144335113Y-87477633D01*
X144366431Y-87460893D01*
X144400409Y-87450585D01*
X144441890Y-87446500D01*
X145118110Y-87446500D01*
X145159591Y-87450585D01*
X145159591Y-87450585D01*
G37*
G36*
X156552091Y-87362085D02*
X156586069Y-87372393D01*
X156617387Y-87389133D01*
X156644839Y-87411661D01*
X156667367Y-87439113D01*
X156684107Y-87470431D01*
X156694415Y-87504409D01*
X156698500Y-87545890D01*
X156698500Y-88222110D01*
X156694415Y-88263591D01*
X156684107Y-88297569D01*
X156667367Y-88328887D01*
X156644839Y-88356339D01*
X156617387Y-88378867D01*
X156586069Y-88395607D01*
X156552091Y-88405915D01*
X156510610Y-88410000D01*
X155909390Y-88410000D01*
X155867909Y-88405915D01*
X155833931Y-88395607D01*
X155802613Y-88378867D01*
X155775161Y-88356339D01*
X155752633Y-88328887D01*
X155735893Y-88297569D01*
X155725585Y-88263591D01*
X155721500Y-88222110D01*
X155721500Y-87545890D01*
X155725585Y-87504409D01*
X155735893Y-87470431D01*
X155752633Y-87439113D01*
X155775161Y-87411661D01*
X155802613Y-87389133D01*
X155833931Y-87372393D01*
X155867909Y-87362085D01*
X155909390Y-87358000D01*
X156510610Y-87358000D01*
X156552091Y-87362085D01*
X156552091Y-87362085D01*
G37*
G36*
X158127091Y-87362085D02*
X158161069Y-87372393D01*
X158192387Y-87389133D01*
X158219839Y-87411661D01*
X158242367Y-87439113D01*
X158259107Y-87470431D01*
X158269415Y-87504409D01*
X158273500Y-87545890D01*
X158273500Y-88222110D01*
X158269415Y-88263591D01*
X158259107Y-88297569D01*
X158242367Y-88328887D01*
X158219839Y-88356339D01*
X158192387Y-88378867D01*
X158161069Y-88395607D01*
X158127091Y-88405915D01*
X158085610Y-88410000D01*
X157484390Y-88410000D01*
X157442909Y-88405915D01*
X157408931Y-88395607D01*
X157377613Y-88378867D01*
X157350161Y-88356339D01*
X157327633Y-88328887D01*
X157310893Y-88297569D01*
X157300585Y-88263591D01*
X157296500Y-88222110D01*
X157296500Y-87545890D01*
X157300585Y-87504409D01*
X157310893Y-87470431D01*
X157327633Y-87439113D01*
X157350161Y-87411661D01*
X157377613Y-87389133D01*
X157408931Y-87372393D01*
X157442909Y-87362085D01*
X157484390Y-87358000D01*
X158085610Y-87358000D01*
X158127091Y-87362085D01*
X158127091Y-87362085D01*
G37*
G36*
X161937091Y-86473085D02*
X161971069Y-86483393D01*
X162002387Y-86500133D01*
X162029839Y-86522661D01*
X162052367Y-86550113D01*
X162069107Y-86581431D01*
X162079415Y-86615409D01*
X162083500Y-86656890D01*
X162083500Y-87333110D01*
X162079415Y-87374591D01*
X162069107Y-87408569D01*
X162052367Y-87439887D01*
X162029839Y-87467339D01*
X162002387Y-87489867D01*
X161971069Y-87506607D01*
X161937091Y-87516915D01*
X161895610Y-87521000D01*
X161294390Y-87521000D01*
X161252909Y-87516915D01*
X161218931Y-87506607D01*
X161187613Y-87489867D01*
X161160161Y-87467339D01*
X161137633Y-87439887D01*
X161120893Y-87408569D01*
X161110585Y-87374591D01*
X161106500Y-87333110D01*
X161106500Y-86656890D01*
X161110585Y-86615409D01*
X161120893Y-86581431D01*
X161137633Y-86550113D01*
X161160161Y-86522661D01*
X161187613Y-86500133D01*
X161218931Y-86483393D01*
X161252909Y-86473085D01*
X161294390Y-86469000D01*
X161895610Y-86469000D01*
X161937091Y-86473085D01*
X161937091Y-86473085D01*
G37*
G36*
X160362091Y-86473085D02*
X160396069Y-86483393D01*
X160427387Y-86500133D01*
X160454839Y-86522661D01*
X160477367Y-86550113D01*
X160494107Y-86581431D01*
X160504415Y-86615409D01*
X160508500Y-86656890D01*
X160508500Y-87333110D01*
X160504415Y-87374591D01*
X160494107Y-87408569D01*
X160477367Y-87439887D01*
X160454839Y-87467339D01*
X160427387Y-87489867D01*
X160396069Y-87506607D01*
X160362091Y-87516915D01*
X160320610Y-87521000D01*
X159719390Y-87521000D01*
X159677909Y-87516915D01*
X159643931Y-87506607D01*
X159612613Y-87489867D01*
X159585161Y-87467339D01*
X159562633Y-87439887D01*
X159545893Y-87408569D01*
X159535585Y-87374591D01*
X159531500Y-87333110D01*
X159531500Y-86656890D01*
X159535585Y-86615409D01*
X159545893Y-86581431D01*
X159562633Y-86550113D01*
X159585161Y-86522661D01*
X159612613Y-86500133D01*
X159643931Y-86483393D01*
X159677909Y-86473085D01*
X159719390Y-86469000D01*
X160320610Y-86469000D01*
X160362091Y-86473085D01*
X160362091Y-86473085D01*
G37*
G36*
X146683591Y-85875585D02*
X146717569Y-85885893D01*
X146748887Y-85902633D01*
X146776339Y-85925161D01*
X146798867Y-85952613D01*
X146815607Y-85983931D01*
X146825915Y-86017909D01*
X146830000Y-86059390D01*
X146830000Y-86660610D01*
X146825915Y-86702091D01*
X146815607Y-86736069D01*
X146798867Y-86767387D01*
X146776339Y-86794839D01*
X146748887Y-86817367D01*
X146717569Y-86834107D01*
X146683591Y-86844415D01*
X146642110Y-86848500D01*
X145965890Y-86848500D01*
X145924409Y-86844415D01*
X145890431Y-86834107D01*
X145859113Y-86817367D01*
X145831661Y-86794839D01*
X145809133Y-86767387D01*
X145792393Y-86736069D01*
X145782085Y-86702091D01*
X145778000Y-86660610D01*
X145778000Y-86059390D01*
X145782085Y-86017909D01*
X145792393Y-85983931D01*
X145809133Y-85952613D01*
X145831661Y-85925161D01*
X145859113Y-85902633D01*
X145890431Y-85885893D01*
X145924409Y-85875585D01*
X145965890Y-85871500D01*
X146642110Y-85871500D01*
X146683591Y-85875585D01*
X146683591Y-85875585D01*
G37*
G36*
X145159591Y-85875585D02*
X145193569Y-85885893D01*
X145224887Y-85902633D01*
X145252339Y-85925161D01*
X145274867Y-85952613D01*
X145291607Y-85983931D01*
X145301915Y-86017909D01*
X145306000Y-86059390D01*
X145306000Y-86660610D01*
X145301915Y-86702091D01*
X145291607Y-86736069D01*
X145274867Y-86767387D01*
X145252339Y-86794839D01*
X145224887Y-86817367D01*
X145193569Y-86834107D01*
X145159591Y-86844415D01*
X145118110Y-86848500D01*
X144441890Y-86848500D01*
X144400409Y-86844415D01*
X144366431Y-86834107D01*
X144335113Y-86817367D01*
X144307661Y-86794839D01*
X144285133Y-86767387D01*
X144268393Y-86736069D01*
X144258085Y-86702091D01*
X144254000Y-86660610D01*
X144254000Y-86059390D01*
X144258085Y-86017909D01*
X144268393Y-85983931D01*
X144285133Y-85952613D01*
X144307661Y-85925161D01*
X144335113Y-85902633D01*
X144366431Y-85885893D01*
X144400409Y-85875585D01*
X144441890Y-85871500D01*
X145118110Y-85871500D01*
X145159591Y-85875585D01*
X145159591Y-85875585D01*
G37*
G36*
X156552091Y-85711085D02*
X156586069Y-85721393D01*
X156617387Y-85738133D01*
X156644839Y-85760661D01*
X156667367Y-85788113D01*
X156684107Y-85819431D01*
X156694415Y-85853409D01*
X156698500Y-85894890D01*
X156698500Y-86571110D01*
X156694415Y-86612591D01*
X156684107Y-86646569D01*
X156667367Y-86677887D01*
X156644839Y-86705339D01*
X156617387Y-86727867D01*
X156586069Y-86744607D01*
X156552091Y-86754915D01*
X156510610Y-86759000D01*
X155909390Y-86759000D01*
X155867909Y-86754915D01*
X155833931Y-86744607D01*
X155802613Y-86727867D01*
X155775161Y-86705339D01*
X155752633Y-86677887D01*
X155735893Y-86646569D01*
X155725585Y-86612591D01*
X155721500Y-86571110D01*
X155721500Y-85894890D01*
X155725585Y-85853409D01*
X155735893Y-85819431D01*
X155752633Y-85788113D01*
X155775161Y-85760661D01*
X155802613Y-85738133D01*
X155833931Y-85721393D01*
X155867909Y-85711085D01*
X155909390Y-85707000D01*
X156510610Y-85707000D01*
X156552091Y-85711085D01*
X156552091Y-85711085D01*
G37*
G36*
X158127091Y-85711085D02*
X158161069Y-85721393D01*
X158192387Y-85738133D01*
X158219839Y-85760661D01*
X158242367Y-85788113D01*
X158259107Y-85819431D01*
X158269415Y-85853409D01*
X158273500Y-85894890D01*
X158273500Y-86571110D01*
X158269415Y-86612591D01*
X158259107Y-86646569D01*
X158242367Y-86677887D01*
X158219839Y-86705339D01*
X158192387Y-86727867D01*
X158161069Y-86744607D01*
X158127091Y-86754915D01*
X158085610Y-86759000D01*
X157484390Y-86759000D01*
X157442909Y-86754915D01*
X157408931Y-86744607D01*
X157377613Y-86727867D01*
X157350161Y-86705339D01*
X157327633Y-86677887D01*
X157310893Y-86646569D01*
X157300585Y-86612591D01*
X157296500Y-86571110D01*
X157296500Y-85894890D01*
X157300585Y-85853409D01*
X157310893Y-85819431D01*
X157327633Y-85788113D01*
X157350161Y-85760661D01*
X157377613Y-85738133D01*
X157408931Y-85721393D01*
X157442909Y-85711085D01*
X157484390Y-85707000D01*
X158085610Y-85707000D01*
X158127091Y-85711085D01*
X158127091Y-85711085D01*
G37*
G36*
X152585000Y-86388533D02*
X152575156Y-86396612D01*
X152559610Y-86415554D01*
X152559281Y-86416047D01*
X152559279Y-86416051D01*
X152534546Y-86453067D01*
X152503067Y-86484546D01*
X152466051Y-86509279D01*
X152424922Y-86526315D01*
X152381259Y-86535000D01*
X152379238Y-86535402D01*
X152359000Y-86541541D01*
X152338762Y-86535402D01*
X152293078Y-86526315D01*
X152251949Y-86509279D01*
X152238261Y-86500133D01*
X152214933Y-86484546D01*
X152183454Y-86453067D01*
X152158721Y-86416051D01*
X152158719Y-86416047D01*
X152158390Y-86415554D01*
X152142844Y-86396611D01*
X152123902Y-86381066D01*
X152102291Y-86369515D01*
X152078842Y-86362402D01*
X152054456Y-86360000D01*
X152013544Y-86360000D01*
X151989158Y-86362402D01*
X151965709Y-86369515D01*
X151944098Y-86381066D01*
X151925156Y-86396612D01*
X151909610Y-86415554D01*
X151909281Y-86416047D01*
X151909279Y-86416051D01*
X151884546Y-86453067D01*
X151853067Y-86484546D01*
X151816051Y-86509279D01*
X151774922Y-86526315D01*
X151731259Y-86535000D01*
X151729238Y-86535402D01*
X151709000Y-86541541D01*
X151688762Y-86535402D01*
X151643078Y-86526315D01*
X151601949Y-86509279D01*
X151588261Y-86500133D01*
X151564933Y-86484546D01*
X151533454Y-86453067D01*
X151508721Y-86416051D01*
X151508719Y-86416047D01*
X151508390Y-86415554D01*
X151492844Y-86396611D01*
X151473902Y-86381066D01*
X151452291Y-86369515D01*
X151428842Y-86362402D01*
X151404456Y-86360000D01*
X151363544Y-86360000D01*
X151339158Y-86362402D01*
X151315709Y-86369515D01*
X151294098Y-86381066D01*
X151275156Y-86396612D01*
X151259610Y-86415554D01*
X151259281Y-86416047D01*
X151259279Y-86416051D01*
X151234546Y-86453067D01*
X151203067Y-86484546D01*
X151166051Y-86509279D01*
X151124922Y-86526315D01*
X151081259Y-86535000D01*
X151079238Y-86535402D01*
X151059000Y-86541541D01*
X151038762Y-86535402D01*
X150993078Y-86526315D01*
X150951949Y-86509279D01*
X150938261Y-86500133D01*
X150914933Y-86484546D01*
X150883454Y-86453067D01*
X150858721Y-86416051D01*
X150858719Y-86416047D01*
X150858390Y-86415554D01*
X150842844Y-86396611D01*
X150823902Y-86381066D01*
X150802291Y-86369515D01*
X150778842Y-86362402D01*
X150754456Y-86360000D01*
X150713544Y-86360000D01*
X150689158Y-86362402D01*
X150665709Y-86369515D01*
X150644098Y-86381066D01*
X150625156Y-86396612D01*
X150609610Y-86415554D01*
X150609281Y-86416047D01*
X150609279Y-86416051D01*
X150584546Y-86453067D01*
X150553067Y-86484546D01*
X150516051Y-86509279D01*
X150474922Y-86526315D01*
X150431259Y-86535000D01*
X150429238Y-86535402D01*
X150409000Y-86541541D01*
X150388762Y-86535402D01*
X150343078Y-86526315D01*
X150301949Y-86509279D01*
X150288261Y-86500133D01*
X150264933Y-86484546D01*
X150233454Y-86453067D01*
X150208721Y-86416051D01*
X150208719Y-86416047D01*
X150208390Y-86415554D01*
X150192844Y-86396611D01*
X150183000Y-86388532D01*
X150183000Y-85433000D01*
X152585000Y-85433000D01*
X152585000Y-86388533D01*
X152585000Y-86388533D01*
G37*
G36*
X146683591Y-84300585D02*
X146717569Y-84310893D01*
X146748887Y-84327633D01*
X146776339Y-84350161D01*
X146798867Y-84377613D01*
X146815607Y-84408931D01*
X146825915Y-84442909D01*
X146830000Y-84484390D01*
X146830000Y-85085610D01*
X146825915Y-85127091D01*
X146815607Y-85161069D01*
X146798867Y-85192387D01*
X146776339Y-85219839D01*
X146748887Y-85242367D01*
X146717569Y-85259107D01*
X146683591Y-85269415D01*
X146642110Y-85273500D01*
X145965890Y-85273500D01*
X145924409Y-85269415D01*
X145890431Y-85259107D01*
X145859113Y-85242367D01*
X145831661Y-85219839D01*
X145809133Y-85192387D01*
X145792393Y-85161069D01*
X145782085Y-85127091D01*
X145778000Y-85085610D01*
X145778000Y-84484390D01*
X145782085Y-84442909D01*
X145792393Y-84408931D01*
X145809133Y-84377613D01*
X145831661Y-84350161D01*
X145859113Y-84327633D01*
X145890431Y-84310893D01*
X145924409Y-84300585D01*
X145965890Y-84296500D01*
X146642110Y-84296500D01*
X146683591Y-84300585D01*
X146683591Y-84300585D01*
G37*
G36*
X161075311Y-84010605D02*
X161114367Y-84022453D01*
X161150363Y-84041693D01*
X161181914Y-84067586D01*
X161207807Y-84099137D01*
X161227047Y-84135133D01*
X161238895Y-84174189D01*
X161243102Y-84216908D01*
X161247882Y-84240941D01*
X161257260Y-84263580D01*
X161270874Y-84283955D01*
X161288201Y-84301282D01*
X161308575Y-84314896D01*
X161331214Y-84324273D01*
X161355248Y-84329054D01*
X161379752Y-84329054D01*
X161403785Y-84324274D01*
X161426424Y-84314896D01*
X161446799Y-84301282D01*
X161464126Y-84283955D01*
X161477740Y-84263581D01*
X161487117Y-84240942D01*
X161491898Y-84216908D01*
X161496105Y-84174189D01*
X161507953Y-84135133D01*
X161527193Y-84099137D01*
X161553086Y-84067586D01*
X161584637Y-84041693D01*
X161620633Y-84022453D01*
X161659689Y-84010605D01*
X161706449Y-84006000D01*
X162453551Y-84006000D01*
X162500311Y-84010605D01*
X162539367Y-84022453D01*
X162575363Y-84041693D01*
X162606914Y-84067586D01*
X162632807Y-84099137D01*
X162652047Y-84135133D01*
X162663895Y-84174189D01*
X162668500Y-84220949D01*
X162668500Y-84943051D01*
X162663895Y-84989811D01*
X162652047Y-85028867D01*
X162632807Y-85064863D01*
X162606914Y-85096414D01*
X162575363Y-85122307D01*
X162539367Y-85141547D01*
X162500311Y-85153395D01*
X162453551Y-85158000D01*
X161706449Y-85158000D01*
X161659689Y-85153395D01*
X161620633Y-85141547D01*
X161584637Y-85122307D01*
X161553086Y-85096414D01*
X161527193Y-85064863D01*
X161507953Y-85028867D01*
X161496105Y-84989811D01*
X161491898Y-84947092D01*
X161487118Y-84923059D01*
X161477740Y-84900420D01*
X161464126Y-84880045D01*
X161446799Y-84862718D01*
X161426425Y-84849104D01*
X161403786Y-84839727D01*
X161379752Y-84834946D01*
X161355248Y-84834946D01*
X161331215Y-84839726D01*
X161308576Y-84849104D01*
X161288201Y-84862718D01*
X161270874Y-84880045D01*
X161257260Y-84900419D01*
X161247883Y-84923058D01*
X161243102Y-84947092D01*
X161238895Y-84989811D01*
X161227047Y-85028867D01*
X161207807Y-85064863D01*
X161181914Y-85096414D01*
X161150363Y-85122307D01*
X161114367Y-85141547D01*
X161075311Y-85153395D01*
X161028551Y-85158000D01*
X160281449Y-85158000D01*
X160234689Y-85153395D01*
X160195633Y-85141547D01*
X160159637Y-85122307D01*
X160128086Y-85096414D01*
X160102193Y-85064863D01*
X160082953Y-85028867D01*
X160071105Y-84989811D01*
X160066500Y-84943051D01*
X160066500Y-84220949D01*
X160071105Y-84174189D01*
X160082953Y-84135133D01*
X160102193Y-84099137D01*
X160128086Y-84067586D01*
X160159637Y-84041693D01*
X160195633Y-84022453D01*
X160234689Y-84010605D01*
X160281449Y-84006000D01*
X161028551Y-84006000D01*
X161075311Y-84010605D01*
X161075311Y-84010605D01*
G37*
G36*
X157187091Y-84060085D02*
X157221069Y-84070393D01*
X157252387Y-84087133D01*
X157279839Y-84109661D01*
X157302367Y-84137113D01*
X157319107Y-84168431D01*
X157329415Y-84202409D01*
X157333500Y-84243890D01*
X157333500Y-84920110D01*
X157329415Y-84961591D01*
X157319107Y-84995569D01*
X157302367Y-85026887D01*
X157279839Y-85054339D01*
X157252387Y-85076867D01*
X157221069Y-85093607D01*
X157187091Y-85103915D01*
X157145610Y-85108000D01*
X156544390Y-85108000D01*
X156502909Y-85103915D01*
X156468931Y-85093607D01*
X156437613Y-85076867D01*
X156410161Y-85054339D01*
X156387633Y-85026887D01*
X156370893Y-84995569D01*
X156360585Y-84961591D01*
X156356500Y-84920110D01*
X156356500Y-84243890D01*
X156360585Y-84202409D01*
X156370893Y-84168431D01*
X156387633Y-84137113D01*
X156410161Y-84109661D01*
X156437613Y-84087133D01*
X156468931Y-84070393D01*
X156502909Y-84060085D01*
X156544390Y-84056000D01*
X157145610Y-84056000D01*
X157187091Y-84060085D01*
X157187091Y-84060085D01*
G37*
G36*
X158762091Y-84060085D02*
X158796069Y-84070393D01*
X158827387Y-84087133D01*
X158854839Y-84109661D01*
X158877367Y-84137113D01*
X158894107Y-84168431D01*
X158904415Y-84202409D01*
X158908500Y-84243890D01*
X158908500Y-84920110D01*
X158904415Y-84961591D01*
X158894107Y-84995569D01*
X158877367Y-85026887D01*
X158854839Y-85054339D01*
X158827387Y-85076867D01*
X158796069Y-85093607D01*
X158762091Y-85103915D01*
X158720610Y-85108000D01*
X158119390Y-85108000D01*
X158077909Y-85103915D01*
X158043931Y-85093607D01*
X158012613Y-85076867D01*
X157985161Y-85054339D01*
X157962633Y-85026887D01*
X157945893Y-84995569D01*
X157935585Y-84961591D01*
X157931500Y-84920110D01*
X157931500Y-84243890D01*
X157935585Y-84202409D01*
X157945893Y-84168431D01*
X157962633Y-84137113D01*
X157985161Y-84109661D01*
X158012613Y-84087133D01*
X158043931Y-84070393D01*
X158077909Y-84060085D01*
X158119390Y-84056000D01*
X158720610Y-84056000D01*
X158762091Y-84060085D01*
X158762091Y-84060085D01*
G37*
G36*
X151001591Y-83107085D02*
X151035569Y-83117393D01*
X151066887Y-83134133D01*
X151094339Y-83156661D01*
X151116867Y-83184113D01*
X151133607Y-83215431D01*
X151143915Y-83249409D01*
X151148000Y-83290890D01*
X151148000Y-83892110D01*
X151143915Y-83933591D01*
X151133607Y-83967569D01*
X151116867Y-83998887D01*
X151094339Y-84026339D01*
X151066887Y-84048867D01*
X151035569Y-84065607D01*
X151001591Y-84075915D01*
X150960110Y-84080000D01*
X150283890Y-84080000D01*
X150242409Y-84075915D01*
X150208431Y-84065607D01*
X150177113Y-84048867D01*
X150149661Y-84026339D01*
X150127133Y-83998887D01*
X150110393Y-83967569D01*
X150100085Y-83933591D01*
X150096000Y-83892110D01*
X150096000Y-83290890D01*
X150100085Y-83249409D01*
X150110393Y-83215431D01*
X150127133Y-83184113D01*
X150149661Y-83156661D01*
X150177113Y-83134133D01*
X150208431Y-83117393D01*
X150242409Y-83107085D01*
X150283890Y-83103000D01*
X150960110Y-83103000D01*
X151001591Y-83107085D01*
X151001591Y-83107085D01*
G37*
G36*
X152652591Y-83107085D02*
X152686569Y-83117393D01*
X152717887Y-83134133D01*
X152745339Y-83156661D01*
X152767867Y-83184113D01*
X152784607Y-83215431D01*
X152794915Y-83249409D01*
X152799000Y-83290890D01*
X152799000Y-83892110D01*
X152794915Y-83933591D01*
X152784607Y-83967569D01*
X152767867Y-83998887D01*
X152745339Y-84026339D01*
X152717887Y-84048867D01*
X152686569Y-84065607D01*
X152652591Y-84075915D01*
X152611110Y-84080000D01*
X151934890Y-84080000D01*
X151893409Y-84075915D01*
X151859431Y-84065607D01*
X151828113Y-84048867D01*
X151800661Y-84026339D01*
X151778133Y-83998887D01*
X151761393Y-83967569D01*
X151751085Y-83933591D01*
X151747000Y-83892110D01*
X151747000Y-83290890D01*
X151751085Y-83249409D01*
X151761393Y-83215431D01*
X151778133Y-83184113D01*
X151800661Y-83156661D01*
X151828113Y-83134133D01*
X151859431Y-83117393D01*
X151893409Y-83107085D01*
X151934890Y-83103000D01*
X152611110Y-83103000D01*
X152652591Y-83107085D01*
X152652591Y-83107085D01*
G37*
G36*
X149251811Y-81430105D02*
X149290867Y-81441953D01*
X149326863Y-81461193D01*
X149358414Y-81487086D01*
X149384307Y-81518637D01*
X149403547Y-81554633D01*
X149415395Y-81593689D01*
X149420000Y-81640449D01*
X149420000Y-82387551D01*
X149415395Y-82434311D01*
X149403547Y-82473367D01*
X149384307Y-82509363D01*
X149358414Y-82540914D01*
X149326863Y-82566807D01*
X149290867Y-82586047D01*
X149251811Y-82597895D01*
X149209092Y-82602102D01*
X149185059Y-82606882D01*
X149162420Y-82616260D01*
X149142045Y-82629874D01*
X149124718Y-82647201D01*
X149111104Y-82667575D01*
X149101727Y-82690214D01*
X149096946Y-82714248D01*
X149096946Y-82738752D01*
X149101726Y-82762785D01*
X149111104Y-82785424D01*
X149124718Y-82805799D01*
X149142045Y-82823126D01*
X149162419Y-82836740D01*
X149185058Y-82846117D01*
X149209092Y-82850898D01*
X149251811Y-82855105D01*
X149290867Y-82866953D01*
X149326863Y-82886193D01*
X149358414Y-82912086D01*
X149384307Y-82943637D01*
X149403547Y-82979633D01*
X149415395Y-83018689D01*
X149420000Y-83065449D01*
X149420000Y-83812551D01*
X149415395Y-83859311D01*
X149403547Y-83898367D01*
X149384307Y-83934363D01*
X149358414Y-83965914D01*
X149326863Y-83991807D01*
X149290867Y-84011047D01*
X149251811Y-84022895D01*
X149205051Y-84027500D01*
X148482949Y-84027500D01*
X148436189Y-84022895D01*
X148397133Y-84011047D01*
X148361137Y-83991807D01*
X148329586Y-83965914D01*
X148303693Y-83934363D01*
X148284453Y-83898367D01*
X148272605Y-83859311D01*
X148268000Y-83812551D01*
X148268000Y-83065449D01*
X148272605Y-83018689D01*
X148284453Y-82979633D01*
X148303693Y-82943637D01*
X148329586Y-82912086D01*
X148361137Y-82886193D01*
X148397133Y-82866953D01*
X148436189Y-82855105D01*
X148478908Y-82850898D01*
X148502941Y-82846118D01*
X148525580Y-82836740D01*
X148545955Y-82823126D01*
X148563282Y-82805799D01*
X148576896Y-82785425D01*
X148586273Y-82762786D01*
X148591054Y-82738752D01*
X148591054Y-82714248D01*
X148586274Y-82690215D01*
X148576896Y-82667576D01*
X148563282Y-82647201D01*
X148545955Y-82629874D01*
X148525581Y-82616260D01*
X148502942Y-82606883D01*
X148478908Y-82602102D01*
X148436189Y-82597895D01*
X148397133Y-82586047D01*
X148361137Y-82566807D01*
X148329586Y-82540914D01*
X148303693Y-82509363D01*
X148284453Y-82473367D01*
X148272605Y-82434311D01*
X148268000Y-82387551D01*
X148268000Y-81640449D01*
X148272605Y-81593689D01*
X148284453Y-81554633D01*
X148303693Y-81518637D01*
X148329586Y-81487086D01*
X148361137Y-81461193D01*
X148397133Y-81441953D01*
X148436189Y-81430105D01*
X148482949Y-81425500D01*
X149205051Y-81425500D01*
X149251811Y-81430105D01*
X149251811Y-81430105D01*
G37*
G36*
X131681000Y-83873000D02*
X126499000Y-83873000D01*
X126499000Y-81351000D01*
X131681000Y-81351000D01*
X131681000Y-83873000D01*
X131681000Y-83873000D01*
G37*
G36*
X158762091Y-82409085D02*
X158796069Y-82419393D01*
X158827387Y-82436133D01*
X158854839Y-82458661D01*
X158877367Y-82486113D01*
X158894107Y-82517431D01*
X158904415Y-82551409D01*
X158908500Y-82592890D01*
X158908500Y-83269110D01*
X158904415Y-83310591D01*
X158894107Y-83344569D01*
X158877367Y-83375887D01*
X158854839Y-83403339D01*
X158827387Y-83425867D01*
X158796069Y-83442607D01*
X158762091Y-83452915D01*
X158720610Y-83457000D01*
X158119390Y-83457000D01*
X158077909Y-83452915D01*
X158043931Y-83442607D01*
X158012613Y-83425867D01*
X157985161Y-83403339D01*
X157962633Y-83375887D01*
X157945893Y-83344569D01*
X157935585Y-83310591D01*
X157931500Y-83269110D01*
X157931500Y-82592890D01*
X157935585Y-82551409D01*
X157945893Y-82517431D01*
X157962633Y-82486113D01*
X157985161Y-82458661D01*
X158012613Y-82436133D01*
X158043931Y-82419393D01*
X158077909Y-82409085D01*
X158119390Y-82405000D01*
X158720610Y-82405000D01*
X158762091Y-82409085D01*
X158762091Y-82409085D01*
G37*
G36*
X157187091Y-82409085D02*
X157221069Y-82419393D01*
X157252387Y-82436133D01*
X157279839Y-82458661D01*
X157302367Y-82486113D01*
X157319107Y-82517431D01*
X157329415Y-82551409D01*
X157333500Y-82592890D01*
X157333500Y-83269110D01*
X157329415Y-83310591D01*
X157319107Y-83344569D01*
X157302367Y-83375887D01*
X157279839Y-83403339D01*
X157252387Y-83425867D01*
X157221069Y-83442607D01*
X157187091Y-83452915D01*
X157145610Y-83457000D01*
X156544390Y-83457000D01*
X156502909Y-83452915D01*
X156468931Y-83442607D01*
X156437613Y-83425867D01*
X156410161Y-83403339D01*
X156387633Y-83375887D01*
X156370893Y-83344569D01*
X156360585Y-83310591D01*
X156356500Y-83269110D01*
X156356500Y-82592890D01*
X156360585Y-82551409D01*
X156370893Y-82517431D01*
X156387633Y-82486113D01*
X156410161Y-82458661D01*
X156437613Y-82436133D01*
X156468931Y-82419393D01*
X156502909Y-82409085D01*
X156544390Y-82405000D01*
X157145610Y-82405000D01*
X157187091Y-82409085D01*
X157187091Y-82409085D01*
G37*
G36*
X182895331Y-79800211D02*
X183223092Y-79935974D01*
X183518073Y-80133074D01*
X183768926Y-80383927D01*
X183966026Y-80678908D01*
X184101789Y-81006669D01*
X184171000Y-81354616D01*
X184171000Y-81709384D01*
X184101789Y-82057331D01*
X183966026Y-82385092D01*
X183768926Y-82680073D01*
X183518073Y-82930926D01*
X183223092Y-83128026D01*
X182895331Y-83263789D01*
X182547384Y-83333000D01*
X182192616Y-83333000D01*
X181844669Y-83263789D01*
X181516908Y-83128026D01*
X181221927Y-82930926D01*
X180971074Y-82680073D01*
X180773974Y-82385092D01*
X180638211Y-82057331D01*
X180569000Y-81709384D01*
X180569000Y-81354616D01*
X180638211Y-81006669D01*
X180773974Y-80678908D01*
X180971074Y-80383927D01*
X181221927Y-80133074D01*
X181516908Y-79935974D01*
X181844669Y-79800211D01*
X182192616Y-79731000D01*
X182547384Y-79731000D01*
X182895331Y-79800211D01*
X182895331Y-79800211D01*
G37*
G36*
X176295331Y-79800211D02*
X176623092Y-79935974D01*
X176918073Y-80133074D01*
X177168926Y-80383927D01*
X177366026Y-80678908D01*
X177501789Y-81006669D01*
X177571000Y-81354616D01*
X177571000Y-81709384D01*
X177501789Y-82057331D01*
X177366026Y-82385092D01*
X177168926Y-82680073D01*
X176918073Y-82930926D01*
X176623092Y-83128026D01*
X176295331Y-83263789D01*
X175947384Y-83333000D01*
X175592616Y-83333000D01*
X175244669Y-83263789D01*
X174916908Y-83128026D01*
X174621927Y-82930926D01*
X174371074Y-82680073D01*
X174173974Y-82385092D01*
X174038211Y-82057331D01*
X173969000Y-81709384D01*
X173969000Y-81354616D01*
X174038211Y-81006669D01*
X174173974Y-80678908D01*
X174371074Y-80383927D01*
X174621927Y-80133074D01*
X174916908Y-79935974D01*
X175244669Y-79800211D01*
X175592616Y-79731000D01*
X175947384Y-79731000D01*
X176295331Y-79800211D01*
X176295331Y-79800211D01*
G37*
G36*
X152652591Y-81532085D02*
X152686569Y-81542393D01*
X152717887Y-81559133D01*
X152745339Y-81581661D01*
X152767867Y-81609113D01*
X152784607Y-81640431D01*
X152794915Y-81674409D01*
X152799000Y-81715890D01*
X152799000Y-82317110D01*
X152794915Y-82358591D01*
X152784607Y-82392569D01*
X152767867Y-82423887D01*
X152745339Y-82451339D01*
X152717887Y-82473867D01*
X152686569Y-82490607D01*
X152652591Y-82500915D01*
X152611110Y-82505000D01*
X151934890Y-82505000D01*
X151893409Y-82500915D01*
X151859431Y-82490607D01*
X151828113Y-82473867D01*
X151800661Y-82451339D01*
X151778133Y-82423887D01*
X151761393Y-82392569D01*
X151751085Y-82358591D01*
X151747000Y-82317110D01*
X151747000Y-81715890D01*
X151751085Y-81674409D01*
X151761393Y-81640431D01*
X151778133Y-81609113D01*
X151800661Y-81581661D01*
X151828113Y-81559133D01*
X151859431Y-81542393D01*
X151893409Y-81532085D01*
X151934890Y-81528000D01*
X152611110Y-81528000D01*
X152652591Y-81532085D01*
X152652591Y-81532085D01*
G37*
G36*
X151001591Y-81532085D02*
X151035569Y-81542393D01*
X151066887Y-81559133D01*
X151094339Y-81581661D01*
X151116867Y-81609113D01*
X151133607Y-81640431D01*
X151143915Y-81674409D01*
X151148000Y-81715890D01*
X151148000Y-82317110D01*
X151143915Y-82358591D01*
X151133607Y-82392569D01*
X151116867Y-82423887D01*
X151094339Y-82451339D01*
X151066887Y-82473867D01*
X151035569Y-82490607D01*
X151001591Y-82500915D01*
X150960110Y-82505000D01*
X150283890Y-82505000D01*
X150242409Y-82500915D01*
X150208431Y-82490607D01*
X150177113Y-82473867D01*
X150149661Y-82451339D01*
X150127133Y-82423887D01*
X150110393Y-82392569D01*
X150100085Y-82358591D01*
X150096000Y-82317110D01*
X150096000Y-81715890D01*
X150100085Y-81674409D01*
X150110393Y-81640431D01*
X150127133Y-81609113D01*
X150149661Y-81581661D01*
X150177113Y-81559133D01*
X150208431Y-81542393D01*
X150242409Y-81532085D01*
X150283890Y-81528000D01*
X150960110Y-81528000D01*
X151001591Y-81532085D01*
X151001591Y-81532085D01*
G37*
G36*
X158762091Y-80758085D02*
X158796069Y-80768393D01*
X158827387Y-80785133D01*
X158854839Y-80807661D01*
X158877367Y-80835113D01*
X158894107Y-80866431D01*
X158904415Y-80900409D01*
X158908500Y-80941890D01*
X158908500Y-81618110D01*
X158904415Y-81659591D01*
X158894107Y-81693569D01*
X158877367Y-81724887D01*
X158854839Y-81752339D01*
X158827387Y-81774867D01*
X158796069Y-81791607D01*
X158762091Y-81801915D01*
X158720610Y-81806000D01*
X158119390Y-81806000D01*
X158077909Y-81801915D01*
X158043931Y-81791607D01*
X158012613Y-81774867D01*
X157985161Y-81752339D01*
X157962633Y-81724887D01*
X157945893Y-81693569D01*
X157935585Y-81659591D01*
X157931500Y-81618110D01*
X157931500Y-80941890D01*
X157935585Y-80900409D01*
X157945893Y-80866431D01*
X157962633Y-80835113D01*
X157985161Y-80807661D01*
X158012613Y-80785133D01*
X158043931Y-80768393D01*
X158077909Y-80758085D01*
X158119390Y-80754000D01*
X158720610Y-80754000D01*
X158762091Y-80758085D01*
X158762091Y-80758085D01*
G37*
G36*
X157187091Y-80758085D02*
X157221069Y-80768393D01*
X157252387Y-80785133D01*
X157279839Y-80807661D01*
X157302367Y-80835113D01*
X157319107Y-80866431D01*
X157329415Y-80900409D01*
X157333500Y-80941890D01*
X157333500Y-81618110D01*
X157329415Y-81659591D01*
X157319107Y-81693569D01*
X157302367Y-81724887D01*
X157279839Y-81752339D01*
X157252387Y-81774867D01*
X157221069Y-81791607D01*
X157187091Y-81801915D01*
X157145610Y-81806000D01*
X156544390Y-81806000D01*
X156502909Y-81801915D01*
X156468931Y-81791607D01*
X156437613Y-81774867D01*
X156410161Y-81752339D01*
X156387633Y-81724887D01*
X156370893Y-81693569D01*
X156360585Y-81659591D01*
X156356500Y-81618110D01*
X156356500Y-80941890D01*
X156360585Y-80900409D01*
X156370893Y-80866431D01*
X156387633Y-80835113D01*
X156410161Y-80807661D01*
X156437613Y-80785133D01*
X156468931Y-80768393D01*
X156502909Y-80758085D01*
X156544390Y-80754000D01*
X157145610Y-80754000D01*
X157187091Y-80758085D01*
X157187091Y-80758085D01*
G37*
G36*
X149223591Y-79779585D02*
X149257569Y-79789893D01*
X149288887Y-79806633D01*
X149316339Y-79829161D01*
X149338867Y-79856613D01*
X149355607Y-79887931D01*
X149365915Y-79921909D01*
X149370000Y-79963390D01*
X149370000Y-80564610D01*
X149365915Y-80606091D01*
X149355607Y-80640069D01*
X149338867Y-80671387D01*
X149316339Y-80698839D01*
X149288887Y-80721367D01*
X149257569Y-80738107D01*
X149223591Y-80748415D01*
X149182110Y-80752500D01*
X148505890Y-80752500D01*
X148464409Y-80748415D01*
X148430431Y-80738107D01*
X148399113Y-80721367D01*
X148371661Y-80698839D01*
X148349133Y-80671387D01*
X148332393Y-80640069D01*
X148322085Y-80606091D01*
X148318000Y-80564610D01*
X148318000Y-79963390D01*
X148322085Y-79921909D01*
X148332393Y-79887931D01*
X148349133Y-79856613D01*
X148371661Y-79829161D01*
X148399113Y-79806633D01*
X148430431Y-79789893D01*
X148464409Y-79779585D01*
X148505890Y-79775500D01*
X149182110Y-79775500D01*
X149223591Y-79779585D01*
X149223591Y-79779585D01*
G37*
G36*
X135408811Y-77697605D02*
X135447867Y-77709453D01*
X135483863Y-77728693D01*
X135515414Y-77754586D01*
X135541307Y-77786137D01*
X135560547Y-77822133D01*
X135572395Y-77861189D01*
X135577000Y-77907949D01*
X135577000Y-78655051D01*
X135572395Y-78701811D01*
X135560547Y-78740867D01*
X135541307Y-78776863D01*
X135515414Y-78808414D01*
X135483863Y-78834307D01*
X135447867Y-78853547D01*
X135408811Y-78865395D01*
X135366092Y-78869602D01*
X135342059Y-78874382D01*
X135319420Y-78883760D01*
X135299045Y-78897374D01*
X135281718Y-78914701D01*
X135268104Y-78935075D01*
X135258727Y-78957714D01*
X135253946Y-78981748D01*
X135253946Y-79006252D01*
X135258726Y-79030285D01*
X135268104Y-79052924D01*
X135281718Y-79073299D01*
X135299045Y-79090626D01*
X135319419Y-79104240D01*
X135342058Y-79113617D01*
X135366092Y-79118398D01*
X135408811Y-79122605D01*
X135447867Y-79134453D01*
X135483863Y-79153693D01*
X135515414Y-79179586D01*
X135541307Y-79211137D01*
X135560547Y-79247133D01*
X135572395Y-79286189D01*
X135577000Y-79332949D01*
X135577000Y-80080051D01*
X135572395Y-80126811D01*
X135560547Y-80165867D01*
X135541307Y-80201863D01*
X135515414Y-80233414D01*
X135483863Y-80259307D01*
X135447867Y-80278547D01*
X135408811Y-80290395D01*
X135362051Y-80295000D01*
X134639949Y-80295000D01*
X134593189Y-80290395D01*
X134554133Y-80278547D01*
X134518137Y-80259307D01*
X134486586Y-80233414D01*
X134460693Y-80201863D01*
X134441453Y-80165867D01*
X134429605Y-80126811D01*
X134425000Y-80080051D01*
X134425000Y-79332949D01*
X134429605Y-79286189D01*
X134441453Y-79247133D01*
X134460693Y-79211137D01*
X134486586Y-79179586D01*
X134518137Y-79153693D01*
X134554133Y-79134453D01*
X134593189Y-79122605D01*
X134635908Y-79118398D01*
X134659941Y-79113618D01*
X134682580Y-79104240D01*
X134702955Y-79090626D01*
X134720282Y-79073299D01*
X134733896Y-79052925D01*
X134743273Y-79030286D01*
X134748054Y-79006252D01*
X134748054Y-78981748D01*
X134743274Y-78957715D01*
X134733896Y-78935076D01*
X134720282Y-78914701D01*
X134702955Y-78897374D01*
X134682581Y-78883760D01*
X134659942Y-78874383D01*
X134635908Y-78869602D01*
X134593189Y-78865395D01*
X134554133Y-78853547D01*
X134518137Y-78834307D01*
X134486586Y-78808414D01*
X134460693Y-78776863D01*
X134441453Y-78740867D01*
X134429605Y-78701811D01*
X134425000Y-78655051D01*
X134425000Y-77907949D01*
X134429605Y-77861189D01*
X134441453Y-77822133D01*
X134460693Y-77786137D01*
X134486586Y-77754586D01*
X134518137Y-77728693D01*
X134554133Y-77709453D01*
X134593189Y-77697605D01*
X134639949Y-77693000D01*
X135362051Y-77693000D01*
X135408811Y-77697605D01*
X135408811Y-77697605D01*
G37*
G36*
X151890591Y-79170085D02*
X151924569Y-79180393D01*
X151955887Y-79197133D01*
X151983339Y-79219661D01*
X152005867Y-79247113D01*
X152022607Y-79278431D01*
X152032915Y-79312409D01*
X152037000Y-79353890D01*
X152037000Y-79955110D01*
X152032915Y-79996591D01*
X152022607Y-80030569D01*
X152005867Y-80061887D01*
X151983339Y-80089339D01*
X151955887Y-80111867D01*
X151924569Y-80128607D01*
X151890591Y-80138915D01*
X151849110Y-80143000D01*
X151172890Y-80143000D01*
X151131409Y-80138915D01*
X151097431Y-80128607D01*
X151066113Y-80111867D01*
X151038661Y-80089339D01*
X151016133Y-80061887D01*
X150999393Y-80030569D01*
X150989085Y-79996591D01*
X150985000Y-79955110D01*
X150985000Y-79353890D01*
X150989085Y-79312409D01*
X150999393Y-79278431D01*
X151016133Y-79247113D01*
X151038661Y-79219661D01*
X151066113Y-79197133D01*
X151097431Y-79180393D01*
X151131409Y-79170085D01*
X151172890Y-79166000D01*
X151849110Y-79166000D01*
X151890591Y-79170085D01*
X151890591Y-79170085D01*
G37*
G36*
X131681000Y-79428000D02*
X126499000Y-79428000D01*
X126499000Y-77036000D01*
X131681000Y-77036000D01*
X131681000Y-79428000D01*
X131681000Y-79428000D01*
G37*
G36*
X179376565Y-77221389D02*
X179567834Y-77300615D01*
X179739976Y-77415637D01*
X179886363Y-77562024D01*
X180001385Y-77734166D01*
X180080611Y-77925435D01*
X180121000Y-78128484D01*
X180121000Y-78335516D01*
X180080611Y-78538565D01*
X180001385Y-78729834D01*
X179886363Y-78901976D01*
X179739976Y-79048363D01*
X179567834Y-79163385D01*
X179376565Y-79242611D01*
X179173516Y-79283000D01*
X178966484Y-79283000D01*
X178763435Y-79242611D01*
X178572166Y-79163385D01*
X178400024Y-79048363D01*
X178253637Y-78901976D01*
X178138615Y-78729834D01*
X178059389Y-78538565D01*
X178019000Y-78335516D01*
X178019000Y-78128484D01*
X178059389Y-77925435D01*
X178138615Y-77734166D01*
X178253637Y-77562024D01*
X178400024Y-77415637D01*
X178572166Y-77300615D01*
X178763435Y-77221389D01*
X178966484Y-77181000D01*
X179173516Y-77181000D01*
X179376565Y-77221389D01*
X179376565Y-77221389D01*
G37*
G36*
X149223591Y-78204585D02*
X149257569Y-78214893D01*
X149288887Y-78231633D01*
X149316339Y-78254161D01*
X149338867Y-78281613D01*
X149355607Y-78312931D01*
X149365915Y-78346909D01*
X149370000Y-78388390D01*
X149370000Y-78989610D01*
X149365915Y-79031091D01*
X149355607Y-79065069D01*
X149338867Y-79096387D01*
X149316339Y-79123839D01*
X149288887Y-79146367D01*
X149257569Y-79163107D01*
X149223591Y-79173415D01*
X149182110Y-79177500D01*
X148505890Y-79177500D01*
X148464409Y-79173415D01*
X148430431Y-79163107D01*
X148399113Y-79146367D01*
X148371661Y-79123839D01*
X148349133Y-79096387D01*
X148332393Y-79065069D01*
X148322085Y-79031091D01*
X148318000Y-78989610D01*
X148318000Y-78388390D01*
X148322085Y-78346909D01*
X148332393Y-78312931D01*
X148349133Y-78281613D01*
X148371661Y-78254161D01*
X148399113Y-78231633D01*
X148430431Y-78214893D01*
X148464409Y-78204585D01*
X148505890Y-78200500D01*
X149182110Y-78200500D01*
X149223591Y-78204585D01*
X149223591Y-78204585D01*
G37*
G36*
X155573591Y-78154085D02*
X155607569Y-78164393D01*
X155638887Y-78181133D01*
X155666339Y-78203661D01*
X155688867Y-78231113D01*
X155705607Y-78262431D01*
X155715915Y-78296409D01*
X155720000Y-78337890D01*
X155720000Y-78939110D01*
X155715915Y-78980591D01*
X155705607Y-79014569D01*
X155688867Y-79045887D01*
X155666339Y-79073339D01*
X155638887Y-79095867D01*
X155607569Y-79112607D01*
X155573591Y-79122915D01*
X155532110Y-79127000D01*
X154855890Y-79127000D01*
X154814409Y-79122915D01*
X154780431Y-79112607D01*
X154749113Y-79095867D01*
X154721661Y-79073339D01*
X154699133Y-79045887D01*
X154682393Y-79014569D01*
X154672085Y-78980591D01*
X154668000Y-78939110D01*
X154668000Y-78337890D01*
X154672085Y-78296409D01*
X154682393Y-78262431D01*
X154699133Y-78231113D01*
X154721661Y-78203661D01*
X154749113Y-78181133D01*
X154780431Y-78164393D01*
X154814409Y-78154085D01*
X154855890Y-78150000D01*
X155532110Y-78150000D01*
X155573591Y-78154085D01*
X155573591Y-78154085D01*
G37*
G36*
X153922591Y-78154085D02*
X153956569Y-78164393D01*
X153987887Y-78181133D01*
X154015339Y-78203661D01*
X154037867Y-78231113D01*
X154054607Y-78262431D01*
X154064915Y-78296409D01*
X154069000Y-78337890D01*
X154069000Y-78939110D01*
X154064915Y-78980591D01*
X154054607Y-79014569D01*
X154037867Y-79045887D01*
X154015339Y-79073339D01*
X153987887Y-79095867D01*
X153956569Y-79112607D01*
X153922591Y-79122915D01*
X153881110Y-79127000D01*
X153204890Y-79127000D01*
X153163409Y-79122915D01*
X153129431Y-79112607D01*
X153098113Y-79095867D01*
X153070661Y-79073339D01*
X153048133Y-79045887D01*
X153031393Y-79014569D01*
X153021085Y-78980591D01*
X153017000Y-78939110D01*
X153017000Y-78337890D01*
X153021085Y-78296409D01*
X153031393Y-78262431D01*
X153048133Y-78231113D01*
X153070661Y-78203661D01*
X153098113Y-78181133D01*
X153129431Y-78164393D01*
X153163409Y-78154085D01*
X153204890Y-78150000D01*
X153881110Y-78150000D01*
X153922591Y-78154085D01*
X153922591Y-78154085D01*
G37*
G36*
X157224591Y-78154085D02*
X157258569Y-78164393D01*
X157289887Y-78181133D01*
X157317339Y-78203661D01*
X157339867Y-78231113D01*
X157356607Y-78262431D01*
X157366915Y-78296409D01*
X157371000Y-78337890D01*
X157371000Y-78939110D01*
X157366915Y-78980591D01*
X157356607Y-79014569D01*
X157339867Y-79045887D01*
X157317339Y-79073339D01*
X157289887Y-79095867D01*
X157258569Y-79112607D01*
X157224591Y-79122915D01*
X157183110Y-79127000D01*
X156506890Y-79127000D01*
X156465409Y-79122915D01*
X156431431Y-79112607D01*
X156400113Y-79095867D01*
X156372661Y-79073339D01*
X156350133Y-79045887D01*
X156333393Y-79014569D01*
X156323085Y-78980591D01*
X156319000Y-78939110D01*
X156319000Y-78337890D01*
X156323085Y-78296409D01*
X156333393Y-78262431D01*
X156350133Y-78231113D01*
X156372661Y-78203661D01*
X156400113Y-78181133D01*
X156431431Y-78164393D01*
X156465409Y-78154085D01*
X156506890Y-78150000D01*
X157183110Y-78150000D01*
X157224591Y-78154085D01*
X157224591Y-78154085D01*
G37*
G36*
X151890591Y-77595085D02*
X151924569Y-77605393D01*
X151955887Y-77622133D01*
X151983339Y-77644661D01*
X152005867Y-77672113D01*
X152022607Y-77703431D01*
X152032915Y-77737409D01*
X152037000Y-77778890D01*
X152037000Y-78380110D01*
X152032915Y-78421591D01*
X152022607Y-78455569D01*
X152005867Y-78486887D01*
X151983339Y-78514339D01*
X151955887Y-78536867D01*
X151924569Y-78553607D01*
X151890591Y-78563915D01*
X151849110Y-78568000D01*
X151172890Y-78568000D01*
X151131409Y-78563915D01*
X151097431Y-78553607D01*
X151066113Y-78536867D01*
X151038661Y-78514339D01*
X151016133Y-78486887D01*
X150999393Y-78455569D01*
X150989085Y-78421591D01*
X150985000Y-78380110D01*
X150985000Y-77778890D01*
X150989085Y-77737409D01*
X150999393Y-77703431D01*
X151016133Y-77672113D01*
X151038661Y-77644661D01*
X151066113Y-77622133D01*
X151097431Y-77605393D01*
X151131409Y-77595085D01*
X151172890Y-77591000D01*
X151849110Y-77591000D01*
X151890591Y-77595085D01*
X151890591Y-77595085D01*
G37*
G36*
X153922591Y-76579085D02*
X153956569Y-76589393D01*
X153987887Y-76606133D01*
X154015339Y-76628661D01*
X154037867Y-76656113D01*
X154054607Y-76687431D01*
X154064915Y-76721409D01*
X154069000Y-76762890D01*
X154069000Y-77364110D01*
X154064915Y-77405591D01*
X154054607Y-77439569D01*
X154037867Y-77470887D01*
X154015339Y-77498339D01*
X153987887Y-77520867D01*
X153956569Y-77537607D01*
X153922591Y-77547915D01*
X153881110Y-77552000D01*
X153204890Y-77552000D01*
X153163409Y-77547915D01*
X153129431Y-77537607D01*
X153098113Y-77520867D01*
X153070661Y-77498339D01*
X153048133Y-77470887D01*
X153031393Y-77439569D01*
X153021085Y-77405591D01*
X153017000Y-77364110D01*
X153017000Y-76762890D01*
X153021085Y-76721409D01*
X153031393Y-76687431D01*
X153048133Y-76656113D01*
X153070661Y-76628661D01*
X153098113Y-76606133D01*
X153129431Y-76589393D01*
X153163409Y-76579085D01*
X153204890Y-76575000D01*
X153881110Y-76575000D01*
X153922591Y-76579085D01*
X153922591Y-76579085D01*
G37*
G36*
X157224591Y-76579085D02*
X157258569Y-76589393D01*
X157289887Y-76606133D01*
X157317339Y-76628661D01*
X157339867Y-76656113D01*
X157356607Y-76687431D01*
X157366915Y-76721409D01*
X157371000Y-76762890D01*
X157371000Y-77364110D01*
X157366915Y-77405591D01*
X157356607Y-77439569D01*
X157339867Y-77470887D01*
X157317339Y-77498339D01*
X157289887Y-77520867D01*
X157258569Y-77537607D01*
X157224591Y-77547915D01*
X157183110Y-77552000D01*
X156506890Y-77552000D01*
X156465409Y-77547915D01*
X156431431Y-77537607D01*
X156400113Y-77520867D01*
X156372661Y-77498339D01*
X156350133Y-77470887D01*
X156333393Y-77439569D01*
X156323085Y-77405591D01*
X156319000Y-77364110D01*
X156319000Y-76762890D01*
X156323085Y-76721409D01*
X156333393Y-76687431D01*
X156350133Y-76656113D01*
X156372661Y-76628661D01*
X156400113Y-76606133D01*
X156431431Y-76589393D01*
X156465409Y-76579085D01*
X156506890Y-76575000D01*
X157183110Y-76575000D01*
X157224591Y-76579085D01*
X157224591Y-76579085D01*
G37*
G36*
X155573591Y-76579085D02*
X155607569Y-76589393D01*
X155638887Y-76606133D01*
X155666339Y-76628661D01*
X155688867Y-76656113D01*
X155705607Y-76687431D01*
X155715915Y-76721409D01*
X155720000Y-76762890D01*
X155720000Y-77364110D01*
X155715915Y-77405591D01*
X155705607Y-77439569D01*
X155688867Y-77470887D01*
X155666339Y-77498339D01*
X155638887Y-77520867D01*
X155607569Y-77537607D01*
X155573591Y-77547915D01*
X155532110Y-77552000D01*
X154855890Y-77552000D01*
X154814409Y-77547915D01*
X154780431Y-77537607D01*
X154749113Y-77520867D01*
X154721661Y-77498339D01*
X154699133Y-77470887D01*
X154682393Y-77439569D01*
X154672085Y-77405591D01*
X154668000Y-77364110D01*
X154668000Y-76762890D01*
X154672085Y-76721409D01*
X154682393Y-76687431D01*
X154699133Y-76656113D01*
X154721661Y-76628661D01*
X154749113Y-76606133D01*
X154780431Y-76589393D01*
X154814409Y-76579085D01*
X154855890Y-76575000D01*
X155532110Y-76575000D01*
X155573591Y-76579085D01*
X155573591Y-76579085D01*
G37*
G36*
X176295331Y-73200211D02*
X176623092Y-73335974D01*
X176918073Y-73533074D01*
X177168926Y-73783927D01*
X177366026Y-74078908D01*
X177501789Y-74406669D01*
X177571000Y-74754616D01*
X177571000Y-75109384D01*
X177501789Y-75457331D01*
X177366026Y-75785092D01*
X177168926Y-76080073D01*
X176918073Y-76330926D01*
X176623092Y-76528026D01*
X176295331Y-76663789D01*
X175947384Y-76733000D01*
X175592616Y-76733000D01*
X175244669Y-76663789D01*
X174916908Y-76528026D01*
X174621927Y-76330926D01*
X174371074Y-76080073D01*
X174173974Y-75785092D01*
X174038211Y-75457331D01*
X173969000Y-75109384D01*
X173969000Y-74754616D01*
X174038211Y-74406669D01*
X174173974Y-74078908D01*
X174371074Y-73783927D01*
X174621927Y-73533074D01*
X174916908Y-73335974D01*
X175244669Y-73200211D01*
X175592616Y-73131000D01*
X175947384Y-73131000D01*
X176295331Y-73200211D01*
X176295331Y-73200211D01*
G37*
G36*
X182895331Y-73200211D02*
X183223092Y-73335974D01*
X183518073Y-73533074D01*
X183768926Y-73783927D01*
X183966026Y-74078908D01*
X184101789Y-74406669D01*
X184171000Y-74754616D01*
X184171000Y-75109384D01*
X184101789Y-75457331D01*
X183966026Y-75785092D01*
X183768926Y-76080073D01*
X183518073Y-76330926D01*
X183223092Y-76528026D01*
X182895331Y-76663789D01*
X182547384Y-76733000D01*
X182192616Y-76733000D01*
X181844669Y-76663789D01*
X181516908Y-76528026D01*
X181221927Y-76330926D01*
X180971074Y-76080073D01*
X180773974Y-75785092D01*
X180638211Y-75457331D01*
X180569000Y-75109384D01*
X180569000Y-74754616D01*
X180638211Y-74406669D01*
X180773974Y-74078908D01*
X180971074Y-73783927D01*
X181221927Y-73533074D01*
X181516908Y-73335974D01*
X181844669Y-73200211D01*
X182192616Y-73131000D01*
X182547384Y-73131000D01*
X182895331Y-73200211D01*
X182895331Y-73200211D01*
G37*
G36*
X154139811Y-74739605D02*
X154178867Y-74751453D01*
X154214863Y-74770693D01*
X154246414Y-74796586D01*
X154272307Y-74828137D01*
X154291547Y-74864133D01*
X154303395Y-74903189D01*
X154307602Y-74945908D01*
X154312382Y-74969941D01*
X154321760Y-74992580D01*
X154335374Y-75012955D01*
X154352701Y-75030282D01*
X154373075Y-75043896D01*
X154395714Y-75053273D01*
X154419748Y-75058054D01*
X154444252Y-75058054D01*
X154468285Y-75053274D01*
X154490924Y-75043896D01*
X154511299Y-75030282D01*
X154528626Y-75012955D01*
X154542240Y-74992581D01*
X154551617Y-74969942D01*
X154556398Y-74945908D01*
X154560605Y-74903189D01*
X154572453Y-74864133D01*
X154591693Y-74828137D01*
X154617586Y-74796586D01*
X154649137Y-74770693D01*
X154685133Y-74751453D01*
X154724189Y-74739605D01*
X154770949Y-74735000D01*
X155518051Y-74735000D01*
X155564811Y-74739605D01*
X155603867Y-74751453D01*
X155639863Y-74770693D01*
X155671414Y-74796586D01*
X155697307Y-74828137D01*
X155716547Y-74864133D01*
X155728395Y-74903189D01*
X155733000Y-74949949D01*
X155733000Y-75672051D01*
X155728395Y-75718811D01*
X155716547Y-75757867D01*
X155697307Y-75793863D01*
X155671414Y-75825414D01*
X155639863Y-75851307D01*
X155603867Y-75870547D01*
X155564811Y-75882395D01*
X155518051Y-75887000D01*
X154770949Y-75887000D01*
X154724189Y-75882395D01*
X154685133Y-75870547D01*
X154649137Y-75851307D01*
X154617586Y-75825414D01*
X154591693Y-75793863D01*
X154572453Y-75757867D01*
X154560605Y-75718811D01*
X154556398Y-75676092D01*
X154551618Y-75652059D01*
X154542240Y-75629420D01*
X154528626Y-75609045D01*
X154511299Y-75591718D01*
X154490925Y-75578104D01*
X154468286Y-75568727D01*
X154444252Y-75563946D01*
X154419748Y-75563946D01*
X154395715Y-75568726D01*
X154373076Y-75578104D01*
X154352701Y-75591718D01*
X154335374Y-75609045D01*
X154321760Y-75629419D01*
X154312383Y-75652058D01*
X154307602Y-75676092D01*
X154303395Y-75718811D01*
X154291547Y-75757867D01*
X154272307Y-75793863D01*
X154246414Y-75825414D01*
X154214863Y-75851307D01*
X154178867Y-75870547D01*
X154139811Y-75882395D01*
X154093051Y-75887000D01*
X153345949Y-75887000D01*
X153299189Y-75882395D01*
X153260133Y-75870547D01*
X153224137Y-75851307D01*
X153192586Y-75825414D01*
X153166693Y-75793863D01*
X153147453Y-75757867D01*
X153135605Y-75718811D01*
X153131000Y-75672051D01*
X153131000Y-74949949D01*
X153135605Y-74903189D01*
X153147453Y-74864133D01*
X153166693Y-74828137D01*
X153192586Y-74796586D01*
X153224137Y-74770693D01*
X153260133Y-74751453D01*
X153299189Y-74739605D01*
X153345949Y-74735000D01*
X154093051Y-74735000D01*
X154139811Y-74739605D01*
X154139811Y-74739605D01*
G37*
G36*
X131681000Y-75113000D02*
X126499000Y-75113000D01*
X126499000Y-72591000D01*
X131681000Y-72591000D01*
X131681000Y-75113000D01*
X131681000Y-75113000D01*
G37*
G36*
X142117000Y-73129000D02*
X141215000Y-73129000D01*
X141215000Y-72127000D01*
X142117000Y-72127000D01*
X142117000Y-73129000D01*
X142117000Y-73129000D01*
G37*
G36*
X140217000Y-73129000D02*
X139315000Y-73129000D01*
X139315000Y-72127000D01*
X140217000Y-72127000D01*
X140217000Y-73129000D01*
X140217000Y-73129000D01*
G37*
G36*
X141167000Y-71129000D02*
X140265000Y-71129000D01*
X140265000Y-70127000D01*
X141167000Y-70127000D01*
X141167000Y-71129000D01*
X141167000Y-71129000D01*
G37*
G36*
X181912202Y-64894781D02*
X182187606Y-64949562D01*
X182706455Y-65164476D01*
X182983338Y-65349484D01*
X183173410Y-65476486D01*
X183570514Y-65873590D01*
X183570516Y-65873593D01*
X183882524Y-66340545D01*
X183933615Y-66463890D01*
X184097438Y-66859395D01*
X184207000Y-67410200D01*
X184207000Y-67971800D01*
X184176419Y-68125539D01*
X184097438Y-68522606D01*
X183882524Y-69041455D01*
X183839396Y-69106000D01*
X183570514Y-69508410D01*
X183173410Y-69905514D01*
X183173407Y-69905516D01*
X182706455Y-70217524D01*
X182187606Y-70432438D01*
X181912202Y-70487219D01*
X181636800Y-70542000D01*
X181075200Y-70542000D01*
X180799798Y-70487219D01*
X180524394Y-70432438D01*
X180005545Y-70217524D01*
X179538593Y-69905516D01*
X179538590Y-69905514D01*
X179141486Y-69508410D01*
X178872604Y-69106000D01*
X178829476Y-69041455D01*
X178614562Y-68522606D01*
X178535581Y-68125539D01*
X178505000Y-67971800D01*
X178505000Y-67410200D01*
X178614562Y-66859395D01*
X178778385Y-66463890D01*
X178829476Y-66340545D01*
X179141484Y-65873593D01*
X179141486Y-65873590D01*
X179538590Y-65476486D01*
X179728662Y-65349484D01*
X180005545Y-65164476D01*
X180524394Y-64949562D01*
X180799798Y-64894781D01*
X181075200Y-64840000D01*
X181636800Y-64840000D01*
X181912202Y-64894781D01*
X181912202Y-64894781D01*
G37*
G36*
X132187606Y-64822562D02*
X132706455Y-65037476D01*
X133170259Y-65347380D01*
X133173410Y-65349486D01*
X133570514Y-65746590D01*
X133570516Y-65746593D01*
X133882524Y-66213545D01*
X134009565Y-66520250D01*
X134097438Y-66732395D01*
X134207000Y-67283200D01*
X134207000Y-67844800D01*
X134164575Y-68058085D01*
X134097438Y-68395606D01*
X133882524Y-68914455D01*
X133757673Y-69101307D01*
X133570514Y-69381410D01*
X133173410Y-69778514D01*
X133173407Y-69778516D01*
X132706455Y-70090524D01*
X132187606Y-70305438D01*
X131636800Y-70415000D01*
X131075200Y-70415000D01*
X130524394Y-70305438D01*
X130005545Y-70090524D01*
X129538593Y-69778516D01*
X129538590Y-69778514D01*
X129141486Y-69381410D01*
X128954327Y-69101307D01*
X128829476Y-68914455D01*
X128614562Y-68395606D01*
X128547425Y-68058085D01*
X128505000Y-67844800D01*
X128505000Y-67283200D01*
X128614562Y-66732395D01*
X128702435Y-66520250D01*
X128829476Y-66213545D01*
X129141484Y-65746593D01*
X129141486Y-65746590D01*
X129538590Y-65349486D01*
X129541741Y-65347380D01*
X130005545Y-65037476D01*
X130524394Y-64822562D01*
X131075200Y-64713000D01*
X131636800Y-64713000D01*
X132187606Y-64822562D01*
X132187606Y-64822562D01*
G37*
G36*
X145147591Y-68058085D02*
X145181569Y-68068393D01*
X145212887Y-68085133D01*
X145240339Y-68107661D01*
X145262867Y-68135113D01*
X145279607Y-68166431D01*
X145289915Y-68200409D01*
X145294000Y-68241890D01*
X145294000Y-68918110D01*
X145289915Y-68959591D01*
X145279607Y-68993569D01*
X145262867Y-69024887D01*
X145240339Y-69052339D01*
X145212887Y-69074867D01*
X145181569Y-69091607D01*
X145147591Y-69101915D01*
X145106110Y-69106000D01*
X144504890Y-69106000D01*
X144463409Y-69101915D01*
X144429431Y-69091607D01*
X144398113Y-69074867D01*
X144370661Y-69052339D01*
X144348133Y-69024887D01*
X144331393Y-68993569D01*
X144321085Y-68959591D01*
X144317000Y-68918110D01*
X144317000Y-68241890D01*
X144321085Y-68200409D01*
X144331393Y-68166431D01*
X144348133Y-68135113D01*
X144370661Y-68107661D01*
X144398113Y-68085133D01*
X144429431Y-68068393D01*
X144463409Y-68058085D01*
X144504890Y-68054000D01*
X145106110Y-68054000D01*
X145147591Y-68058085D01*
X145147591Y-68058085D01*
G37*
G36*
X141845591Y-68058085D02*
X141879569Y-68068393D01*
X141910887Y-68085133D01*
X141938339Y-68107661D01*
X141960867Y-68135113D01*
X141977607Y-68166431D01*
X141987915Y-68200409D01*
X141992000Y-68241890D01*
X141992000Y-68918110D01*
X141987915Y-68959591D01*
X141977607Y-68993569D01*
X141960867Y-69024887D01*
X141938339Y-69052339D01*
X141910887Y-69074867D01*
X141879569Y-69091607D01*
X141845591Y-69101915D01*
X141804110Y-69106000D01*
X141202890Y-69106000D01*
X141161409Y-69101915D01*
X141127431Y-69091607D01*
X141096113Y-69074867D01*
X141068661Y-69052339D01*
X141046133Y-69024887D01*
X141029393Y-68993569D01*
X141019085Y-68959591D01*
X141015000Y-68918110D01*
X141015000Y-68241890D01*
X141019085Y-68200409D01*
X141029393Y-68166431D01*
X141046133Y-68135113D01*
X141068661Y-68107661D01*
X141096113Y-68085133D01*
X141127431Y-68068393D01*
X141161409Y-68058085D01*
X141202890Y-68054000D01*
X141804110Y-68054000D01*
X141845591Y-68058085D01*
X141845591Y-68058085D01*
G37*
G36*
X140270591Y-68058085D02*
X140304569Y-68068393D01*
X140335887Y-68085133D01*
X140363339Y-68107661D01*
X140385867Y-68135113D01*
X140402607Y-68166431D01*
X140412915Y-68200409D01*
X140417000Y-68241890D01*
X140417000Y-68918110D01*
X140412915Y-68959591D01*
X140402607Y-68993569D01*
X140385867Y-69024887D01*
X140363339Y-69052339D01*
X140335887Y-69074867D01*
X140304569Y-69091607D01*
X140270591Y-69101915D01*
X140229110Y-69106000D01*
X139627890Y-69106000D01*
X139586409Y-69101915D01*
X139552431Y-69091607D01*
X139521113Y-69074867D01*
X139493661Y-69052339D01*
X139471133Y-69024887D01*
X139454393Y-68993569D01*
X139444085Y-68959591D01*
X139440000Y-68918110D01*
X139440000Y-68241890D01*
X139444085Y-68200409D01*
X139454393Y-68166431D01*
X139471133Y-68135113D01*
X139493661Y-68107661D01*
X139521113Y-68085133D01*
X139552431Y-68068393D01*
X139586409Y-68058085D01*
X139627890Y-68054000D01*
X140229110Y-68054000D01*
X140270591Y-68058085D01*
X140270591Y-68058085D01*
G37*
G36*
X143572591Y-68058085D02*
X143606569Y-68068393D01*
X143637887Y-68085133D01*
X143665339Y-68107661D01*
X143687867Y-68135113D01*
X143704607Y-68166431D01*
X143714915Y-68200409D01*
X143719000Y-68241890D01*
X143719000Y-68918110D01*
X143714915Y-68959591D01*
X143704607Y-68993569D01*
X143687867Y-69024887D01*
X143665339Y-69052339D01*
X143637887Y-69074867D01*
X143606569Y-69091607D01*
X143572591Y-69101915D01*
X143531110Y-69106000D01*
X142929890Y-69106000D01*
X142888409Y-69101915D01*
X142854431Y-69091607D01*
X142823113Y-69074867D01*
X142795661Y-69052339D01*
X142773133Y-69024887D01*
X142756393Y-68993569D01*
X142746085Y-68959591D01*
X142742000Y-68918110D01*
X142742000Y-68241890D01*
X142746085Y-68200409D01*
X142756393Y-68166431D01*
X142773133Y-68135113D01*
X142795661Y-68107661D01*
X142823113Y-68085133D01*
X142854431Y-68068393D01*
X142888409Y-68058085D01*
X142929890Y-68054000D01*
X143531110Y-68054000D01*
X143572591Y-68058085D01*
X143572591Y-68058085D01*
G37*
G36*
X143547091Y-66280085D02*
X143581069Y-66290393D01*
X143612387Y-66307133D01*
X143639839Y-66329661D01*
X143662367Y-66357113D01*
X143679107Y-66388431D01*
X143689415Y-66422409D01*
X143693500Y-66463890D01*
X143693500Y-67140110D01*
X143689415Y-67181591D01*
X143679107Y-67215569D01*
X143662367Y-67246887D01*
X143639839Y-67274339D01*
X143612387Y-67296867D01*
X143581069Y-67313607D01*
X143547091Y-67323915D01*
X143505610Y-67328000D01*
X142904390Y-67328000D01*
X142862909Y-67323915D01*
X142828931Y-67313607D01*
X142797613Y-67296867D01*
X142770161Y-67274339D01*
X142747633Y-67246887D01*
X142730893Y-67215569D01*
X142720585Y-67181591D01*
X142716500Y-67140110D01*
X142716500Y-66463890D01*
X142720585Y-66422409D01*
X142730893Y-66388431D01*
X142747633Y-66357113D01*
X142770161Y-66329661D01*
X142797613Y-66307133D01*
X142828931Y-66290393D01*
X142862909Y-66280085D01*
X142904390Y-66276000D01*
X143505610Y-66276000D01*
X143547091Y-66280085D01*
X143547091Y-66280085D01*
G37*
G36*
X145122091Y-66280085D02*
X145156069Y-66290393D01*
X145187387Y-66307133D01*
X145214839Y-66329661D01*
X145237367Y-66357113D01*
X145254107Y-66388431D01*
X145264415Y-66422409D01*
X145268500Y-66463890D01*
X145268500Y-67140110D01*
X145264415Y-67181591D01*
X145254107Y-67215569D01*
X145237367Y-67246887D01*
X145214839Y-67274339D01*
X145187387Y-67296867D01*
X145156069Y-67313607D01*
X145122091Y-67323915D01*
X145080610Y-67328000D01*
X144479390Y-67328000D01*
X144437909Y-67323915D01*
X144403931Y-67313607D01*
X144372613Y-67296867D01*
X144345161Y-67274339D01*
X144322633Y-67246887D01*
X144305893Y-67215569D01*
X144295585Y-67181591D01*
X144291500Y-67140110D01*
X144291500Y-66463890D01*
X144295585Y-66422409D01*
X144305893Y-66388431D01*
X144322633Y-66357113D01*
X144345161Y-66329661D01*
X144372613Y-66307133D01*
X144403931Y-66290393D01*
X144437909Y-66280085D01*
X144479390Y-66276000D01*
X145080610Y-66276000D01*
X145122091Y-66280085D01*
X145122091Y-66280085D01*
G37*
G36*
X141845591Y-66280085D02*
X141879569Y-66290393D01*
X141910887Y-66307133D01*
X141938339Y-66329661D01*
X141960867Y-66357113D01*
X141977607Y-66388431D01*
X141987915Y-66422409D01*
X141992000Y-66463890D01*
X141992000Y-67140110D01*
X141987915Y-67181591D01*
X141977607Y-67215569D01*
X141960867Y-67246887D01*
X141938339Y-67274339D01*
X141910887Y-67296867D01*
X141879569Y-67313607D01*
X141845591Y-67323915D01*
X141804110Y-67328000D01*
X141202890Y-67328000D01*
X141161409Y-67323915D01*
X141127431Y-67313607D01*
X141096113Y-67296867D01*
X141068661Y-67274339D01*
X141046133Y-67246887D01*
X141029393Y-67215569D01*
X141019085Y-67181591D01*
X141015000Y-67140110D01*
X141015000Y-66463890D01*
X141019085Y-66422409D01*
X141029393Y-66388431D01*
X141046133Y-66357113D01*
X141068661Y-66329661D01*
X141096113Y-66307133D01*
X141127431Y-66290393D01*
X141161409Y-66280085D01*
X141202890Y-66276000D01*
X141804110Y-66276000D01*
X141845591Y-66280085D01*
X141845591Y-66280085D01*
G37*
G36*
X140270591Y-66280085D02*
X140304569Y-66290393D01*
X140335887Y-66307133D01*
X140363339Y-66329661D01*
X140385867Y-66357113D01*
X140402607Y-66388431D01*
X140412915Y-66422409D01*
X140417000Y-66463890D01*
X140417000Y-67140110D01*
X140412915Y-67181591D01*
X140402607Y-67215569D01*
X140385867Y-67246887D01*
X140363339Y-67274339D01*
X140335887Y-67296867D01*
X140304569Y-67313607D01*
X140270591Y-67323915D01*
X140229110Y-67328000D01*
X139627890Y-67328000D01*
X139586409Y-67323915D01*
X139552431Y-67313607D01*
X139521113Y-67296867D01*
X139493661Y-67274339D01*
X139471133Y-67246887D01*
X139454393Y-67215569D01*
X139444085Y-67181591D01*
X139440000Y-67140110D01*
X139440000Y-66463890D01*
X139444085Y-66422409D01*
X139454393Y-66388431D01*
X139471133Y-66357113D01*
X139493661Y-66329661D01*
X139521113Y-66307133D01*
X139552431Y-66290393D01*
X139586409Y-66280085D01*
X139627890Y-66276000D01*
X140229110Y-66276000D01*
X140270591Y-66280085D01*
X140270591Y-66280085D01*
G37*
M02*
