M48
;DRILL file {KiCad (6.0.0-rc1-dev-1233-g630baa372)} date Thu 22 Nov 2018 12:06:39 AM CET
;FORMAT={-:-/ absolute / inch / decimal}
FMAT,2
INCH
T1C0.0118
T2C0.0181
T3C0.0394
T4C0.0461
T5C0.0831
T6C0.1260
%
G90
G05
T1
X4.94Y-2.52
X4.94Y-2.63
X4.94Y-2.74
X4.94Y-2.85
X4.94Y-2.96
X4.94Y-3.94
X4.94Y-4.09
X4.94Y-4.22
X4.94Y-4.37
X5.02Y-2.78
X5.03Y-4.11
X5.085Y-2.52
X5.0947Y-4.37
X5.21Y-3.93
X5.23Y-2.52
X5.2493Y-4.37
X5.27Y-2.97
X5.28Y-3.93
X5.31Y-2.88
X5.31Y-4.02
X5.33Y-2.97
X5.35Y-3.93
X5.36Y-4.14
X5.375Y-2.52
X5.38Y-2.69
X5.4Y-2.97
X5.4Y-3.05
X5.4Y-3.12
X5.4Y-3.19
X5.4Y-3.26
X5.4Y-3.33
X5.4Y-3.61
X5.4Y-3.68
X5.4Y-3.75
X5.4Y-3.82
X5.4Y-3.88
X5.404Y-4.37
X5.44Y-4.28
X5.47Y-3.33
X5.47Y-3.61
X5.48Y-4.03
X5.49Y-3.08
X5.5Y-3.76
X5.51Y-3.21
X5.52Y-2.52
X5.53Y-3.28
X5.55Y-3.61
X5.5587Y-4.37
X5.5667Y-2.995
X5.59Y-4.23
X5.591Y-3.4539
X5.614Y-3.6361
X5.625Y-2.795
X5.63Y-3.26
X5.63Y-3.93
X5.645Y-3.6303
X5.665Y-2.52
X5.7133Y-4.37
X5.72Y-4.27
X5.74Y-3.78
X5.75Y-3.835
X5.77Y-2.955
X5.81Y-2.52
X5.825Y-3.975
X5.868Y-4.37
X5.875Y-3.65
X5.895Y-3.84
X5.92Y-2.64
X5.945Y-3.175
X5.955Y-2.52
X5.963Y-3.21
X5.975Y-2.995
X5.98Y-3.175
X6.0Y-4.27
X6.0227Y-4.37
X6.025Y-3.875
X6.03Y-2.9
X6.03Y-3.96
X6.0495Y-3.326
X6.055Y-3.275
X6.08Y-3.3645
X6.08Y-3.615
X6.095Y-3.78
X6.1Y-2.52
X6.1055Y-3.152
X6.1055Y-3.2355
X6.107Y-3.313
X6.11Y-2.8
X6.13Y-3.97
X6.14Y-2.9
X6.1773Y-4.37
X6.185Y-3.935
X6.225Y-3.87
X6.23Y-3.02
X6.23Y-3.98
X6.2365Y-3.4275
X6.245Y-2.52
X6.251Y-3.5895
X6.26Y-3.395
X6.2625Y-3.4595
X6.27Y-2.9
X6.28Y-4.27
X6.29Y-3.26
X6.3Y-2.63
X6.3Y-3.805
X6.32Y-3.02
X6.33Y-3.945
X6.332Y-4.37
X6.36Y-2.9
X6.361Y-3.4665
X6.365Y-3.66
X6.377Y-3.5245
X6.38Y-3.13
X6.39Y-2.52
X6.39Y-3.26
X6.42Y-3.02
X6.43Y-3.4
X6.47Y-2.9
X6.48Y-3.4
X6.4867Y-4.37
X6.49Y-3.02
X6.5Y-2.81
X6.5Y-3.26
X6.535Y-2.52
X6.55Y-3.07
X6.55Y-4.26
X6.56Y-3.48
X6.56Y-3.55
X6.56Y-3.63
X6.56Y-3.72
X6.57Y-2.9
X6.57Y-3.28
X6.6Y-3.91
X6.62Y-2.95
X6.62Y-3.14
X6.63Y-3.79
X6.64Y-3.35
X6.6413Y-4.37
X6.65Y-4.06
X6.66Y-2.62
X6.68Y-2.52
X6.68Y-3.24
X6.69Y-3.02
X6.69Y-3.85
X6.7Y-3.42
X6.7Y-3.51
X6.7Y-3.6
X6.7Y-3.66
X6.75Y-3.14
X6.76Y-3.72
X6.78Y-3.02
X6.78Y-4.25
X6.79Y-3.34
X6.79Y-3.85
X6.79Y-3.96
X6.796Y-4.37
X6.825Y-2.52
X6.85Y-2.79
X6.85Y-3.14
X6.85Y-3.72
X6.86Y-3.02
X6.88Y-4.07
X6.93Y-3.49
X6.9507Y-4.37
X6.97Y-2.52
X6.99Y-4.23
X7.06Y-4.06
X7.07Y-3.36
X7.1053Y-4.37
X7.115Y-2.52
X7.13Y-3.48
X7.26Y-2.52
X7.26Y-2.6623
X7.26Y-2.8046
X7.26Y-2.9469
X7.26Y-3.0892
X7.26Y-3.2315
X7.26Y-3.3738
X7.26Y-3.5162
X7.26Y-3.6585
X7.26Y-3.8008
X7.26Y-3.9431
X7.26Y-4.0854
X7.26Y-4.2277
X7.26Y-4.37
X5.9305Y-3.4305
X5.9305Y-3.4895
X5.96Y-3.46
X5.9895Y-3.4305
X5.9895Y-3.4895
T2
X5.2177Y-2.9076
X5.2177Y-3.2524
X5.2254Y-3.6476
X5.2254Y-3.9924
T3
X5.68Y-4.055
X5.68Y-4.155
X5.78Y-4.055
X5.78Y-4.155
X5.88Y-4.055
X5.88Y-4.155
X5.98Y-4.055
X5.98Y-4.155
X6.08Y-4.055
X6.08Y-4.155
X6.18Y-4.055
X6.18Y-4.155
X6.28Y-4.055
X6.28Y-4.155
X6.38Y-4.055
X6.38Y-4.155
X6.48Y-4.055
X6.48Y-4.155
T4
X7.05Y-3.08
X7.05Y-3.78
T5
X6.9201Y-2.9501
X6.9201Y-3.2099
X7.1799Y-2.9501
X7.1799Y-3.2099
X6.9201Y-3.6501
X6.9201Y-3.9099
X7.1799Y-3.6501
X7.1799Y-3.9099
T6
X7.14Y-2.665
X5.1715Y-4.24
X5.1715Y-2.66
X7.14Y-4.2398
T0
M30
