G04 #@! TF.GenerationSoftware,KiCad,Pcbnew,(6.0.0-rc1-dev-1233-g630baa372)*
G04 #@! TF.CreationDate,2018-11-22T01:35:06+01:00*
G04 #@! TF.ProjectId,sdi-devboard,7364692d-6465-4766-926f-6172642e6b69,rev?*
G04 #@! TF.SameCoordinates,Original*
G04 #@! TF.FileFunction,Legend,Bot*
G04 #@! TF.FilePolarity,Positive*
%FSLAX46Y46*%
G04 Gerber Fmt 4.6, Leading zero omitted, Abs format (unit mm)*
G04 Created by KiCad (PCBNEW (6.0.0-rc1-dev-1233-g630baa372)) date Thu 22 Nov 2018 01:35:06 AM CET*
%MOMM*%
%LPD*%
G01*
G04 APERTURE LIST*
%ADD10C,0.300000*%
%ADD11C,0.120000*%
%ADD12C,0.010000*%
%ADD13C,0.150000*%
%ADD14C,0.100000*%
%ADD15C,3.602000*%
%ADD16C,2.102000*%
%ADD17O,1.802000X1.802000*%
%ADD18R,1.802000X1.802000*%
%ADD19R,5.182000X2.522000*%
%ADD20C,5.702000*%
%ADD21C,0.977000*%
%ADD22C,1.152000*%
G04 APERTURE END LIST*
D10*
X162204285Y-94396000D02*
X162318571Y-94338857D01*
X162490000Y-94338857D01*
X162661428Y-94396000D01*
X162775714Y-94510285D01*
X162832857Y-94624571D01*
X162890000Y-94853142D01*
X162890000Y-95024571D01*
X162832857Y-95253142D01*
X162775714Y-95367428D01*
X162661428Y-95481714D01*
X162490000Y-95538857D01*
X162375714Y-95538857D01*
X162204285Y-95481714D01*
X162147142Y-95424571D01*
X162147142Y-95024571D01*
X162375714Y-95024571D01*
X161632857Y-95538857D02*
X161632857Y-94338857D01*
X160947142Y-95538857D01*
X160947142Y-94338857D01*
X160375714Y-95538857D02*
X160375714Y-94338857D01*
X160090000Y-94338857D01*
X159918571Y-94396000D01*
X159804285Y-94510285D01*
X159747142Y-94624571D01*
X159690000Y-94853142D01*
X159690000Y-95024571D01*
X159747142Y-95253142D01*
X159804285Y-95367428D01*
X159918571Y-95481714D01*
X160090000Y-95538857D01*
X160375714Y-95538857D01*
X162718571Y-91544857D02*
X161975714Y-91544857D01*
X162375714Y-92002000D01*
X162204285Y-92002000D01*
X162090000Y-92059142D01*
X162032857Y-92116285D01*
X161975714Y-92230571D01*
X161975714Y-92516285D01*
X162032857Y-92630571D01*
X162090000Y-92687714D01*
X162204285Y-92744857D01*
X162547142Y-92744857D01*
X162661428Y-92687714D01*
X162718571Y-92630571D01*
X161575714Y-91944857D02*
X161290000Y-92744857D01*
X161004285Y-91944857D01*
X160661428Y-91544857D02*
X159918571Y-91544857D01*
X160318571Y-92002000D01*
X160147142Y-92002000D01*
X160032857Y-92059142D01*
X159975714Y-92116285D01*
X159918571Y-92230571D01*
X159918571Y-92516285D01*
X159975714Y-92630571D01*
X160032857Y-92687714D01*
X160147142Y-92744857D01*
X160490000Y-92744857D01*
X160604285Y-92687714D01*
X160661428Y-92630571D01*
X166998428Y-86389333D02*
X168298428Y-86389333D01*
X167803190Y-86389333D02*
X167865095Y-86265523D01*
X167865095Y-86017904D01*
X167803190Y-85894095D01*
X167741285Y-85832190D01*
X167617476Y-85770285D01*
X167246047Y-85770285D01*
X167122238Y-85832190D01*
X167060333Y-85894095D01*
X166998428Y-86017904D01*
X166998428Y-86265523D01*
X167060333Y-86389333D01*
X166565095Y-86884571D02*
X166565095Y-87689333D01*
X167060333Y-87256000D01*
X167060333Y-87441714D01*
X167122238Y-87565523D01*
X167184142Y-87627428D01*
X167307952Y-87689333D01*
X167617476Y-87689333D01*
X167741285Y-87627428D01*
X167803190Y-87565523D01*
X167865095Y-87441714D01*
X167865095Y-87070285D01*
X167803190Y-86946476D01*
X167741285Y-86884571D01*
X167865095Y-88246476D02*
X166565095Y-88246476D01*
X167369857Y-88370285D02*
X167865095Y-88741714D01*
X166998428Y-88741714D02*
X167493666Y-88246476D01*
X167865095Y-90846476D02*
X166565095Y-90846476D01*
X167803190Y-90846476D02*
X167865095Y-90722666D01*
X167865095Y-90475047D01*
X167803190Y-90351238D01*
X167741285Y-90289333D01*
X167617476Y-90227428D01*
X167246047Y-90227428D01*
X167122238Y-90289333D01*
X167060333Y-90351238D01*
X166998428Y-90475047D01*
X166998428Y-90722666D01*
X167060333Y-90846476D01*
X167803190Y-91960761D02*
X167865095Y-91836952D01*
X167865095Y-91589333D01*
X167803190Y-91465523D01*
X167679380Y-91403619D01*
X167184142Y-91403619D01*
X167060333Y-91465523D01*
X166998428Y-91589333D01*
X166998428Y-91836952D01*
X167060333Y-91960761D01*
X167184142Y-92022666D01*
X167307952Y-92022666D01*
X167431761Y-91403619D01*
X167865095Y-92765523D02*
X167803190Y-92641714D01*
X167679380Y-92579809D01*
X166565095Y-92579809D01*
X167865095Y-93260761D02*
X166998428Y-93260761D01*
X166565095Y-93260761D02*
X166627000Y-93198857D01*
X166688904Y-93260761D01*
X166627000Y-93322666D01*
X166565095Y-93260761D01*
X166688904Y-93260761D01*
X166998428Y-93879809D02*
X167865095Y-93879809D01*
X167122238Y-93879809D02*
X167060333Y-93941714D01*
X166998428Y-94065523D01*
X166998428Y-94251238D01*
X167060333Y-94375047D01*
X167184142Y-94436952D01*
X167865095Y-94436952D01*
X167803190Y-95551238D02*
X167865095Y-95427428D01*
X167865095Y-95179809D01*
X167803190Y-95056000D01*
X167679380Y-94994095D01*
X167184142Y-94994095D01*
X167060333Y-95056000D01*
X166998428Y-95179809D01*
X166998428Y-95427428D01*
X167060333Y-95551238D01*
X167184142Y-95613142D01*
X167307952Y-95613142D01*
X167431761Y-94994095D01*
X167865095Y-96727428D02*
X167184142Y-96727428D01*
X167060333Y-96665523D01*
X166998428Y-96541714D01*
X166998428Y-96294095D01*
X167060333Y-96170285D01*
X167803190Y-96727428D02*
X167865095Y-96603619D01*
X167865095Y-96294095D01*
X167803190Y-96170285D01*
X167679380Y-96108380D01*
X167555571Y-96108380D01*
X167431761Y-96170285D01*
X167369857Y-96294095D01*
X167369857Y-96603619D01*
X167307952Y-96727428D01*
X166998428Y-97222666D02*
X167865095Y-97532190D01*
X166998428Y-97841714D01*
X167865095Y-98336952D02*
X166998428Y-98336952D01*
X166565095Y-98336952D02*
X166627000Y-98275047D01*
X166688904Y-98336952D01*
X166627000Y-98398857D01*
X166565095Y-98336952D01*
X166688904Y-98336952D01*
X166998428Y-98770285D02*
X166998428Y-99265523D01*
X166565095Y-98956000D02*
X167679380Y-98956000D01*
X167803190Y-99017904D01*
X167865095Y-99141714D01*
X167865095Y-99265523D01*
X170115095Y-84903619D02*
X169248428Y-84903619D01*
X169372238Y-84903619D02*
X169310333Y-84965523D01*
X169248428Y-85089333D01*
X169248428Y-85275047D01*
X169310333Y-85398857D01*
X169434142Y-85460761D01*
X170115095Y-85460761D01*
X169434142Y-85460761D02*
X169310333Y-85522666D01*
X169248428Y-85646476D01*
X169248428Y-85832190D01*
X169310333Y-85956000D01*
X169434142Y-86017904D01*
X170115095Y-86017904D01*
X169248428Y-87194095D02*
X170115095Y-87194095D01*
X169248428Y-86636952D02*
X169929380Y-86636952D01*
X170053190Y-86698857D01*
X170115095Y-86822666D01*
X170115095Y-87008380D01*
X170053190Y-87132190D01*
X169991285Y-87194095D01*
X170053190Y-88308380D02*
X170115095Y-88184571D01*
X170115095Y-87936952D01*
X170053190Y-87813142D01*
X169929380Y-87751238D01*
X169434142Y-87751238D01*
X169310333Y-87813142D01*
X169248428Y-87936952D01*
X169248428Y-88184571D01*
X169310333Y-88308380D01*
X169434142Y-88370285D01*
X169557952Y-88370285D01*
X169681761Y-87751238D01*
X169248428Y-88927428D02*
X170115095Y-88927428D01*
X169372238Y-88927428D02*
X169310333Y-88989333D01*
X169248428Y-89113142D01*
X169248428Y-89298857D01*
X169310333Y-89422666D01*
X169434142Y-89484571D01*
X170115095Y-89484571D01*
X170053190Y-90660761D02*
X170115095Y-90536952D01*
X170115095Y-90289333D01*
X170053190Y-90165523D01*
X169991285Y-90103619D01*
X169867476Y-90041714D01*
X169496047Y-90041714D01*
X169372238Y-90103619D01*
X169310333Y-90165523D01*
X169248428Y-90289333D01*
X169248428Y-90536952D01*
X169310333Y-90660761D01*
X170115095Y-91217904D02*
X168815095Y-91217904D01*
X170115095Y-91775047D02*
X169434142Y-91775047D01*
X169310333Y-91713142D01*
X169248428Y-91589333D01*
X169248428Y-91403619D01*
X169310333Y-91279809D01*
X169372238Y-91217904D01*
X170053190Y-92889333D02*
X170115095Y-92765523D01*
X170115095Y-92517904D01*
X170053190Y-92394095D01*
X169929380Y-92332190D01*
X169434142Y-92332190D01*
X169310333Y-92394095D01*
X169248428Y-92517904D01*
X169248428Y-92765523D01*
X169310333Y-92889333D01*
X169434142Y-92951238D01*
X169557952Y-92951238D01*
X169681761Y-92332190D01*
X169248428Y-93508380D02*
X170115095Y-93508380D01*
X169372238Y-93508380D02*
X169310333Y-93570285D01*
X169248428Y-93694095D01*
X169248428Y-93879809D01*
X169310333Y-94003619D01*
X169434142Y-94065523D01*
X170115095Y-94065523D01*
X168938904Y-95613142D02*
X168877000Y-95675047D01*
X168815095Y-95798857D01*
X168815095Y-96108380D01*
X168877000Y-96232190D01*
X168938904Y-96294095D01*
X169062714Y-96356000D01*
X169186523Y-96356000D01*
X169372238Y-96294095D01*
X170115095Y-95551238D01*
X170115095Y-96356000D01*
X168815095Y-97160761D02*
X168815095Y-97284571D01*
X168877000Y-97408380D01*
X168938904Y-97470285D01*
X169062714Y-97532190D01*
X169310333Y-97594095D01*
X169619857Y-97594095D01*
X169867476Y-97532190D01*
X169991285Y-97470285D01*
X170053190Y-97408380D01*
X170115095Y-97284571D01*
X170115095Y-97160761D01*
X170053190Y-97036952D01*
X169991285Y-96975047D01*
X169867476Y-96913142D01*
X169619857Y-96851238D01*
X169310333Y-96851238D01*
X169062714Y-96913142D01*
X168938904Y-96975047D01*
X168877000Y-97036952D01*
X168815095Y-97160761D01*
X170115095Y-98832190D02*
X170115095Y-98089333D01*
X170115095Y-98460761D02*
X168815095Y-98460761D01*
X169000809Y-98336952D01*
X169124619Y-98213142D01*
X169186523Y-98089333D01*
X169372238Y-99575047D02*
X169310333Y-99451238D01*
X169248428Y-99389333D01*
X169124619Y-99327428D01*
X169062714Y-99327428D01*
X168938904Y-99389333D01*
X168877000Y-99451238D01*
X168815095Y-99575047D01*
X168815095Y-99822666D01*
X168877000Y-99946476D01*
X168938904Y-100008380D01*
X169062714Y-100070285D01*
X169124619Y-100070285D01*
X169248428Y-100008380D01*
X169310333Y-99946476D01*
X169372238Y-99822666D01*
X169372238Y-99575047D01*
X169434142Y-99451238D01*
X169496047Y-99389333D01*
X169619857Y-99327428D01*
X169867476Y-99327428D01*
X169991285Y-99389333D01*
X170053190Y-99451238D01*
X170115095Y-99575047D01*
X170115095Y-99822666D01*
X170053190Y-99946476D01*
X169991285Y-100008380D01*
X169867476Y-100070285D01*
X169619857Y-100070285D01*
X169496047Y-100008380D01*
X169434142Y-99946476D01*
X169372238Y-99822666D01*
D11*
G04 #@! TO.C,C5*
X153795000Y-87411779D02*
X153795000Y-87086221D01*
X154815000Y-87411779D02*
X154815000Y-87086221D01*
G04 #@! TO.C,C2*
X150878000Y-93309221D02*
X150878000Y-93634779D01*
X149858000Y-93309221D02*
X149858000Y-93634779D01*
G04 #@! TO.C,C1*
X152804000Y-91962000D02*
X152804000Y-94272000D01*
X151234000Y-91962000D02*
X152804000Y-91962000D01*
X151234000Y-94272000D02*
X151234000Y-91962000D01*
D12*
G04 #@! TO.C,G\002A\002A\002A*
G36*
X151646811Y-76005501D02*
X151692948Y-76095308D01*
X151735632Y-76170464D01*
X151767976Y-76226116D01*
X151782167Y-76249002D01*
X151808843Y-76247210D01*
X151859221Y-76227179D01*
X151914461Y-76198436D01*
X151955723Y-76170507D01*
X151966181Y-76155960D01*
X151952653Y-76125770D01*
X151919329Y-76066139D01*
X151877599Y-75996800D01*
X151810022Y-75895135D01*
X151756728Y-75834733D01*
X151711345Y-75810442D01*
X151667499Y-75817115D01*
X151659891Y-75820877D01*
X151622337Y-75858771D01*
X151617757Y-75918490D01*
X151646811Y-76005501D01*
X151646811Y-76005501D01*
G37*
X151646811Y-76005501D02*
X151692948Y-76095308D01*
X151735632Y-76170464D01*
X151767976Y-76226116D01*
X151782167Y-76249002D01*
X151808843Y-76247210D01*
X151859221Y-76227179D01*
X151914461Y-76198436D01*
X151955723Y-76170507D01*
X151966181Y-76155960D01*
X151952653Y-76125770D01*
X151919329Y-76066139D01*
X151877599Y-75996800D01*
X151810022Y-75895135D01*
X151756728Y-75834733D01*
X151711345Y-75810442D01*
X151667499Y-75817115D01*
X151659891Y-75820877D01*
X151622337Y-75858771D01*
X151617757Y-75918490D01*
X151646811Y-76005501D01*
G36*
X156655261Y-74610330D02*
X156682614Y-74669760D01*
X156725811Y-74751784D01*
X156779026Y-74846340D01*
X156836432Y-74943369D01*
X156892200Y-75032810D01*
X156940505Y-75104604D01*
X156975518Y-75148689D01*
X156978718Y-75151794D01*
X157034519Y-75187605D01*
X157090086Y-75183052D01*
X157092650Y-75182094D01*
X157136559Y-75148327D01*
X157146208Y-75090664D01*
X157121266Y-75004654D01*
X157071990Y-74904790D01*
X157019392Y-74817423D01*
X156964461Y-74738564D01*
X156931488Y-74698882D01*
X156879604Y-74658838D01*
X156809317Y-74621064D01*
X156736569Y-74592082D01*
X156677302Y-74578413D01*
X156649579Y-74583553D01*
X156655261Y-74610330D01*
X156655261Y-74610330D01*
G37*
X156655261Y-74610330D02*
X156682614Y-74669760D01*
X156725811Y-74751784D01*
X156779026Y-74846340D01*
X156836432Y-74943369D01*
X156892200Y-75032810D01*
X156940505Y-75104604D01*
X156975518Y-75148689D01*
X156978718Y-75151794D01*
X157034519Y-75187605D01*
X157090086Y-75183052D01*
X157092650Y-75182094D01*
X157136559Y-75148327D01*
X157146208Y-75090664D01*
X157121266Y-75004654D01*
X157071990Y-74904790D01*
X157019392Y-74817423D01*
X156964461Y-74738564D01*
X156931488Y-74698882D01*
X156879604Y-74658838D01*
X156809317Y-74621064D01*
X156736569Y-74592082D01*
X156677302Y-74578413D01*
X156649579Y-74583553D01*
X156655261Y-74610330D01*
G36*
X163116010Y-70631189D02*
X163133951Y-70677821D01*
X163166481Y-70745271D01*
X163216000Y-70838719D01*
X163284907Y-70963343D01*
X163375601Y-71124322D01*
X163427772Y-71216367D01*
X163553417Y-71437182D01*
X163657079Y-71617149D01*
X163741463Y-71759816D01*
X163809272Y-71868733D01*
X163863213Y-71947447D01*
X163905991Y-71999508D01*
X163940311Y-72028464D01*
X163968878Y-72037864D01*
X163994397Y-72031257D01*
X164019574Y-72012192D01*
X164028120Y-72003920D01*
X164053588Y-71959901D01*
X164049392Y-71900454D01*
X164014259Y-71814855D01*
X164003118Y-71793100D01*
X163960910Y-71714802D01*
X163901981Y-71608613D01*
X163830474Y-71481702D01*
X163750533Y-71341241D01*
X163666302Y-71194402D01*
X163581925Y-71048354D01*
X163501547Y-70910270D01*
X163429310Y-70787321D01*
X163369359Y-70686677D01*
X163325837Y-70615509D01*
X163302889Y-70580990D01*
X163302264Y-70580250D01*
X163243135Y-70543232D01*
X163174363Y-70539492D01*
X163125734Y-70564425D01*
X163114301Y-70579670D01*
X163110260Y-70600199D01*
X163116010Y-70631189D01*
X163116010Y-70631189D01*
G37*
X163116010Y-70631189D02*
X163133951Y-70677821D01*
X163166481Y-70745271D01*
X163216000Y-70838719D01*
X163284907Y-70963343D01*
X163375601Y-71124322D01*
X163427772Y-71216367D01*
X163553417Y-71437182D01*
X163657079Y-71617149D01*
X163741463Y-71759816D01*
X163809272Y-71868733D01*
X163863213Y-71947447D01*
X163905991Y-71999508D01*
X163940311Y-72028464D01*
X163968878Y-72037864D01*
X163994397Y-72031257D01*
X164019574Y-72012192D01*
X164028120Y-72003920D01*
X164053588Y-71959901D01*
X164049392Y-71900454D01*
X164014259Y-71814855D01*
X164003118Y-71793100D01*
X163960910Y-71714802D01*
X163901981Y-71608613D01*
X163830474Y-71481702D01*
X163750533Y-71341241D01*
X163666302Y-71194402D01*
X163581925Y-71048354D01*
X163501547Y-70910270D01*
X163429310Y-70787321D01*
X163369359Y-70686677D01*
X163325837Y-70615509D01*
X163302889Y-70580990D01*
X163302264Y-70580250D01*
X163243135Y-70543232D01*
X163174363Y-70539492D01*
X163125734Y-70564425D01*
X163114301Y-70579670D01*
X163110260Y-70600199D01*
X163116010Y-70631189D01*
G36*
X148805900Y-74447400D02*
X148818600Y-74434700D01*
X148805900Y-74422000D01*
X148793200Y-74434700D01*
X148805900Y-74447400D01*
X148805900Y-74447400D01*
G37*
X148805900Y-74447400D02*
X148818600Y-74434700D01*
X148805900Y-74422000D01*
X148793200Y-74434700D01*
X148805900Y-74447400D01*
G36*
X158102300Y-80467200D02*
X158115000Y-80454500D01*
X158102300Y-80441800D01*
X158089600Y-80454500D01*
X158102300Y-80467200D01*
X158102300Y-80467200D01*
G37*
X158102300Y-80467200D02*
X158115000Y-80454500D01*
X158102300Y-80441800D01*
X158089600Y-80454500D01*
X158102300Y-80467200D01*
G36*
X170548300Y-67513200D02*
X170561000Y-67500500D01*
X170548300Y-67487800D01*
X170535600Y-67500500D01*
X170548300Y-67513200D01*
X170548300Y-67513200D01*
G37*
X170548300Y-67513200D02*
X170561000Y-67500500D01*
X170548300Y-67487800D01*
X170535600Y-67500500D01*
X170548300Y-67513200D01*
G36*
X146029366Y-77579135D02*
X146056850Y-77698600D01*
X146134443Y-77892975D01*
X146247127Y-78087920D01*
X146385019Y-78270136D01*
X146538237Y-78426321D01*
X146674044Y-78529249D01*
X146737429Y-78572624D01*
X146778237Y-78606943D01*
X146786554Y-78619350D01*
X146806303Y-78637685D01*
X146813627Y-78638400D01*
X146849576Y-78648371D01*
X146915890Y-78674303D01*
X146985077Y-78704658D01*
X147117070Y-78758807D01*
X147279785Y-78816079D01*
X147453983Y-78870412D01*
X147620424Y-78915744D01*
X147739100Y-78942230D01*
X147852023Y-78964648D01*
X147979633Y-78991303D01*
X148056600Y-79008069D01*
X148177881Y-79031411D01*
X148343878Y-79057729D01*
X148548642Y-79086330D01*
X148786221Y-79116519D01*
X149050664Y-79147601D01*
X149336022Y-79178881D01*
X149636343Y-79209666D01*
X149945677Y-79239260D01*
X150258073Y-79266969D01*
X150317200Y-79271956D01*
X150577931Y-79293957D01*
X150797813Y-79313032D01*
X150986647Y-79330146D01*
X151154233Y-79346265D01*
X151310373Y-79362353D01*
X151464868Y-79379377D01*
X151627520Y-79398300D01*
X151752300Y-79413294D01*
X152486381Y-79485517D01*
X153186997Y-79519943D01*
X153854661Y-79516535D01*
X154489888Y-79475259D01*
X155093192Y-79396079D01*
X155665087Y-79278961D01*
X156206087Y-79123869D01*
X156265886Y-79103754D01*
X156613872Y-78984866D01*
X156766787Y-79092130D01*
X156861265Y-79154335D01*
X156957450Y-79211187D01*
X157028779Y-79247643D01*
X157136526Y-79282797D01*
X157275614Y-79310746D01*
X157426794Y-79328898D01*
X157570815Y-79334660D01*
X157647313Y-79330947D01*
X157727627Y-79326604D01*
X157780494Y-79338068D01*
X157828577Y-79372797D01*
X157856449Y-79399756D01*
X157901678Y-79454349D01*
X157922018Y-79498348D01*
X157920607Y-79510483D01*
X157916701Y-79526506D01*
X157924716Y-79520994D01*
X157956200Y-79521015D01*
X157997016Y-79549211D01*
X158029839Y-79590513D01*
X158038800Y-79620236D01*
X158059514Y-79649576D01*
X158081133Y-79654400D01*
X158109804Y-79661377D01*
X158108374Y-79669492D01*
X158116469Y-79693392D01*
X158154232Y-79736713D01*
X158180340Y-79761023D01*
X158236643Y-79818374D01*
X158261750Y-79874587D01*
X158267400Y-79953400D01*
X158262816Y-80042701D01*
X158250960Y-80153795D01*
X158238671Y-80236519D01*
X158217563Y-80336289D01*
X158189524Y-80405589D01*
X158144719Y-80464667D01*
X158111676Y-80497927D01*
X158002674Y-80576712D01*
X157854248Y-80640370D01*
X157662819Y-80690159D01*
X157475886Y-80720903D01*
X157379766Y-80734351D01*
X157246676Y-80753909D01*
X157089795Y-80777593D01*
X156922303Y-80803419D01*
X156794200Y-80823546D01*
X156582688Y-80855782D01*
X156340612Y-80890467D01*
X156076675Y-80926528D01*
X155799582Y-80962891D01*
X155518036Y-80998481D01*
X155240741Y-81032225D01*
X154976402Y-81063048D01*
X154733724Y-81089876D01*
X154521409Y-81111636D01*
X154348163Y-81127253D01*
X154307361Y-81130414D01*
X153774161Y-81150402D01*
X153227546Y-81134296D01*
X152685859Y-81083126D01*
X152253950Y-81014917D01*
X152020136Y-80970679D01*
X151830215Y-80935057D01*
X151678185Y-80907119D01*
X151558042Y-80885935D01*
X151463785Y-80870574D01*
X151389412Y-80860105D01*
X151328919Y-80853599D01*
X151276305Y-80850124D01*
X151225566Y-80848750D01*
X151180800Y-80848538D01*
X150909654Y-80863921D01*
X150675900Y-80911275D01*
X150475877Y-80992647D01*
X150305928Y-81110085D01*
X150162392Y-81265633D01*
X150041610Y-81461340D01*
X150024849Y-81495075D01*
X149945774Y-81670129D01*
X149886453Y-81831923D01*
X149844455Y-81992716D01*
X149817350Y-82164773D01*
X149802709Y-82360354D01*
X149798099Y-82591723D01*
X149798150Y-82638900D01*
X149804461Y-82907852D01*
X149822482Y-83137123D01*
X149854017Y-83336854D01*
X149900865Y-83517188D01*
X149964828Y-83688267D01*
X149997217Y-83759774D01*
X150104971Y-83949196D01*
X150230139Y-84094012D01*
X150379512Y-84199292D01*
X150559880Y-84270107D01*
X150727049Y-84304766D01*
X150855424Y-84317123D01*
X151000043Y-84317702D01*
X151167718Y-84305866D01*
X151365261Y-84280978D01*
X151599483Y-84242401D01*
X151803100Y-84204145D01*
X152004373Y-84165497D01*
X152177200Y-84134494D01*
X152331173Y-84110327D01*
X152475886Y-84092186D01*
X152620931Y-84079261D01*
X152775901Y-84070742D01*
X152950390Y-84065820D01*
X153153991Y-84063685D01*
X153396296Y-84063527D01*
X153466800Y-84063709D01*
X153748009Y-84065601D01*
X153990143Y-84069774D01*
X154204894Y-84076725D01*
X154403954Y-84086954D01*
X154599015Y-84100957D01*
X154801772Y-84119233D01*
X154825700Y-84121590D01*
X155188014Y-84157135D01*
X155506586Y-84187330D01*
X155788141Y-84212591D01*
X156039410Y-84233337D01*
X156267119Y-84249985D01*
X156477996Y-84262954D01*
X156678769Y-84272661D01*
X156876167Y-84279524D01*
X157076917Y-84283960D01*
X157287747Y-84286388D01*
X157492700Y-84287202D01*
X157785802Y-84286460D01*
X158036739Y-84282886D01*
X158254103Y-84275652D01*
X158446489Y-84263930D01*
X158622490Y-84246889D01*
X158790701Y-84223702D01*
X158959716Y-84193538D01*
X159138129Y-84155569D01*
X159330791Y-84109886D01*
X159767831Y-83987324D01*
X160177798Y-83841666D01*
X160552769Y-83675959D01*
X160795176Y-83546787D01*
X160861356Y-83504503D01*
X160955722Y-83439086D01*
X161066738Y-83359074D01*
X161182872Y-83273004D01*
X161292587Y-83189412D01*
X161384349Y-83116836D01*
X161441798Y-83068222D01*
X161600614Y-82900600D01*
X161752804Y-82694321D01*
X161890969Y-82461522D01*
X162007710Y-82214340D01*
X162076941Y-82026242D01*
X162113978Y-81901508D01*
X162151531Y-81758983D01*
X162186926Y-81610747D01*
X162217488Y-81468883D01*
X162240543Y-81345474D01*
X162253416Y-81252602D01*
X162255200Y-81220937D01*
X162260941Y-81138475D01*
X162279177Y-81104949D01*
X162311423Y-81119697D01*
X162355815Y-81176912D01*
X162406751Y-81247142D01*
X162477821Y-81336791D01*
X162554740Y-81427914D01*
X162564427Y-81438937D01*
X162632601Y-81511797D01*
X162699242Y-81570825D01*
X162776683Y-81624690D01*
X162877255Y-81682063D01*
X162999130Y-81744557D01*
X163434125Y-81937229D01*
X163897528Y-82094434D01*
X164160200Y-82165039D01*
X164384762Y-82216872D01*
X164595991Y-82257445D01*
X164804994Y-82287918D01*
X165022877Y-82309449D01*
X165260745Y-82323198D01*
X165529705Y-82330324D01*
X165760400Y-82332020D01*
X165949423Y-82332020D01*
X166107980Y-82330807D01*
X166244613Y-82327332D01*
X166367863Y-82320545D01*
X166486272Y-82309397D01*
X166608380Y-82292839D01*
X166742731Y-82269822D01*
X166897865Y-82239295D01*
X167082324Y-82200210D01*
X167304650Y-82151517D01*
X167398700Y-82130749D01*
X167667072Y-82072646D01*
X167898609Y-82025393D01*
X168105557Y-81986755D01*
X168300167Y-81954496D01*
X168494686Y-81926381D01*
X168579800Y-81915208D01*
X168885104Y-81872463D01*
X169146468Y-81827375D01*
X169370745Y-81778263D01*
X169564790Y-81723446D01*
X169735457Y-81661242D01*
X169874569Y-81597636D01*
X170027467Y-81507312D01*
X170166871Y-81400408D01*
X170279425Y-81288050D01*
X170332854Y-81215764D01*
X170387414Y-81149828D01*
X170445722Y-81127684D01*
X170450032Y-81127600D01*
X170554494Y-81108456D01*
X170642442Y-81049238D01*
X170715987Y-80947262D01*
X170777240Y-80799846D01*
X170814953Y-80663913D01*
X170835472Y-80568700D01*
X170853291Y-80464944D01*
X170868678Y-80348116D01*
X170881897Y-80213684D01*
X170893215Y-80057118D01*
X170902898Y-79873886D01*
X170911212Y-79659457D01*
X170918424Y-79409300D01*
X170924799Y-79118885D01*
X170930603Y-78783681D01*
X170932419Y-78663800D01*
X170936489Y-78391147D01*
X170940158Y-78164206D01*
X170943725Y-77977894D01*
X170947490Y-77827127D01*
X170951754Y-77706822D01*
X170956817Y-77611895D01*
X170962979Y-77537263D01*
X170970541Y-77477843D01*
X170979803Y-77428552D01*
X170991064Y-77384306D01*
X171004626Y-77340021D01*
X171011929Y-77317600D01*
X171037451Y-77232621D01*
X171055756Y-77150137D01*
X171068360Y-77057886D01*
X171076781Y-76943606D01*
X171082534Y-76795036D01*
X171084180Y-76733400D01*
X171087551Y-76573236D01*
X171090614Y-76380913D01*
X171093356Y-76161844D01*
X171095763Y-75921443D01*
X171097823Y-75665125D01*
X171099520Y-75398303D01*
X171100843Y-75126391D01*
X171101777Y-74854804D01*
X171102308Y-74588956D01*
X171102424Y-74334261D01*
X171102111Y-74096133D01*
X171101356Y-73879986D01*
X171100144Y-73691234D01*
X171098462Y-73535291D01*
X171096298Y-73417572D01*
X171093636Y-73343490D01*
X171092670Y-73329800D01*
X171079758Y-73227262D01*
X171057683Y-73093675D01*
X171029676Y-72947255D01*
X171002583Y-72821800D01*
X170988228Y-72759989D01*
X170975745Y-72705279D01*
X170965033Y-72653837D01*
X170955991Y-72601830D01*
X170948519Y-72545425D01*
X170942516Y-72480790D01*
X170937880Y-72404091D01*
X170934511Y-72311495D01*
X170932308Y-72199170D01*
X170931169Y-72063283D01*
X170930995Y-71900001D01*
X170931684Y-71705491D01*
X170933136Y-71475919D01*
X170935249Y-71207454D01*
X170937922Y-70896263D01*
X170941056Y-70538511D01*
X170941411Y-70497700D01*
X170943626Y-70224620D01*
X170944978Y-69995965D01*
X170945277Y-69805363D01*
X170944331Y-69646443D01*
X170941949Y-69512834D01*
X170937942Y-69398166D01*
X170932117Y-69296065D01*
X170924285Y-69200163D01*
X170914254Y-69104087D01*
X170901834Y-69001466D01*
X170895005Y-68948300D01*
X170845186Y-68606399D01*
X170789908Y-68309533D01*
X170727640Y-68052088D01*
X170656852Y-67828450D01*
X170576012Y-67633007D01*
X170494013Y-67477618D01*
X170412726Y-67361836D01*
X170325958Y-67288245D01*
X170222629Y-67248546D01*
X170177800Y-67240761D01*
X170074738Y-67211455D01*
X169984324Y-67146259D01*
X169976800Y-67139014D01*
X169858875Y-67045007D01*
X169710453Y-66965658D01*
X169528133Y-66900100D01*
X169308519Y-66847465D01*
X169048210Y-66806887D01*
X168743808Y-66777498D01*
X168503600Y-66763164D01*
X168318679Y-66753592D01*
X168154363Y-66742786D01*
X168001981Y-66729500D01*
X167852862Y-66712491D01*
X167698336Y-66690517D01*
X167529733Y-66662334D01*
X167338381Y-66626697D01*
X167115611Y-66582365D01*
X166852752Y-66528093D01*
X166832477Y-66523858D01*
X166832477Y-68376800D01*
X166862086Y-68399082D01*
X166911479Y-68463634D01*
X166978282Y-68567012D01*
X167060123Y-68705772D01*
X167064437Y-68713350D01*
X167124980Y-68819760D01*
X167205862Y-68961813D01*
X167302252Y-69131025D01*
X167409315Y-69318916D01*
X167522220Y-69517001D01*
X167636132Y-69716800D01*
X167689194Y-69809849D01*
X167790980Y-69988813D01*
X167884265Y-70153769D01*
X167966161Y-70299539D01*
X168033782Y-70420945D01*
X168084240Y-70512808D01*
X168114649Y-70569949D01*
X168122600Y-70587209D01*
X168100732Y-70603178D01*
X168040326Y-70636021D01*
X167949175Y-70681781D01*
X167835073Y-70736503D01*
X167755758Y-70773410D01*
X167628179Y-70831076D01*
X167515058Y-70880269D01*
X167425172Y-70917320D01*
X167367298Y-70938565D01*
X167351728Y-70942200D01*
X167330907Y-70920438D01*
X167287218Y-70857031D01*
X167222366Y-70754796D01*
X167138053Y-70616550D01*
X167035984Y-70445111D01*
X166917861Y-70243295D01*
X166785389Y-70013921D01*
X166696219Y-69858092D01*
X166573694Y-69642943D01*
X166458939Y-69440811D01*
X166354405Y-69256059D01*
X166262544Y-69093048D01*
X166185807Y-68956140D01*
X166126645Y-68849699D01*
X166087510Y-68778086D01*
X166070854Y-68745663D01*
X166070477Y-68744593D01*
X166089807Y-68725591D01*
X166146509Y-68690817D01*
X166231356Y-68644723D01*
X166335121Y-68591765D01*
X166448577Y-68536396D01*
X166562495Y-68483070D01*
X166667650Y-68436240D01*
X166754813Y-68400360D01*
X166814756Y-68379884D01*
X166832477Y-68376800D01*
X166832477Y-66523858D01*
X166827200Y-66522755D01*
X166563139Y-66470317D01*
X166563139Y-67879469D01*
X166593531Y-67900379D01*
X166630273Y-67951015D01*
X166680756Y-68039048D01*
X166725657Y-68122736D01*
X166759165Y-68188372D01*
X166775242Y-68224045D01*
X166775839Y-68226615D01*
X166754157Y-68241673D01*
X166693880Y-68273660D01*
X166602761Y-68318708D01*
X166488554Y-68372949D01*
X166406784Y-68410765D01*
X166278823Y-68468378D01*
X166165489Y-68517572D01*
X166075484Y-68554714D01*
X166017510Y-68576168D01*
X166001627Y-68580000D01*
X165976284Y-68559734D01*
X165935594Y-68507733D01*
X165887919Y-68437188D01*
X165841622Y-68361292D01*
X165805064Y-68293237D01*
X165803901Y-68290275D01*
X165803901Y-68858715D01*
X165826412Y-68865877D01*
X165826953Y-68866437D01*
X165845554Y-68894814D01*
X165886251Y-68962458D01*
X165946159Y-69064399D01*
X166022398Y-69195670D01*
X166112084Y-69351300D01*
X166212334Y-69526322D01*
X166320266Y-69715768D01*
X166346011Y-69761100D01*
X166460090Y-69961882D01*
X166571138Y-70156935D01*
X166675531Y-70339923D01*
X166769642Y-70504506D01*
X166849849Y-70644346D01*
X166912526Y-70753106D01*
X166954050Y-70824448D01*
X166956084Y-70827900D01*
X167008980Y-70919944D01*
X167050566Y-70996862D01*
X167074835Y-71047318D01*
X167078596Y-71059064D01*
X167057496Y-71078333D01*
X166997450Y-71113882D01*
X166906073Y-71161678D01*
X166790981Y-71217685D01*
X166698238Y-71260589D01*
X166552781Y-71325608D01*
X166446649Y-71370509D01*
X166373502Y-71397431D01*
X166327000Y-71408510D01*
X166300804Y-71405885D01*
X166291584Y-71397724D01*
X166273879Y-71367806D01*
X166234100Y-71298977D01*
X166175260Y-71196498D01*
X166100370Y-71065633D01*
X166012443Y-70911644D01*
X165914489Y-70739794D01*
X165820074Y-70573900D01*
X165713881Y-70387874D01*
X165613215Y-70212846D01*
X165521399Y-70054496D01*
X165441758Y-69918504D01*
X165377615Y-69810551D01*
X165332295Y-69736318D01*
X165311035Y-69703950D01*
X165245311Y-69642050D01*
X165176048Y-69621000D01*
X165114031Y-69643610D01*
X165106336Y-69650623D01*
X165096625Y-69663252D01*
X165092347Y-69680280D01*
X165095500Y-69705701D01*
X165108086Y-69743509D01*
X165132103Y-69797697D01*
X165169551Y-69872258D01*
X165222431Y-69971188D01*
X165292742Y-70098479D01*
X165382483Y-70258124D01*
X165493654Y-70454118D01*
X165618063Y-70672572D01*
X165724503Y-70859823D01*
X165822565Y-71033337D01*
X165909485Y-71188147D01*
X165982498Y-71319284D01*
X166038841Y-71421781D01*
X166075748Y-71490670D01*
X166090456Y-71520983D01*
X166090600Y-71521735D01*
X166068670Y-71538513D01*
X166008050Y-71571931D01*
X165916487Y-71618042D01*
X165801733Y-71672900D01*
X165716937Y-71712034D01*
X165571302Y-71777252D01*
X165464853Y-71821974D01*
X165391298Y-71848350D01*
X165344348Y-71858527D01*
X165317713Y-71854653D01*
X165311981Y-71850329D01*
X165290438Y-71819178D01*
X165247631Y-71749606D01*
X165186966Y-71647600D01*
X165111846Y-71519149D01*
X165025677Y-71370241D01*
X164931862Y-71206862D01*
X164833806Y-71035001D01*
X164734914Y-70860646D01*
X164638589Y-70689784D01*
X164548237Y-70528403D01*
X164467262Y-70382491D01*
X164399068Y-70258036D01*
X164347060Y-70161026D01*
X164314642Y-70097447D01*
X164311248Y-70090231D01*
X164253981Y-69952386D01*
X164224879Y-69843826D01*
X164222224Y-69752754D01*
X164244298Y-69667375D01*
X164248255Y-69657602D01*
X164309696Y-69545111D01*
X164394944Y-69456628D01*
X164516933Y-69379020D01*
X164528500Y-69372973D01*
X164661123Y-69325888D01*
X164814760Y-69304012D01*
X164965008Y-69309793D01*
X165027914Y-69322872D01*
X165072674Y-69332934D01*
X165084292Y-69319813D01*
X165069840Y-69272163D01*
X165066014Y-69261752D01*
X165050560Y-69197997D01*
X165061900Y-69172432D01*
X165092773Y-69159054D01*
X165161122Y-69128261D01*
X165258321Y-69083975D01*
X165375743Y-69030120D01*
X165442680Y-68999290D01*
X165585720Y-68934593D01*
X165689584Y-68890988D01*
X165760301Y-68866390D01*
X165803901Y-68858715D01*
X165803901Y-68290275D01*
X165786607Y-68246215D01*
X165785800Y-68239503D01*
X165807389Y-68223287D01*
X165865918Y-68190679D01*
X165952024Y-68146191D01*
X166056347Y-68094334D01*
X166169525Y-68039620D01*
X166282197Y-67986561D01*
X166385001Y-67939668D01*
X166468577Y-67903453D01*
X166523563Y-67882427D01*
X166531448Y-67880146D01*
X166563139Y-67879469D01*
X166563139Y-66470317D01*
X166518080Y-66461368D01*
X166244383Y-66414643D01*
X165993362Y-66381104D01*
X165752271Y-66359280D01*
X165508362Y-66347696D01*
X165288002Y-66344800D01*
X164926016Y-66353738D01*
X164601452Y-66382051D01*
X164303910Y-66431986D01*
X164022987Y-66505790D01*
X163803563Y-66585600D01*
X163803563Y-69773800D01*
X163824669Y-69792922D01*
X163866482Y-69850855D01*
X163929516Y-69948446D01*
X164014283Y-70086540D01*
X164121294Y-70265985D01*
X164251062Y-70487627D01*
X164404100Y-70752315D01*
X164560275Y-71024750D01*
X164691938Y-71255792D01*
X164815518Y-71473853D01*
X164928788Y-71674920D01*
X165029520Y-71854978D01*
X165115486Y-72010015D01*
X165184457Y-72136019D01*
X165234205Y-72228976D01*
X165262503Y-72284873D01*
X165268325Y-72300013D01*
X165243996Y-72318484D01*
X165181416Y-72353269D01*
X165088795Y-72400139D01*
X164974342Y-72454865D01*
X164910812Y-72484163D01*
X164786316Y-72539939D01*
X164676760Y-72587235D01*
X164591067Y-72622338D01*
X164538161Y-72641529D01*
X164526946Y-72644000D01*
X164500978Y-72623212D01*
X164458051Y-72567299D01*
X164405158Y-72485937D01*
X164371479Y-72428810D01*
X164304232Y-72314685D01*
X164256681Y-72244245D01*
X164226850Y-72215228D01*
X164212761Y-72225375D01*
X164211000Y-72245327D01*
X164198156Y-72284226D01*
X164165220Y-72348177D01*
X164137459Y-72394415D01*
X164041580Y-72503229D01*
X163914103Y-72587879D01*
X163767755Y-72644431D01*
X163615263Y-72668950D01*
X163469353Y-72657502D01*
X163382027Y-72627949D01*
X163324760Y-72594076D01*
X163265394Y-72543962D01*
X163200926Y-72473411D01*
X163128348Y-72378224D01*
X163044657Y-72254203D01*
X162946847Y-72097150D01*
X162831913Y-71902869D01*
X162706965Y-71684995D01*
X162610972Y-71515529D01*
X162521588Y-71357109D01*
X162442348Y-71216050D01*
X162376789Y-71098667D01*
X162328445Y-71011277D01*
X162300853Y-70960193D01*
X162297704Y-70954022D01*
X162247148Y-70802468D01*
X162244988Y-70656802D01*
X162288819Y-70522562D01*
X162376238Y-70405285D01*
X162504843Y-70310512D01*
X162595003Y-70268932D01*
X162680661Y-70243862D01*
X162777265Y-70233371D01*
X162903437Y-70235556D01*
X162915349Y-70236221D01*
X163119151Y-70248019D01*
X163078846Y-70186505D01*
X163053889Y-70138643D01*
X163051318Y-70112215D01*
X163082895Y-70093071D01*
X163150794Y-70058792D01*
X163244982Y-70013892D01*
X163355427Y-69962884D01*
X163472096Y-69910282D01*
X163584957Y-69860599D01*
X163683977Y-69818348D01*
X163759123Y-69788043D01*
X163800363Y-69774197D01*
X163803563Y-69773800D01*
X163803563Y-66585600D01*
X163748280Y-66605708D01*
X163469388Y-66733987D01*
X163456940Y-66740276D01*
X163315918Y-66813638D01*
X163174815Y-66890292D01*
X163047253Y-66962627D01*
X162946853Y-67023029D01*
X162920125Y-67040291D01*
X162832511Y-67094802D01*
X162755862Y-67135836D01*
X162703526Y-67156439D01*
X162694937Y-67157600D01*
X162646775Y-67143134D01*
X162579219Y-67106358D01*
X162542691Y-67081473D01*
X162424716Y-67005514D01*
X162274456Y-66924569D01*
X162108712Y-66846727D01*
X161944287Y-66780075D01*
X161848800Y-66747428D01*
X161839897Y-66744833D01*
X161839897Y-70686981D01*
X161863499Y-70693354D01*
X161865257Y-70694994D01*
X161883726Y-70722954D01*
X161923940Y-70789514D01*
X161982662Y-70889043D01*
X162056655Y-71015908D01*
X162142681Y-71164477D01*
X162237504Y-71329118D01*
X162337887Y-71504198D01*
X162440592Y-71684086D01*
X162542383Y-71863149D01*
X162640021Y-72035756D01*
X162730271Y-72196273D01*
X162801474Y-72323895D01*
X162883745Y-72481559D01*
X162936370Y-72608408D01*
X162961344Y-72713368D01*
X162960664Y-72805367D01*
X162936324Y-72893331D01*
X162931428Y-72905165D01*
X162858062Y-73017947D01*
X162739309Y-73117073D01*
X162601520Y-73191867D01*
X162509762Y-73229809D01*
X162432826Y-73248180D01*
X162345795Y-73251257D01*
X162277670Y-73247494D01*
X162177812Y-73242459D01*
X162122650Y-73246454D01*
X162106567Y-73261495D01*
X162123947Y-73289598D01*
X162133280Y-73299320D01*
X162148840Y-73337617D01*
X162139630Y-73353137D01*
X162105978Y-73374256D01*
X162037614Y-73409370D01*
X161943950Y-73454295D01*
X161834401Y-73504845D01*
X161718378Y-73556836D01*
X161605295Y-73606080D01*
X161504565Y-73648394D01*
X161425602Y-73679591D01*
X161377819Y-73695487D01*
X161368186Y-73696142D01*
X161353056Y-73671881D01*
X161315231Y-73607751D01*
X161257172Y-73508014D01*
X161181342Y-73376937D01*
X161090199Y-73218783D01*
X160986206Y-73037816D01*
X160871824Y-72838302D01*
X160749513Y-72624504D01*
X160726953Y-72585022D01*
X160576390Y-72320648D01*
X160450289Y-72097317D01*
X160347232Y-71912356D01*
X160265801Y-71763094D01*
X160204579Y-71646859D01*
X160162147Y-71560979D01*
X160137090Y-71502784D01*
X160127988Y-71469600D01*
X160130053Y-71460084D01*
X160161690Y-71440817D01*
X160229013Y-71406028D01*
X160322005Y-71360387D01*
X160430648Y-71308564D01*
X160544926Y-71255228D01*
X160654822Y-71205049D01*
X160750318Y-71162696D01*
X160821397Y-71132839D01*
X160858043Y-71120147D01*
X160859602Y-71120000D01*
X160876081Y-71141318D01*
X160914881Y-71202188D01*
X160973250Y-71297978D01*
X161048436Y-71424057D01*
X161137687Y-71575796D01*
X161238250Y-71748564D01*
X161347374Y-71937730D01*
X161395224Y-72021179D01*
X161507747Y-72216598D01*
X161613542Y-72398103D01*
X161709756Y-72560965D01*
X161793537Y-72700450D01*
X161862029Y-72811827D01*
X161912381Y-72890365D01*
X161941738Y-72931332D01*
X161947005Y-72936156D01*
X161993252Y-72933547D01*
X162042197Y-72911137D01*
X162082993Y-72874758D01*
X162084735Y-72831335D01*
X162076222Y-72806002D01*
X162058254Y-72769553D01*
X162017930Y-72694296D01*
X161958174Y-72585485D01*
X161881911Y-72448376D01*
X161792067Y-72288222D01*
X161691566Y-72110279D01*
X161583333Y-71919800D01*
X161566060Y-71889505D01*
X161453708Y-71691000D01*
X161352878Y-71509831D01*
X161265899Y-71350383D01*
X161195096Y-71217041D01*
X161142797Y-71114192D01*
X161111329Y-71046221D01*
X161103017Y-71017514D01*
X161103259Y-71017180D01*
X161132993Y-70999210D01*
X161200339Y-70964296D01*
X161296749Y-70916695D01*
X161413672Y-70860668D01*
X161480290Y-70829361D01*
X161622390Y-70764251D01*
X161725552Y-70720262D01*
X161795985Y-70695228D01*
X161839897Y-70686981D01*
X161839897Y-66744833D01*
X161775377Y-66726026D01*
X161706806Y-66710496D01*
X161632952Y-66699947D01*
X161543681Y-66693487D01*
X161428858Y-66690226D01*
X161278351Y-66689274D01*
X161188400Y-66689380D01*
X161011257Y-66690626D01*
X160874315Y-66693947D01*
X160766988Y-66700239D01*
X160678692Y-66710396D01*
X160598840Y-66725316D01*
X160516848Y-66745892D01*
X160515300Y-66746316D01*
X160268173Y-66830556D01*
X160009672Y-66947908D01*
X159754463Y-67090025D01*
X159613192Y-67184424D01*
X159613192Y-71318410D01*
X159643008Y-71334610D01*
X159688400Y-71385322D01*
X159740459Y-71460546D01*
X159741921Y-71462900D01*
X159795972Y-71545323D01*
X159838116Y-71590260D01*
X159880704Y-71604855D01*
X159936089Y-71596252D01*
X159960320Y-71589225D01*
X159991803Y-71586473D01*
X160021507Y-71604929D01*
X160057370Y-71652678D01*
X160107329Y-71737807D01*
X160108871Y-71740562D01*
X160164700Y-71853513D01*
X160185588Y-71930808D01*
X160171661Y-71973546D01*
X160136596Y-71983600D01*
X160093559Y-71997934D01*
X160084312Y-72007686D01*
X160092655Y-72035017D01*
X160123479Y-72100640D01*
X160173795Y-72198892D01*
X160240619Y-72324108D01*
X160320962Y-72470625D01*
X160411838Y-72632779D01*
X160441724Y-72685412D01*
X160570934Y-72913095D01*
X160676487Y-73101194D01*
X160760521Y-73253890D01*
X160825175Y-73375362D01*
X160872585Y-73469792D01*
X160904889Y-73541359D01*
X160924225Y-73594243D01*
X160932731Y-73632626D01*
X160933594Y-73647300D01*
X160923140Y-73701403D01*
X160897331Y-73775805D01*
X160886001Y-73802212D01*
X160837186Y-73882101D01*
X160775039Y-73950434D01*
X160759428Y-73962785D01*
X160701608Y-73998524D01*
X160616130Y-74044719D01*
X160512903Y-74096764D01*
X160401836Y-74150047D01*
X160292836Y-74199961D01*
X160195811Y-74241895D01*
X160120670Y-74271242D01*
X160077322Y-74283391D01*
X160071560Y-74282770D01*
X160046166Y-74252841D01*
X160008703Y-74193050D01*
X159966217Y-74116850D01*
X159925750Y-74037694D01*
X159894348Y-73969035D01*
X159879056Y-73924327D01*
X159879303Y-73915611D01*
X159909651Y-73892513D01*
X159965775Y-73864629D01*
X159968655Y-73863425D01*
X159999434Y-73850516D01*
X160022770Y-73836979D01*
X160036909Y-73818455D01*
X160040098Y-73790586D01*
X160030585Y-73749010D01*
X160006618Y-73689369D01*
X159966442Y-73607304D01*
X159908306Y-73498454D01*
X159830456Y-73358461D01*
X159731141Y-73182965D01*
X159608607Y-72967606D01*
X159608188Y-72966870D01*
X159507942Y-72791357D01*
X159429151Y-72655475D01*
X159368559Y-72554473D01*
X159322905Y-72483599D01*
X159288932Y-72438103D01*
X159263382Y-72413232D01*
X159242996Y-72404235D01*
X159224515Y-72406362D01*
X159223942Y-72406552D01*
X159138769Y-72427514D01*
X159075505Y-72418573D01*
X159020979Y-72373770D01*
X158962771Y-72288400D01*
X158918955Y-72210849D01*
X158888263Y-72147952D01*
X158877988Y-72116539D01*
X158898204Y-72085922D01*
X158949573Y-72050307D01*
X158965548Y-72042152D01*
X159054097Y-71999926D01*
X158962929Y-71836902D01*
X158921510Y-71755259D01*
X158896330Y-71690225D01*
X158892118Y-71654357D01*
X158893430Y-71652418D01*
X158923052Y-71634889D01*
X158988965Y-71601473D01*
X159081026Y-71556877D01*
X159189089Y-71505809D01*
X159303008Y-71452978D01*
X159412638Y-71403090D01*
X159507834Y-71360855D01*
X159578451Y-71330979D01*
X159613192Y-71318410D01*
X159613192Y-67184424D01*
X159517214Y-67248559D01*
X159312591Y-67415162D01*
X159270700Y-67454704D01*
X159174527Y-67551826D01*
X159057979Y-67674584D01*
X158933271Y-67809649D01*
X158812620Y-67943689D01*
X158708241Y-68063374D01*
X158658466Y-68122800D01*
X158611477Y-68179175D01*
X158578083Y-68217350D01*
X158571155Y-68224400D01*
X158547268Y-68251942D01*
X158500455Y-68310758D01*
X158438002Y-68391279D01*
X158387787Y-68456989D01*
X158387787Y-71633766D01*
X158404339Y-71656057D01*
X158443311Y-71717882D01*
X158502027Y-71814607D01*
X158577810Y-71941597D01*
X158667985Y-72094218D01*
X158769875Y-72267835D01*
X158880804Y-72457816D01*
X158998095Y-72659524D01*
X159119072Y-72868327D01*
X159241060Y-73079590D01*
X159361381Y-73288678D01*
X159477359Y-73490957D01*
X159586319Y-73681794D01*
X159685583Y-73856554D01*
X159772476Y-74010602D01*
X159844321Y-74139305D01*
X159898442Y-74238028D01*
X159932163Y-74302137D01*
X159942867Y-74326534D01*
X159924714Y-74353482D01*
X159899350Y-74372521D01*
X159860852Y-74392565D01*
X159785798Y-74428881D01*
X159683933Y-74476846D01*
X159565003Y-74531836D01*
X159524700Y-74550268D01*
X159405314Y-74606040D01*
X159315761Y-74646158D01*
X159248379Y-74667066D01*
X159195504Y-74665211D01*
X159149475Y-74637040D01*
X159102630Y-74579000D01*
X159047306Y-74487535D01*
X158975840Y-74359094D01*
X158928107Y-74273584D01*
X158862338Y-74158614D01*
X158805249Y-74062202D01*
X158761363Y-73991722D01*
X158735204Y-73954547D01*
X158730133Y-73950799D01*
X158733564Y-73977337D01*
X158749660Y-74044130D01*
X158776210Y-74142857D01*
X158811001Y-74265199D01*
X158838504Y-74358523D01*
X158877759Y-74494203D01*
X158910010Y-74613963D01*
X158933048Y-74708900D01*
X158944665Y-74770115D01*
X158944999Y-74787733D01*
X158918044Y-74810874D01*
X158855043Y-74847713D01*
X158765732Y-74893844D01*
X158659845Y-74944859D01*
X158547116Y-74996352D01*
X158437280Y-75043916D01*
X158340071Y-75083144D01*
X158265224Y-75109628D01*
X158222473Y-75118963D01*
X158216889Y-75117358D01*
X158203950Y-75085983D01*
X158182381Y-75014178D01*
X158154687Y-74911075D01*
X158123372Y-74785808D01*
X158106293Y-74714100D01*
X158065682Y-74541229D01*
X158019949Y-74347406D01*
X157974529Y-74155624D01*
X157934860Y-73988876D01*
X157932681Y-73979751D01*
X157848300Y-73626403D01*
X157448250Y-73256706D01*
X157330290Y-73146753D01*
X157226110Y-73047838D01*
X157141150Y-72965278D01*
X157080852Y-72904388D01*
X157050654Y-72870482D01*
X157048200Y-72865873D01*
X157069718Y-72848246D01*
X157127287Y-72815292D01*
X157210426Y-72772066D01*
X157308653Y-72723624D01*
X157411487Y-72675021D01*
X157508448Y-72631313D01*
X157589055Y-72597556D01*
X157642826Y-72578805D01*
X157643878Y-72578536D01*
X157676361Y-72580079D01*
X157721631Y-72601796D01*
X157786110Y-72648067D01*
X157876219Y-72723272D01*
X157945217Y-72784069D01*
X158036559Y-72864649D01*
X158112540Y-72929963D01*
X158166173Y-72974135D01*
X158190474Y-72991288D01*
X158191200Y-72990973D01*
X158179169Y-72966234D01*
X158145472Y-72903888D01*
X158093703Y-72810403D01*
X158027457Y-72692246D01*
X157950326Y-72555886D01*
X157911635Y-72487869D01*
X157830902Y-72344723D01*
X157759954Y-72216089D01*
X157702302Y-72108570D01*
X157661454Y-72028766D01*
X157640923Y-71983278D01*
X157639272Y-71975683D01*
X157664315Y-71956866D01*
X157726441Y-71922866D01*
X157815886Y-71878144D01*
X157922884Y-71827159D01*
X158037672Y-71774374D01*
X158150483Y-71724247D01*
X158251553Y-71681241D01*
X158331117Y-71649814D01*
X158379410Y-71634429D01*
X158387787Y-71633766D01*
X158387787Y-68456989D01*
X158367193Y-68483939D01*
X158295313Y-68579171D01*
X158229648Y-68667407D01*
X158177483Y-68739080D01*
X158156749Y-68768611D01*
X158084199Y-68874515D01*
X157763049Y-68903171D01*
X157498919Y-68936582D01*
X157267945Y-68987715D01*
X157200600Y-69007632D01*
X156959300Y-69083439D01*
X156847306Y-69018779D01*
X156500641Y-68835435D01*
X156500641Y-73153711D01*
X156685217Y-73168380D01*
X156856439Y-73215802D01*
X157003874Y-73293075D01*
X157117090Y-73397299D01*
X157118085Y-73398558D01*
X157184442Y-73488531D01*
X157248118Y-73584659D01*
X157302107Y-73675203D01*
X157339401Y-73748424D01*
X157353000Y-73792080D01*
X157331181Y-73814430D01*
X157272282Y-73851573D01*
X157186138Y-73898818D01*
X157082585Y-73951476D01*
X156971457Y-74004857D01*
X156862591Y-74054271D01*
X156765822Y-74095029D01*
X156690985Y-74122441D01*
X156647915Y-74131816D01*
X156642985Y-74130632D01*
X156621251Y-74103308D01*
X156582839Y-74042607D01*
X156534899Y-73960018D01*
X156518958Y-73931289D01*
X156454121Y-73818110D01*
X156403433Y-73744649D01*
X156360000Y-73704390D01*
X156316930Y-73690812D01*
X156270711Y-73696530D01*
X156226719Y-73713361D01*
X156212506Y-73744764D01*
X156218297Y-73802893D01*
X156246792Y-73897725D01*
X156297505Y-74000465D01*
X156359494Y-74092409D01*
X156421812Y-74154855D01*
X156425900Y-74157636D01*
X156454739Y-74172833D01*
X156491619Y-74182210D01*
X156545276Y-74185955D01*
X156624447Y-74184254D01*
X156737868Y-74177293D01*
X156870728Y-74167142D01*
X157080525Y-74152584D01*
X157248137Y-74148970D01*
X157381739Y-74160579D01*
X157489508Y-74191695D01*
X157579619Y-74246597D01*
X157660248Y-74329568D01*
X157739570Y-74444889D01*
X157825763Y-74596840D01*
X157877310Y-74694232D01*
X157951771Y-74858520D01*
X157987555Y-74995362D01*
X157985162Y-75109648D01*
X157945094Y-75206267D01*
X157931746Y-75225024D01*
X157794416Y-75367479D01*
X157637829Y-75464479D01*
X157465782Y-75514569D01*
X157282067Y-75516295D01*
X157206533Y-75503199D01*
X157151339Y-75492881D01*
X157135720Y-75502918D01*
X157149783Y-75542095D01*
X157153509Y-75550297D01*
X157171873Y-75600913D01*
X157172975Y-75626354D01*
X157143005Y-75643721D01*
X157076746Y-75676166D01*
X156984392Y-75719171D01*
X156876134Y-75768218D01*
X156762164Y-75818788D01*
X156652672Y-75866363D01*
X156557850Y-75906424D01*
X156487890Y-75934453D01*
X156452984Y-75945932D01*
X156452012Y-75946000D01*
X156431065Y-75924677D01*
X156389139Y-75864583D01*
X156329602Y-75771533D01*
X156255827Y-75651338D01*
X156171185Y-75509813D01*
X156079044Y-75352770D01*
X155982778Y-75186022D01*
X155885755Y-75015382D01*
X155791347Y-74846664D01*
X155702924Y-74685681D01*
X155623857Y-74538245D01*
X155557517Y-74410171D01*
X155533207Y-74361406D01*
X155469440Y-74226277D01*
X155427990Y-74124087D01*
X155405176Y-74044134D01*
X155397316Y-73975715D01*
X155397200Y-73966028D01*
X155419210Y-73828076D01*
X155479613Y-73687038D01*
X155569970Y-73559507D01*
X155636882Y-73494866D01*
X155735466Y-73426656D01*
X155866340Y-73353264D01*
X156012717Y-73282634D01*
X156157814Y-73222715D01*
X156284844Y-73181452D01*
X156313141Y-73174696D01*
X156500641Y-73153711D01*
X156500641Y-68835435D01*
X156437591Y-68802088D01*
X156021719Y-68623019D01*
X155591717Y-68479151D01*
X155139612Y-68368067D01*
X154698700Y-68294257D01*
X154698700Y-73583802D01*
X154722727Y-73604787D01*
X154761673Y-73659328D01*
X154807260Y-73735789D01*
X154808863Y-73738699D01*
X154855333Y-73819830D01*
X154888657Y-73864242D01*
X154918449Y-73880633D01*
X154954323Y-73877699D01*
X154960789Y-73876139D01*
X155019101Y-73861989D01*
X155051121Y-73854891D01*
X155072296Y-73873062D01*
X155110046Y-73922984D01*
X155156341Y-73991968D01*
X155203148Y-74067321D01*
X155242436Y-74136352D01*
X155266174Y-74186371D01*
X155269702Y-74200294D01*
X155249636Y-74223970D01*
X155206700Y-74248821D01*
X155160010Y-74278134D01*
X155143200Y-74302568D01*
X155155291Y-74330511D01*
X155189343Y-74396398D01*
X155242025Y-74494114D01*
X155310004Y-74617548D01*
X155389949Y-74760587D01*
X155469780Y-74901741D01*
X155563845Y-75067191D01*
X155654957Y-75227481D01*
X155738433Y-75374371D01*
X155809594Y-75499623D01*
X155863757Y-75594999D01*
X155889972Y-75641200D01*
X155940117Y-75735310D01*
X155967109Y-75806089D01*
X155976312Y-75872246D01*
X155974385Y-75935627D01*
X155949015Y-76062711D01*
X155907402Y-76146106D01*
X155864114Y-76191062D01*
X155791088Y-76243175D01*
X155682678Y-76305974D01*
X155533239Y-76382986D01*
X155509983Y-76394482D01*
X155388580Y-76452381D01*
X155281847Y-76499768D01*
X155198628Y-76532984D01*
X155147763Y-76548374D01*
X155137724Y-76548484D01*
X155110843Y-76520784D01*
X155069885Y-76459804D01*
X155023044Y-76377922D01*
X155016200Y-76364952D01*
X154971833Y-76277989D01*
X154949385Y-76224650D01*
X154946560Y-76193897D01*
X154961064Y-76174695D01*
X154974761Y-76165571D01*
X155054480Y-76114676D01*
X155096175Y-76076804D01*
X155105604Y-76039218D01*
X155088529Y-75989181D01*
X155070743Y-75953337D01*
X155043897Y-75903243D01*
X154996560Y-75817471D01*
X154933120Y-75703773D01*
X154857965Y-75569902D01*
X154775485Y-75423610D01*
X154690068Y-75272647D01*
X154606102Y-75124766D01*
X154527977Y-74987719D01*
X154460079Y-74869257D01*
X154406799Y-74777133D01*
X154372524Y-74719098D01*
X154366266Y-74708959D01*
X154340069Y-74674318D01*
X154310841Y-74666458D01*
X154259698Y-74682844D01*
X154238108Y-74691753D01*
X154185062Y-74711274D01*
X154145318Y-74713282D01*
X154110187Y-74691405D01*
X154070978Y-74639274D01*
X154019002Y-74550516D01*
X154000669Y-74517680D01*
X153919636Y-74372061D01*
X154010718Y-74318321D01*
X154067114Y-74282761D01*
X154099082Y-74258170D01*
X154101800Y-74254006D01*
X154090285Y-74228115D01*
X154060262Y-74171094D01*
X154023001Y-74103806D01*
X153983630Y-74026056D01*
X153959862Y-73963143D01*
X153956486Y-73932170D01*
X153982025Y-73912854D01*
X154044437Y-73878006D01*
X154133949Y-73832212D01*
X154240788Y-73780059D01*
X154355181Y-73726134D01*
X154467355Y-73675024D01*
X154567538Y-73631317D01*
X154645956Y-73599599D01*
X154692837Y-73584457D01*
X154698700Y-73583802D01*
X154698700Y-68294257D01*
X154657433Y-68287348D01*
X154308841Y-68248617D01*
X154101912Y-68235306D01*
X153855683Y-68228547D01*
X153681124Y-68228238D01*
X153681124Y-74422082D01*
X153705376Y-74442943D01*
X153745113Y-74497578D01*
X153793595Y-74574195D01*
X153844084Y-74661006D01*
X153889842Y-74746219D01*
X153924130Y-74818045D01*
X153940209Y-74864693D01*
X153939652Y-74874423D01*
X153911502Y-74894240D01*
X153847833Y-74928270D01*
X153759822Y-74970726D01*
X153708831Y-74993908D01*
X153614694Y-75037784D01*
X153541220Y-75075704D01*
X153498686Y-75102172D01*
X153492200Y-75109746D01*
X153511368Y-75129684D01*
X153565699Y-75177107D01*
X153650430Y-75248089D01*
X153760798Y-75338706D01*
X153892041Y-75445031D01*
X154039397Y-75563138D01*
X154120850Y-75627940D01*
X154295731Y-75766880D01*
X154435747Y-75878978D01*
X154545859Y-75968929D01*
X154631023Y-76041429D01*
X154696200Y-76101175D01*
X154746349Y-76152862D01*
X154786428Y-76201188D01*
X154821396Y-76250848D01*
X154856213Y-76306538D01*
X154880735Y-76347561D01*
X154936311Y-76443382D01*
X154980673Y-76524309D01*
X155008080Y-76579610D01*
X155014085Y-76596776D01*
X154992940Y-76616715D01*
X154933267Y-76652793D01*
X154843030Y-76700677D01*
X154730194Y-76756038D01*
X154666950Y-76785554D01*
X154511739Y-76856811D01*
X154341772Y-76934872D01*
X154176829Y-77010649D01*
X154036691Y-77075056D01*
X154027133Y-77079450D01*
X153915616Y-77129229D01*
X153820859Y-77168717D01*
X153752239Y-77194207D01*
X153719134Y-77201991D01*
X153718094Y-77201627D01*
X153696890Y-77174855D01*
X153658988Y-77115726D01*
X153611475Y-77036570D01*
X153561436Y-76949717D01*
X153515956Y-76867493D01*
X153482122Y-76802228D01*
X153467018Y-76766251D01*
X153466800Y-76764385D01*
X153488484Y-76745538D01*
X153547319Y-76711275D01*
X153633983Y-76666687D01*
X153725497Y-76623119D01*
X153840113Y-76568752D01*
X153913300Y-76529474D01*
X153950793Y-76501492D01*
X153958322Y-76481012D01*
X153952911Y-76472667D01*
X153925825Y-76449357D01*
X153864242Y-76398497D01*
X153773321Y-76324282D01*
X153658227Y-76230907D01*
X153524119Y-76122567D01*
X153376161Y-76003456D01*
X153320440Y-75958700D01*
X152719253Y-75476100D01*
X152584420Y-75236675D01*
X152531391Y-75137862D01*
X152491952Y-75055237D01*
X152470469Y-74998593D01*
X152469244Y-74978466D01*
X152498242Y-74961849D01*
X152565663Y-74928188D01*
X152663903Y-74880973D01*
X152785358Y-74823695D01*
X152922424Y-74759846D01*
X153067494Y-74692917D01*
X153212966Y-74626400D01*
X153351235Y-74563785D01*
X153474697Y-74508563D01*
X153575746Y-74464227D01*
X153646779Y-74434267D01*
X153680192Y-74422175D01*
X153681124Y-74422082D01*
X153681124Y-68228238D01*
X153581191Y-68228060D01*
X153289473Y-68233564D01*
X152991568Y-68244781D01*
X152698513Y-68261430D01*
X152421346Y-68283232D01*
X152247600Y-68300855D01*
X151956226Y-68325801D01*
X151956226Y-75260200D01*
X152090929Y-75267998D01*
X152211819Y-75294030D01*
X152323377Y-75342254D01*
X152430083Y-75416626D01*
X152536415Y-75521104D01*
X152646854Y-75659644D01*
X152765881Y-75836203D01*
X152897973Y-76054738D01*
X152941749Y-76130704D01*
X153025831Y-76279526D01*
X153104134Y-76421114D01*
X153172024Y-76546857D01*
X153224867Y-76648139D01*
X153258029Y-76716349D01*
X153262856Y-76727604D01*
X153307325Y-76897306D01*
X153309590Y-77072726D01*
X153270037Y-77238645D01*
X153248768Y-77286929D01*
X153145857Y-77438423D01*
X152995177Y-77575328D01*
X152796195Y-77698105D01*
X152743137Y-77724588D01*
X152516658Y-77815310D01*
X152307111Y-77860086D01*
X152109510Y-77858801D01*
X151918870Y-77811337D01*
X151730205Y-77717579D01*
X151702974Y-77700301D01*
X151654407Y-77657343D01*
X151590662Y-77585577D01*
X151519332Y-77495560D01*
X151448011Y-77397846D01*
X151384290Y-77302991D01*
X151335764Y-77221551D01*
X151310027Y-77164081D01*
X151307800Y-77150962D01*
X151329707Y-77130437D01*
X151388905Y-77095318D01*
X151475604Y-77050098D01*
X151580017Y-76999268D01*
X151692353Y-76947321D01*
X151802827Y-76898747D01*
X151901647Y-76858040D01*
X151979027Y-76829691D01*
X152025178Y-76818193D01*
X152031667Y-76818772D01*
X152058292Y-76845594D01*
X152100606Y-76906008D01*
X152150803Y-76988567D01*
X152166970Y-77017272D01*
X152221896Y-77111952D01*
X152274977Y-77195517D01*
X152316436Y-77252746D01*
X152323175Y-77260450D01*
X152387630Y-77305345D01*
X152453739Y-77315644D01*
X152509031Y-77295692D01*
X152541034Y-77249837D01*
X152538266Y-77185468D01*
X152516997Y-77135403D01*
X152477928Y-77058395D01*
X152426790Y-76964308D01*
X152369313Y-76863008D01*
X152311230Y-76764361D01*
X152258270Y-76678231D01*
X152216165Y-76614484D01*
X152190645Y-76582985D01*
X152187293Y-76581288D01*
X152158314Y-76591310D01*
X152090654Y-76619406D01*
X151991747Y-76662344D01*
X151869026Y-76716892D01*
X151729927Y-76779815D01*
X151712848Y-76787610D01*
X151571553Y-76850749D01*
X151444755Y-76904741D01*
X151340104Y-76946543D01*
X151265253Y-76973113D01*
X151227852Y-76981408D01*
X151226340Y-76981069D01*
X151197864Y-76952388D01*
X151153991Y-76887726D01*
X151100284Y-76797375D01*
X151042310Y-76691628D01*
X150985634Y-76580777D01*
X150935823Y-76475113D01*
X150898441Y-76384928D01*
X150888456Y-76356249D01*
X150857586Y-76194981D01*
X150861186Y-76026622D01*
X150898228Y-75871450D01*
X150915132Y-75831700D01*
X151002137Y-75701153D01*
X151129793Y-75577783D01*
X151287973Y-75467148D01*
X151466554Y-75374804D01*
X151655410Y-75306312D01*
X151844417Y-75267227D01*
X151956226Y-75260200D01*
X151956226Y-68325801D01*
X151852555Y-68334678D01*
X151410267Y-68352629D01*
X150921751Y-68354704D01*
X150388021Y-68340897D01*
X149821900Y-68311944D01*
X149398776Y-68290639D01*
X149019454Y-68282817D01*
X148678597Y-68289079D01*
X148370868Y-68310025D01*
X148090931Y-68346254D01*
X147833447Y-68398366D01*
X147593081Y-68466961D01*
X147364495Y-68552639D01*
X147256946Y-68600214D01*
X147031762Y-68724118D01*
X146809317Y-68882330D01*
X146601075Y-69064672D01*
X146418499Y-69260964D01*
X146273052Y-69461029D01*
X146256344Y-69488693D01*
X146194381Y-69619608D01*
X146138437Y-69785009D01*
X146092489Y-69968623D01*
X146060515Y-70154177D01*
X146046492Y-70325399D01*
X146046184Y-70348556D01*
X146070811Y-70609560D01*
X146145976Y-70871194D01*
X146271430Y-71133055D01*
X146446922Y-71394741D01*
X146672200Y-71655850D01*
X146947015Y-71915979D01*
X147104100Y-72046492D01*
X147239745Y-72150618D01*
X147407887Y-72273309D01*
X147597453Y-72407011D01*
X147797368Y-72544168D01*
X147996560Y-72677224D01*
X148183955Y-72798625D01*
X148348480Y-72900815D01*
X148407944Y-72936100D01*
X148540449Y-73016619D01*
X148656138Y-73093273D01*
X148747115Y-73160399D01*
X148805486Y-73212334D01*
X148820753Y-73232224D01*
X148832122Y-73278974D01*
X148842484Y-73372583D01*
X148851562Y-73509115D01*
X148859079Y-73684633D01*
X148863466Y-73837063D01*
X148867356Y-74044375D01*
X148867531Y-74205756D01*
X148863325Y-74325986D01*
X148854072Y-74409841D01*
X148839105Y-74462101D01*
X148817759Y-74487543D01*
X148789367Y-74490945D01*
X148772976Y-74486127D01*
X148746514Y-74480724D01*
X148749269Y-74488136D01*
X148735214Y-74505490D01*
X148683398Y-74538931D01*
X148602275Y-74583456D01*
X148512271Y-74628356D01*
X148400103Y-74683674D01*
X148297688Y-74736991D01*
X148218308Y-74781240D01*
X148182326Y-74803907D01*
X148133852Y-74834851D01*
X148108484Y-74844074D01*
X148107399Y-74842313D01*
X148088070Y-74840601D01*
X148035023Y-74864424D01*
X147955669Y-74909497D01*
X147857420Y-74971538D01*
X147747686Y-75046264D01*
X147718098Y-75067307D01*
X147630495Y-75127051D01*
X147557231Y-75171225D01*
X147508428Y-75194024D01*
X147495219Y-75195104D01*
X147477269Y-75196226D01*
X147478120Y-75204070D01*
X147461969Y-75227816D01*
X147412834Y-75276411D01*
X147337740Y-75343403D01*
X147243718Y-75422344D01*
X147213948Y-75446523D01*
X147037120Y-75599811D01*
X146850663Y-75780222D01*
X146666110Y-75975313D01*
X146494997Y-76172642D01*
X146348856Y-76359767D01*
X146291368Y-76441710D01*
X146174220Y-76651661D01*
X146087352Y-76881601D01*
X146032858Y-77120307D01*
X146012832Y-77356559D01*
X146029366Y-77579135D01*
X146029366Y-77579135D01*
G37*
X146029366Y-77579135D02*
X146056850Y-77698600D01*
X146134443Y-77892975D01*
X146247127Y-78087920D01*
X146385019Y-78270136D01*
X146538237Y-78426321D01*
X146674044Y-78529249D01*
X146737429Y-78572624D01*
X146778237Y-78606943D01*
X146786554Y-78619350D01*
X146806303Y-78637685D01*
X146813627Y-78638400D01*
X146849576Y-78648371D01*
X146915890Y-78674303D01*
X146985077Y-78704658D01*
X147117070Y-78758807D01*
X147279785Y-78816079D01*
X147453983Y-78870412D01*
X147620424Y-78915744D01*
X147739100Y-78942230D01*
X147852023Y-78964648D01*
X147979633Y-78991303D01*
X148056600Y-79008069D01*
X148177881Y-79031411D01*
X148343878Y-79057729D01*
X148548642Y-79086330D01*
X148786221Y-79116519D01*
X149050664Y-79147601D01*
X149336022Y-79178881D01*
X149636343Y-79209666D01*
X149945677Y-79239260D01*
X150258073Y-79266969D01*
X150317200Y-79271956D01*
X150577931Y-79293957D01*
X150797813Y-79313032D01*
X150986647Y-79330146D01*
X151154233Y-79346265D01*
X151310373Y-79362353D01*
X151464868Y-79379377D01*
X151627520Y-79398300D01*
X151752300Y-79413294D01*
X152486381Y-79485517D01*
X153186997Y-79519943D01*
X153854661Y-79516535D01*
X154489888Y-79475259D01*
X155093192Y-79396079D01*
X155665087Y-79278961D01*
X156206087Y-79123869D01*
X156265886Y-79103754D01*
X156613872Y-78984866D01*
X156766787Y-79092130D01*
X156861265Y-79154335D01*
X156957450Y-79211187D01*
X157028779Y-79247643D01*
X157136526Y-79282797D01*
X157275614Y-79310746D01*
X157426794Y-79328898D01*
X157570815Y-79334660D01*
X157647313Y-79330947D01*
X157727627Y-79326604D01*
X157780494Y-79338068D01*
X157828577Y-79372797D01*
X157856449Y-79399756D01*
X157901678Y-79454349D01*
X157922018Y-79498348D01*
X157920607Y-79510483D01*
X157916701Y-79526506D01*
X157924716Y-79520994D01*
X157956200Y-79521015D01*
X157997016Y-79549211D01*
X158029839Y-79590513D01*
X158038800Y-79620236D01*
X158059514Y-79649576D01*
X158081133Y-79654400D01*
X158109804Y-79661377D01*
X158108374Y-79669492D01*
X158116469Y-79693392D01*
X158154232Y-79736713D01*
X158180340Y-79761023D01*
X158236643Y-79818374D01*
X158261750Y-79874587D01*
X158267400Y-79953400D01*
X158262816Y-80042701D01*
X158250960Y-80153795D01*
X158238671Y-80236519D01*
X158217563Y-80336289D01*
X158189524Y-80405589D01*
X158144719Y-80464667D01*
X158111676Y-80497927D01*
X158002674Y-80576712D01*
X157854248Y-80640370D01*
X157662819Y-80690159D01*
X157475886Y-80720903D01*
X157379766Y-80734351D01*
X157246676Y-80753909D01*
X157089795Y-80777593D01*
X156922303Y-80803419D01*
X156794200Y-80823546D01*
X156582688Y-80855782D01*
X156340612Y-80890467D01*
X156076675Y-80926528D01*
X155799582Y-80962891D01*
X155518036Y-80998481D01*
X155240741Y-81032225D01*
X154976402Y-81063048D01*
X154733724Y-81089876D01*
X154521409Y-81111636D01*
X154348163Y-81127253D01*
X154307361Y-81130414D01*
X153774161Y-81150402D01*
X153227546Y-81134296D01*
X152685859Y-81083126D01*
X152253950Y-81014917D01*
X152020136Y-80970679D01*
X151830215Y-80935057D01*
X151678185Y-80907119D01*
X151558042Y-80885935D01*
X151463785Y-80870574D01*
X151389412Y-80860105D01*
X151328919Y-80853599D01*
X151276305Y-80850124D01*
X151225566Y-80848750D01*
X151180800Y-80848538D01*
X150909654Y-80863921D01*
X150675900Y-80911275D01*
X150475877Y-80992647D01*
X150305928Y-81110085D01*
X150162392Y-81265633D01*
X150041610Y-81461340D01*
X150024849Y-81495075D01*
X149945774Y-81670129D01*
X149886453Y-81831923D01*
X149844455Y-81992716D01*
X149817350Y-82164773D01*
X149802709Y-82360354D01*
X149798099Y-82591723D01*
X149798150Y-82638900D01*
X149804461Y-82907852D01*
X149822482Y-83137123D01*
X149854017Y-83336854D01*
X149900865Y-83517188D01*
X149964828Y-83688267D01*
X149997217Y-83759774D01*
X150104971Y-83949196D01*
X150230139Y-84094012D01*
X150379512Y-84199292D01*
X150559880Y-84270107D01*
X150727049Y-84304766D01*
X150855424Y-84317123D01*
X151000043Y-84317702D01*
X151167718Y-84305866D01*
X151365261Y-84280978D01*
X151599483Y-84242401D01*
X151803100Y-84204145D01*
X152004373Y-84165497D01*
X152177200Y-84134494D01*
X152331173Y-84110327D01*
X152475886Y-84092186D01*
X152620931Y-84079261D01*
X152775901Y-84070742D01*
X152950390Y-84065820D01*
X153153991Y-84063685D01*
X153396296Y-84063527D01*
X153466800Y-84063709D01*
X153748009Y-84065601D01*
X153990143Y-84069774D01*
X154204894Y-84076725D01*
X154403954Y-84086954D01*
X154599015Y-84100957D01*
X154801772Y-84119233D01*
X154825700Y-84121590D01*
X155188014Y-84157135D01*
X155506586Y-84187330D01*
X155788141Y-84212591D01*
X156039410Y-84233337D01*
X156267119Y-84249985D01*
X156477996Y-84262954D01*
X156678769Y-84272661D01*
X156876167Y-84279524D01*
X157076917Y-84283960D01*
X157287747Y-84286388D01*
X157492700Y-84287202D01*
X157785802Y-84286460D01*
X158036739Y-84282886D01*
X158254103Y-84275652D01*
X158446489Y-84263930D01*
X158622490Y-84246889D01*
X158790701Y-84223702D01*
X158959716Y-84193538D01*
X159138129Y-84155569D01*
X159330791Y-84109886D01*
X159767831Y-83987324D01*
X160177798Y-83841666D01*
X160552769Y-83675959D01*
X160795176Y-83546787D01*
X160861356Y-83504503D01*
X160955722Y-83439086D01*
X161066738Y-83359074D01*
X161182872Y-83273004D01*
X161292587Y-83189412D01*
X161384349Y-83116836D01*
X161441798Y-83068222D01*
X161600614Y-82900600D01*
X161752804Y-82694321D01*
X161890969Y-82461522D01*
X162007710Y-82214340D01*
X162076941Y-82026242D01*
X162113978Y-81901508D01*
X162151531Y-81758983D01*
X162186926Y-81610747D01*
X162217488Y-81468883D01*
X162240543Y-81345474D01*
X162253416Y-81252602D01*
X162255200Y-81220937D01*
X162260941Y-81138475D01*
X162279177Y-81104949D01*
X162311423Y-81119697D01*
X162355815Y-81176912D01*
X162406751Y-81247142D01*
X162477821Y-81336791D01*
X162554740Y-81427914D01*
X162564427Y-81438937D01*
X162632601Y-81511797D01*
X162699242Y-81570825D01*
X162776683Y-81624690D01*
X162877255Y-81682063D01*
X162999130Y-81744557D01*
X163434125Y-81937229D01*
X163897528Y-82094434D01*
X164160200Y-82165039D01*
X164384762Y-82216872D01*
X164595991Y-82257445D01*
X164804994Y-82287918D01*
X165022877Y-82309449D01*
X165260745Y-82323198D01*
X165529705Y-82330324D01*
X165760400Y-82332020D01*
X165949423Y-82332020D01*
X166107980Y-82330807D01*
X166244613Y-82327332D01*
X166367863Y-82320545D01*
X166486272Y-82309397D01*
X166608380Y-82292839D01*
X166742731Y-82269822D01*
X166897865Y-82239295D01*
X167082324Y-82200210D01*
X167304650Y-82151517D01*
X167398700Y-82130749D01*
X167667072Y-82072646D01*
X167898609Y-82025393D01*
X168105557Y-81986755D01*
X168300167Y-81954496D01*
X168494686Y-81926381D01*
X168579800Y-81915208D01*
X168885104Y-81872463D01*
X169146468Y-81827375D01*
X169370745Y-81778263D01*
X169564790Y-81723446D01*
X169735457Y-81661242D01*
X169874569Y-81597636D01*
X170027467Y-81507312D01*
X170166871Y-81400408D01*
X170279425Y-81288050D01*
X170332854Y-81215764D01*
X170387414Y-81149828D01*
X170445722Y-81127684D01*
X170450032Y-81127600D01*
X170554494Y-81108456D01*
X170642442Y-81049238D01*
X170715987Y-80947262D01*
X170777240Y-80799846D01*
X170814953Y-80663913D01*
X170835472Y-80568700D01*
X170853291Y-80464944D01*
X170868678Y-80348116D01*
X170881897Y-80213684D01*
X170893215Y-80057118D01*
X170902898Y-79873886D01*
X170911212Y-79659457D01*
X170918424Y-79409300D01*
X170924799Y-79118885D01*
X170930603Y-78783681D01*
X170932419Y-78663800D01*
X170936489Y-78391147D01*
X170940158Y-78164206D01*
X170943725Y-77977894D01*
X170947490Y-77827127D01*
X170951754Y-77706822D01*
X170956817Y-77611895D01*
X170962979Y-77537263D01*
X170970541Y-77477843D01*
X170979803Y-77428552D01*
X170991064Y-77384306D01*
X171004626Y-77340021D01*
X171011929Y-77317600D01*
X171037451Y-77232621D01*
X171055756Y-77150137D01*
X171068360Y-77057886D01*
X171076781Y-76943606D01*
X171082534Y-76795036D01*
X171084180Y-76733400D01*
X171087551Y-76573236D01*
X171090614Y-76380913D01*
X171093356Y-76161844D01*
X171095763Y-75921443D01*
X171097823Y-75665125D01*
X171099520Y-75398303D01*
X171100843Y-75126391D01*
X171101777Y-74854804D01*
X171102308Y-74588956D01*
X171102424Y-74334261D01*
X171102111Y-74096133D01*
X171101356Y-73879986D01*
X171100144Y-73691234D01*
X171098462Y-73535291D01*
X171096298Y-73417572D01*
X171093636Y-73343490D01*
X171092670Y-73329800D01*
X171079758Y-73227262D01*
X171057683Y-73093675D01*
X171029676Y-72947255D01*
X171002583Y-72821800D01*
X170988228Y-72759989D01*
X170975745Y-72705279D01*
X170965033Y-72653837D01*
X170955991Y-72601830D01*
X170948519Y-72545425D01*
X170942516Y-72480790D01*
X170937880Y-72404091D01*
X170934511Y-72311495D01*
X170932308Y-72199170D01*
X170931169Y-72063283D01*
X170930995Y-71900001D01*
X170931684Y-71705491D01*
X170933136Y-71475919D01*
X170935249Y-71207454D01*
X170937922Y-70896263D01*
X170941056Y-70538511D01*
X170941411Y-70497700D01*
X170943626Y-70224620D01*
X170944978Y-69995965D01*
X170945277Y-69805363D01*
X170944331Y-69646443D01*
X170941949Y-69512834D01*
X170937942Y-69398166D01*
X170932117Y-69296065D01*
X170924285Y-69200163D01*
X170914254Y-69104087D01*
X170901834Y-69001466D01*
X170895005Y-68948300D01*
X170845186Y-68606399D01*
X170789908Y-68309533D01*
X170727640Y-68052088D01*
X170656852Y-67828450D01*
X170576012Y-67633007D01*
X170494013Y-67477618D01*
X170412726Y-67361836D01*
X170325958Y-67288245D01*
X170222629Y-67248546D01*
X170177800Y-67240761D01*
X170074738Y-67211455D01*
X169984324Y-67146259D01*
X169976800Y-67139014D01*
X169858875Y-67045007D01*
X169710453Y-66965658D01*
X169528133Y-66900100D01*
X169308519Y-66847465D01*
X169048210Y-66806887D01*
X168743808Y-66777498D01*
X168503600Y-66763164D01*
X168318679Y-66753592D01*
X168154363Y-66742786D01*
X168001981Y-66729500D01*
X167852862Y-66712491D01*
X167698336Y-66690517D01*
X167529733Y-66662334D01*
X167338381Y-66626697D01*
X167115611Y-66582365D01*
X166852752Y-66528093D01*
X166832477Y-66523858D01*
X166832477Y-68376800D01*
X166862086Y-68399082D01*
X166911479Y-68463634D01*
X166978282Y-68567012D01*
X167060123Y-68705772D01*
X167064437Y-68713350D01*
X167124980Y-68819760D01*
X167205862Y-68961813D01*
X167302252Y-69131025D01*
X167409315Y-69318916D01*
X167522220Y-69517001D01*
X167636132Y-69716800D01*
X167689194Y-69809849D01*
X167790980Y-69988813D01*
X167884265Y-70153769D01*
X167966161Y-70299539D01*
X168033782Y-70420945D01*
X168084240Y-70512808D01*
X168114649Y-70569949D01*
X168122600Y-70587209D01*
X168100732Y-70603178D01*
X168040326Y-70636021D01*
X167949175Y-70681781D01*
X167835073Y-70736503D01*
X167755758Y-70773410D01*
X167628179Y-70831076D01*
X167515058Y-70880269D01*
X167425172Y-70917320D01*
X167367298Y-70938565D01*
X167351728Y-70942200D01*
X167330907Y-70920438D01*
X167287218Y-70857031D01*
X167222366Y-70754796D01*
X167138053Y-70616550D01*
X167035984Y-70445111D01*
X166917861Y-70243295D01*
X166785389Y-70013921D01*
X166696219Y-69858092D01*
X166573694Y-69642943D01*
X166458939Y-69440811D01*
X166354405Y-69256059D01*
X166262544Y-69093048D01*
X166185807Y-68956140D01*
X166126645Y-68849699D01*
X166087510Y-68778086D01*
X166070854Y-68745663D01*
X166070477Y-68744593D01*
X166089807Y-68725591D01*
X166146509Y-68690817D01*
X166231356Y-68644723D01*
X166335121Y-68591765D01*
X166448577Y-68536396D01*
X166562495Y-68483070D01*
X166667650Y-68436240D01*
X166754813Y-68400360D01*
X166814756Y-68379884D01*
X166832477Y-68376800D01*
X166832477Y-66523858D01*
X166827200Y-66522755D01*
X166563139Y-66470317D01*
X166563139Y-67879469D01*
X166593531Y-67900379D01*
X166630273Y-67951015D01*
X166680756Y-68039048D01*
X166725657Y-68122736D01*
X166759165Y-68188372D01*
X166775242Y-68224045D01*
X166775839Y-68226615D01*
X166754157Y-68241673D01*
X166693880Y-68273660D01*
X166602761Y-68318708D01*
X166488554Y-68372949D01*
X166406784Y-68410765D01*
X166278823Y-68468378D01*
X166165489Y-68517572D01*
X166075484Y-68554714D01*
X166017510Y-68576168D01*
X166001627Y-68580000D01*
X165976284Y-68559734D01*
X165935594Y-68507733D01*
X165887919Y-68437188D01*
X165841622Y-68361292D01*
X165805064Y-68293237D01*
X165803901Y-68290275D01*
X165803901Y-68858715D01*
X165826412Y-68865877D01*
X165826953Y-68866437D01*
X165845554Y-68894814D01*
X165886251Y-68962458D01*
X165946159Y-69064399D01*
X166022398Y-69195670D01*
X166112084Y-69351300D01*
X166212334Y-69526322D01*
X166320266Y-69715768D01*
X166346011Y-69761100D01*
X166460090Y-69961882D01*
X166571138Y-70156935D01*
X166675531Y-70339923D01*
X166769642Y-70504506D01*
X166849849Y-70644346D01*
X166912526Y-70753106D01*
X166954050Y-70824448D01*
X166956084Y-70827900D01*
X167008980Y-70919944D01*
X167050566Y-70996862D01*
X167074835Y-71047318D01*
X167078596Y-71059064D01*
X167057496Y-71078333D01*
X166997450Y-71113882D01*
X166906073Y-71161678D01*
X166790981Y-71217685D01*
X166698238Y-71260589D01*
X166552781Y-71325608D01*
X166446649Y-71370509D01*
X166373502Y-71397431D01*
X166327000Y-71408510D01*
X166300804Y-71405885D01*
X166291584Y-71397724D01*
X166273879Y-71367806D01*
X166234100Y-71298977D01*
X166175260Y-71196498D01*
X166100370Y-71065633D01*
X166012443Y-70911644D01*
X165914489Y-70739794D01*
X165820074Y-70573900D01*
X165713881Y-70387874D01*
X165613215Y-70212846D01*
X165521399Y-70054496D01*
X165441758Y-69918504D01*
X165377615Y-69810551D01*
X165332295Y-69736318D01*
X165311035Y-69703950D01*
X165245311Y-69642050D01*
X165176048Y-69621000D01*
X165114031Y-69643610D01*
X165106336Y-69650623D01*
X165096625Y-69663252D01*
X165092347Y-69680280D01*
X165095500Y-69705701D01*
X165108086Y-69743509D01*
X165132103Y-69797697D01*
X165169551Y-69872258D01*
X165222431Y-69971188D01*
X165292742Y-70098479D01*
X165382483Y-70258124D01*
X165493654Y-70454118D01*
X165618063Y-70672572D01*
X165724503Y-70859823D01*
X165822565Y-71033337D01*
X165909485Y-71188147D01*
X165982498Y-71319284D01*
X166038841Y-71421781D01*
X166075748Y-71490670D01*
X166090456Y-71520983D01*
X166090600Y-71521735D01*
X166068670Y-71538513D01*
X166008050Y-71571931D01*
X165916487Y-71618042D01*
X165801733Y-71672900D01*
X165716937Y-71712034D01*
X165571302Y-71777252D01*
X165464853Y-71821974D01*
X165391298Y-71848350D01*
X165344348Y-71858527D01*
X165317713Y-71854653D01*
X165311981Y-71850329D01*
X165290438Y-71819178D01*
X165247631Y-71749606D01*
X165186966Y-71647600D01*
X165111846Y-71519149D01*
X165025677Y-71370241D01*
X164931862Y-71206862D01*
X164833806Y-71035001D01*
X164734914Y-70860646D01*
X164638589Y-70689784D01*
X164548237Y-70528403D01*
X164467262Y-70382491D01*
X164399068Y-70258036D01*
X164347060Y-70161026D01*
X164314642Y-70097447D01*
X164311248Y-70090231D01*
X164253981Y-69952386D01*
X164224879Y-69843826D01*
X164222224Y-69752754D01*
X164244298Y-69667375D01*
X164248255Y-69657602D01*
X164309696Y-69545111D01*
X164394944Y-69456628D01*
X164516933Y-69379020D01*
X164528500Y-69372973D01*
X164661123Y-69325888D01*
X164814760Y-69304012D01*
X164965008Y-69309793D01*
X165027914Y-69322872D01*
X165072674Y-69332934D01*
X165084292Y-69319813D01*
X165069840Y-69272163D01*
X165066014Y-69261752D01*
X165050560Y-69197997D01*
X165061900Y-69172432D01*
X165092773Y-69159054D01*
X165161122Y-69128261D01*
X165258321Y-69083975D01*
X165375743Y-69030120D01*
X165442680Y-68999290D01*
X165585720Y-68934593D01*
X165689584Y-68890988D01*
X165760301Y-68866390D01*
X165803901Y-68858715D01*
X165803901Y-68290275D01*
X165786607Y-68246215D01*
X165785800Y-68239503D01*
X165807389Y-68223287D01*
X165865918Y-68190679D01*
X165952024Y-68146191D01*
X166056347Y-68094334D01*
X166169525Y-68039620D01*
X166282197Y-67986561D01*
X166385001Y-67939668D01*
X166468577Y-67903453D01*
X166523563Y-67882427D01*
X166531448Y-67880146D01*
X166563139Y-67879469D01*
X166563139Y-66470317D01*
X166518080Y-66461368D01*
X166244383Y-66414643D01*
X165993362Y-66381104D01*
X165752271Y-66359280D01*
X165508362Y-66347696D01*
X165288002Y-66344800D01*
X164926016Y-66353738D01*
X164601452Y-66382051D01*
X164303910Y-66431986D01*
X164022987Y-66505790D01*
X163803563Y-66585600D01*
X163803563Y-69773800D01*
X163824669Y-69792922D01*
X163866482Y-69850855D01*
X163929516Y-69948446D01*
X164014283Y-70086540D01*
X164121294Y-70265985D01*
X164251062Y-70487627D01*
X164404100Y-70752315D01*
X164560275Y-71024750D01*
X164691938Y-71255792D01*
X164815518Y-71473853D01*
X164928788Y-71674920D01*
X165029520Y-71854978D01*
X165115486Y-72010015D01*
X165184457Y-72136019D01*
X165234205Y-72228976D01*
X165262503Y-72284873D01*
X165268325Y-72300013D01*
X165243996Y-72318484D01*
X165181416Y-72353269D01*
X165088795Y-72400139D01*
X164974342Y-72454865D01*
X164910812Y-72484163D01*
X164786316Y-72539939D01*
X164676760Y-72587235D01*
X164591067Y-72622338D01*
X164538161Y-72641529D01*
X164526946Y-72644000D01*
X164500978Y-72623212D01*
X164458051Y-72567299D01*
X164405158Y-72485937D01*
X164371479Y-72428810D01*
X164304232Y-72314685D01*
X164256681Y-72244245D01*
X164226850Y-72215228D01*
X164212761Y-72225375D01*
X164211000Y-72245327D01*
X164198156Y-72284226D01*
X164165220Y-72348177D01*
X164137459Y-72394415D01*
X164041580Y-72503229D01*
X163914103Y-72587879D01*
X163767755Y-72644431D01*
X163615263Y-72668950D01*
X163469353Y-72657502D01*
X163382027Y-72627949D01*
X163324760Y-72594076D01*
X163265394Y-72543962D01*
X163200926Y-72473411D01*
X163128348Y-72378224D01*
X163044657Y-72254203D01*
X162946847Y-72097150D01*
X162831913Y-71902869D01*
X162706965Y-71684995D01*
X162610972Y-71515529D01*
X162521588Y-71357109D01*
X162442348Y-71216050D01*
X162376789Y-71098667D01*
X162328445Y-71011277D01*
X162300853Y-70960193D01*
X162297704Y-70954022D01*
X162247148Y-70802468D01*
X162244988Y-70656802D01*
X162288819Y-70522562D01*
X162376238Y-70405285D01*
X162504843Y-70310512D01*
X162595003Y-70268932D01*
X162680661Y-70243862D01*
X162777265Y-70233371D01*
X162903437Y-70235556D01*
X162915349Y-70236221D01*
X163119151Y-70248019D01*
X163078846Y-70186505D01*
X163053889Y-70138643D01*
X163051318Y-70112215D01*
X163082895Y-70093071D01*
X163150794Y-70058792D01*
X163244982Y-70013892D01*
X163355427Y-69962884D01*
X163472096Y-69910282D01*
X163584957Y-69860599D01*
X163683977Y-69818348D01*
X163759123Y-69788043D01*
X163800363Y-69774197D01*
X163803563Y-69773800D01*
X163803563Y-66585600D01*
X163748280Y-66605708D01*
X163469388Y-66733987D01*
X163456940Y-66740276D01*
X163315918Y-66813638D01*
X163174815Y-66890292D01*
X163047253Y-66962627D01*
X162946853Y-67023029D01*
X162920125Y-67040291D01*
X162832511Y-67094802D01*
X162755862Y-67135836D01*
X162703526Y-67156439D01*
X162694937Y-67157600D01*
X162646775Y-67143134D01*
X162579219Y-67106358D01*
X162542691Y-67081473D01*
X162424716Y-67005514D01*
X162274456Y-66924569D01*
X162108712Y-66846727D01*
X161944287Y-66780075D01*
X161848800Y-66747428D01*
X161839897Y-66744833D01*
X161839897Y-70686981D01*
X161863499Y-70693354D01*
X161865257Y-70694994D01*
X161883726Y-70722954D01*
X161923940Y-70789514D01*
X161982662Y-70889043D01*
X162056655Y-71015908D01*
X162142681Y-71164477D01*
X162237504Y-71329118D01*
X162337887Y-71504198D01*
X162440592Y-71684086D01*
X162542383Y-71863149D01*
X162640021Y-72035756D01*
X162730271Y-72196273D01*
X162801474Y-72323895D01*
X162883745Y-72481559D01*
X162936370Y-72608408D01*
X162961344Y-72713368D01*
X162960664Y-72805367D01*
X162936324Y-72893331D01*
X162931428Y-72905165D01*
X162858062Y-73017947D01*
X162739309Y-73117073D01*
X162601520Y-73191867D01*
X162509762Y-73229809D01*
X162432826Y-73248180D01*
X162345795Y-73251257D01*
X162277670Y-73247494D01*
X162177812Y-73242459D01*
X162122650Y-73246454D01*
X162106567Y-73261495D01*
X162123947Y-73289598D01*
X162133280Y-73299320D01*
X162148840Y-73337617D01*
X162139630Y-73353137D01*
X162105978Y-73374256D01*
X162037614Y-73409370D01*
X161943950Y-73454295D01*
X161834401Y-73504845D01*
X161718378Y-73556836D01*
X161605295Y-73606080D01*
X161504565Y-73648394D01*
X161425602Y-73679591D01*
X161377819Y-73695487D01*
X161368186Y-73696142D01*
X161353056Y-73671881D01*
X161315231Y-73607751D01*
X161257172Y-73508014D01*
X161181342Y-73376937D01*
X161090199Y-73218783D01*
X160986206Y-73037816D01*
X160871824Y-72838302D01*
X160749513Y-72624504D01*
X160726953Y-72585022D01*
X160576390Y-72320648D01*
X160450289Y-72097317D01*
X160347232Y-71912356D01*
X160265801Y-71763094D01*
X160204579Y-71646859D01*
X160162147Y-71560979D01*
X160137090Y-71502784D01*
X160127988Y-71469600D01*
X160130053Y-71460084D01*
X160161690Y-71440817D01*
X160229013Y-71406028D01*
X160322005Y-71360387D01*
X160430648Y-71308564D01*
X160544926Y-71255228D01*
X160654822Y-71205049D01*
X160750318Y-71162696D01*
X160821397Y-71132839D01*
X160858043Y-71120147D01*
X160859602Y-71120000D01*
X160876081Y-71141318D01*
X160914881Y-71202188D01*
X160973250Y-71297978D01*
X161048436Y-71424057D01*
X161137687Y-71575796D01*
X161238250Y-71748564D01*
X161347374Y-71937730D01*
X161395224Y-72021179D01*
X161507747Y-72216598D01*
X161613542Y-72398103D01*
X161709756Y-72560965D01*
X161793537Y-72700450D01*
X161862029Y-72811827D01*
X161912381Y-72890365D01*
X161941738Y-72931332D01*
X161947005Y-72936156D01*
X161993252Y-72933547D01*
X162042197Y-72911137D01*
X162082993Y-72874758D01*
X162084735Y-72831335D01*
X162076222Y-72806002D01*
X162058254Y-72769553D01*
X162017930Y-72694296D01*
X161958174Y-72585485D01*
X161881911Y-72448376D01*
X161792067Y-72288222D01*
X161691566Y-72110279D01*
X161583333Y-71919800D01*
X161566060Y-71889505D01*
X161453708Y-71691000D01*
X161352878Y-71509831D01*
X161265899Y-71350383D01*
X161195096Y-71217041D01*
X161142797Y-71114192D01*
X161111329Y-71046221D01*
X161103017Y-71017514D01*
X161103259Y-71017180D01*
X161132993Y-70999210D01*
X161200339Y-70964296D01*
X161296749Y-70916695D01*
X161413672Y-70860668D01*
X161480290Y-70829361D01*
X161622390Y-70764251D01*
X161725552Y-70720262D01*
X161795985Y-70695228D01*
X161839897Y-70686981D01*
X161839897Y-66744833D01*
X161775377Y-66726026D01*
X161706806Y-66710496D01*
X161632952Y-66699947D01*
X161543681Y-66693487D01*
X161428858Y-66690226D01*
X161278351Y-66689274D01*
X161188400Y-66689380D01*
X161011257Y-66690626D01*
X160874315Y-66693947D01*
X160766988Y-66700239D01*
X160678692Y-66710396D01*
X160598840Y-66725316D01*
X160516848Y-66745892D01*
X160515300Y-66746316D01*
X160268173Y-66830556D01*
X160009672Y-66947908D01*
X159754463Y-67090025D01*
X159613192Y-67184424D01*
X159613192Y-71318410D01*
X159643008Y-71334610D01*
X159688400Y-71385322D01*
X159740459Y-71460546D01*
X159741921Y-71462900D01*
X159795972Y-71545323D01*
X159838116Y-71590260D01*
X159880704Y-71604855D01*
X159936089Y-71596252D01*
X159960320Y-71589225D01*
X159991803Y-71586473D01*
X160021507Y-71604929D01*
X160057370Y-71652678D01*
X160107329Y-71737807D01*
X160108871Y-71740562D01*
X160164700Y-71853513D01*
X160185588Y-71930808D01*
X160171661Y-71973546D01*
X160136596Y-71983600D01*
X160093559Y-71997934D01*
X160084312Y-72007686D01*
X160092655Y-72035017D01*
X160123479Y-72100640D01*
X160173795Y-72198892D01*
X160240619Y-72324108D01*
X160320962Y-72470625D01*
X160411838Y-72632779D01*
X160441724Y-72685412D01*
X160570934Y-72913095D01*
X160676487Y-73101194D01*
X160760521Y-73253890D01*
X160825175Y-73375362D01*
X160872585Y-73469792D01*
X160904889Y-73541359D01*
X160924225Y-73594243D01*
X160932731Y-73632626D01*
X160933594Y-73647300D01*
X160923140Y-73701403D01*
X160897331Y-73775805D01*
X160886001Y-73802212D01*
X160837186Y-73882101D01*
X160775039Y-73950434D01*
X160759428Y-73962785D01*
X160701608Y-73998524D01*
X160616130Y-74044719D01*
X160512903Y-74096764D01*
X160401836Y-74150047D01*
X160292836Y-74199961D01*
X160195811Y-74241895D01*
X160120670Y-74271242D01*
X160077322Y-74283391D01*
X160071560Y-74282770D01*
X160046166Y-74252841D01*
X160008703Y-74193050D01*
X159966217Y-74116850D01*
X159925750Y-74037694D01*
X159894348Y-73969035D01*
X159879056Y-73924327D01*
X159879303Y-73915611D01*
X159909651Y-73892513D01*
X159965775Y-73864629D01*
X159968655Y-73863425D01*
X159999434Y-73850516D01*
X160022770Y-73836979D01*
X160036909Y-73818455D01*
X160040098Y-73790586D01*
X160030585Y-73749010D01*
X160006618Y-73689369D01*
X159966442Y-73607304D01*
X159908306Y-73498454D01*
X159830456Y-73358461D01*
X159731141Y-73182965D01*
X159608607Y-72967606D01*
X159608188Y-72966870D01*
X159507942Y-72791357D01*
X159429151Y-72655475D01*
X159368559Y-72554473D01*
X159322905Y-72483599D01*
X159288932Y-72438103D01*
X159263382Y-72413232D01*
X159242996Y-72404235D01*
X159224515Y-72406362D01*
X159223942Y-72406552D01*
X159138769Y-72427514D01*
X159075505Y-72418573D01*
X159020979Y-72373770D01*
X158962771Y-72288400D01*
X158918955Y-72210849D01*
X158888263Y-72147952D01*
X158877988Y-72116539D01*
X158898204Y-72085922D01*
X158949573Y-72050307D01*
X158965548Y-72042152D01*
X159054097Y-71999926D01*
X158962929Y-71836902D01*
X158921510Y-71755259D01*
X158896330Y-71690225D01*
X158892118Y-71654357D01*
X158893430Y-71652418D01*
X158923052Y-71634889D01*
X158988965Y-71601473D01*
X159081026Y-71556877D01*
X159189089Y-71505809D01*
X159303008Y-71452978D01*
X159412638Y-71403090D01*
X159507834Y-71360855D01*
X159578451Y-71330979D01*
X159613192Y-71318410D01*
X159613192Y-67184424D01*
X159517214Y-67248559D01*
X159312591Y-67415162D01*
X159270700Y-67454704D01*
X159174527Y-67551826D01*
X159057979Y-67674584D01*
X158933271Y-67809649D01*
X158812620Y-67943689D01*
X158708241Y-68063374D01*
X158658466Y-68122800D01*
X158611477Y-68179175D01*
X158578083Y-68217350D01*
X158571155Y-68224400D01*
X158547268Y-68251942D01*
X158500455Y-68310758D01*
X158438002Y-68391279D01*
X158387787Y-68456989D01*
X158387787Y-71633766D01*
X158404339Y-71656057D01*
X158443311Y-71717882D01*
X158502027Y-71814607D01*
X158577810Y-71941597D01*
X158667985Y-72094218D01*
X158769875Y-72267835D01*
X158880804Y-72457816D01*
X158998095Y-72659524D01*
X159119072Y-72868327D01*
X159241060Y-73079590D01*
X159361381Y-73288678D01*
X159477359Y-73490957D01*
X159586319Y-73681794D01*
X159685583Y-73856554D01*
X159772476Y-74010602D01*
X159844321Y-74139305D01*
X159898442Y-74238028D01*
X159932163Y-74302137D01*
X159942867Y-74326534D01*
X159924714Y-74353482D01*
X159899350Y-74372521D01*
X159860852Y-74392565D01*
X159785798Y-74428881D01*
X159683933Y-74476846D01*
X159565003Y-74531836D01*
X159524700Y-74550268D01*
X159405314Y-74606040D01*
X159315761Y-74646158D01*
X159248379Y-74667066D01*
X159195504Y-74665211D01*
X159149475Y-74637040D01*
X159102630Y-74579000D01*
X159047306Y-74487535D01*
X158975840Y-74359094D01*
X158928107Y-74273584D01*
X158862338Y-74158614D01*
X158805249Y-74062202D01*
X158761363Y-73991722D01*
X158735204Y-73954547D01*
X158730133Y-73950799D01*
X158733564Y-73977337D01*
X158749660Y-74044130D01*
X158776210Y-74142857D01*
X158811001Y-74265199D01*
X158838504Y-74358523D01*
X158877759Y-74494203D01*
X158910010Y-74613963D01*
X158933048Y-74708900D01*
X158944665Y-74770115D01*
X158944999Y-74787733D01*
X158918044Y-74810874D01*
X158855043Y-74847713D01*
X158765732Y-74893844D01*
X158659845Y-74944859D01*
X158547116Y-74996352D01*
X158437280Y-75043916D01*
X158340071Y-75083144D01*
X158265224Y-75109628D01*
X158222473Y-75118963D01*
X158216889Y-75117358D01*
X158203950Y-75085983D01*
X158182381Y-75014178D01*
X158154687Y-74911075D01*
X158123372Y-74785808D01*
X158106293Y-74714100D01*
X158065682Y-74541229D01*
X158019949Y-74347406D01*
X157974529Y-74155624D01*
X157934860Y-73988876D01*
X157932681Y-73979751D01*
X157848300Y-73626403D01*
X157448250Y-73256706D01*
X157330290Y-73146753D01*
X157226110Y-73047838D01*
X157141150Y-72965278D01*
X157080852Y-72904388D01*
X157050654Y-72870482D01*
X157048200Y-72865873D01*
X157069718Y-72848246D01*
X157127287Y-72815292D01*
X157210426Y-72772066D01*
X157308653Y-72723624D01*
X157411487Y-72675021D01*
X157508448Y-72631313D01*
X157589055Y-72597556D01*
X157642826Y-72578805D01*
X157643878Y-72578536D01*
X157676361Y-72580079D01*
X157721631Y-72601796D01*
X157786110Y-72648067D01*
X157876219Y-72723272D01*
X157945217Y-72784069D01*
X158036559Y-72864649D01*
X158112540Y-72929963D01*
X158166173Y-72974135D01*
X158190474Y-72991288D01*
X158191200Y-72990973D01*
X158179169Y-72966234D01*
X158145472Y-72903888D01*
X158093703Y-72810403D01*
X158027457Y-72692246D01*
X157950326Y-72555886D01*
X157911635Y-72487869D01*
X157830902Y-72344723D01*
X157759954Y-72216089D01*
X157702302Y-72108570D01*
X157661454Y-72028766D01*
X157640923Y-71983278D01*
X157639272Y-71975683D01*
X157664315Y-71956866D01*
X157726441Y-71922866D01*
X157815886Y-71878144D01*
X157922884Y-71827159D01*
X158037672Y-71774374D01*
X158150483Y-71724247D01*
X158251553Y-71681241D01*
X158331117Y-71649814D01*
X158379410Y-71634429D01*
X158387787Y-71633766D01*
X158387787Y-68456989D01*
X158367193Y-68483939D01*
X158295313Y-68579171D01*
X158229648Y-68667407D01*
X158177483Y-68739080D01*
X158156749Y-68768611D01*
X158084199Y-68874515D01*
X157763049Y-68903171D01*
X157498919Y-68936582D01*
X157267945Y-68987715D01*
X157200600Y-69007632D01*
X156959300Y-69083439D01*
X156847306Y-69018779D01*
X156500641Y-68835435D01*
X156500641Y-73153711D01*
X156685217Y-73168380D01*
X156856439Y-73215802D01*
X157003874Y-73293075D01*
X157117090Y-73397299D01*
X157118085Y-73398558D01*
X157184442Y-73488531D01*
X157248118Y-73584659D01*
X157302107Y-73675203D01*
X157339401Y-73748424D01*
X157353000Y-73792080D01*
X157331181Y-73814430D01*
X157272282Y-73851573D01*
X157186138Y-73898818D01*
X157082585Y-73951476D01*
X156971457Y-74004857D01*
X156862591Y-74054271D01*
X156765822Y-74095029D01*
X156690985Y-74122441D01*
X156647915Y-74131816D01*
X156642985Y-74130632D01*
X156621251Y-74103308D01*
X156582839Y-74042607D01*
X156534899Y-73960018D01*
X156518958Y-73931289D01*
X156454121Y-73818110D01*
X156403433Y-73744649D01*
X156360000Y-73704390D01*
X156316930Y-73690812D01*
X156270711Y-73696530D01*
X156226719Y-73713361D01*
X156212506Y-73744764D01*
X156218297Y-73802893D01*
X156246792Y-73897725D01*
X156297505Y-74000465D01*
X156359494Y-74092409D01*
X156421812Y-74154855D01*
X156425900Y-74157636D01*
X156454739Y-74172833D01*
X156491619Y-74182210D01*
X156545276Y-74185955D01*
X156624447Y-74184254D01*
X156737868Y-74177293D01*
X156870728Y-74167142D01*
X157080525Y-74152584D01*
X157248137Y-74148970D01*
X157381739Y-74160579D01*
X157489508Y-74191695D01*
X157579619Y-74246597D01*
X157660248Y-74329568D01*
X157739570Y-74444889D01*
X157825763Y-74596840D01*
X157877310Y-74694232D01*
X157951771Y-74858520D01*
X157987555Y-74995362D01*
X157985162Y-75109648D01*
X157945094Y-75206267D01*
X157931746Y-75225024D01*
X157794416Y-75367479D01*
X157637829Y-75464479D01*
X157465782Y-75514569D01*
X157282067Y-75516295D01*
X157206533Y-75503199D01*
X157151339Y-75492881D01*
X157135720Y-75502918D01*
X157149783Y-75542095D01*
X157153509Y-75550297D01*
X157171873Y-75600913D01*
X157172975Y-75626354D01*
X157143005Y-75643721D01*
X157076746Y-75676166D01*
X156984392Y-75719171D01*
X156876134Y-75768218D01*
X156762164Y-75818788D01*
X156652672Y-75866363D01*
X156557850Y-75906424D01*
X156487890Y-75934453D01*
X156452984Y-75945932D01*
X156452012Y-75946000D01*
X156431065Y-75924677D01*
X156389139Y-75864583D01*
X156329602Y-75771533D01*
X156255827Y-75651338D01*
X156171185Y-75509813D01*
X156079044Y-75352770D01*
X155982778Y-75186022D01*
X155885755Y-75015382D01*
X155791347Y-74846664D01*
X155702924Y-74685681D01*
X155623857Y-74538245D01*
X155557517Y-74410171D01*
X155533207Y-74361406D01*
X155469440Y-74226277D01*
X155427990Y-74124087D01*
X155405176Y-74044134D01*
X155397316Y-73975715D01*
X155397200Y-73966028D01*
X155419210Y-73828076D01*
X155479613Y-73687038D01*
X155569970Y-73559507D01*
X155636882Y-73494866D01*
X155735466Y-73426656D01*
X155866340Y-73353264D01*
X156012717Y-73282634D01*
X156157814Y-73222715D01*
X156284844Y-73181452D01*
X156313141Y-73174696D01*
X156500641Y-73153711D01*
X156500641Y-68835435D01*
X156437591Y-68802088D01*
X156021719Y-68623019D01*
X155591717Y-68479151D01*
X155139612Y-68368067D01*
X154698700Y-68294257D01*
X154698700Y-73583802D01*
X154722727Y-73604787D01*
X154761673Y-73659328D01*
X154807260Y-73735789D01*
X154808863Y-73738699D01*
X154855333Y-73819830D01*
X154888657Y-73864242D01*
X154918449Y-73880633D01*
X154954323Y-73877699D01*
X154960789Y-73876139D01*
X155019101Y-73861989D01*
X155051121Y-73854891D01*
X155072296Y-73873062D01*
X155110046Y-73922984D01*
X155156341Y-73991968D01*
X155203148Y-74067321D01*
X155242436Y-74136352D01*
X155266174Y-74186371D01*
X155269702Y-74200294D01*
X155249636Y-74223970D01*
X155206700Y-74248821D01*
X155160010Y-74278134D01*
X155143200Y-74302568D01*
X155155291Y-74330511D01*
X155189343Y-74396398D01*
X155242025Y-74494114D01*
X155310004Y-74617548D01*
X155389949Y-74760587D01*
X155469780Y-74901741D01*
X155563845Y-75067191D01*
X155654957Y-75227481D01*
X155738433Y-75374371D01*
X155809594Y-75499623D01*
X155863757Y-75594999D01*
X155889972Y-75641200D01*
X155940117Y-75735310D01*
X155967109Y-75806089D01*
X155976312Y-75872246D01*
X155974385Y-75935627D01*
X155949015Y-76062711D01*
X155907402Y-76146106D01*
X155864114Y-76191062D01*
X155791088Y-76243175D01*
X155682678Y-76305974D01*
X155533239Y-76382986D01*
X155509983Y-76394482D01*
X155388580Y-76452381D01*
X155281847Y-76499768D01*
X155198628Y-76532984D01*
X155147763Y-76548374D01*
X155137724Y-76548484D01*
X155110843Y-76520784D01*
X155069885Y-76459804D01*
X155023044Y-76377922D01*
X155016200Y-76364952D01*
X154971833Y-76277989D01*
X154949385Y-76224650D01*
X154946560Y-76193897D01*
X154961064Y-76174695D01*
X154974761Y-76165571D01*
X155054480Y-76114676D01*
X155096175Y-76076804D01*
X155105604Y-76039218D01*
X155088529Y-75989181D01*
X155070743Y-75953337D01*
X155043897Y-75903243D01*
X154996560Y-75817471D01*
X154933120Y-75703773D01*
X154857965Y-75569902D01*
X154775485Y-75423610D01*
X154690068Y-75272647D01*
X154606102Y-75124766D01*
X154527977Y-74987719D01*
X154460079Y-74869257D01*
X154406799Y-74777133D01*
X154372524Y-74719098D01*
X154366266Y-74708959D01*
X154340069Y-74674318D01*
X154310841Y-74666458D01*
X154259698Y-74682844D01*
X154238108Y-74691753D01*
X154185062Y-74711274D01*
X154145318Y-74713282D01*
X154110187Y-74691405D01*
X154070978Y-74639274D01*
X154019002Y-74550516D01*
X154000669Y-74517680D01*
X153919636Y-74372061D01*
X154010718Y-74318321D01*
X154067114Y-74282761D01*
X154099082Y-74258170D01*
X154101800Y-74254006D01*
X154090285Y-74228115D01*
X154060262Y-74171094D01*
X154023001Y-74103806D01*
X153983630Y-74026056D01*
X153959862Y-73963143D01*
X153956486Y-73932170D01*
X153982025Y-73912854D01*
X154044437Y-73878006D01*
X154133949Y-73832212D01*
X154240788Y-73780059D01*
X154355181Y-73726134D01*
X154467355Y-73675024D01*
X154567538Y-73631317D01*
X154645956Y-73599599D01*
X154692837Y-73584457D01*
X154698700Y-73583802D01*
X154698700Y-68294257D01*
X154657433Y-68287348D01*
X154308841Y-68248617D01*
X154101912Y-68235306D01*
X153855683Y-68228547D01*
X153681124Y-68228238D01*
X153681124Y-74422082D01*
X153705376Y-74442943D01*
X153745113Y-74497578D01*
X153793595Y-74574195D01*
X153844084Y-74661006D01*
X153889842Y-74746219D01*
X153924130Y-74818045D01*
X153940209Y-74864693D01*
X153939652Y-74874423D01*
X153911502Y-74894240D01*
X153847833Y-74928270D01*
X153759822Y-74970726D01*
X153708831Y-74993908D01*
X153614694Y-75037784D01*
X153541220Y-75075704D01*
X153498686Y-75102172D01*
X153492200Y-75109746D01*
X153511368Y-75129684D01*
X153565699Y-75177107D01*
X153650430Y-75248089D01*
X153760798Y-75338706D01*
X153892041Y-75445031D01*
X154039397Y-75563138D01*
X154120850Y-75627940D01*
X154295731Y-75766880D01*
X154435747Y-75878978D01*
X154545859Y-75968929D01*
X154631023Y-76041429D01*
X154696200Y-76101175D01*
X154746349Y-76152862D01*
X154786428Y-76201188D01*
X154821396Y-76250848D01*
X154856213Y-76306538D01*
X154880735Y-76347561D01*
X154936311Y-76443382D01*
X154980673Y-76524309D01*
X155008080Y-76579610D01*
X155014085Y-76596776D01*
X154992940Y-76616715D01*
X154933267Y-76652793D01*
X154843030Y-76700677D01*
X154730194Y-76756038D01*
X154666950Y-76785554D01*
X154511739Y-76856811D01*
X154341772Y-76934872D01*
X154176829Y-77010649D01*
X154036691Y-77075056D01*
X154027133Y-77079450D01*
X153915616Y-77129229D01*
X153820859Y-77168717D01*
X153752239Y-77194207D01*
X153719134Y-77201991D01*
X153718094Y-77201627D01*
X153696890Y-77174855D01*
X153658988Y-77115726D01*
X153611475Y-77036570D01*
X153561436Y-76949717D01*
X153515956Y-76867493D01*
X153482122Y-76802228D01*
X153467018Y-76766251D01*
X153466800Y-76764385D01*
X153488484Y-76745538D01*
X153547319Y-76711275D01*
X153633983Y-76666687D01*
X153725497Y-76623119D01*
X153840113Y-76568752D01*
X153913300Y-76529474D01*
X153950793Y-76501492D01*
X153958322Y-76481012D01*
X153952911Y-76472667D01*
X153925825Y-76449357D01*
X153864242Y-76398497D01*
X153773321Y-76324282D01*
X153658227Y-76230907D01*
X153524119Y-76122567D01*
X153376161Y-76003456D01*
X153320440Y-75958700D01*
X152719253Y-75476100D01*
X152584420Y-75236675D01*
X152531391Y-75137862D01*
X152491952Y-75055237D01*
X152470469Y-74998593D01*
X152469244Y-74978466D01*
X152498242Y-74961849D01*
X152565663Y-74928188D01*
X152663903Y-74880973D01*
X152785358Y-74823695D01*
X152922424Y-74759846D01*
X153067494Y-74692917D01*
X153212966Y-74626400D01*
X153351235Y-74563785D01*
X153474697Y-74508563D01*
X153575746Y-74464227D01*
X153646779Y-74434267D01*
X153680192Y-74422175D01*
X153681124Y-74422082D01*
X153681124Y-68228238D01*
X153581191Y-68228060D01*
X153289473Y-68233564D01*
X152991568Y-68244781D01*
X152698513Y-68261430D01*
X152421346Y-68283232D01*
X152247600Y-68300855D01*
X151956226Y-68325801D01*
X151956226Y-75260200D01*
X152090929Y-75267998D01*
X152211819Y-75294030D01*
X152323377Y-75342254D01*
X152430083Y-75416626D01*
X152536415Y-75521104D01*
X152646854Y-75659644D01*
X152765881Y-75836203D01*
X152897973Y-76054738D01*
X152941749Y-76130704D01*
X153025831Y-76279526D01*
X153104134Y-76421114D01*
X153172024Y-76546857D01*
X153224867Y-76648139D01*
X153258029Y-76716349D01*
X153262856Y-76727604D01*
X153307325Y-76897306D01*
X153309590Y-77072726D01*
X153270037Y-77238645D01*
X153248768Y-77286929D01*
X153145857Y-77438423D01*
X152995177Y-77575328D01*
X152796195Y-77698105D01*
X152743137Y-77724588D01*
X152516658Y-77815310D01*
X152307111Y-77860086D01*
X152109510Y-77858801D01*
X151918870Y-77811337D01*
X151730205Y-77717579D01*
X151702974Y-77700301D01*
X151654407Y-77657343D01*
X151590662Y-77585577D01*
X151519332Y-77495560D01*
X151448011Y-77397846D01*
X151384290Y-77302991D01*
X151335764Y-77221551D01*
X151310027Y-77164081D01*
X151307800Y-77150962D01*
X151329707Y-77130437D01*
X151388905Y-77095318D01*
X151475604Y-77050098D01*
X151580017Y-76999268D01*
X151692353Y-76947321D01*
X151802827Y-76898747D01*
X151901647Y-76858040D01*
X151979027Y-76829691D01*
X152025178Y-76818193D01*
X152031667Y-76818772D01*
X152058292Y-76845594D01*
X152100606Y-76906008D01*
X152150803Y-76988567D01*
X152166970Y-77017272D01*
X152221896Y-77111952D01*
X152274977Y-77195517D01*
X152316436Y-77252746D01*
X152323175Y-77260450D01*
X152387630Y-77305345D01*
X152453739Y-77315644D01*
X152509031Y-77295692D01*
X152541034Y-77249837D01*
X152538266Y-77185468D01*
X152516997Y-77135403D01*
X152477928Y-77058395D01*
X152426790Y-76964308D01*
X152369313Y-76863008D01*
X152311230Y-76764361D01*
X152258270Y-76678231D01*
X152216165Y-76614484D01*
X152190645Y-76582985D01*
X152187293Y-76581288D01*
X152158314Y-76591310D01*
X152090654Y-76619406D01*
X151991747Y-76662344D01*
X151869026Y-76716892D01*
X151729927Y-76779815D01*
X151712848Y-76787610D01*
X151571553Y-76850749D01*
X151444755Y-76904741D01*
X151340104Y-76946543D01*
X151265253Y-76973113D01*
X151227852Y-76981408D01*
X151226340Y-76981069D01*
X151197864Y-76952388D01*
X151153991Y-76887726D01*
X151100284Y-76797375D01*
X151042310Y-76691628D01*
X150985634Y-76580777D01*
X150935823Y-76475113D01*
X150898441Y-76384928D01*
X150888456Y-76356249D01*
X150857586Y-76194981D01*
X150861186Y-76026622D01*
X150898228Y-75871450D01*
X150915132Y-75831700D01*
X151002137Y-75701153D01*
X151129793Y-75577783D01*
X151287973Y-75467148D01*
X151466554Y-75374804D01*
X151655410Y-75306312D01*
X151844417Y-75267227D01*
X151956226Y-75260200D01*
X151956226Y-68325801D01*
X151852555Y-68334678D01*
X151410267Y-68352629D01*
X150921751Y-68354704D01*
X150388021Y-68340897D01*
X149821900Y-68311944D01*
X149398776Y-68290639D01*
X149019454Y-68282817D01*
X148678597Y-68289079D01*
X148370868Y-68310025D01*
X148090931Y-68346254D01*
X147833447Y-68398366D01*
X147593081Y-68466961D01*
X147364495Y-68552639D01*
X147256946Y-68600214D01*
X147031762Y-68724118D01*
X146809317Y-68882330D01*
X146601075Y-69064672D01*
X146418499Y-69260964D01*
X146273052Y-69461029D01*
X146256344Y-69488693D01*
X146194381Y-69619608D01*
X146138437Y-69785009D01*
X146092489Y-69968623D01*
X146060515Y-70154177D01*
X146046492Y-70325399D01*
X146046184Y-70348556D01*
X146070811Y-70609560D01*
X146145976Y-70871194D01*
X146271430Y-71133055D01*
X146446922Y-71394741D01*
X146672200Y-71655850D01*
X146947015Y-71915979D01*
X147104100Y-72046492D01*
X147239745Y-72150618D01*
X147407887Y-72273309D01*
X147597453Y-72407011D01*
X147797368Y-72544168D01*
X147996560Y-72677224D01*
X148183955Y-72798625D01*
X148348480Y-72900815D01*
X148407944Y-72936100D01*
X148540449Y-73016619D01*
X148656138Y-73093273D01*
X148747115Y-73160399D01*
X148805486Y-73212334D01*
X148820753Y-73232224D01*
X148832122Y-73278974D01*
X148842484Y-73372583D01*
X148851562Y-73509115D01*
X148859079Y-73684633D01*
X148863466Y-73837063D01*
X148867356Y-74044375D01*
X148867531Y-74205756D01*
X148863325Y-74325986D01*
X148854072Y-74409841D01*
X148839105Y-74462101D01*
X148817759Y-74487543D01*
X148789367Y-74490945D01*
X148772976Y-74486127D01*
X148746514Y-74480724D01*
X148749269Y-74488136D01*
X148735214Y-74505490D01*
X148683398Y-74538931D01*
X148602275Y-74583456D01*
X148512271Y-74628356D01*
X148400103Y-74683674D01*
X148297688Y-74736991D01*
X148218308Y-74781240D01*
X148182326Y-74803907D01*
X148133852Y-74834851D01*
X148108484Y-74844074D01*
X148107399Y-74842313D01*
X148088070Y-74840601D01*
X148035023Y-74864424D01*
X147955669Y-74909497D01*
X147857420Y-74971538D01*
X147747686Y-75046264D01*
X147718098Y-75067307D01*
X147630495Y-75127051D01*
X147557231Y-75171225D01*
X147508428Y-75194024D01*
X147495219Y-75195104D01*
X147477269Y-75196226D01*
X147478120Y-75204070D01*
X147461969Y-75227816D01*
X147412834Y-75276411D01*
X147337740Y-75343403D01*
X147243718Y-75422344D01*
X147213948Y-75446523D01*
X147037120Y-75599811D01*
X146850663Y-75780222D01*
X146666110Y-75975313D01*
X146494997Y-76172642D01*
X146348856Y-76359767D01*
X146291368Y-76441710D01*
X146174220Y-76651661D01*
X146087352Y-76881601D01*
X146032858Y-77120307D01*
X146012832Y-77356559D01*
X146029366Y-77579135D01*
G04 #@! TO.C,C5*
D13*
X154789142Y-89495333D02*
X154836761Y-89447714D01*
X154884380Y-89304857D01*
X154884380Y-89209619D01*
X154836761Y-89066761D01*
X154741523Y-88971523D01*
X154646285Y-88923904D01*
X154455809Y-88876285D01*
X154312952Y-88876285D01*
X154122476Y-88923904D01*
X154027238Y-88971523D01*
X153932000Y-89066761D01*
X153884380Y-89209619D01*
X153884380Y-89304857D01*
X153932000Y-89447714D01*
X153979619Y-89495333D01*
X153884380Y-90400095D02*
X153884380Y-89923904D01*
X154360571Y-89876285D01*
X154312952Y-89923904D01*
X154265333Y-90019142D01*
X154265333Y-90257238D01*
X154312952Y-90352476D01*
X154360571Y-90400095D01*
X154455809Y-90447714D01*
X154693904Y-90447714D01*
X154789142Y-90400095D01*
X154836761Y-90352476D01*
X154884380Y-90257238D01*
X154884380Y-90019142D01*
X154836761Y-89923904D01*
X154789142Y-89876285D01*
G04 #@! TO.C,C2*
X150725142Y-95972333D02*
X150772761Y-95924714D01*
X150820380Y-95781857D01*
X150820380Y-95686619D01*
X150772761Y-95543761D01*
X150677523Y-95448523D01*
X150582285Y-95400904D01*
X150391809Y-95353285D01*
X150248952Y-95353285D01*
X150058476Y-95400904D01*
X149963238Y-95448523D01*
X149868000Y-95543761D01*
X149820380Y-95686619D01*
X149820380Y-95781857D01*
X149868000Y-95924714D01*
X149915619Y-95972333D01*
X149915619Y-96353285D02*
X149868000Y-96400904D01*
X149820380Y-96496142D01*
X149820380Y-96734238D01*
X149868000Y-96829476D01*
X149915619Y-96877095D01*
X150010857Y-96924714D01*
X150106095Y-96924714D01*
X150248952Y-96877095D01*
X150820380Y-96305666D01*
X150820380Y-96924714D01*
G04 #@! TO.C,C1*
X152376142Y-95972333D02*
X152423761Y-95924714D01*
X152471380Y-95781857D01*
X152471380Y-95686619D01*
X152423761Y-95543761D01*
X152328523Y-95448523D01*
X152233285Y-95400904D01*
X152042809Y-95353285D01*
X151899952Y-95353285D01*
X151709476Y-95400904D01*
X151614238Y-95448523D01*
X151519000Y-95543761D01*
X151471380Y-95686619D01*
X151471380Y-95781857D01*
X151519000Y-95924714D01*
X151566619Y-95972333D01*
X152471380Y-96924714D02*
X152471380Y-96353285D01*
X152471380Y-96639000D02*
X151471380Y-96639000D01*
X151614238Y-96543761D01*
X151709476Y-96448523D01*
X151757095Y-96353285D01*
G04 #@! TD*
%LPC*%
D14*
G36*
X155702000Y-91440000D02*
X158750000Y-91440000D01*
X158750000Y-95758000D01*
X155702000Y-95758000D01*
X155702000Y-91440000D01*
G37*
X155702000Y-91440000D02*
X158750000Y-91440000D01*
X158750000Y-95758000D01*
X155702000Y-95758000D01*
X155702000Y-91440000D01*
G36*
X123253500Y-71882000D02*
X126428500Y-71882000D01*
X126365000Y-64262000D01*
X184150000Y-64262000D01*
X184213500Y-110617000D01*
X126428500Y-110617000D01*
X126428500Y-102997000D01*
X123253500Y-102997000D01*
X123253500Y-113157000D01*
X186753500Y-113157000D01*
X186753500Y-61087000D01*
X123253500Y-61087000D01*
X123253500Y-71882000D01*
G37*
X123253500Y-71882000D02*
X126428500Y-71882000D01*
X126365000Y-64262000D01*
X184150000Y-64262000D01*
X184213500Y-110617000D01*
X126428500Y-110617000D01*
X126428500Y-102997000D01*
X123253500Y-102997000D01*
X123253500Y-113157000D01*
X186753500Y-113157000D01*
X186753500Y-61087000D01*
X123253500Y-61087000D01*
X123253500Y-71882000D01*
D15*
G04 #@! TO.C,J5*
X175770000Y-81532000D03*
X175770000Y-74932000D03*
X182370000Y-74932000D03*
X182370000Y-81532000D03*
D16*
X179070000Y-78232000D03*
G04 #@! TD*
D15*
G04 #@! TO.C,J4*
X175770000Y-99312000D03*
X175770000Y-92712000D03*
X182370000Y-92712000D03*
X182370000Y-99312000D03*
D16*
X179070000Y-96012000D03*
G04 #@! TD*
D17*
G04 #@! TO.C,J3*
X164592000Y-102997000D03*
X164592000Y-105537000D03*
X162052000Y-102997000D03*
X162052000Y-105537000D03*
X159512000Y-102997000D03*
X159512000Y-105537000D03*
X156972000Y-102997000D03*
X156972000Y-105537000D03*
X154432000Y-102997000D03*
X154432000Y-105537000D03*
X151892000Y-102997000D03*
X151892000Y-105537000D03*
X149352000Y-102997000D03*
X149352000Y-105537000D03*
X146812000Y-102997000D03*
X146812000Y-105537000D03*
X144272000Y-102997000D03*
D18*
X144272000Y-105537000D03*
G04 #@! TD*
D19*
G04 #@! TO.C,J1*
X129090000Y-82612000D03*
X129090000Y-73852000D03*
G04 #@! TD*
G04 #@! TO.C,J2*
X129286000Y-101408000D03*
X129286000Y-92648000D03*
G04 #@! TD*
D20*
G04 #@! TO.C,H4*
X181356000Y-67691000D03*
G04 #@! TD*
G04 #@! TO.C,H3*
X181356000Y-107691000D03*
G04 #@! TD*
G04 #@! TO.C,H2*
X131356000Y-67564000D03*
G04 #@! TD*
G04 #@! TO.C,H1*
X131356000Y-107696000D03*
G04 #@! TD*
D14*
G04 #@! TO.C,C5*
G36*
X154610691Y-85974176D02*
X154634401Y-85977693D01*
X154657652Y-85983517D01*
X154680220Y-85991592D01*
X154701889Y-86001841D01*
X154722448Y-86014164D01*
X154741701Y-86028442D01*
X154759461Y-86044539D01*
X154775558Y-86062299D01*
X154789836Y-86081552D01*
X154802159Y-86102111D01*
X154812408Y-86123780D01*
X154820483Y-86146348D01*
X154826307Y-86169599D01*
X154829824Y-86193309D01*
X154831000Y-86217250D01*
X154831000Y-86705750D01*
X154829824Y-86729691D01*
X154826307Y-86753401D01*
X154820483Y-86776652D01*
X154812408Y-86799220D01*
X154802159Y-86820889D01*
X154789836Y-86841448D01*
X154775558Y-86860701D01*
X154759461Y-86878461D01*
X154741701Y-86894558D01*
X154722448Y-86908836D01*
X154701889Y-86921159D01*
X154680220Y-86931408D01*
X154657652Y-86939483D01*
X154634401Y-86945307D01*
X154610691Y-86948824D01*
X154586750Y-86950000D01*
X154023250Y-86950000D01*
X153999309Y-86948824D01*
X153975599Y-86945307D01*
X153952348Y-86939483D01*
X153929780Y-86931408D01*
X153908111Y-86921159D01*
X153887552Y-86908836D01*
X153868299Y-86894558D01*
X153850539Y-86878461D01*
X153834442Y-86860701D01*
X153820164Y-86841448D01*
X153807841Y-86820889D01*
X153797592Y-86799220D01*
X153789517Y-86776652D01*
X153783693Y-86753401D01*
X153780176Y-86729691D01*
X153779000Y-86705750D01*
X153779000Y-86217250D01*
X153780176Y-86193309D01*
X153783693Y-86169599D01*
X153789517Y-86146348D01*
X153797592Y-86123780D01*
X153807841Y-86102111D01*
X153820164Y-86081552D01*
X153834442Y-86062299D01*
X153850539Y-86044539D01*
X153868299Y-86028442D01*
X153887552Y-86014164D01*
X153908111Y-86001841D01*
X153929780Y-85991592D01*
X153952348Y-85983517D01*
X153975599Y-85977693D01*
X153999309Y-85974176D01*
X154023250Y-85973000D01*
X154586750Y-85973000D01*
X154610691Y-85974176D01*
X154610691Y-85974176D01*
G37*
D21*
X154305000Y-86461500D03*
D14*
G36*
X154610691Y-87549176D02*
X154634401Y-87552693D01*
X154657652Y-87558517D01*
X154680220Y-87566592D01*
X154701889Y-87576841D01*
X154722448Y-87589164D01*
X154741701Y-87603442D01*
X154759461Y-87619539D01*
X154775558Y-87637299D01*
X154789836Y-87656552D01*
X154802159Y-87677111D01*
X154812408Y-87698780D01*
X154820483Y-87721348D01*
X154826307Y-87744599D01*
X154829824Y-87768309D01*
X154831000Y-87792250D01*
X154831000Y-88280750D01*
X154829824Y-88304691D01*
X154826307Y-88328401D01*
X154820483Y-88351652D01*
X154812408Y-88374220D01*
X154802159Y-88395889D01*
X154789836Y-88416448D01*
X154775558Y-88435701D01*
X154759461Y-88453461D01*
X154741701Y-88469558D01*
X154722448Y-88483836D01*
X154701889Y-88496159D01*
X154680220Y-88506408D01*
X154657652Y-88514483D01*
X154634401Y-88520307D01*
X154610691Y-88523824D01*
X154586750Y-88525000D01*
X154023250Y-88525000D01*
X153999309Y-88523824D01*
X153975599Y-88520307D01*
X153952348Y-88514483D01*
X153929780Y-88506408D01*
X153908111Y-88496159D01*
X153887552Y-88483836D01*
X153868299Y-88469558D01*
X153850539Y-88453461D01*
X153834442Y-88435701D01*
X153820164Y-88416448D01*
X153807841Y-88395889D01*
X153797592Y-88374220D01*
X153789517Y-88351652D01*
X153783693Y-88328401D01*
X153780176Y-88304691D01*
X153779000Y-88280750D01*
X153779000Y-87792250D01*
X153780176Y-87768309D01*
X153783693Y-87744599D01*
X153789517Y-87721348D01*
X153797592Y-87698780D01*
X153807841Y-87677111D01*
X153820164Y-87656552D01*
X153834442Y-87637299D01*
X153850539Y-87619539D01*
X153868299Y-87603442D01*
X153887552Y-87589164D01*
X153908111Y-87576841D01*
X153929780Y-87566592D01*
X153952348Y-87558517D01*
X153975599Y-87552693D01*
X153999309Y-87549176D01*
X154023250Y-87548000D01*
X154586750Y-87548000D01*
X154610691Y-87549176D01*
X154610691Y-87549176D01*
G37*
D21*
X154305000Y-88036500D03*
G04 #@! TD*
D14*
G04 #@! TO.C,C2*
G36*
X150673691Y-93772176D02*
X150697401Y-93775693D01*
X150720652Y-93781517D01*
X150743220Y-93789592D01*
X150764889Y-93799841D01*
X150785448Y-93812164D01*
X150804701Y-93826442D01*
X150822461Y-93842539D01*
X150838558Y-93860299D01*
X150852836Y-93879552D01*
X150865159Y-93900111D01*
X150875408Y-93921780D01*
X150883483Y-93944348D01*
X150889307Y-93967599D01*
X150892824Y-93991309D01*
X150894000Y-94015250D01*
X150894000Y-94503750D01*
X150892824Y-94527691D01*
X150889307Y-94551401D01*
X150883483Y-94574652D01*
X150875408Y-94597220D01*
X150865159Y-94618889D01*
X150852836Y-94639448D01*
X150838558Y-94658701D01*
X150822461Y-94676461D01*
X150804701Y-94692558D01*
X150785448Y-94706836D01*
X150764889Y-94719159D01*
X150743220Y-94729408D01*
X150720652Y-94737483D01*
X150697401Y-94743307D01*
X150673691Y-94746824D01*
X150649750Y-94748000D01*
X150086250Y-94748000D01*
X150062309Y-94746824D01*
X150038599Y-94743307D01*
X150015348Y-94737483D01*
X149992780Y-94729408D01*
X149971111Y-94719159D01*
X149950552Y-94706836D01*
X149931299Y-94692558D01*
X149913539Y-94676461D01*
X149897442Y-94658701D01*
X149883164Y-94639448D01*
X149870841Y-94618889D01*
X149860592Y-94597220D01*
X149852517Y-94574652D01*
X149846693Y-94551401D01*
X149843176Y-94527691D01*
X149842000Y-94503750D01*
X149842000Y-94015250D01*
X149843176Y-93991309D01*
X149846693Y-93967599D01*
X149852517Y-93944348D01*
X149860592Y-93921780D01*
X149870841Y-93900111D01*
X149883164Y-93879552D01*
X149897442Y-93860299D01*
X149913539Y-93842539D01*
X149931299Y-93826442D01*
X149950552Y-93812164D01*
X149971111Y-93799841D01*
X149992780Y-93789592D01*
X150015348Y-93781517D01*
X150038599Y-93775693D01*
X150062309Y-93772176D01*
X150086250Y-93771000D01*
X150649750Y-93771000D01*
X150673691Y-93772176D01*
X150673691Y-93772176D01*
G37*
D21*
X150368000Y-94259500D03*
D14*
G36*
X150673691Y-92197176D02*
X150697401Y-92200693D01*
X150720652Y-92206517D01*
X150743220Y-92214592D01*
X150764889Y-92224841D01*
X150785448Y-92237164D01*
X150804701Y-92251442D01*
X150822461Y-92267539D01*
X150838558Y-92285299D01*
X150852836Y-92304552D01*
X150865159Y-92325111D01*
X150875408Y-92346780D01*
X150883483Y-92369348D01*
X150889307Y-92392599D01*
X150892824Y-92416309D01*
X150894000Y-92440250D01*
X150894000Y-92928750D01*
X150892824Y-92952691D01*
X150889307Y-92976401D01*
X150883483Y-92999652D01*
X150875408Y-93022220D01*
X150865159Y-93043889D01*
X150852836Y-93064448D01*
X150838558Y-93083701D01*
X150822461Y-93101461D01*
X150804701Y-93117558D01*
X150785448Y-93131836D01*
X150764889Y-93144159D01*
X150743220Y-93154408D01*
X150720652Y-93162483D01*
X150697401Y-93168307D01*
X150673691Y-93171824D01*
X150649750Y-93173000D01*
X150086250Y-93173000D01*
X150062309Y-93171824D01*
X150038599Y-93168307D01*
X150015348Y-93162483D01*
X149992780Y-93154408D01*
X149971111Y-93144159D01*
X149950552Y-93131836D01*
X149931299Y-93117558D01*
X149913539Y-93101461D01*
X149897442Y-93083701D01*
X149883164Y-93064448D01*
X149870841Y-93043889D01*
X149860592Y-93022220D01*
X149852517Y-92999652D01*
X149846693Y-92976401D01*
X149843176Y-92952691D01*
X149842000Y-92928750D01*
X149842000Y-92440250D01*
X149843176Y-92416309D01*
X149846693Y-92392599D01*
X149852517Y-92369348D01*
X149860592Y-92346780D01*
X149870841Y-92325111D01*
X149883164Y-92304552D01*
X149897442Y-92285299D01*
X149913539Y-92267539D01*
X149931299Y-92251442D01*
X149950552Y-92237164D01*
X149971111Y-92224841D01*
X149992780Y-92214592D01*
X150015348Y-92206517D01*
X150038599Y-92200693D01*
X150062309Y-92197176D01*
X150086250Y-92196000D01*
X150649750Y-92196000D01*
X150673691Y-92197176D01*
X150673691Y-92197176D01*
G37*
D21*
X150368000Y-92684500D03*
G04 #@! TD*
D14*
G04 #@! TO.C,C1*
G36*
X152347600Y-93597321D02*
X152374225Y-93601270D01*
X152400336Y-93607811D01*
X152425679Y-93616879D01*
X152450012Y-93628387D01*
X152473100Y-93642225D01*
X152494720Y-93658260D01*
X152514664Y-93676336D01*
X152532740Y-93696280D01*
X152548775Y-93717900D01*
X152562613Y-93740988D01*
X152574121Y-93765321D01*
X152583189Y-93790664D01*
X152589730Y-93816775D01*
X152593679Y-93843400D01*
X152595000Y-93870285D01*
X152595000Y-94498715D01*
X152593679Y-94525600D01*
X152589730Y-94552225D01*
X152583189Y-94578336D01*
X152574121Y-94603679D01*
X152562613Y-94628012D01*
X152548775Y-94651100D01*
X152532740Y-94672720D01*
X152514664Y-94692664D01*
X152494720Y-94710740D01*
X152473100Y-94726775D01*
X152450012Y-94740613D01*
X152425679Y-94752121D01*
X152400336Y-94761189D01*
X152374225Y-94767730D01*
X152347600Y-94771679D01*
X152320715Y-94773000D01*
X151717285Y-94773000D01*
X151690400Y-94771679D01*
X151663775Y-94767730D01*
X151637664Y-94761189D01*
X151612321Y-94752121D01*
X151587988Y-94740613D01*
X151564900Y-94726775D01*
X151543280Y-94710740D01*
X151523336Y-94692664D01*
X151505260Y-94672720D01*
X151489225Y-94651100D01*
X151475387Y-94628012D01*
X151463879Y-94603679D01*
X151454811Y-94578336D01*
X151448270Y-94552225D01*
X151444321Y-94525600D01*
X151443000Y-94498715D01*
X151443000Y-93870285D01*
X151444321Y-93843400D01*
X151448270Y-93816775D01*
X151454811Y-93790664D01*
X151463879Y-93765321D01*
X151475387Y-93740988D01*
X151489225Y-93717900D01*
X151505260Y-93696280D01*
X151523336Y-93676336D01*
X151543280Y-93658260D01*
X151564900Y-93642225D01*
X151587988Y-93628387D01*
X151612321Y-93616879D01*
X151637664Y-93607811D01*
X151663775Y-93601270D01*
X151690400Y-93597321D01*
X151717285Y-93596000D01*
X152320715Y-93596000D01*
X152347600Y-93597321D01*
X152347600Y-93597321D01*
G37*
D22*
X152019000Y-94184500D03*
D14*
G36*
X152347600Y-92172321D02*
X152374225Y-92176270D01*
X152400336Y-92182811D01*
X152425679Y-92191879D01*
X152450012Y-92203387D01*
X152473100Y-92217225D01*
X152494720Y-92233260D01*
X152514664Y-92251336D01*
X152532740Y-92271280D01*
X152548775Y-92292900D01*
X152562613Y-92315988D01*
X152574121Y-92340321D01*
X152583189Y-92365664D01*
X152589730Y-92391775D01*
X152593679Y-92418400D01*
X152595000Y-92445285D01*
X152595000Y-93073715D01*
X152593679Y-93100600D01*
X152589730Y-93127225D01*
X152583189Y-93153336D01*
X152574121Y-93178679D01*
X152562613Y-93203012D01*
X152548775Y-93226100D01*
X152532740Y-93247720D01*
X152514664Y-93267664D01*
X152494720Y-93285740D01*
X152473100Y-93301775D01*
X152450012Y-93315613D01*
X152425679Y-93327121D01*
X152400336Y-93336189D01*
X152374225Y-93342730D01*
X152347600Y-93346679D01*
X152320715Y-93348000D01*
X151717285Y-93348000D01*
X151690400Y-93346679D01*
X151663775Y-93342730D01*
X151637664Y-93336189D01*
X151612321Y-93327121D01*
X151587988Y-93315613D01*
X151564900Y-93301775D01*
X151543280Y-93285740D01*
X151523336Y-93267664D01*
X151505260Y-93247720D01*
X151489225Y-93226100D01*
X151475387Y-93203012D01*
X151463879Y-93178679D01*
X151454811Y-93153336D01*
X151448270Y-93127225D01*
X151444321Y-93100600D01*
X151443000Y-93073715D01*
X151443000Y-92445285D01*
X151444321Y-92418400D01*
X151448270Y-92391775D01*
X151454811Y-92365664D01*
X151463879Y-92340321D01*
X151475387Y-92315988D01*
X151489225Y-92292900D01*
X151505260Y-92271280D01*
X151523336Y-92251336D01*
X151543280Y-92233260D01*
X151564900Y-92217225D01*
X151587988Y-92203387D01*
X151612321Y-92191879D01*
X151637664Y-92182811D01*
X151663775Y-92176270D01*
X151690400Y-92172321D01*
X151717285Y-92171000D01*
X152320715Y-92171000D01*
X152347600Y-92172321D01*
X152347600Y-92172321D01*
G37*
D22*
X152019000Y-92759500D03*
G04 #@! TD*
M02*
