G04 #@! TF.GenerationSoftware,KiCad,Pcbnew,(6.0.0-rc1-dev-1233-g630baa372)*
G04 #@! TF.CreationDate,2018-11-22T01:35:06+01:00*
G04 #@! TF.ProjectId,sdi-devboard,7364692d-6465-4766-926f-6172642e6b69,rev?*
G04 #@! TF.SameCoordinates,Original*
G04 #@! TF.FileFunction,Paste,Bot*
G04 #@! TF.FilePolarity,Positive*
%FSLAX46Y46*%
G04 Gerber Fmt 4.6, Leading zero omitted, Abs format (unit mm)*
G04 Created by KiCad (PCBNEW (6.0.0-rc1-dev-1233-g630baa372)) date Thu 22 Nov 2018 01:35:06 AM CET*
%MOMM*%
%LPD*%
G01*
G04 APERTURE LIST*
%ADD10R,5.080000X2.420000*%
%ADD11C,0.100000*%
%ADD12C,0.875000*%
%ADD13C,1.050000*%
G04 APERTURE END LIST*
D10*
G04 #@! TO.C,J1*
X129090000Y-82612000D03*
X129090000Y-73852000D03*
G04 #@! TD*
G04 #@! TO.C,J2*
X129286000Y-101408000D03*
X129286000Y-92648000D03*
G04 #@! TD*
D11*
G04 #@! TO.C,C5*
G36*
X154582691Y-86025053D02*
X154603926Y-86028203D01*
X154624750Y-86033419D01*
X154644962Y-86040651D01*
X154664368Y-86049830D01*
X154682781Y-86060866D01*
X154700024Y-86073654D01*
X154715930Y-86088070D01*
X154730346Y-86103976D01*
X154743134Y-86121219D01*
X154754170Y-86139632D01*
X154763349Y-86159038D01*
X154770581Y-86179250D01*
X154775797Y-86200074D01*
X154778947Y-86221309D01*
X154780000Y-86242750D01*
X154780000Y-86680250D01*
X154778947Y-86701691D01*
X154775797Y-86722926D01*
X154770581Y-86743750D01*
X154763349Y-86763962D01*
X154754170Y-86783368D01*
X154743134Y-86801781D01*
X154730346Y-86819024D01*
X154715930Y-86834930D01*
X154700024Y-86849346D01*
X154682781Y-86862134D01*
X154664368Y-86873170D01*
X154644962Y-86882349D01*
X154624750Y-86889581D01*
X154603926Y-86894797D01*
X154582691Y-86897947D01*
X154561250Y-86899000D01*
X154048750Y-86899000D01*
X154027309Y-86897947D01*
X154006074Y-86894797D01*
X153985250Y-86889581D01*
X153965038Y-86882349D01*
X153945632Y-86873170D01*
X153927219Y-86862134D01*
X153909976Y-86849346D01*
X153894070Y-86834930D01*
X153879654Y-86819024D01*
X153866866Y-86801781D01*
X153855830Y-86783368D01*
X153846651Y-86763962D01*
X153839419Y-86743750D01*
X153834203Y-86722926D01*
X153831053Y-86701691D01*
X153830000Y-86680250D01*
X153830000Y-86242750D01*
X153831053Y-86221309D01*
X153834203Y-86200074D01*
X153839419Y-86179250D01*
X153846651Y-86159038D01*
X153855830Y-86139632D01*
X153866866Y-86121219D01*
X153879654Y-86103976D01*
X153894070Y-86088070D01*
X153909976Y-86073654D01*
X153927219Y-86060866D01*
X153945632Y-86049830D01*
X153965038Y-86040651D01*
X153985250Y-86033419D01*
X154006074Y-86028203D01*
X154027309Y-86025053D01*
X154048750Y-86024000D01*
X154561250Y-86024000D01*
X154582691Y-86025053D01*
X154582691Y-86025053D01*
G37*
D12*
X154305000Y-86461500D03*
D11*
G36*
X154582691Y-87600053D02*
X154603926Y-87603203D01*
X154624750Y-87608419D01*
X154644962Y-87615651D01*
X154664368Y-87624830D01*
X154682781Y-87635866D01*
X154700024Y-87648654D01*
X154715930Y-87663070D01*
X154730346Y-87678976D01*
X154743134Y-87696219D01*
X154754170Y-87714632D01*
X154763349Y-87734038D01*
X154770581Y-87754250D01*
X154775797Y-87775074D01*
X154778947Y-87796309D01*
X154780000Y-87817750D01*
X154780000Y-88255250D01*
X154778947Y-88276691D01*
X154775797Y-88297926D01*
X154770581Y-88318750D01*
X154763349Y-88338962D01*
X154754170Y-88358368D01*
X154743134Y-88376781D01*
X154730346Y-88394024D01*
X154715930Y-88409930D01*
X154700024Y-88424346D01*
X154682781Y-88437134D01*
X154664368Y-88448170D01*
X154644962Y-88457349D01*
X154624750Y-88464581D01*
X154603926Y-88469797D01*
X154582691Y-88472947D01*
X154561250Y-88474000D01*
X154048750Y-88474000D01*
X154027309Y-88472947D01*
X154006074Y-88469797D01*
X153985250Y-88464581D01*
X153965038Y-88457349D01*
X153945632Y-88448170D01*
X153927219Y-88437134D01*
X153909976Y-88424346D01*
X153894070Y-88409930D01*
X153879654Y-88394024D01*
X153866866Y-88376781D01*
X153855830Y-88358368D01*
X153846651Y-88338962D01*
X153839419Y-88318750D01*
X153834203Y-88297926D01*
X153831053Y-88276691D01*
X153830000Y-88255250D01*
X153830000Y-87817750D01*
X153831053Y-87796309D01*
X153834203Y-87775074D01*
X153839419Y-87754250D01*
X153846651Y-87734038D01*
X153855830Y-87714632D01*
X153866866Y-87696219D01*
X153879654Y-87678976D01*
X153894070Y-87663070D01*
X153909976Y-87648654D01*
X153927219Y-87635866D01*
X153945632Y-87624830D01*
X153965038Y-87615651D01*
X153985250Y-87608419D01*
X154006074Y-87603203D01*
X154027309Y-87600053D01*
X154048750Y-87599000D01*
X154561250Y-87599000D01*
X154582691Y-87600053D01*
X154582691Y-87600053D01*
G37*
D12*
X154305000Y-88036500D03*
G04 #@! TD*
D11*
G04 #@! TO.C,C2*
G36*
X150645691Y-93823053D02*
X150666926Y-93826203D01*
X150687750Y-93831419D01*
X150707962Y-93838651D01*
X150727368Y-93847830D01*
X150745781Y-93858866D01*
X150763024Y-93871654D01*
X150778930Y-93886070D01*
X150793346Y-93901976D01*
X150806134Y-93919219D01*
X150817170Y-93937632D01*
X150826349Y-93957038D01*
X150833581Y-93977250D01*
X150838797Y-93998074D01*
X150841947Y-94019309D01*
X150843000Y-94040750D01*
X150843000Y-94478250D01*
X150841947Y-94499691D01*
X150838797Y-94520926D01*
X150833581Y-94541750D01*
X150826349Y-94561962D01*
X150817170Y-94581368D01*
X150806134Y-94599781D01*
X150793346Y-94617024D01*
X150778930Y-94632930D01*
X150763024Y-94647346D01*
X150745781Y-94660134D01*
X150727368Y-94671170D01*
X150707962Y-94680349D01*
X150687750Y-94687581D01*
X150666926Y-94692797D01*
X150645691Y-94695947D01*
X150624250Y-94697000D01*
X150111750Y-94697000D01*
X150090309Y-94695947D01*
X150069074Y-94692797D01*
X150048250Y-94687581D01*
X150028038Y-94680349D01*
X150008632Y-94671170D01*
X149990219Y-94660134D01*
X149972976Y-94647346D01*
X149957070Y-94632930D01*
X149942654Y-94617024D01*
X149929866Y-94599781D01*
X149918830Y-94581368D01*
X149909651Y-94561962D01*
X149902419Y-94541750D01*
X149897203Y-94520926D01*
X149894053Y-94499691D01*
X149893000Y-94478250D01*
X149893000Y-94040750D01*
X149894053Y-94019309D01*
X149897203Y-93998074D01*
X149902419Y-93977250D01*
X149909651Y-93957038D01*
X149918830Y-93937632D01*
X149929866Y-93919219D01*
X149942654Y-93901976D01*
X149957070Y-93886070D01*
X149972976Y-93871654D01*
X149990219Y-93858866D01*
X150008632Y-93847830D01*
X150028038Y-93838651D01*
X150048250Y-93831419D01*
X150069074Y-93826203D01*
X150090309Y-93823053D01*
X150111750Y-93822000D01*
X150624250Y-93822000D01*
X150645691Y-93823053D01*
X150645691Y-93823053D01*
G37*
D12*
X150368000Y-94259500D03*
D11*
G36*
X150645691Y-92248053D02*
X150666926Y-92251203D01*
X150687750Y-92256419D01*
X150707962Y-92263651D01*
X150727368Y-92272830D01*
X150745781Y-92283866D01*
X150763024Y-92296654D01*
X150778930Y-92311070D01*
X150793346Y-92326976D01*
X150806134Y-92344219D01*
X150817170Y-92362632D01*
X150826349Y-92382038D01*
X150833581Y-92402250D01*
X150838797Y-92423074D01*
X150841947Y-92444309D01*
X150843000Y-92465750D01*
X150843000Y-92903250D01*
X150841947Y-92924691D01*
X150838797Y-92945926D01*
X150833581Y-92966750D01*
X150826349Y-92986962D01*
X150817170Y-93006368D01*
X150806134Y-93024781D01*
X150793346Y-93042024D01*
X150778930Y-93057930D01*
X150763024Y-93072346D01*
X150745781Y-93085134D01*
X150727368Y-93096170D01*
X150707962Y-93105349D01*
X150687750Y-93112581D01*
X150666926Y-93117797D01*
X150645691Y-93120947D01*
X150624250Y-93122000D01*
X150111750Y-93122000D01*
X150090309Y-93120947D01*
X150069074Y-93117797D01*
X150048250Y-93112581D01*
X150028038Y-93105349D01*
X150008632Y-93096170D01*
X149990219Y-93085134D01*
X149972976Y-93072346D01*
X149957070Y-93057930D01*
X149942654Y-93042024D01*
X149929866Y-93024781D01*
X149918830Y-93006368D01*
X149909651Y-92986962D01*
X149902419Y-92966750D01*
X149897203Y-92945926D01*
X149894053Y-92924691D01*
X149893000Y-92903250D01*
X149893000Y-92465750D01*
X149894053Y-92444309D01*
X149897203Y-92423074D01*
X149902419Y-92402250D01*
X149909651Y-92382038D01*
X149918830Y-92362632D01*
X149929866Y-92344219D01*
X149942654Y-92326976D01*
X149957070Y-92311070D01*
X149972976Y-92296654D01*
X149990219Y-92283866D01*
X150008632Y-92272830D01*
X150028038Y-92263651D01*
X150048250Y-92256419D01*
X150069074Y-92251203D01*
X150090309Y-92248053D01*
X150111750Y-92247000D01*
X150624250Y-92247000D01*
X150645691Y-92248053D01*
X150645691Y-92248053D01*
G37*
D12*
X150368000Y-92684500D03*
G04 #@! TD*
D11*
G04 #@! TO.C,C1*
G36*
X152318505Y-93648204D02*
X152342773Y-93651804D01*
X152366572Y-93657765D01*
X152389671Y-93666030D01*
X152411850Y-93676520D01*
X152432893Y-93689132D01*
X152452599Y-93703747D01*
X152470777Y-93720223D01*
X152487253Y-93738401D01*
X152501868Y-93758107D01*
X152514480Y-93779150D01*
X152524970Y-93801329D01*
X152533235Y-93824428D01*
X152539196Y-93848227D01*
X152542796Y-93872495D01*
X152544000Y-93896999D01*
X152544000Y-94472001D01*
X152542796Y-94496505D01*
X152539196Y-94520773D01*
X152533235Y-94544572D01*
X152524970Y-94567671D01*
X152514480Y-94589850D01*
X152501868Y-94610893D01*
X152487253Y-94630599D01*
X152470777Y-94648777D01*
X152452599Y-94665253D01*
X152432893Y-94679868D01*
X152411850Y-94692480D01*
X152389671Y-94702970D01*
X152366572Y-94711235D01*
X152342773Y-94717196D01*
X152318505Y-94720796D01*
X152294001Y-94722000D01*
X151743999Y-94722000D01*
X151719495Y-94720796D01*
X151695227Y-94717196D01*
X151671428Y-94711235D01*
X151648329Y-94702970D01*
X151626150Y-94692480D01*
X151605107Y-94679868D01*
X151585401Y-94665253D01*
X151567223Y-94648777D01*
X151550747Y-94630599D01*
X151536132Y-94610893D01*
X151523520Y-94589850D01*
X151513030Y-94567671D01*
X151504765Y-94544572D01*
X151498804Y-94520773D01*
X151495204Y-94496505D01*
X151494000Y-94472001D01*
X151494000Y-93896999D01*
X151495204Y-93872495D01*
X151498804Y-93848227D01*
X151504765Y-93824428D01*
X151513030Y-93801329D01*
X151523520Y-93779150D01*
X151536132Y-93758107D01*
X151550747Y-93738401D01*
X151567223Y-93720223D01*
X151585401Y-93703747D01*
X151605107Y-93689132D01*
X151626150Y-93676520D01*
X151648329Y-93666030D01*
X151671428Y-93657765D01*
X151695227Y-93651804D01*
X151719495Y-93648204D01*
X151743999Y-93647000D01*
X152294001Y-93647000D01*
X152318505Y-93648204D01*
X152318505Y-93648204D01*
G37*
D13*
X152019000Y-94184500D03*
D11*
G36*
X152318505Y-92223204D02*
X152342773Y-92226804D01*
X152366572Y-92232765D01*
X152389671Y-92241030D01*
X152411850Y-92251520D01*
X152432893Y-92264132D01*
X152452599Y-92278747D01*
X152470777Y-92295223D01*
X152487253Y-92313401D01*
X152501868Y-92333107D01*
X152514480Y-92354150D01*
X152524970Y-92376329D01*
X152533235Y-92399428D01*
X152539196Y-92423227D01*
X152542796Y-92447495D01*
X152544000Y-92471999D01*
X152544000Y-93047001D01*
X152542796Y-93071505D01*
X152539196Y-93095773D01*
X152533235Y-93119572D01*
X152524970Y-93142671D01*
X152514480Y-93164850D01*
X152501868Y-93185893D01*
X152487253Y-93205599D01*
X152470777Y-93223777D01*
X152452599Y-93240253D01*
X152432893Y-93254868D01*
X152411850Y-93267480D01*
X152389671Y-93277970D01*
X152366572Y-93286235D01*
X152342773Y-93292196D01*
X152318505Y-93295796D01*
X152294001Y-93297000D01*
X151743999Y-93297000D01*
X151719495Y-93295796D01*
X151695227Y-93292196D01*
X151671428Y-93286235D01*
X151648329Y-93277970D01*
X151626150Y-93267480D01*
X151605107Y-93254868D01*
X151585401Y-93240253D01*
X151567223Y-93223777D01*
X151550747Y-93205599D01*
X151536132Y-93185893D01*
X151523520Y-93164850D01*
X151513030Y-93142671D01*
X151504765Y-93119572D01*
X151498804Y-93095773D01*
X151495204Y-93071505D01*
X151494000Y-93047001D01*
X151494000Y-92471999D01*
X151495204Y-92447495D01*
X151498804Y-92423227D01*
X151504765Y-92399428D01*
X151513030Y-92376329D01*
X151523520Y-92354150D01*
X151536132Y-92333107D01*
X151550747Y-92313401D01*
X151567223Y-92295223D01*
X151585401Y-92278747D01*
X151605107Y-92264132D01*
X151626150Y-92251520D01*
X151648329Y-92241030D01*
X151671428Y-92232765D01*
X151695227Y-92226804D01*
X151719495Y-92223204D01*
X151743999Y-92222000D01*
X152294001Y-92222000D01*
X152318505Y-92223204D01*
X152318505Y-92223204D01*
G37*
D13*
X152019000Y-92759500D03*
G04 #@! TD*
M02*
