G04 #@! TF.GenerationSoftware,KiCad,Pcbnew,(6.0.0-rc1-dev-1233-g630baa372)*
G04 #@! TF.CreationDate,2018-11-22T01:35:06+01:00*
G04 #@! TF.ProjectId,sdi-devboard,7364692d-6465-4766-926f-6172642e6b69,rev?*
G04 #@! TF.SameCoordinates,Original*
G04 #@! TF.FileFunction,Paste,Top*
G04 #@! TF.FilePolarity,Positive*
%FSLAX46Y46*%
G04 Gerber Fmt 4.6, Leading zero omitted, Abs format (unit mm)*
G04 Created by KiCad (PCBNEW (6.0.0-rc1-dev-1233-g630baa372)) date Thu 22 Nov 2018 01:35:06 AM CET*
%MOMM*%
%LPD*%
G01*
G04 APERTURE LIST*
%ADD10C,0.100000*%
%ADD11C,0.875000*%
%ADD12C,1.050000*%
%ADD13R,5.080000X2.420000*%
%ADD14R,5.080000X2.290000*%
%ADD15R,0.900000X0.900000*%
%ADD16C,0.350000*%
%ADD17R,0.350000X0.825000*%
%ADD18R,0.825000X0.350000*%
%ADD19R,0.800000X0.900000*%
G04 APERTURE END LIST*
D10*
G04 #@! TO.C,R8*
G36*
X148232691Y-92756053D02*
X148253926Y-92759203D01*
X148274750Y-92764419D01*
X148294962Y-92771651D01*
X148314368Y-92780830D01*
X148332781Y-92791866D01*
X148350024Y-92804654D01*
X148365930Y-92819070D01*
X148380346Y-92834976D01*
X148393134Y-92852219D01*
X148404170Y-92870632D01*
X148413349Y-92890038D01*
X148420581Y-92910250D01*
X148425797Y-92931074D01*
X148428947Y-92952309D01*
X148430000Y-92973750D01*
X148430000Y-93411250D01*
X148428947Y-93432691D01*
X148425797Y-93453926D01*
X148420581Y-93474750D01*
X148413349Y-93494962D01*
X148404170Y-93514368D01*
X148393134Y-93532781D01*
X148380346Y-93550024D01*
X148365930Y-93565930D01*
X148350024Y-93580346D01*
X148332781Y-93593134D01*
X148314368Y-93604170D01*
X148294962Y-93613349D01*
X148274750Y-93620581D01*
X148253926Y-93625797D01*
X148232691Y-93628947D01*
X148211250Y-93630000D01*
X147698750Y-93630000D01*
X147677309Y-93628947D01*
X147656074Y-93625797D01*
X147635250Y-93620581D01*
X147615038Y-93613349D01*
X147595632Y-93604170D01*
X147577219Y-93593134D01*
X147559976Y-93580346D01*
X147544070Y-93565930D01*
X147529654Y-93550024D01*
X147516866Y-93532781D01*
X147505830Y-93514368D01*
X147496651Y-93494962D01*
X147489419Y-93474750D01*
X147484203Y-93453926D01*
X147481053Y-93432691D01*
X147480000Y-93411250D01*
X147480000Y-92973750D01*
X147481053Y-92952309D01*
X147484203Y-92931074D01*
X147489419Y-92910250D01*
X147496651Y-92890038D01*
X147505830Y-92870632D01*
X147516866Y-92852219D01*
X147529654Y-92834976D01*
X147544070Y-92819070D01*
X147559976Y-92804654D01*
X147577219Y-92791866D01*
X147595632Y-92780830D01*
X147615038Y-92771651D01*
X147635250Y-92764419D01*
X147656074Y-92759203D01*
X147677309Y-92756053D01*
X147698750Y-92755000D01*
X148211250Y-92755000D01*
X148232691Y-92756053D01*
X148232691Y-92756053D01*
G37*
D11*
X147955000Y-93192500D03*
D10*
G36*
X148232691Y-94331053D02*
X148253926Y-94334203D01*
X148274750Y-94339419D01*
X148294962Y-94346651D01*
X148314368Y-94355830D01*
X148332781Y-94366866D01*
X148350024Y-94379654D01*
X148365930Y-94394070D01*
X148380346Y-94409976D01*
X148393134Y-94427219D01*
X148404170Y-94445632D01*
X148413349Y-94465038D01*
X148420581Y-94485250D01*
X148425797Y-94506074D01*
X148428947Y-94527309D01*
X148430000Y-94548750D01*
X148430000Y-94986250D01*
X148428947Y-95007691D01*
X148425797Y-95028926D01*
X148420581Y-95049750D01*
X148413349Y-95069962D01*
X148404170Y-95089368D01*
X148393134Y-95107781D01*
X148380346Y-95125024D01*
X148365930Y-95140930D01*
X148350024Y-95155346D01*
X148332781Y-95168134D01*
X148314368Y-95179170D01*
X148294962Y-95188349D01*
X148274750Y-95195581D01*
X148253926Y-95200797D01*
X148232691Y-95203947D01*
X148211250Y-95205000D01*
X147698750Y-95205000D01*
X147677309Y-95203947D01*
X147656074Y-95200797D01*
X147635250Y-95195581D01*
X147615038Y-95188349D01*
X147595632Y-95179170D01*
X147577219Y-95168134D01*
X147559976Y-95155346D01*
X147544070Y-95140930D01*
X147529654Y-95125024D01*
X147516866Y-95107781D01*
X147505830Y-95089368D01*
X147496651Y-95069962D01*
X147489419Y-95049750D01*
X147484203Y-95028926D01*
X147481053Y-95007691D01*
X147480000Y-94986250D01*
X147480000Y-94548750D01*
X147481053Y-94527309D01*
X147484203Y-94506074D01*
X147489419Y-94485250D01*
X147496651Y-94465038D01*
X147505830Y-94445632D01*
X147516866Y-94427219D01*
X147529654Y-94409976D01*
X147544070Y-94394070D01*
X147559976Y-94379654D01*
X147577219Y-94366866D01*
X147595632Y-94355830D01*
X147615038Y-94346651D01*
X147635250Y-94339419D01*
X147656074Y-94334203D01*
X147677309Y-94331053D01*
X147698750Y-94330000D01*
X148211250Y-94330000D01*
X148232691Y-94331053D01*
X148232691Y-94331053D01*
G37*
D11*
X147955000Y-94767500D03*
G04 #@! TD*
D10*
G04 #@! TO.C,R19*
G36*
X156360691Y-94331053D02*
X156381926Y-94334203D01*
X156402750Y-94339419D01*
X156422962Y-94346651D01*
X156442368Y-94355830D01*
X156460781Y-94366866D01*
X156478024Y-94379654D01*
X156493930Y-94394070D01*
X156508346Y-94409976D01*
X156521134Y-94427219D01*
X156532170Y-94445632D01*
X156541349Y-94465038D01*
X156548581Y-94485250D01*
X156553797Y-94506074D01*
X156556947Y-94527309D01*
X156558000Y-94548750D01*
X156558000Y-94986250D01*
X156556947Y-95007691D01*
X156553797Y-95028926D01*
X156548581Y-95049750D01*
X156541349Y-95069962D01*
X156532170Y-95089368D01*
X156521134Y-95107781D01*
X156508346Y-95125024D01*
X156493930Y-95140930D01*
X156478024Y-95155346D01*
X156460781Y-95168134D01*
X156442368Y-95179170D01*
X156422962Y-95188349D01*
X156402750Y-95195581D01*
X156381926Y-95200797D01*
X156360691Y-95203947D01*
X156339250Y-95205000D01*
X155826750Y-95205000D01*
X155805309Y-95203947D01*
X155784074Y-95200797D01*
X155763250Y-95195581D01*
X155743038Y-95188349D01*
X155723632Y-95179170D01*
X155705219Y-95168134D01*
X155687976Y-95155346D01*
X155672070Y-95140930D01*
X155657654Y-95125024D01*
X155644866Y-95107781D01*
X155633830Y-95089368D01*
X155624651Y-95069962D01*
X155617419Y-95049750D01*
X155612203Y-95028926D01*
X155609053Y-95007691D01*
X155608000Y-94986250D01*
X155608000Y-94548750D01*
X155609053Y-94527309D01*
X155612203Y-94506074D01*
X155617419Y-94485250D01*
X155624651Y-94465038D01*
X155633830Y-94445632D01*
X155644866Y-94427219D01*
X155657654Y-94409976D01*
X155672070Y-94394070D01*
X155687976Y-94379654D01*
X155705219Y-94366866D01*
X155723632Y-94355830D01*
X155743038Y-94346651D01*
X155763250Y-94339419D01*
X155784074Y-94334203D01*
X155805309Y-94331053D01*
X155826750Y-94330000D01*
X156339250Y-94330000D01*
X156360691Y-94331053D01*
X156360691Y-94331053D01*
G37*
D11*
X156083000Y-94767500D03*
D10*
G36*
X156360691Y-92756053D02*
X156381926Y-92759203D01*
X156402750Y-92764419D01*
X156422962Y-92771651D01*
X156442368Y-92780830D01*
X156460781Y-92791866D01*
X156478024Y-92804654D01*
X156493930Y-92819070D01*
X156508346Y-92834976D01*
X156521134Y-92852219D01*
X156532170Y-92870632D01*
X156541349Y-92890038D01*
X156548581Y-92910250D01*
X156553797Y-92931074D01*
X156556947Y-92952309D01*
X156558000Y-92973750D01*
X156558000Y-93411250D01*
X156556947Y-93432691D01*
X156553797Y-93453926D01*
X156548581Y-93474750D01*
X156541349Y-93494962D01*
X156532170Y-93514368D01*
X156521134Y-93532781D01*
X156508346Y-93550024D01*
X156493930Y-93565930D01*
X156478024Y-93580346D01*
X156460781Y-93593134D01*
X156442368Y-93604170D01*
X156422962Y-93613349D01*
X156402750Y-93620581D01*
X156381926Y-93625797D01*
X156360691Y-93628947D01*
X156339250Y-93630000D01*
X155826750Y-93630000D01*
X155805309Y-93628947D01*
X155784074Y-93625797D01*
X155763250Y-93620581D01*
X155743038Y-93613349D01*
X155723632Y-93604170D01*
X155705219Y-93593134D01*
X155687976Y-93580346D01*
X155672070Y-93565930D01*
X155657654Y-93550024D01*
X155644866Y-93532781D01*
X155633830Y-93514368D01*
X155624651Y-93494962D01*
X155617419Y-93474750D01*
X155612203Y-93453926D01*
X155609053Y-93432691D01*
X155608000Y-93411250D01*
X155608000Y-92973750D01*
X155609053Y-92952309D01*
X155612203Y-92931074D01*
X155617419Y-92910250D01*
X155624651Y-92890038D01*
X155633830Y-92870632D01*
X155644866Y-92852219D01*
X155657654Y-92834976D01*
X155672070Y-92819070D01*
X155687976Y-92804654D01*
X155705219Y-92791866D01*
X155723632Y-92780830D01*
X155743038Y-92771651D01*
X155763250Y-92764419D01*
X155784074Y-92759203D01*
X155805309Y-92756053D01*
X155826750Y-92755000D01*
X156339250Y-92755000D01*
X156360691Y-92756053D01*
X156360691Y-92756053D01*
G37*
D11*
X156083000Y-93192500D03*
G04 #@! TD*
D10*
G04 #@! TO.C,R18*
G36*
X158011691Y-94331053D02*
X158032926Y-94334203D01*
X158053750Y-94339419D01*
X158073962Y-94346651D01*
X158093368Y-94355830D01*
X158111781Y-94366866D01*
X158129024Y-94379654D01*
X158144930Y-94394070D01*
X158159346Y-94409976D01*
X158172134Y-94427219D01*
X158183170Y-94445632D01*
X158192349Y-94465038D01*
X158199581Y-94485250D01*
X158204797Y-94506074D01*
X158207947Y-94527309D01*
X158209000Y-94548750D01*
X158209000Y-94986250D01*
X158207947Y-95007691D01*
X158204797Y-95028926D01*
X158199581Y-95049750D01*
X158192349Y-95069962D01*
X158183170Y-95089368D01*
X158172134Y-95107781D01*
X158159346Y-95125024D01*
X158144930Y-95140930D01*
X158129024Y-95155346D01*
X158111781Y-95168134D01*
X158093368Y-95179170D01*
X158073962Y-95188349D01*
X158053750Y-95195581D01*
X158032926Y-95200797D01*
X158011691Y-95203947D01*
X157990250Y-95205000D01*
X157477750Y-95205000D01*
X157456309Y-95203947D01*
X157435074Y-95200797D01*
X157414250Y-95195581D01*
X157394038Y-95188349D01*
X157374632Y-95179170D01*
X157356219Y-95168134D01*
X157338976Y-95155346D01*
X157323070Y-95140930D01*
X157308654Y-95125024D01*
X157295866Y-95107781D01*
X157284830Y-95089368D01*
X157275651Y-95069962D01*
X157268419Y-95049750D01*
X157263203Y-95028926D01*
X157260053Y-95007691D01*
X157259000Y-94986250D01*
X157259000Y-94548750D01*
X157260053Y-94527309D01*
X157263203Y-94506074D01*
X157268419Y-94485250D01*
X157275651Y-94465038D01*
X157284830Y-94445632D01*
X157295866Y-94427219D01*
X157308654Y-94409976D01*
X157323070Y-94394070D01*
X157338976Y-94379654D01*
X157356219Y-94366866D01*
X157374632Y-94355830D01*
X157394038Y-94346651D01*
X157414250Y-94339419D01*
X157435074Y-94334203D01*
X157456309Y-94331053D01*
X157477750Y-94330000D01*
X157990250Y-94330000D01*
X158011691Y-94331053D01*
X158011691Y-94331053D01*
G37*
D11*
X157734000Y-94767500D03*
D10*
G36*
X158011691Y-92756053D02*
X158032926Y-92759203D01*
X158053750Y-92764419D01*
X158073962Y-92771651D01*
X158093368Y-92780830D01*
X158111781Y-92791866D01*
X158129024Y-92804654D01*
X158144930Y-92819070D01*
X158159346Y-92834976D01*
X158172134Y-92852219D01*
X158183170Y-92870632D01*
X158192349Y-92890038D01*
X158199581Y-92910250D01*
X158204797Y-92931074D01*
X158207947Y-92952309D01*
X158209000Y-92973750D01*
X158209000Y-93411250D01*
X158207947Y-93432691D01*
X158204797Y-93453926D01*
X158199581Y-93474750D01*
X158192349Y-93494962D01*
X158183170Y-93514368D01*
X158172134Y-93532781D01*
X158159346Y-93550024D01*
X158144930Y-93565930D01*
X158129024Y-93580346D01*
X158111781Y-93593134D01*
X158093368Y-93604170D01*
X158073962Y-93613349D01*
X158053750Y-93620581D01*
X158032926Y-93625797D01*
X158011691Y-93628947D01*
X157990250Y-93630000D01*
X157477750Y-93630000D01*
X157456309Y-93628947D01*
X157435074Y-93625797D01*
X157414250Y-93620581D01*
X157394038Y-93613349D01*
X157374632Y-93604170D01*
X157356219Y-93593134D01*
X157338976Y-93580346D01*
X157323070Y-93565930D01*
X157308654Y-93550024D01*
X157295866Y-93532781D01*
X157284830Y-93514368D01*
X157275651Y-93494962D01*
X157268419Y-93474750D01*
X157263203Y-93453926D01*
X157260053Y-93432691D01*
X157259000Y-93411250D01*
X157259000Y-92973750D01*
X157260053Y-92952309D01*
X157263203Y-92931074D01*
X157268419Y-92910250D01*
X157275651Y-92890038D01*
X157284830Y-92870632D01*
X157295866Y-92852219D01*
X157308654Y-92834976D01*
X157323070Y-92819070D01*
X157338976Y-92804654D01*
X157356219Y-92791866D01*
X157374632Y-92780830D01*
X157394038Y-92771651D01*
X157414250Y-92764419D01*
X157435074Y-92759203D01*
X157456309Y-92756053D01*
X157477750Y-92755000D01*
X157990250Y-92755000D01*
X158011691Y-92756053D01*
X158011691Y-92756053D01*
G37*
D11*
X157734000Y-93192500D03*
G04 #@! TD*
D10*
G04 #@! TO.C,C4*
G36*
X135173505Y-96519704D02*
X135197773Y-96523304D01*
X135221572Y-96529265D01*
X135244671Y-96537530D01*
X135266850Y-96548020D01*
X135287893Y-96560632D01*
X135307599Y-96575247D01*
X135325777Y-96591723D01*
X135342253Y-96609901D01*
X135356868Y-96629607D01*
X135369480Y-96650650D01*
X135379970Y-96672829D01*
X135388235Y-96695928D01*
X135394196Y-96719727D01*
X135397796Y-96743995D01*
X135399000Y-96768499D01*
X135399000Y-97343501D01*
X135397796Y-97368005D01*
X135394196Y-97392273D01*
X135388235Y-97416072D01*
X135379970Y-97439171D01*
X135369480Y-97461350D01*
X135356868Y-97482393D01*
X135342253Y-97502099D01*
X135325777Y-97520277D01*
X135307599Y-97536753D01*
X135287893Y-97551368D01*
X135266850Y-97563980D01*
X135244671Y-97574470D01*
X135221572Y-97582735D01*
X135197773Y-97588696D01*
X135173505Y-97592296D01*
X135149001Y-97593500D01*
X134598999Y-97593500D01*
X134574495Y-97592296D01*
X134550227Y-97588696D01*
X134526428Y-97582735D01*
X134503329Y-97574470D01*
X134481150Y-97563980D01*
X134460107Y-97551368D01*
X134440401Y-97536753D01*
X134422223Y-97520277D01*
X134405747Y-97502099D01*
X134391132Y-97482393D01*
X134378520Y-97461350D01*
X134368030Y-97439171D01*
X134359765Y-97416072D01*
X134353804Y-97392273D01*
X134350204Y-97368005D01*
X134349000Y-97343501D01*
X134349000Y-96768499D01*
X134350204Y-96743995D01*
X134353804Y-96719727D01*
X134359765Y-96695928D01*
X134368030Y-96672829D01*
X134378520Y-96650650D01*
X134391132Y-96629607D01*
X134405747Y-96609901D01*
X134422223Y-96591723D01*
X134440401Y-96575247D01*
X134460107Y-96560632D01*
X134481150Y-96548020D01*
X134503329Y-96537530D01*
X134526428Y-96529265D01*
X134550227Y-96523304D01*
X134574495Y-96519704D01*
X134598999Y-96518500D01*
X135149001Y-96518500D01*
X135173505Y-96519704D01*
X135173505Y-96519704D01*
G37*
D12*
X134874000Y-97056000D03*
D10*
G36*
X135173505Y-95094704D02*
X135197773Y-95098304D01*
X135221572Y-95104265D01*
X135244671Y-95112530D01*
X135266850Y-95123020D01*
X135287893Y-95135632D01*
X135307599Y-95150247D01*
X135325777Y-95166723D01*
X135342253Y-95184901D01*
X135356868Y-95204607D01*
X135369480Y-95225650D01*
X135379970Y-95247829D01*
X135388235Y-95270928D01*
X135394196Y-95294727D01*
X135397796Y-95318995D01*
X135399000Y-95343499D01*
X135399000Y-95918501D01*
X135397796Y-95943005D01*
X135394196Y-95967273D01*
X135388235Y-95991072D01*
X135379970Y-96014171D01*
X135369480Y-96036350D01*
X135356868Y-96057393D01*
X135342253Y-96077099D01*
X135325777Y-96095277D01*
X135307599Y-96111753D01*
X135287893Y-96126368D01*
X135266850Y-96138980D01*
X135244671Y-96149470D01*
X135221572Y-96157735D01*
X135197773Y-96163696D01*
X135173505Y-96167296D01*
X135149001Y-96168500D01*
X134598999Y-96168500D01*
X134574495Y-96167296D01*
X134550227Y-96163696D01*
X134526428Y-96157735D01*
X134503329Y-96149470D01*
X134481150Y-96138980D01*
X134460107Y-96126368D01*
X134440401Y-96111753D01*
X134422223Y-96095277D01*
X134405747Y-96077099D01*
X134391132Y-96057393D01*
X134378520Y-96036350D01*
X134368030Y-96014171D01*
X134359765Y-95991072D01*
X134353804Y-95967273D01*
X134350204Y-95943005D01*
X134349000Y-95918501D01*
X134349000Y-95343499D01*
X134350204Y-95318995D01*
X134353804Y-95294727D01*
X134359765Y-95270928D01*
X134368030Y-95247829D01*
X134378520Y-95225650D01*
X134391132Y-95204607D01*
X134405747Y-95184901D01*
X134422223Y-95166723D01*
X134440401Y-95150247D01*
X134460107Y-95135632D01*
X134481150Y-95123020D01*
X134503329Y-95112530D01*
X134526428Y-95104265D01*
X134550227Y-95098304D01*
X134574495Y-95094704D01*
X134598999Y-95093500D01*
X135149001Y-95093500D01*
X135173505Y-95094704D01*
X135173505Y-95094704D01*
G37*
D12*
X134874000Y-95631000D03*
G04 #@! TD*
D13*
G04 #@! TO.C,J1*
X129090000Y-82612000D03*
X129090000Y-73852000D03*
D14*
X129090000Y-78232000D03*
G04 #@! TD*
D15*
G04 #@! TO.C,U1*
X150784000Y-87284000D03*
X150784000Y-88484000D03*
X151984000Y-88484000D03*
X151984000Y-87284000D03*
D16*
X150409000Y-86309000D03*
D17*
X150409000Y-85896500D03*
D16*
X151059000Y-86309000D03*
D17*
X151059000Y-85896500D03*
D16*
X151709000Y-86309000D03*
D17*
X151709000Y-85896500D03*
D16*
X152359000Y-86309000D03*
D17*
X152359000Y-85896500D03*
D16*
X152959000Y-86909000D03*
D18*
X153371500Y-86909000D03*
D16*
X152959000Y-87559000D03*
D18*
X153371500Y-87559000D03*
D16*
X152959000Y-88209000D03*
D18*
X153371500Y-88209000D03*
D16*
X152959000Y-88859000D03*
D18*
X153371500Y-88859000D03*
D16*
X152359000Y-89459000D03*
D17*
X152359000Y-89871500D03*
D16*
X151709000Y-89459000D03*
D17*
X151709000Y-89871500D03*
D16*
X151059000Y-89459000D03*
D17*
X151059000Y-89871500D03*
D16*
X150409000Y-89459000D03*
D17*
X150409000Y-89871500D03*
D16*
X149809000Y-88859000D03*
D18*
X149396500Y-88859000D03*
D16*
X149809000Y-88209000D03*
D18*
X149396500Y-88209000D03*
D16*
X149809000Y-87559000D03*
D18*
X149396500Y-87559000D03*
D16*
X149809000Y-86909000D03*
D18*
X149396500Y-86909000D03*
G04 #@! TD*
D10*
G04 #@! TO.C,R17*
G36*
X155471691Y-78202053D02*
X155492926Y-78205203D01*
X155513750Y-78210419D01*
X155533962Y-78217651D01*
X155553368Y-78226830D01*
X155571781Y-78237866D01*
X155589024Y-78250654D01*
X155604930Y-78265070D01*
X155619346Y-78280976D01*
X155632134Y-78298219D01*
X155643170Y-78316632D01*
X155652349Y-78336038D01*
X155659581Y-78356250D01*
X155664797Y-78377074D01*
X155667947Y-78398309D01*
X155669000Y-78419750D01*
X155669000Y-78857250D01*
X155667947Y-78878691D01*
X155664797Y-78899926D01*
X155659581Y-78920750D01*
X155652349Y-78940962D01*
X155643170Y-78960368D01*
X155632134Y-78978781D01*
X155619346Y-78996024D01*
X155604930Y-79011930D01*
X155589024Y-79026346D01*
X155571781Y-79039134D01*
X155553368Y-79050170D01*
X155533962Y-79059349D01*
X155513750Y-79066581D01*
X155492926Y-79071797D01*
X155471691Y-79074947D01*
X155450250Y-79076000D01*
X154937750Y-79076000D01*
X154916309Y-79074947D01*
X154895074Y-79071797D01*
X154874250Y-79066581D01*
X154854038Y-79059349D01*
X154834632Y-79050170D01*
X154816219Y-79039134D01*
X154798976Y-79026346D01*
X154783070Y-79011930D01*
X154768654Y-78996024D01*
X154755866Y-78978781D01*
X154744830Y-78960368D01*
X154735651Y-78940962D01*
X154728419Y-78920750D01*
X154723203Y-78899926D01*
X154720053Y-78878691D01*
X154719000Y-78857250D01*
X154719000Y-78419750D01*
X154720053Y-78398309D01*
X154723203Y-78377074D01*
X154728419Y-78356250D01*
X154735651Y-78336038D01*
X154744830Y-78316632D01*
X154755866Y-78298219D01*
X154768654Y-78280976D01*
X154783070Y-78265070D01*
X154798976Y-78250654D01*
X154816219Y-78237866D01*
X154834632Y-78226830D01*
X154854038Y-78217651D01*
X154874250Y-78210419D01*
X154895074Y-78205203D01*
X154916309Y-78202053D01*
X154937750Y-78201000D01*
X155450250Y-78201000D01*
X155471691Y-78202053D01*
X155471691Y-78202053D01*
G37*
D11*
X155194000Y-78638500D03*
D10*
G36*
X155471691Y-76627053D02*
X155492926Y-76630203D01*
X155513750Y-76635419D01*
X155533962Y-76642651D01*
X155553368Y-76651830D01*
X155571781Y-76662866D01*
X155589024Y-76675654D01*
X155604930Y-76690070D01*
X155619346Y-76705976D01*
X155632134Y-76723219D01*
X155643170Y-76741632D01*
X155652349Y-76761038D01*
X155659581Y-76781250D01*
X155664797Y-76802074D01*
X155667947Y-76823309D01*
X155669000Y-76844750D01*
X155669000Y-77282250D01*
X155667947Y-77303691D01*
X155664797Y-77324926D01*
X155659581Y-77345750D01*
X155652349Y-77365962D01*
X155643170Y-77385368D01*
X155632134Y-77403781D01*
X155619346Y-77421024D01*
X155604930Y-77436930D01*
X155589024Y-77451346D01*
X155571781Y-77464134D01*
X155553368Y-77475170D01*
X155533962Y-77484349D01*
X155513750Y-77491581D01*
X155492926Y-77496797D01*
X155471691Y-77499947D01*
X155450250Y-77501000D01*
X154937750Y-77501000D01*
X154916309Y-77499947D01*
X154895074Y-77496797D01*
X154874250Y-77491581D01*
X154854038Y-77484349D01*
X154834632Y-77475170D01*
X154816219Y-77464134D01*
X154798976Y-77451346D01*
X154783070Y-77436930D01*
X154768654Y-77421024D01*
X154755866Y-77403781D01*
X154744830Y-77385368D01*
X154735651Y-77365962D01*
X154728419Y-77345750D01*
X154723203Y-77324926D01*
X154720053Y-77303691D01*
X154719000Y-77282250D01*
X154719000Y-76844750D01*
X154720053Y-76823309D01*
X154723203Y-76802074D01*
X154728419Y-76781250D01*
X154735651Y-76761038D01*
X154744830Y-76741632D01*
X154755866Y-76723219D01*
X154768654Y-76705976D01*
X154783070Y-76690070D01*
X154798976Y-76675654D01*
X154816219Y-76662866D01*
X154834632Y-76651830D01*
X154854038Y-76642651D01*
X154874250Y-76635419D01*
X154895074Y-76630203D01*
X154916309Y-76627053D01*
X154937750Y-76626000D01*
X155450250Y-76626000D01*
X155471691Y-76627053D01*
X155471691Y-76627053D01*
G37*
D11*
X155194000Y-77063500D03*
G04 #@! TD*
D10*
G04 #@! TO.C,R16*
G36*
X157085191Y-82457053D02*
X157106426Y-82460203D01*
X157127250Y-82465419D01*
X157147462Y-82472651D01*
X157166868Y-82481830D01*
X157185281Y-82492866D01*
X157202524Y-82505654D01*
X157218430Y-82520070D01*
X157232846Y-82535976D01*
X157245634Y-82553219D01*
X157256670Y-82571632D01*
X157265849Y-82591038D01*
X157273081Y-82611250D01*
X157278297Y-82632074D01*
X157281447Y-82653309D01*
X157282500Y-82674750D01*
X157282500Y-83187250D01*
X157281447Y-83208691D01*
X157278297Y-83229926D01*
X157273081Y-83250750D01*
X157265849Y-83270962D01*
X157256670Y-83290368D01*
X157245634Y-83308781D01*
X157232846Y-83326024D01*
X157218430Y-83341930D01*
X157202524Y-83356346D01*
X157185281Y-83369134D01*
X157166868Y-83380170D01*
X157147462Y-83389349D01*
X157127250Y-83396581D01*
X157106426Y-83401797D01*
X157085191Y-83404947D01*
X157063750Y-83406000D01*
X156626250Y-83406000D01*
X156604809Y-83404947D01*
X156583574Y-83401797D01*
X156562750Y-83396581D01*
X156542538Y-83389349D01*
X156523132Y-83380170D01*
X156504719Y-83369134D01*
X156487476Y-83356346D01*
X156471570Y-83341930D01*
X156457154Y-83326024D01*
X156444366Y-83308781D01*
X156433330Y-83290368D01*
X156424151Y-83270962D01*
X156416919Y-83250750D01*
X156411703Y-83229926D01*
X156408553Y-83208691D01*
X156407500Y-83187250D01*
X156407500Y-82674750D01*
X156408553Y-82653309D01*
X156411703Y-82632074D01*
X156416919Y-82611250D01*
X156424151Y-82591038D01*
X156433330Y-82571632D01*
X156444366Y-82553219D01*
X156457154Y-82535976D01*
X156471570Y-82520070D01*
X156487476Y-82505654D01*
X156504719Y-82492866D01*
X156523132Y-82481830D01*
X156542538Y-82472651D01*
X156562750Y-82465419D01*
X156583574Y-82460203D01*
X156604809Y-82457053D01*
X156626250Y-82456000D01*
X157063750Y-82456000D01*
X157085191Y-82457053D01*
X157085191Y-82457053D01*
G37*
D11*
X156845000Y-82931000D03*
D10*
G36*
X158660191Y-82457053D02*
X158681426Y-82460203D01*
X158702250Y-82465419D01*
X158722462Y-82472651D01*
X158741868Y-82481830D01*
X158760281Y-82492866D01*
X158777524Y-82505654D01*
X158793430Y-82520070D01*
X158807846Y-82535976D01*
X158820634Y-82553219D01*
X158831670Y-82571632D01*
X158840849Y-82591038D01*
X158848081Y-82611250D01*
X158853297Y-82632074D01*
X158856447Y-82653309D01*
X158857500Y-82674750D01*
X158857500Y-83187250D01*
X158856447Y-83208691D01*
X158853297Y-83229926D01*
X158848081Y-83250750D01*
X158840849Y-83270962D01*
X158831670Y-83290368D01*
X158820634Y-83308781D01*
X158807846Y-83326024D01*
X158793430Y-83341930D01*
X158777524Y-83356346D01*
X158760281Y-83369134D01*
X158741868Y-83380170D01*
X158722462Y-83389349D01*
X158702250Y-83396581D01*
X158681426Y-83401797D01*
X158660191Y-83404947D01*
X158638750Y-83406000D01*
X158201250Y-83406000D01*
X158179809Y-83404947D01*
X158158574Y-83401797D01*
X158137750Y-83396581D01*
X158117538Y-83389349D01*
X158098132Y-83380170D01*
X158079719Y-83369134D01*
X158062476Y-83356346D01*
X158046570Y-83341930D01*
X158032154Y-83326024D01*
X158019366Y-83308781D01*
X158008330Y-83290368D01*
X157999151Y-83270962D01*
X157991919Y-83250750D01*
X157986703Y-83229926D01*
X157983553Y-83208691D01*
X157982500Y-83187250D01*
X157982500Y-82674750D01*
X157983553Y-82653309D01*
X157986703Y-82632074D01*
X157991919Y-82611250D01*
X157999151Y-82591038D01*
X158008330Y-82571632D01*
X158019366Y-82553219D01*
X158032154Y-82535976D01*
X158046570Y-82520070D01*
X158062476Y-82505654D01*
X158079719Y-82492866D01*
X158098132Y-82481830D01*
X158117538Y-82472651D01*
X158137750Y-82465419D01*
X158158574Y-82460203D01*
X158179809Y-82457053D01*
X158201250Y-82456000D01*
X158638750Y-82456000D01*
X158660191Y-82457053D01*
X158660191Y-82457053D01*
G37*
D11*
X158420000Y-82931000D03*
G04 #@! TD*
D10*
G04 #@! TO.C,R15*
G36*
X149121691Y-78252553D02*
X149142926Y-78255703D01*
X149163750Y-78260919D01*
X149183962Y-78268151D01*
X149203368Y-78277330D01*
X149221781Y-78288366D01*
X149239024Y-78301154D01*
X149254930Y-78315570D01*
X149269346Y-78331476D01*
X149282134Y-78348719D01*
X149293170Y-78367132D01*
X149302349Y-78386538D01*
X149309581Y-78406750D01*
X149314797Y-78427574D01*
X149317947Y-78448809D01*
X149319000Y-78470250D01*
X149319000Y-78907750D01*
X149317947Y-78929191D01*
X149314797Y-78950426D01*
X149309581Y-78971250D01*
X149302349Y-78991462D01*
X149293170Y-79010868D01*
X149282134Y-79029281D01*
X149269346Y-79046524D01*
X149254930Y-79062430D01*
X149239024Y-79076846D01*
X149221781Y-79089634D01*
X149203368Y-79100670D01*
X149183962Y-79109849D01*
X149163750Y-79117081D01*
X149142926Y-79122297D01*
X149121691Y-79125447D01*
X149100250Y-79126500D01*
X148587750Y-79126500D01*
X148566309Y-79125447D01*
X148545074Y-79122297D01*
X148524250Y-79117081D01*
X148504038Y-79109849D01*
X148484632Y-79100670D01*
X148466219Y-79089634D01*
X148448976Y-79076846D01*
X148433070Y-79062430D01*
X148418654Y-79046524D01*
X148405866Y-79029281D01*
X148394830Y-79010868D01*
X148385651Y-78991462D01*
X148378419Y-78971250D01*
X148373203Y-78950426D01*
X148370053Y-78929191D01*
X148369000Y-78907750D01*
X148369000Y-78470250D01*
X148370053Y-78448809D01*
X148373203Y-78427574D01*
X148378419Y-78406750D01*
X148385651Y-78386538D01*
X148394830Y-78367132D01*
X148405866Y-78348719D01*
X148418654Y-78331476D01*
X148433070Y-78315570D01*
X148448976Y-78301154D01*
X148466219Y-78288366D01*
X148484632Y-78277330D01*
X148504038Y-78268151D01*
X148524250Y-78260919D01*
X148545074Y-78255703D01*
X148566309Y-78252553D01*
X148587750Y-78251500D01*
X149100250Y-78251500D01*
X149121691Y-78252553D01*
X149121691Y-78252553D01*
G37*
D11*
X148844000Y-78689000D03*
D10*
G36*
X149121691Y-79827553D02*
X149142926Y-79830703D01*
X149163750Y-79835919D01*
X149183962Y-79843151D01*
X149203368Y-79852330D01*
X149221781Y-79863366D01*
X149239024Y-79876154D01*
X149254930Y-79890570D01*
X149269346Y-79906476D01*
X149282134Y-79923719D01*
X149293170Y-79942132D01*
X149302349Y-79961538D01*
X149309581Y-79981750D01*
X149314797Y-80002574D01*
X149317947Y-80023809D01*
X149319000Y-80045250D01*
X149319000Y-80482750D01*
X149317947Y-80504191D01*
X149314797Y-80525426D01*
X149309581Y-80546250D01*
X149302349Y-80566462D01*
X149293170Y-80585868D01*
X149282134Y-80604281D01*
X149269346Y-80621524D01*
X149254930Y-80637430D01*
X149239024Y-80651846D01*
X149221781Y-80664634D01*
X149203368Y-80675670D01*
X149183962Y-80684849D01*
X149163750Y-80692081D01*
X149142926Y-80697297D01*
X149121691Y-80700447D01*
X149100250Y-80701500D01*
X148587750Y-80701500D01*
X148566309Y-80700447D01*
X148545074Y-80697297D01*
X148524250Y-80692081D01*
X148504038Y-80684849D01*
X148484632Y-80675670D01*
X148466219Y-80664634D01*
X148448976Y-80651846D01*
X148433070Y-80637430D01*
X148418654Y-80621524D01*
X148405866Y-80604281D01*
X148394830Y-80585868D01*
X148385651Y-80566462D01*
X148378419Y-80546250D01*
X148373203Y-80525426D01*
X148370053Y-80504191D01*
X148369000Y-80482750D01*
X148369000Y-80045250D01*
X148370053Y-80023809D01*
X148373203Y-80002574D01*
X148378419Y-79981750D01*
X148385651Y-79961538D01*
X148394830Y-79942132D01*
X148405866Y-79923719D01*
X148418654Y-79906476D01*
X148433070Y-79890570D01*
X148448976Y-79876154D01*
X148466219Y-79863366D01*
X148484632Y-79852330D01*
X148504038Y-79843151D01*
X148524250Y-79835919D01*
X148545074Y-79830703D01*
X148566309Y-79827553D01*
X148587750Y-79826500D01*
X149100250Y-79826500D01*
X149121691Y-79827553D01*
X149121691Y-79827553D01*
G37*
D11*
X148844000Y-80264000D03*
G04 #@! TD*
D10*
G04 #@! TO.C,R14*
G36*
X161073191Y-89061053D02*
X161094426Y-89064203D01*
X161115250Y-89069419D01*
X161135462Y-89076651D01*
X161154868Y-89085830D01*
X161173281Y-89096866D01*
X161190524Y-89109654D01*
X161206430Y-89124070D01*
X161220846Y-89139976D01*
X161233634Y-89157219D01*
X161244670Y-89175632D01*
X161253849Y-89195038D01*
X161261081Y-89215250D01*
X161266297Y-89236074D01*
X161269447Y-89257309D01*
X161270500Y-89278750D01*
X161270500Y-89791250D01*
X161269447Y-89812691D01*
X161266297Y-89833926D01*
X161261081Y-89854750D01*
X161253849Y-89874962D01*
X161244670Y-89894368D01*
X161233634Y-89912781D01*
X161220846Y-89930024D01*
X161206430Y-89945930D01*
X161190524Y-89960346D01*
X161173281Y-89973134D01*
X161154868Y-89984170D01*
X161135462Y-89993349D01*
X161115250Y-90000581D01*
X161094426Y-90005797D01*
X161073191Y-90008947D01*
X161051750Y-90010000D01*
X160614250Y-90010000D01*
X160592809Y-90008947D01*
X160571574Y-90005797D01*
X160550750Y-90000581D01*
X160530538Y-89993349D01*
X160511132Y-89984170D01*
X160492719Y-89973134D01*
X160475476Y-89960346D01*
X160459570Y-89945930D01*
X160445154Y-89930024D01*
X160432366Y-89912781D01*
X160421330Y-89894368D01*
X160412151Y-89874962D01*
X160404919Y-89854750D01*
X160399703Y-89833926D01*
X160396553Y-89812691D01*
X160395500Y-89791250D01*
X160395500Y-89278750D01*
X160396553Y-89257309D01*
X160399703Y-89236074D01*
X160404919Y-89215250D01*
X160412151Y-89195038D01*
X160421330Y-89175632D01*
X160432366Y-89157219D01*
X160445154Y-89139976D01*
X160459570Y-89124070D01*
X160475476Y-89109654D01*
X160492719Y-89096866D01*
X160511132Y-89085830D01*
X160530538Y-89076651D01*
X160550750Y-89069419D01*
X160571574Y-89064203D01*
X160592809Y-89061053D01*
X160614250Y-89060000D01*
X161051750Y-89060000D01*
X161073191Y-89061053D01*
X161073191Y-89061053D01*
G37*
D11*
X160833000Y-89535000D03*
D10*
G36*
X159498191Y-89061053D02*
X159519426Y-89064203D01*
X159540250Y-89069419D01*
X159560462Y-89076651D01*
X159579868Y-89085830D01*
X159598281Y-89096866D01*
X159615524Y-89109654D01*
X159631430Y-89124070D01*
X159645846Y-89139976D01*
X159658634Y-89157219D01*
X159669670Y-89175632D01*
X159678849Y-89195038D01*
X159686081Y-89215250D01*
X159691297Y-89236074D01*
X159694447Y-89257309D01*
X159695500Y-89278750D01*
X159695500Y-89791250D01*
X159694447Y-89812691D01*
X159691297Y-89833926D01*
X159686081Y-89854750D01*
X159678849Y-89874962D01*
X159669670Y-89894368D01*
X159658634Y-89912781D01*
X159645846Y-89930024D01*
X159631430Y-89945930D01*
X159615524Y-89960346D01*
X159598281Y-89973134D01*
X159579868Y-89984170D01*
X159560462Y-89993349D01*
X159540250Y-90000581D01*
X159519426Y-90005797D01*
X159498191Y-90008947D01*
X159476750Y-90010000D01*
X159039250Y-90010000D01*
X159017809Y-90008947D01*
X158996574Y-90005797D01*
X158975750Y-90000581D01*
X158955538Y-89993349D01*
X158936132Y-89984170D01*
X158917719Y-89973134D01*
X158900476Y-89960346D01*
X158884570Y-89945930D01*
X158870154Y-89930024D01*
X158857366Y-89912781D01*
X158846330Y-89894368D01*
X158837151Y-89874962D01*
X158829919Y-89854750D01*
X158824703Y-89833926D01*
X158821553Y-89812691D01*
X158820500Y-89791250D01*
X158820500Y-89278750D01*
X158821553Y-89257309D01*
X158824703Y-89236074D01*
X158829919Y-89215250D01*
X158837151Y-89195038D01*
X158846330Y-89175632D01*
X158857366Y-89157219D01*
X158870154Y-89139976D01*
X158884570Y-89124070D01*
X158900476Y-89109654D01*
X158917719Y-89096866D01*
X158936132Y-89085830D01*
X158955538Y-89076651D01*
X158975750Y-89069419D01*
X158996574Y-89064203D01*
X159017809Y-89061053D01*
X159039250Y-89060000D01*
X159476750Y-89060000D01*
X159498191Y-89061053D01*
X159498191Y-89061053D01*
G37*
D11*
X159258000Y-89535000D03*
G04 #@! TD*
D10*
G04 #@! TO.C,R13*
G36*
X152550691Y-83155053D02*
X152571926Y-83158203D01*
X152592750Y-83163419D01*
X152612962Y-83170651D01*
X152632368Y-83179830D01*
X152650781Y-83190866D01*
X152668024Y-83203654D01*
X152683930Y-83218070D01*
X152698346Y-83233976D01*
X152711134Y-83251219D01*
X152722170Y-83269632D01*
X152731349Y-83289038D01*
X152738581Y-83309250D01*
X152743797Y-83330074D01*
X152746947Y-83351309D01*
X152748000Y-83372750D01*
X152748000Y-83810250D01*
X152746947Y-83831691D01*
X152743797Y-83852926D01*
X152738581Y-83873750D01*
X152731349Y-83893962D01*
X152722170Y-83913368D01*
X152711134Y-83931781D01*
X152698346Y-83949024D01*
X152683930Y-83964930D01*
X152668024Y-83979346D01*
X152650781Y-83992134D01*
X152632368Y-84003170D01*
X152612962Y-84012349D01*
X152592750Y-84019581D01*
X152571926Y-84024797D01*
X152550691Y-84027947D01*
X152529250Y-84029000D01*
X152016750Y-84029000D01*
X151995309Y-84027947D01*
X151974074Y-84024797D01*
X151953250Y-84019581D01*
X151933038Y-84012349D01*
X151913632Y-84003170D01*
X151895219Y-83992134D01*
X151877976Y-83979346D01*
X151862070Y-83964930D01*
X151847654Y-83949024D01*
X151834866Y-83931781D01*
X151823830Y-83913368D01*
X151814651Y-83893962D01*
X151807419Y-83873750D01*
X151802203Y-83852926D01*
X151799053Y-83831691D01*
X151798000Y-83810250D01*
X151798000Y-83372750D01*
X151799053Y-83351309D01*
X151802203Y-83330074D01*
X151807419Y-83309250D01*
X151814651Y-83289038D01*
X151823830Y-83269632D01*
X151834866Y-83251219D01*
X151847654Y-83233976D01*
X151862070Y-83218070D01*
X151877976Y-83203654D01*
X151895219Y-83190866D01*
X151913632Y-83179830D01*
X151933038Y-83170651D01*
X151953250Y-83163419D01*
X151974074Y-83158203D01*
X151995309Y-83155053D01*
X152016750Y-83154000D01*
X152529250Y-83154000D01*
X152550691Y-83155053D01*
X152550691Y-83155053D01*
G37*
D11*
X152273000Y-83591500D03*
D10*
G36*
X152550691Y-81580053D02*
X152571926Y-81583203D01*
X152592750Y-81588419D01*
X152612962Y-81595651D01*
X152632368Y-81604830D01*
X152650781Y-81615866D01*
X152668024Y-81628654D01*
X152683930Y-81643070D01*
X152698346Y-81658976D01*
X152711134Y-81676219D01*
X152722170Y-81694632D01*
X152731349Y-81714038D01*
X152738581Y-81734250D01*
X152743797Y-81755074D01*
X152746947Y-81776309D01*
X152748000Y-81797750D01*
X152748000Y-82235250D01*
X152746947Y-82256691D01*
X152743797Y-82277926D01*
X152738581Y-82298750D01*
X152731349Y-82318962D01*
X152722170Y-82338368D01*
X152711134Y-82356781D01*
X152698346Y-82374024D01*
X152683930Y-82389930D01*
X152668024Y-82404346D01*
X152650781Y-82417134D01*
X152632368Y-82428170D01*
X152612962Y-82437349D01*
X152592750Y-82444581D01*
X152571926Y-82449797D01*
X152550691Y-82452947D01*
X152529250Y-82454000D01*
X152016750Y-82454000D01*
X151995309Y-82452947D01*
X151974074Y-82449797D01*
X151953250Y-82444581D01*
X151933038Y-82437349D01*
X151913632Y-82428170D01*
X151895219Y-82417134D01*
X151877976Y-82404346D01*
X151862070Y-82389930D01*
X151847654Y-82374024D01*
X151834866Y-82356781D01*
X151823830Y-82338368D01*
X151814651Y-82318962D01*
X151807419Y-82298750D01*
X151802203Y-82277926D01*
X151799053Y-82256691D01*
X151798000Y-82235250D01*
X151798000Y-81797750D01*
X151799053Y-81776309D01*
X151802203Y-81755074D01*
X151807419Y-81734250D01*
X151814651Y-81714038D01*
X151823830Y-81694632D01*
X151834866Y-81676219D01*
X151847654Y-81658976D01*
X151862070Y-81643070D01*
X151877976Y-81628654D01*
X151895219Y-81615866D01*
X151913632Y-81604830D01*
X151933038Y-81595651D01*
X151953250Y-81588419D01*
X151974074Y-81583203D01*
X151995309Y-81580053D01*
X152016750Y-81579000D01*
X152529250Y-81579000D01*
X152550691Y-81580053D01*
X152550691Y-81580053D01*
G37*
D11*
X152273000Y-82016500D03*
G04 #@! TD*
D10*
G04 #@! TO.C,R12*
G36*
X156450191Y-85759053D02*
X156471426Y-85762203D01*
X156492250Y-85767419D01*
X156512462Y-85774651D01*
X156531868Y-85783830D01*
X156550281Y-85794866D01*
X156567524Y-85807654D01*
X156583430Y-85822070D01*
X156597846Y-85837976D01*
X156610634Y-85855219D01*
X156621670Y-85873632D01*
X156630849Y-85893038D01*
X156638081Y-85913250D01*
X156643297Y-85934074D01*
X156646447Y-85955309D01*
X156647500Y-85976750D01*
X156647500Y-86489250D01*
X156646447Y-86510691D01*
X156643297Y-86531926D01*
X156638081Y-86552750D01*
X156630849Y-86572962D01*
X156621670Y-86592368D01*
X156610634Y-86610781D01*
X156597846Y-86628024D01*
X156583430Y-86643930D01*
X156567524Y-86658346D01*
X156550281Y-86671134D01*
X156531868Y-86682170D01*
X156512462Y-86691349D01*
X156492250Y-86698581D01*
X156471426Y-86703797D01*
X156450191Y-86706947D01*
X156428750Y-86708000D01*
X155991250Y-86708000D01*
X155969809Y-86706947D01*
X155948574Y-86703797D01*
X155927750Y-86698581D01*
X155907538Y-86691349D01*
X155888132Y-86682170D01*
X155869719Y-86671134D01*
X155852476Y-86658346D01*
X155836570Y-86643930D01*
X155822154Y-86628024D01*
X155809366Y-86610781D01*
X155798330Y-86592368D01*
X155789151Y-86572962D01*
X155781919Y-86552750D01*
X155776703Y-86531926D01*
X155773553Y-86510691D01*
X155772500Y-86489250D01*
X155772500Y-85976750D01*
X155773553Y-85955309D01*
X155776703Y-85934074D01*
X155781919Y-85913250D01*
X155789151Y-85893038D01*
X155798330Y-85873632D01*
X155809366Y-85855219D01*
X155822154Y-85837976D01*
X155836570Y-85822070D01*
X155852476Y-85807654D01*
X155869719Y-85794866D01*
X155888132Y-85783830D01*
X155907538Y-85774651D01*
X155927750Y-85767419D01*
X155948574Y-85762203D01*
X155969809Y-85759053D01*
X155991250Y-85758000D01*
X156428750Y-85758000D01*
X156450191Y-85759053D01*
X156450191Y-85759053D01*
G37*
D11*
X156210000Y-86233000D03*
D10*
G36*
X158025191Y-85759053D02*
X158046426Y-85762203D01*
X158067250Y-85767419D01*
X158087462Y-85774651D01*
X158106868Y-85783830D01*
X158125281Y-85794866D01*
X158142524Y-85807654D01*
X158158430Y-85822070D01*
X158172846Y-85837976D01*
X158185634Y-85855219D01*
X158196670Y-85873632D01*
X158205849Y-85893038D01*
X158213081Y-85913250D01*
X158218297Y-85934074D01*
X158221447Y-85955309D01*
X158222500Y-85976750D01*
X158222500Y-86489250D01*
X158221447Y-86510691D01*
X158218297Y-86531926D01*
X158213081Y-86552750D01*
X158205849Y-86572962D01*
X158196670Y-86592368D01*
X158185634Y-86610781D01*
X158172846Y-86628024D01*
X158158430Y-86643930D01*
X158142524Y-86658346D01*
X158125281Y-86671134D01*
X158106868Y-86682170D01*
X158087462Y-86691349D01*
X158067250Y-86698581D01*
X158046426Y-86703797D01*
X158025191Y-86706947D01*
X158003750Y-86708000D01*
X157566250Y-86708000D01*
X157544809Y-86706947D01*
X157523574Y-86703797D01*
X157502750Y-86698581D01*
X157482538Y-86691349D01*
X157463132Y-86682170D01*
X157444719Y-86671134D01*
X157427476Y-86658346D01*
X157411570Y-86643930D01*
X157397154Y-86628024D01*
X157384366Y-86610781D01*
X157373330Y-86592368D01*
X157364151Y-86572962D01*
X157356919Y-86552750D01*
X157351703Y-86531926D01*
X157348553Y-86510691D01*
X157347500Y-86489250D01*
X157347500Y-85976750D01*
X157348553Y-85955309D01*
X157351703Y-85934074D01*
X157356919Y-85913250D01*
X157364151Y-85893038D01*
X157373330Y-85873632D01*
X157384366Y-85855219D01*
X157397154Y-85837976D01*
X157411570Y-85822070D01*
X157427476Y-85807654D01*
X157444719Y-85794866D01*
X157463132Y-85783830D01*
X157482538Y-85774651D01*
X157502750Y-85767419D01*
X157523574Y-85762203D01*
X157544809Y-85759053D01*
X157566250Y-85758000D01*
X158003750Y-85758000D01*
X158025191Y-85759053D01*
X158025191Y-85759053D01*
G37*
D11*
X157785000Y-86233000D03*
G04 #@! TD*
D10*
G04 #@! TO.C,R11*
G36*
X150899691Y-83155053D02*
X150920926Y-83158203D01*
X150941750Y-83163419D01*
X150961962Y-83170651D01*
X150981368Y-83179830D01*
X150999781Y-83190866D01*
X151017024Y-83203654D01*
X151032930Y-83218070D01*
X151047346Y-83233976D01*
X151060134Y-83251219D01*
X151071170Y-83269632D01*
X151080349Y-83289038D01*
X151087581Y-83309250D01*
X151092797Y-83330074D01*
X151095947Y-83351309D01*
X151097000Y-83372750D01*
X151097000Y-83810250D01*
X151095947Y-83831691D01*
X151092797Y-83852926D01*
X151087581Y-83873750D01*
X151080349Y-83893962D01*
X151071170Y-83913368D01*
X151060134Y-83931781D01*
X151047346Y-83949024D01*
X151032930Y-83964930D01*
X151017024Y-83979346D01*
X150999781Y-83992134D01*
X150981368Y-84003170D01*
X150961962Y-84012349D01*
X150941750Y-84019581D01*
X150920926Y-84024797D01*
X150899691Y-84027947D01*
X150878250Y-84029000D01*
X150365750Y-84029000D01*
X150344309Y-84027947D01*
X150323074Y-84024797D01*
X150302250Y-84019581D01*
X150282038Y-84012349D01*
X150262632Y-84003170D01*
X150244219Y-83992134D01*
X150226976Y-83979346D01*
X150211070Y-83964930D01*
X150196654Y-83949024D01*
X150183866Y-83931781D01*
X150172830Y-83913368D01*
X150163651Y-83893962D01*
X150156419Y-83873750D01*
X150151203Y-83852926D01*
X150148053Y-83831691D01*
X150147000Y-83810250D01*
X150147000Y-83372750D01*
X150148053Y-83351309D01*
X150151203Y-83330074D01*
X150156419Y-83309250D01*
X150163651Y-83289038D01*
X150172830Y-83269632D01*
X150183866Y-83251219D01*
X150196654Y-83233976D01*
X150211070Y-83218070D01*
X150226976Y-83203654D01*
X150244219Y-83190866D01*
X150262632Y-83179830D01*
X150282038Y-83170651D01*
X150302250Y-83163419D01*
X150323074Y-83158203D01*
X150344309Y-83155053D01*
X150365750Y-83154000D01*
X150878250Y-83154000D01*
X150899691Y-83155053D01*
X150899691Y-83155053D01*
G37*
D11*
X150622000Y-83591500D03*
D10*
G36*
X150899691Y-81580053D02*
X150920926Y-81583203D01*
X150941750Y-81588419D01*
X150961962Y-81595651D01*
X150981368Y-81604830D01*
X150999781Y-81615866D01*
X151017024Y-81628654D01*
X151032930Y-81643070D01*
X151047346Y-81658976D01*
X151060134Y-81676219D01*
X151071170Y-81694632D01*
X151080349Y-81714038D01*
X151087581Y-81734250D01*
X151092797Y-81755074D01*
X151095947Y-81776309D01*
X151097000Y-81797750D01*
X151097000Y-82235250D01*
X151095947Y-82256691D01*
X151092797Y-82277926D01*
X151087581Y-82298750D01*
X151080349Y-82318962D01*
X151071170Y-82338368D01*
X151060134Y-82356781D01*
X151047346Y-82374024D01*
X151032930Y-82389930D01*
X151017024Y-82404346D01*
X150999781Y-82417134D01*
X150981368Y-82428170D01*
X150961962Y-82437349D01*
X150941750Y-82444581D01*
X150920926Y-82449797D01*
X150899691Y-82452947D01*
X150878250Y-82454000D01*
X150365750Y-82454000D01*
X150344309Y-82452947D01*
X150323074Y-82449797D01*
X150302250Y-82444581D01*
X150282038Y-82437349D01*
X150262632Y-82428170D01*
X150244219Y-82417134D01*
X150226976Y-82404346D01*
X150211070Y-82389930D01*
X150196654Y-82374024D01*
X150183866Y-82356781D01*
X150172830Y-82338368D01*
X150163651Y-82318962D01*
X150156419Y-82298750D01*
X150151203Y-82277926D01*
X150148053Y-82256691D01*
X150147000Y-82235250D01*
X150147000Y-81797750D01*
X150148053Y-81776309D01*
X150151203Y-81755074D01*
X150156419Y-81734250D01*
X150163651Y-81714038D01*
X150172830Y-81694632D01*
X150183866Y-81676219D01*
X150196654Y-81658976D01*
X150211070Y-81643070D01*
X150226976Y-81628654D01*
X150244219Y-81615866D01*
X150262632Y-81604830D01*
X150282038Y-81595651D01*
X150302250Y-81588419D01*
X150323074Y-81583203D01*
X150344309Y-81580053D01*
X150365750Y-81579000D01*
X150878250Y-81579000D01*
X150899691Y-81580053D01*
X150899691Y-81580053D01*
G37*
D11*
X150622000Y-82016500D03*
G04 #@! TD*
D10*
G04 #@! TO.C,R10*
G36*
X156450191Y-87410053D02*
X156471426Y-87413203D01*
X156492250Y-87418419D01*
X156512462Y-87425651D01*
X156531868Y-87434830D01*
X156550281Y-87445866D01*
X156567524Y-87458654D01*
X156583430Y-87473070D01*
X156597846Y-87488976D01*
X156610634Y-87506219D01*
X156621670Y-87524632D01*
X156630849Y-87544038D01*
X156638081Y-87564250D01*
X156643297Y-87585074D01*
X156646447Y-87606309D01*
X156647500Y-87627750D01*
X156647500Y-88140250D01*
X156646447Y-88161691D01*
X156643297Y-88182926D01*
X156638081Y-88203750D01*
X156630849Y-88223962D01*
X156621670Y-88243368D01*
X156610634Y-88261781D01*
X156597846Y-88279024D01*
X156583430Y-88294930D01*
X156567524Y-88309346D01*
X156550281Y-88322134D01*
X156531868Y-88333170D01*
X156512462Y-88342349D01*
X156492250Y-88349581D01*
X156471426Y-88354797D01*
X156450191Y-88357947D01*
X156428750Y-88359000D01*
X155991250Y-88359000D01*
X155969809Y-88357947D01*
X155948574Y-88354797D01*
X155927750Y-88349581D01*
X155907538Y-88342349D01*
X155888132Y-88333170D01*
X155869719Y-88322134D01*
X155852476Y-88309346D01*
X155836570Y-88294930D01*
X155822154Y-88279024D01*
X155809366Y-88261781D01*
X155798330Y-88243368D01*
X155789151Y-88223962D01*
X155781919Y-88203750D01*
X155776703Y-88182926D01*
X155773553Y-88161691D01*
X155772500Y-88140250D01*
X155772500Y-87627750D01*
X155773553Y-87606309D01*
X155776703Y-87585074D01*
X155781919Y-87564250D01*
X155789151Y-87544038D01*
X155798330Y-87524632D01*
X155809366Y-87506219D01*
X155822154Y-87488976D01*
X155836570Y-87473070D01*
X155852476Y-87458654D01*
X155869719Y-87445866D01*
X155888132Y-87434830D01*
X155907538Y-87425651D01*
X155927750Y-87418419D01*
X155948574Y-87413203D01*
X155969809Y-87410053D01*
X155991250Y-87409000D01*
X156428750Y-87409000D01*
X156450191Y-87410053D01*
X156450191Y-87410053D01*
G37*
D11*
X156210000Y-87884000D03*
D10*
G36*
X158025191Y-87410053D02*
X158046426Y-87413203D01*
X158067250Y-87418419D01*
X158087462Y-87425651D01*
X158106868Y-87434830D01*
X158125281Y-87445866D01*
X158142524Y-87458654D01*
X158158430Y-87473070D01*
X158172846Y-87488976D01*
X158185634Y-87506219D01*
X158196670Y-87524632D01*
X158205849Y-87544038D01*
X158213081Y-87564250D01*
X158218297Y-87585074D01*
X158221447Y-87606309D01*
X158222500Y-87627750D01*
X158222500Y-88140250D01*
X158221447Y-88161691D01*
X158218297Y-88182926D01*
X158213081Y-88203750D01*
X158205849Y-88223962D01*
X158196670Y-88243368D01*
X158185634Y-88261781D01*
X158172846Y-88279024D01*
X158158430Y-88294930D01*
X158142524Y-88309346D01*
X158125281Y-88322134D01*
X158106868Y-88333170D01*
X158087462Y-88342349D01*
X158067250Y-88349581D01*
X158046426Y-88354797D01*
X158025191Y-88357947D01*
X158003750Y-88359000D01*
X157566250Y-88359000D01*
X157544809Y-88357947D01*
X157523574Y-88354797D01*
X157502750Y-88349581D01*
X157482538Y-88342349D01*
X157463132Y-88333170D01*
X157444719Y-88322134D01*
X157427476Y-88309346D01*
X157411570Y-88294930D01*
X157397154Y-88279024D01*
X157384366Y-88261781D01*
X157373330Y-88243368D01*
X157364151Y-88223962D01*
X157356919Y-88203750D01*
X157351703Y-88182926D01*
X157348553Y-88161691D01*
X157347500Y-88140250D01*
X157347500Y-87627750D01*
X157348553Y-87606309D01*
X157351703Y-87585074D01*
X157356919Y-87564250D01*
X157364151Y-87544038D01*
X157373330Y-87524632D01*
X157384366Y-87506219D01*
X157397154Y-87488976D01*
X157411570Y-87473070D01*
X157427476Y-87458654D01*
X157444719Y-87445866D01*
X157463132Y-87434830D01*
X157482538Y-87425651D01*
X157502750Y-87418419D01*
X157523574Y-87413203D01*
X157544809Y-87410053D01*
X157566250Y-87409000D01*
X158003750Y-87409000D01*
X158025191Y-87410053D01*
X158025191Y-87410053D01*
G37*
D11*
X157785000Y-87884000D03*
G04 #@! TD*
D10*
G04 #@! TO.C,R9*
G36*
X163599691Y-95347053D02*
X163620926Y-95350203D01*
X163641750Y-95355419D01*
X163661962Y-95362651D01*
X163681368Y-95371830D01*
X163699781Y-95382866D01*
X163717024Y-95395654D01*
X163732930Y-95410070D01*
X163747346Y-95425976D01*
X163760134Y-95443219D01*
X163771170Y-95461632D01*
X163780349Y-95481038D01*
X163787581Y-95501250D01*
X163792797Y-95522074D01*
X163795947Y-95543309D01*
X163797000Y-95564750D01*
X163797000Y-96002250D01*
X163795947Y-96023691D01*
X163792797Y-96044926D01*
X163787581Y-96065750D01*
X163780349Y-96085962D01*
X163771170Y-96105368D01*
X163760134Y-96123781D01*
X163747346Y-96141024D01*
X163732930Y-96156930D01*
X163717024Y-96171346D01*
X163699781Y-96184134D01*
X163681368Y-96195170D01*
X163661962Y-96204349D01*
X163641750Y-96211581D01*
X163620926Y-96216797D01*
X163599691Y-96219947D01*
X163578250Y-96221000D01*
X163065750Y-96221000D01*
X163044309Y-96219947D01*
X163023074Y-96216797D01*
X163002250Y-96211581D01*
X162982038Y-96204349D01*
X162962632Y-96195170D01*
X162944219Y-96184134D01*
X162926976Y-96171346D01*
X162911070Y-96156930D01*
X162896654Y-96141024D01*
X162883866Y-96123781D01*
X162872830Y-96105368D01*
X162863651Y-96085962D01*
X162856419Y-96065750D01*
X162851203Y-96044926D01*
X162848053Y-96023691D01*
X162847000Y-96002250D01*
X162847000Y-95564750D01*
X162848053Y-95543309D01*
X162851203Y-95522074D01*
X162856419Y-95501250D01*
X162863651Y-95481038D01*
X162872830Y-95461632D01*
X162883866Y-95443219D01*
X162896654Y-95425976D01*
X162911070Y-95410070D01*
X162926976Y-95395654D01*
X162944219Y-95382866D01*
X162962632Y-95371830D01*
X162982038Y-95362651D01*
X163002250Y-95355419D01*
X163023074Y-95350203D01*
X163044309Y-95347053D01*
X163065750Y-95346000D01*
X163578250Y-95346000D01*
X163599691Y-95347053D01*
X163599691Y-95347053D01*
G37*
D11*
X163322000Y-95783500D03*
D10*
G36*
X163599691Y-93772053D02*
X163620926Y-93775203D01*
X163641750Y-93780419D01*
X163661962Y-93787651D01*
X163681368Y-93796830D01*
X163699781Y-93807866D01*
X163717024Y-93820654D01*
X163732930Y-93835070D01*
X163747346Y-93850976D01*
X163760134Y-93868219D01*
X163771170Y-93886632D01*
X163780349Y-93906038D01*
X163787581Y-93926250D01*
X163792797Y-93947074D01*
X163795947Y-93968309D01*
X163797000Y-93989750D01*
X163797000Y-94427250D01*
X163795947Y-94448691D01*
X163792797Y-94469926D01*
X163787581Y-94490750D01*
X163780349Y-94510962D01*
X163771170Y-94530368D01*
X163760134Y-94548781D01*
X163747346Y-94566024D01*
X163732930Y-94581930D01*
X163717024Y-94596346D01*
X163699781Y-94609134D01*
X163681368Y-94620170D01*
X163661962Y-94629349D01*
X163641750Y-94636581D01*
X163620926Y-94641797D01*
X163599691Y-94644947D01*
X163578250Y-94646000D01*
X163065750Y-94646000D01*
X163044309Y-94644947D01*
X163023074Y-94641797D01*
X163002250Y-94636581D01*
X162982038Y-94629349D01*
X162962632Y-94620170D01*
X162944219Y-94609134D01*
X162926976Y-94596346D01*
X162911070Y-94581930D01*
X162896654Y-94566024D01*
X162883866Y-94548781D01*
X162872830Y-94530368D01*
X162863651Y-94510962D01*
X162856419Y-94490750D01*
X162851203Y-94469926D01*
X162848053Y-94448691D01*
X162847000Y-94427250D01*
X162847000Y-93989750D01*
X162848053Y-93968309D01*
X162851203Y-93947074D01*
X162856419Y-93926250D01*
X162863651Y-93906038D01*
X162872830Y-93886632D01*
X162883866Y-93868219D01*
X162896654Y-93850976D01*
X162911070Y-93835070D01*
X162926976Y-93820654D01*
X162944219Y-93807866D01*
X162962632Y-93796830D01*
X162982038Y-93787651D01*
X163002250Y-93780419D01*
X163023074Y-93775203D01*
X163044309Y-93772053D01*
X163065750Y-93771000D01*
X163578250Y-93771000D01*
X163599691Y-93772053D01*
X163599691Y-93772053D01*
G37*
D11*
X163322000Y-94208500D03*
G04 #@! TD*
D10*
G04 #@! TO.C,R7*
G36*
X154709691Y-92756053D02*
X154730926Y-92759203D01*
X154751750Y-92764419D01*
X154771962Y-92771651D01*
X154791368Y-92780830D01*
X154809781Y-92791866D01*
X154827024Y-92804654D01*
X154842930Y-92819070D01*
X154857346Y-92834976D01*
X154870134Y-92852219D01*
X154881170Y-92870632D01*
X154890349Y-92890038D01*
X154897581Y-92910250D01*
X154902797Y-92931074D01*
X154905947Y-92952309D01*
X154907000Y-92973750D01*
X154907000Y-93411250D01*
X154905947Y-93432691D01*
X154902797Y-93453926D01*
X154897581Y-93474750D01*
X154890349Y-93494962D01*
X154881170Y-93514368D01*
X154870134Y-93532781D01*
X154857346Y-93550024D01*
X154842930Y-93565930D01*
X154827024Y-93580346D01*
X154809781Y-93593134D01*
X154791368Y-93604170D01*
X154771962Y-93613349D01*
X154751750Y-93620581D01*
X154730926Y-93625797D01*
X154709691Y-93628947D01*
X154688250Y-93630000D01*
X154175750Y-93630000D01*
X154154309Y-93628947D01*
X154133074Y-93625797D01*
X154112250Y-93620581D01*
X154092038Y-93613349D01*
X154072632Y-93604170D01*
X154054219Y-93593134D01*
X154036976Y-93580346D01*
X154021070Y-93565930D01*
X154006654Y-93550024D01*
X153993866Y-93532781D01*
X153982830Y-93514368D01*
X153973651Y-93494962D01*
X153966419Y-93474750D01*
X153961203Y-93453926D01*
X153958053Y-93432691D01*
X153957000Y-93411250D01*
X153957000Y-92973750D01*
X153958053Y-92952309D01*
X153961203Y-92931074D01*
X153966419Y-92910250D01*
X153973651Y-92890038D01*
X153982830Y-92870632D01*
X153993866Y-92852219D01*
X154006654Y-92834976D01*
X154021070Y-92819070D01*
X154036976Y-92804654D01*
X154054219Y-92791866D01*
X154072632Y-92780830D01*
X154092038Y-92771651D01*
X154112250Y-92764419D01*
X154133074Y-92759203D01*
X154154309Y-92756053D01*
X154175750Y-92755000D01*
X154688250Y-92755000D01*
X154709691Y-92756053D01*
X154709691Y-92756053D01*
G37*
D11*
X154432000Y-93192500D03*
D10*
G36*
X154709691Y-94331053D02*
X154730926Y-94334203D01*
X154751750Y-94339419D01*
X154771962Y-94346651D01*
X154791368Y-94355830D01*
X154809781Y-94366866D01*
X154827024Y-94379654D01*
X154842930Y-94394070D01*
X154857346Y-94409976D01*
X154870134Y-94427219D01*
X154881170Y-94445632D01*
X154890349Y-94465038D01*
X154897581Y-94485250D01*
X154902797Y-94506074D01*
X154905947Y-94527309D01*
X154907000Y-94548750D01*
X154907000Y-94986250D01*
X154905947Y-95007691D01*
X154902797Y-95028926D01*
X154897581Y-95049750D01*
X154890349Y-95069962D01*
X154881170Y-95089368D01*
X154870134Y-95107781D01*
X154857346Y-95125024D01*
X154842930Y-95140930D01*
X154827024Y-95155346D01*
X154809781Y-95168134D01*
X154791368Y-95179170D01*
X154771962Y-95188349D01*
X154751750Y-95195581D01*
X154730926Y-95200797D01*
X154709691Y-95203947D01*
X154688250Y-95205000D01*
X154175750Y-95205000D01*
X154154309Y-95203947D01*
X154133074Y-95200797D01*
X154112250Y-95195581D01*
X154092038Y-95188349D01*
X154072632Y-95179170D01*
X154054219Y-95168134D01*
X154036976Y-95155346D01*
X154021070Y-95140930D01*
X154006654Y-95125024D01*
X153993866Y-95107781D01*
X153982830Y-95089368D01*
X153973651Y-95069962D01*
X153966419Y-95049750D01*
X153961203Y-95028926D01*
X153958053Y-95007691D01*
X153957000Y-94986250D01*
X153957000Y-94548750D01*
X153958053Y-94527309D01*
X153961203Y-94506074D01*
X153966419Y-94485250D01*
X153973651Y-94465038D01*
X153982830Y-94445632D01*
X153993866Y-94427219D01*
X154006654Y-94409976D01*
X154021070Y-94394070D01*
X154036976Y-94379654D01*
X154054219Y-94366866D01*
X154072632Y-94355830D01*
X154092038Y-94346651D01*
X154112250Y-94339419D01*
X154133074Y-94334203D01*
X154154309Y-94331053D01*
X154175750Y-94330000D01*
X154688250Y-94330000D01*
X154709691Y-94331053D01*
X154709691Y-94331053D01*
G37*
D11*
X154432000Y-94767500D03*
G04 #@! TD*
D10*
G04 #@! TO.C,R6*
G36*
X144930691Y-92756053D02*
X144951926Y-92759203D01*
X144972750Y-92764419D01*
X144992962Y-92771651D01*
X145012368Y-92780830D01*
X145030781Y-92791866D01*
X145048024Y-92804654D01*
X145063930Y-92819070D01*
X145078346Y-92834976D01*
X145091134Y-92852219D01*
X145102170Y-92870632D01*
X145111349Y-92890038D01*
X145118581Y-92910250D01*
X145123797Y-92931074D01*
X145126947Y-92952309D01*
X145128000Y-92973750D01*
X145128000Y-93411250D01*
X145126947Y-93432691D01*
X145123797Y-93453926D01*
X145118581Y-93474750D01*
X145111349Y-93494962D01*
X145102170Y-93514368D01*
X145091134Y-93532781D01*
X145078346Y-93550024D01*
X145063930Y-93565930D01*
X145048024Y-93580346D01*
X145030781Y-93593134D01*
X145012368Y-93604170D01*
X144992962Y-93613349D01*
X144972750Y-93620581D01*
X144951926Y-93625797D01*
X144930691Y-93628947D01*
X144909250Y-93630000D01*
X144396750Y-93630000D01*
X144375309Y-93628947D01*
X144354074Y-93625797D01*
X144333250Y-93620581D01*
X144313038Y-93613349D01*
X144293632Y-93604170D01*
X144275219Y-93593134D01*
X144257976Y-93580346D01*
X144242070Y-93565930D01*
X144227654Y-93550024D01*
X144214866Y-93532781D01*
X144203830Y-93514368D01*
X144194651Y-93494962D01*
X144187419Y-93474750D01*
X144182203Y-93453926D01*
X144179053Y-93432691D01*
X144178000Y-93411250D01*
X144178000Y-92973750D01*
X144179053Y-92952309D01*
X144182203Y-92931074D01*
X144187419Y-92910250D01*
X144194651Y-92890038D01*
X144203830Y-92870632D01*
X144214866Y-92852219D01*
X144227654Y-92834976D01*
X144242070Y-92819070D01*
X144257976Y-92804654D01*
X144275219Y-92791866D01*
X144293632Y-92780830D01*
X144313038Y-92771651D01*
X144333250Y-92764419D01*
X144354074Y-92759203D01*
X144375309Y-92756053D01*
X144396750Y-92755000D01*
X144909250Y-92755000D01*
X144930691Y-92756053D01*
X144930691Y-92756053D01*
G37*
D11*
X144653000Y-93192500D03*
D10*
G36*
X144930691Y-94331053D02*
X144951926Y-94334203D01*
X144972750Y-94339419D01*
X144992962Y-94346651D01*
X145012368Y-94355830D01*
X145030781Y-94366866D01*
X145048024Y-94379654D01*
X145063930Y-94394070D01*
X145078346Y-94409976D01*
X145091134Y-94427219D01*
X145102170Y-94445632D01*
X145111349Y-94465038D01*
X145118581Y-94485250D01*
X145123797Y-94506074D01*
X145126947Y-94527309D01*
X145128000Y-94548750D01*
X145128000Y-94986250D01*
X145126947Y-95007691D01*
X145123797Y-95028926D01*
X145118581Y-95049750D01*
X145111349Y-95069962D01*
X145102170Y-95089368D01*
X145091134Y-95107781D01*
X145078346Y-95125024D01*
X145063930Y-95140930D01*
X145048024Y-95155346D01*
X145030781Y-95168134D01*
X145012368Y-95179170D01*
X144992962Y-95188349D01*
X144972750Y-95195581D01*
X144951926Y-95200797D01*
X144930691Y-95203947D01*
X144909250Y-95205000D01*
X144396750Y-95205000D01*
X144375309Y-95203947D01*
X144354074Y-95200797D01*
X144333250Y-95195581D01*
X144313038Y-95188349D01*
X144293632Y-95179170D01*
X144275219Y-95168134D01*
X144257976Y-95155346D01*
X144242070Y-95140930D01*
X144227654Y-95125024D01*
X144214866Y-95107781D01*
X144203830Y-95089368D01*
X144194651Y-95069962D01*
X144187419Y-95049750D01*
X144182203Y-95028926D01*
X144179053Y-95007691D01*
X144178000Y-94986250D01*
X144178000Y-94548750D01*
X144179053Y-94527309D01*
X144182203Y-94506074D01*
X144187419Y-94485250D01*
X144194651Y-94465038D01*
X144203830Y-94445632D01*
X144214866Y-94427219D01*
X144227654Y-94409976D01*
X144242070Y-94394070D01*
X144257976Y-94379654D01*
X144275219Y-94366866D01*
X144293632Y-94355830D01*
X144313038Y-94346651D01*
X144333250Y-94339419D01*
X144354074Y-94334203D01*
X144375309Y-94331053D01*
X144396750Y-94330000D01*
X144909250Y-94330000D01*
X144930691Y-94331053D01*
X144930691Y-94331053D01*
G37*
D11*
X144653000Y-94767500D03*
G04 #@! TD*
D10*
G04 #@! TO.C,R5*
G36*
X140168691Y-66328053D02*
X140189926Y-66331203D01*
X140210750Y-66336419D01*
X140230962Y-66343651D01*
X140250368Y-66352830D01*
X140268781Y-66363866D01*
X140286024Y-66376654D01*
X140301930Y-66391070D01*
X140316346Y-66406976D01*
X140329134Y-66424219D01*
X140340170Y-66442632D01*
X140349349Y-66462038D01*
X140356581Y-66482250D01*
X140361797Y-66503074D01*
X140364947Y-66524309D01*
X140366000Y-66545750D01*
X140366000Y-67058250D01*
X140364947Y-67079691D01*
X140361797Y-67100926D01*
X140356581Y-67121750D01*
X140349349Y-67141962D01*
X140340170Y-67161368D01*
X140329134Y-67179781D01*
X140316346Y-67197024D01*
X140301930Y-67212930D01*
X140286024Y-67227346D01*
X140268781Y-67240134D01*
X140250368Y-67251170D01*
X140230962Y-67260349D01*
X140210750Y-67267581D01*
X140189926Y-67272797D01*
X140168691Y-67275947D01*
X140147250Y-67277000D01*
X139709750Y-67277000D01*
X139688309Y-67275947D01*
X139667074Y-67272797D01*
X139646250Y-67267581D01*
X139626038Y-67260349D01*
X139606632Y-67251170D01*
X139588219Y-67240134D01*
X139570976Y-67227346D01*
X139555070Y-67212930D01*
X139540654Y-67197024D01*
X139527866Y-67179781D01*
X139516830Y-67161368D01*
X139507651Y-67141962D01*
X139500419Y-67121750D01*
X139495203Y-67100926D01*
X139492053Y-67079691D01*
X139491000Y-67058250D01*
X139491000Y-66545750D01*
X139492053Y-66524309D01*
X139495203Y-66503074D01*
X139500419Y-66482250D01*
X139507651Y-66462038D01*
X139516830Y-66442632D01*
X139527866Y-66424219D01*
X139540654Y-66406976D01*
X139555070Y-66391070D01*
X139570976Y-66376654D01*
X139588219Y-66363866D01*
X139606632Y-66352830D01*
X139626038Y-66343651D01*
X139646250Y-66336419D01*
X139667074Y-66331203D01*
X139688309Y-66328053D01*
X139709750Y-66327000D01*
X140147250Y-66327000D01*
X140168691Y-66328053D01*
X140168691Y-66328053D01*
G37*
D11*
X139928500Y-66802000D03*
D10*
G36*
X141743691Y-66328053D02*
X141764926Y-66331203D01*
X141785750Y-66336419D01*
X141805962Y-66343651D01*
X141825368Y-66352830D01*
X141843781Y-66363866D01*
X141861024Y-66376654D01*
X141876930Y-66391070D01*
X141891346Y-66406976D01*
X141904134Y-66424219D01*
X141915170Y-66442632D01*
X141924349Y-66462038D01*
X141931581Y-66482250D01*
X141936797Y-66503074D01*
X141939947Y-66524309D01*
X141941000Y-66545750D01*
X141941000Y-67058250D01*
X141939947Y-67079691D01*
X141936797Y-67100926D01*
X141931581Y-67121750D01*
X141924349Y-67141962D01*
X141915170Y-67161368D01*
X141904134Y-67179781D01*
X141891346Y-67197024D01*
X141876930Y-67212930D01*
X141861024Y-67227346D01*
X141843781Y-67240134D01*
X141825368Y-67251170D01*
X141805962Y-67260349D01*
X141785750Y-67267581D01*
X141764926Y-67272797D01*
X141743691Y-67275947D01*
X141722250Y-67277000D01*
X141284750Y-67277000D01*
X141263309Y-67275947D01*
X141242074Y-67272797D01*
X141221250Y-67267581D01*
X141201038Y-67260349D01*
X141181632Y-67251170D01*
X141163219Y-67240134D01*
X141145976Y-67227346D01*
X141130070Y-67212930D01*
X141115654Y-67197024D01*
X141102866Y-67179781D01*
X141091830Y-67161368D01*
X141082651Y-67141962D01*
X141075419Y-67121750D01*
X141070203Y-67100926D01*
X141067053Y-67079691D01*
X141066000Y-67058250D01*
X141066000Y-66545750D01*
X141067053Y-66524309D01*
X141070203Y-66503074D01*
X141075419Y-66482250D01*
X141082651Y-66462038D01*
X141091830Y-66442632D01*
X141102866Y-66424219D01*
X141115654Y-66406976D01*
X141130070Y-66391070D01*
X141145976Y-66376654D01*
X141163219Y-66363866D01*
X141181632Y-66352830D01*
X141201038Y-66343651D01*
X141221250Y-66336419D01*
X141242074Y-66331203D01*
X141263309Y-66328053D01*
X141284750Y-66327000D01*
X141722250Y-66327000D01*
X141743691Y-66328053D01*
X141743691Y-66328053D01*
G37*
D11*
X141503500Y-66802000D03*
G04 #@! TD*
D10*
G04 #@! TO.C,R4*
G36*
X146581691Y-92781553D02*
X146602926Y-92784703D01*
X146623750Y-92789919D01*
X146643962Y-92797151D01*
X146663368Y-92806330D01*
X146681781Y-92817366D01*
X146699024Y-92830154D01*
X146714930Y-92844570D01*
X146729346Y-92860476D01*
X146742134Y-92877719D01*
X146753170Y-92896132D01*
X146762349Y-92915538D01*
X146769581Y-92935750D01*
X146774797Y-92956574D01*
X146777947Y-92977809D01*
X146779000Y-92999250D01*
X146779000Y-93436750D01*
X146777947Y-93458191D01*
X146774797Y-93479426D01*
X146769581Y-93500250D01*
X146762349Y-93520462D01*
X146753170Y-93539868D01*
X146742134Y-93558281D01*
X146729346Y-93575524D01*
X146714930Y-93591430D01*
X146699024Y-93605846D01*
X146681781Y-93618634D01*
X146663368Y-93629670D01*
X146643962Y-93638849D01*
X146623750Y-93646081D01*
X146602926Y-93651297D01*
X146581691Y-93654447D01*
X146560250Y-93655500D01*
X146047750Y-93655500D01*
X146026309Y-93654447D01*
X146005074Y-93651297D01*
X145984250Y-93646081D01*
X145964038Y-93638849D01*
X145944632Y-93629670D01*
X145926219Y-93618634D01*
X145908976Y-93605846D01*
X145893070Y-93591430D01*
X145878654Y-93575524D01*
X145865866Y-93558281D01*
X145854830Y-93539868D01*
X145845651Y-93520462D01*
X145838419Y-93500250D01*
X145833203Y-93479426D01*
X145830053Y-93458191D01*
X145829000Y-93436750D01*
X145829000Y-92999250D01*
X145830053Y-92977809D01*
X145833203Y-92956574D01*
X145838419Y-92935750D01*
X145845651Y-92915538D01*
X145854830Y-92896132D01*
X145865866Y-92877719D01*
X145878654Y-92860476D01*
X145893070Y-92844570D01*
X145908976Y-92830154D01*
X145926219Y-92817366D01*
X145944632Y-92806330D01*
X145964038Y-92797151D01*
X145984250Y-92789919D01*
X146005074Y-92784703D01*
X146026309Y-92781553D01*
X146047750Y-92780500D01*
X146560250Y-92780500D01*
X146581691Y-92781553D01*
X146581691Y-92781553D01*
G37*
D11*
X146304000Y-93218000D03*
D10*
G36*
X146581691Y-94356553D02*
X146602926Y-94359703D01*
X146623750Y-94364919D01*
X146643962Y-94372151D01*
X146663368Y-94381330D01*
X146681781Y-94392366D01*
X146699024Y-94405154D01*
X146714930Y-94419570D01*
X146729346Y-94435476D01*
X146742134Y-94452719D01*
X146753170Y-94471132D01*
X146762349Y-94490538D01*
X146769581Y-94510750D01*
X146774797Y-94531574D01*
X146777947Y-94552809D01*
X146779000Y-94574250D01*
X146779000Y-95011750D01*
X146777947Y-95033191D01*
X146774797Y-95054426D01*
X146769581Y-95075250D01*
X146762349Y-95095462D01*
X146753170Y-95114868D01*
X146742134Y-95133281D01*
X146729346Y-95150524D01*
X146714930Y-95166430D01*
X146699024Y-95180846D01*
X146681781Y-95193634D01*
X146663368Y-95204670D01*
X146643962Y-95213849D01*
X146623750Y-95221081D01*
X146602926Y-95226297D01*
X146581691Y-95229447D01*
X146560250Y-95230500D01*
X146047750Y-95230500D01*
X146026309Y-95229447D01*
X146005074Y-95226297D01*
X145984250Y-95221081D01*
X145964038Y-95213849D01*
X145944632Y-95204670D01*
X145926219Y-95193634D01*
X145908976Y-95180846D01*
X145893070Y-95166430D01*
X145878654Y-95150524D01*
X145865866Y-95133281D01*
X145854830Y-95114868D01*
X145845651Y-95095462D01*
X145838419Y-95075250D01*
X145833203Y-95054426D01*
X145830053Y-95033191D01*
X145829000Y-95011750D01*
X145829000Y-94574250D01*
X145830053Y-94552809D01*
X145833203Y-94531574D01*
X145838419Y-94510750D01*
X145845651Y-94490538D01*
X145854830Y-94471132D01*
X145865866Y-94452719D01*
X145878654Y-94435476D01*
X145893070Y-94419570D01*
X145908976Y-94405154D01*
X145926219Y-94392366D01*
X145944632Y-94381330D01*
X145964038Y-94372151D01*
X145984250Y-94364919D01*
X146005074Y-94359703D01*
X146026309Y-94356553D01*
X146047750Y-94355500D01*
X146560250Y-94355500D01*
X146581691Y-94356553D01*
X146581691Y-94356553D01*
G37*
D11*
X146304000Y-94793000D03*
G04 #@! TD*
D10*
G04 #@! TO.C,R3*
G36*
X141743691Y-68106053D02*
X141764926Y-68109203D01*
X141785750Y-68114419D01*
X141805962Y-68121651D01*
X141825368Y-68130830D01*
X141843781Y-68141866D01*
X141861024Y-68154654D01*
X141876930Y-68169070D01*
X141891346Y-68184976D01*
X141904134Y-68202219D01*
X141915170Y-68220632D01*
X141924349Y-68240038D01*
X141931581Y-68260250D01*
X141936797Y-68281074D01*
X141939947Y-68302309D01*
X141941000Y-68323750D01*
X141941000Y-68836250D01*
X141939947Y-68857691D01*
X141936797Y-68878926D01*
X141931581Y-68899750D01*
X141924349Y-68919962D01*
X141915170Y-68939368D01*
X141904134Y-68957781D01*
X141891346Y-68975024D01*
X141876930Y-68990930D01*
X141861024Y-69005346D01*
X141843781Y-69018134D01*
X141825368Y-69029170D01*
X141805962Y-69038349D01*
X141785750Y-69045581D01*
X141764926Y-69050797D01*
X141743691Y-69053947D01*
X141722250Y-69055000D01*
X141284750Y-69055000D01*
X141263309Y-69053947D01*
X141242074Y-69050797D01*
X141221250Y-69045581D01*
X141201038Y-69038349D01*
X141181632Y-69029170D01*
X141163219Y-69018134D01*
X141145976Y-69005346D01*
X141130070Y-68990930D01*
X141115654Y-68975024D01*
X141102866Y-68957781D01*
X141091830Y-68939368D01*
X141082651Y-68919962D01*
X141075419Y-68899750D01*
X141070203Y-68878926D01*
X141067053Y-68857691D01*
X141066000Y-68836250D01*
X141066000Y-68323750D01*
X141067053Y-68302309D01*
X141070203Y-68281074D01*
X141075419Y-68260250D01*
X141082651Y-68240038D01*
X141091830Y-68220632D01*
X141102866Y-68202219D01*
X141115654Y-68184976D01*
X141130070Y-68169070D01*
X141145976Y-68154654D01*
X141163219Y-68141866D01*
X141181632Y-68130830D01*
X141201038Y-68121651D01*
X141221250Y-68114419D01*
X141242074Y-68109203D01*
X141263309Y-68106053D01*
X141284750Y-68105000D01*
X141722250Y-68105000D01*
X141743691Y-68106053D01*
X141743691Y-68106053D01*
G37*
D11*
X141503500Y-68580000D03*
D10*
G36*
X140168691Y-68106053D02*
X140189926Y-68109203D01*
X140210750Y-68114419D01*
X140230962Y-68121651D01*
X140250368Y-68130830D01*
X140268781Y-68141866D01*
X140286024Y-68154654D01*
X140301930Y-68169070D01*
X140316346Y-68184976D01*
X140329134Y-68202219D01*
X140340170Y-68220632D01*
X140349349Y-68240038D01*
X140356581Y-68260250D01*
X140361797Y-68281074D01*
X140364947Y-68302309D01*
X140366000Y-68323750D01*
X140366000Y-68836250D01*
X140364947Y-68857691D01*
X140361797Y-68878926D01*
X140356581Y-68899750D01*
X140349349Y-68919962D01*
X140340170Y-68939368D01*
X140329134Y-68957781D01*
X140316346Y-68975024D01*
X140301930Y-68990930D01*
X140286024Y-69005346D01*
X140268781Y-69018134D01*
X140250368Y-69029170D01*
X140230962Y-69038349D01*
X140210750Y-69045581D01*
X140189926Y-69050797D01*
X140168691Y-69053947D01*
X140147250Y-69055000D01*
X139709750Y-69055000D01*
X139688309Y-69053947D01*
X139667074Y-69050797D01*
X139646250Y-69045581D01*
X139626038Y-69038349D01*
X139606632Y-69029170D01*
X139588219Y-69018134D01*
X139570976Y-69005346D01*
X139555070Y-68990930D01*
X139540654Y-68975024D01*
X139527866Y-68957781D01*
X139516830Y-68939368D01*
X139507651Y-68919962D01*
X139500419Y-68899750D01*
X139495203Y-68878926D01*
X139492053Y-68857691D01*
X139491000Y-68836250D01*
X139491000Y-68323750D01*
X139492053Y-68302309D01*
X139495203Y-68281074D01*
X139500419Y-68260250D01*
X139507651Y-68240038D01*
X139516830Y-68220632D01*
X139527866Y-68202219D01*
X139540654Y-68184976D01*
X139555070Y-68169070D01*
X139570976Y-68154654D01*
X139588219Y-68141866D01*
X139606632Y-68130830D01*
X139626038Y-68121651D01*
X139646250Y-68114419D01*
X139667074Y-68109203D01*
X139688309Y-68106053D01*
X139709750Y-68105000D01*
X140147250Y-68105000D01*
X140168691Y-68106053D01*
X140168691Y-68106053D01*
G37*
D11*
X139928500Y-68580000D03*
G04 #@! TD*
D10*
G04 #@! TO.C,R2*
G36*
X146581691Y-84348553D02*
X146602926Y-84351703D01*
X146623750Y-84356919D01*
X146643962Y-84364151D01*
X146663368Y-84373330D01*
X146681781Y-84384366D01*
X146699024Y-84397154D01*
X146714930Y-84411570D01*
X146729346Y-84427476D01*
X146742134Y-84444719D01*
X146753170Y-84463132D01*
X146762349Y-84482538D01*
X146769581Y-84502750D01*
X146774797Y-84523574D01*
X146777947Y-84544809D01*
X146779000Y-84566250D01*
X146779000Y-85003750D01*
X146777947Y-85025191D01*
X146774797Y-85046426D01*
X146769581Y-85067250D01*
X146762349Y-85087462D01*
X146753170Y-85106868D01*
X146742134Y-85125281D01*
X146729346Y-85142524D01*
X146714930Y-85158430D01*
X146699024Y-85172846D01*
X146681781Y-85185634D01*
X146663368Y-85196670D01*
X146643962Y-85205849D01*
X146623750Y-85213081D01*
X146602926Y-85218297D01*
X146581691Y-85221447D01*
X146560250Y-85222500D01*
X146047750Y-85222500D01*
X146026309Y-85221447D01*
X146005074Y-85218297D01*
X145984250Y-85213081D01*
X145964038Y-85205849D01*
X145944632Y-85196670D01*
X145926219Y-85185634D01*
X145908976Y-85172846D01*
X145893070Y-85158430D01*
X145878654Y-85142524D01*
X145865866Y-85125281D01*
X145854830Y-85106868D01*
X145845651Y-85087462D01*
X145838419Y-85067250D01*
X145833203Y-85046426D01*
X145830053Y-85025191D01*
X145829000Y-85003750D01*
X145829000Y-84566250D01*
X145830053Y-84544809D01*
X145833203Y-84523574D01*
X145838419Y-84502750D01*
X145845651Y-84482538D01*
X145854830Y-84463132D01*
X145865866Y-84444719D01*
X145878654Y-84427476D01*
X145893070Y-84411570D01*
X145908976Y-84397154D01*
X145926219Y-84384366D01*
X145944632Y-84373330D01*
X145964038Y-84364151D01*
X145984250Y-84356919D01*
X146005074Y-84351703D01*
X146026309Y-84348553D01*
X146047750Y-84347500D01*
X146560250Y-84347500D01*
X146581691Y-84348553D01*
X146581691Y-84348553D01*
G37*
D11*
X146304000Y-84785000D03*
D10*
G36*
X146581691Y-85923553D02*
X146602926Y-85926703D01*
X146623750Y-85931919D01*
X146643962Y-85939151D01*
X146663368Y-85948330D01*
X146681781Y-85959366D01*
X146699024Y-85972154D01*
X146714930Y-85986570D01*
X146729346Y-86002476D01*
X146742134Y-86019719D01*
X146753170Y-86038132D01*
X146762349Y-86057538D01*
X146769581Y-86077750D01*
X146774797Y-86098574D01*
X146777947Y-86119809D01*
X146779000Y-86141250D01*
X146779000Y-86578750D01*
X146777947Y-86600191D01*
X146774797Y-86621426D01*
X146769581Y-86642250D01*
X146762349Y-86662462D01*
X146753170Y-86681868D01*
X146742134Y-86700281D01*
X146729346Y-86717524D01*
X146714930Y-86733430D01*
X146699024Y-86747846D01*
X146681781Y-86760634D01*
X146663368Y-86771670D01*
X146643962Y-86780849D01*
X146623750Y-86788081D01*
X146602926Y-86793297D01*
X146581691Y-86796447D01*
X146560250Y-86797500D01*
X146047750Y-86797500D01*
X146026309Y-86796447D01*
X146005074Y-86793297D01*
X145984250Y-86788081D01*
X145964038Y-86780849D01*
X145944632Y-86771670D01*
X145926219Y-86760634D01*
X145908976Y-86747846D01*
X145893070Y-86733430D01*
X145878654Y-86717524D01*
X145865866Y-86700281D01*
X145854830Y-86681868D01*
X145845651Y-86662462D01*
X145838419Y-86642250D01*
X145833203Y-86621426D01*
X145830053Y-86600191D01*
X145829000Y-86578750D01*
X145829000Y-86141250D01*
X145830053Y-86119809D01*
X145833203Y-86098574D01*
X145838419Y-86077750D01*
X145845651Y-86057538D01*
X145854830Y-86038132D01*
X145865866Y-86019719D01*
X145878654Y-86002476D01*
X145893070Y-85986570D01*
X145908976Y-85972154D01*
X145926219Y-85959366D01*
X145944632Y-85948330D01*
X145964038Y-85939151D01*
X145984250Y-85931919D01*
X146005074Y-85926703D01*
X146026309Y-85923553D01*
X146047750Y-85922500D01*
X146560250Y-85922500D01*
X146581691Y-85923553D01*
X146581691Y-85923553D01*
G37*
D11*
X146304000Y-86360000D03*
G04 #@! TD*
D10*
G04 #@! TO.C,R1*
G36*
X146581691Y-89251053D02*
X146602926Y-89254203D01*
X146623750Y-89259419D01*
X146643962Y-89266651D01*
X146663368Y-89275830D01*
X146681781Y-89286866D01*
X146699024Y-89299654D01*
X146714930Y-89314070D01*
X146729346Y-89329976D01*
X146742134Y-89347219D01*
X146753170Y-89365632D01*
X146762349Y-89385038D01*
X146769581Y-89405250D01*
X146774797Y-89426074D01*
X146777947Y-89447309D01*
X146779000Y-89468750D01*
X146779000Y-89906250D01*
X146777947Y-89927691D01*
X146774797Y-89948926D01*
X146769581Y-89969750D01*
X146762349Y-89989962D01*
X146753170Y-90009368D01*
X146742134Y-90027781D01*
X146729346Y-90045024D01*
X146714930Y-90060930D01*
X146699024Y-90075346D01*
X146681781Y-90088134D01*
X146663368Y-90099170D01*
X146643962Y-90108349D01*
X146623750Y-90115581D01*
X146602926Y-90120797D01*
X146581691Y-90123947D01*
X146560250Y-90125000D01*
X146047750Y-90125000D01*
X146026309Y-90123947D01*
X146005074Y-90120797D01*
X145984250Y-90115581D01*
X145964038Y-90108349D01*
X145944632Y-90099170D01*
X145926219Y-90088134D01*
X145908976Y-90075346D01*
X145893070Y-90060930D01*
X145878654Y-90045024D01*
X145865866Y-90027781D01*
X145854830Y-90009368D01*
X145845651Y-89989962D01*
X145838419Y-89969750D01*
X145833203Y-89948926D01*
X145830053Y-89927691D01*
X145829000Y-89906250D01*
X145829000Y-89468750D01*
X145830053Y-89447309D01*
X145833203Y-89426074D01*
X145838419Y-89405250D01*
X145845651Y-89385038D01*
X145854830Y-89365632D01*
X145865866Y-89347219D01*
X145878654Y-89329976D01*
X145893070Y-89314070D01*
X145908976Y-89299654D01*
X145926219Y-89286866D01*
X145944632Y-89275830D01*
X145964038Y-89266651D01*
X145984250Y-89259419D01*
X146005074Y-89254203D01*
X146026309Y-89251053D01*
X146047750Y-89250000D01*
X146560250Y-89250000D01*
X146581691Y-89251053D01*
X146581691Y-89251053D01*
G37*
D11*
X146304000Y-89687500D03*
D10*
G36*
X146581691Y-87676053D02*
X146602926Y-87679203D01*
X146623750Y-87684419D01*
X146643962Y-87691651D01*
X146663368Y-87700830D01*
X146681781Y-87711866D01*
X146699024Y-87724654D01*
X146714930Y-87739070D01*
X146729346Y-87754976D01*
X146742134Y-87772219D01*
X146753170Y-87790632D01*
X146762349Y-87810038D01*
X146769581Y-87830250D01*
X146774797Y-87851074D01*
X146777947Y-87872309D01*
X146779000Y-87893750D01*
X146779000Y-88331250D01*
X146777947Y-88352691D01*
X146774797Y-88373926D01*
X146769581Y-88394750D01*
X146762349Y-88414962D01*
X146753170Y-88434368D01*
X146742134Y-88452781D01*
X146729346Y-88470024D01*
X146714930Y-88485930D01*
X146699024Y-88500346D01*
X146681781Y-88513134D01*
X146663368Y-88524170D01*
X146643962Y-88533349D01*
X146623750Y-88540581D01*
X146602926Y-88545797D01*
X146581691Y-88548947D01*
X146560250Y-88550000D01*
X146047750Y-88550000D01*
X146026309Y-88548947D01*
X146005074Y-88545797D01*
X145984250Y-88540581D01*
X145964038Y-88533349D01*
X145944632Y-88524170D01*
X145926219Y-88513134D01*
X145908976Y-88500346D01*
X145893070Y-88485930D01*
X145878654Y-88470024D01*
X145865866Y-88452781D01*
X145854830Y-88434368D01*
X145845651Y-88414962D01*
X145838419Y-88394750D01*
X145833203Y-88373926D01*
X145830053Y-88352691D01*
X145829000Y-88331250D01*
X145829000Y-87893750D01*
X145830053Y-87872309D01*
X145833203Y-87851074D01*
X145838419Y-87830250D01*
X145845651Y-87810038D01*
X145854830Y-87790632D01*
X145865866Y-87772219D01*
X145878654Y-87754976D01*
X145893070Y-87739070D01*
X145908976Y-87724654D01*
X145926219Y-87711866D01*
X145944632Y-87700830D01*
X145964038Y-87691651D01*
X145984250Y-87684419D01*
X146005074Y-87679203D01*
X146026309Y-87676053D01*
X146047750Y-87675000D01*
X146560250Y-87675000D01*
X146581691Y-87676053D01*
X146581691Y-87676053D01*
G37*
D11*
X146304000Y-88112500D03*
G04 #@! TD*
D19*
G04 #@! TO.C,Q1*
X140716000Y-70628000D03*
X141666000Y-72628000D03*
X139766000Y-72628000D03*
G04 #@! TD*
D10*
G04 #@! TO.C,L2*
G36*
X153820691Y-76627053D02*
X153841926Y-76630203D01*
X153862750Y-76635419D01*
X153882962Y-76642651D01*
X153902368Y-76651830D01*
X153920781Y-76662866D01*
X153938024Y-76675654D01*
X153953930Y-76690070D01*
X153968346Y-76705976D01*
X153981134Y-76723219D01*
X153992170Y-76741632D01*
X154001349Y-76761038D01*
X154008581Y-76781250D01*
X154013797Y-76802074D01*
X154016947Y-76823309D01*
X154018000Y-76844750D01*
X154018000Y-77282250D01*
X154016947Y-77303691D01*
X154013797Y-77324926D01*
X154008581Y-77345750D01*
X154001349Y-77365962D01*
X153992170Y-77385368D01*
X153981134Y-77403781D01*
X153968346Y-77421024D01*
X153953930Y-77436930D01*
X153938024Y-77451346D01*
X153920781Y-77464134D01*
X153902368Y-77475170D01*
X153882962Y-77484349D01*
X153862750Y-77491581D01*
X153841926Y-77496797D01*
X153820691Y-77499947D01*
X153799250Y-77501000D01*
X153286750Y-77501000D01*
X153265309Y-77499947D01*
X153244074Y-77496797D01*
X153223250Y-77491581D01*
X153203038Y-77484349D01*
X153183632Y-77475170D01*
X153165219Y-77464134D01*
X153147976Y-77451346D01*
X153132070Y-77436930D01*
X153117654Y-77421024D01*
X153104866Y-77403781D01*
X153093830Y-77385368D01*
X153084651Y-77365962D01*
X153077419Y-77345750D01*
X153072203Y-77324926D01*
X153069053Y-77303691D01*
X153068000Y-77282250D01*
X153068000Y-76844750D01*
X153069053Y-76823309D01*
X153072203Y-76802074D01*
X153077419Y-76781250D01*
X153084651Y-76761038D01*
X153093830Y-76741632D01*
X153104866Y-76723219D01*
X153117654Y-76705976D01*
X153132070Y-76690070D01*
X153147976Y-76675654D01*
X153165219Y-76662866D01*
X153183632Y-76651830D01*
X153203038Y-76642651D01*
X153223250Y-76635419D01*
X153244074Y-76630203D01*
X153265309Y-76627053D01*
X153286750Y-76626000D01*
X153799250Y-76626000D01*
X153820691Y-76627053D01*
X153820691Y-76627053D01*
G37*
D11*
X153543000Y-77063500D03*
D10*
G36*
X153820691Y-78202053D02*
X153841926Y-78205203D01*
X153862750Y-78210419D01*
X153882962Y-78217651D01*
X153902368Y-78226830D01*
X153920781Y-78237866D01*
X153938024Y-78250654D01*
X153953930Y-78265070D01*
X153968346Y-78280976D01*
X153981134Y-78298219D01*
X153992170Y-78316632D01*
X154001349Y-78336038D01*
X154008581Y-78356250D01*
X154013797Y-78377074D01*
X154016947Y-78398309D01*
X154018000Y-78419750D01*
X154018000Y-78857250D01*
X154016947Y-78878691D01*
X154013797Y-78899926D01*
X154008581Y-78920750D01*
X154001349Y-78940962D01*
X153992170Y-78960368D01*
X153981134Y-78978781D01*
X153968346Y-78996024D01*
X153953930Y-79011930D01*
X153938024Y-79026346D01*
X153920781Y-79039134D01*
X153902368Y-79050170D01*
X153882962Y-79059349D01*
X153862750Y-79066581D01*
X153841926Y-79071797D01*
X153820691Y-79074947D01*
X153799250Y-79076000D01*
X153286750Y-79076000D01*
X153265309Y-79074947D01*
X153244074Y-79071797D01*
X153223250Y-79066581D01*
X153203038Y-79059349D01*
X153183632Y-79050170D01*
X153165219Y-79039134D01*
X153147976Y-79026346D01*
X153132070Y-79011930D01*
X153117654Y-78996024D01*
X153104866Y-78978781D01*
X153093830Y-78960368D01*
X153084651Y-78940962D01*
X153077419Y-78920750D01*
X153072203Y-78899926D01*
X153069053Y-78878691D01*
X153068000Y-78857250D01*
X153068000Y-78419750D01*
X153069053Y-78398309D01*
X153072203Y-78377074D01*
X153077419Y-78356250D01*
X153084651Y-78336038D01*
X153093830Y-78316632D01*
X153104866Y-78298219D01*
X153117654Y-78280976D01*
X153132070Y-78265070D01*
X153147976Y-78250654D01*
X153165219Y-78237866D01*
X153183632Y-78226830D01*
X153203038Y-78217651D01*
X153223250Y-78210419D01*
X153244074Y-78205203D01*
X153265309Y-78202053D01*
X153286750Y-78201000D01*
X153799250Y-78201000D01*
X153820691Y-78202053D01*
X153820691Y-78202053D01*
G37*
D11*
X153543000Y-78638500D03*
G04 #@! TD*
D10*
G04 #@! TO.C,L1*
G36*
X158660191Y-84108053D02*
X158681426Y-84111203D01*
X158702250Y-84116419D01*
X158722462Y-84123651D01*
X158741868Y-84132830D01*
X158760281Y-84143866D01*
X158777524Y-84156654D01*
X158793430Y-84171070D01*
X158807846Y-84186976D01*
X158820634Y-84204219D01*
X158831670Y-84222632D01*
X158840849Y-84242038D01*
X158848081Y-84262250D01*
X158853297Y-84283074D01*
X158856447Y-84304309D01*
X158857500Y-84325750D01*
X158857500Y-84838250D01*
X158856447Y-84859691D01*
X158853297Y-84880926D01*
X158848081Y-84901750D01*
X158840849Y-84921962D01*
X158831670Y-84941368D01*
X158820634Y-84959781D01*
X158807846Y-84977024D01*
X158793430Y-84992930D01*
X158777524Y-85007346D01*
X158760281Y-85020134D01*
X158741868Y-85031170D01*
X158722462Y-85040349D01*
X158702250Y-85047581D01*
X158681426Y-85052797D01*
X158660191Y-85055947D01*
X158638750Y-85057000D01*
X158201250Y-85057000D01*
X158179809Y-85055947D01*
X158158574Y-85052797D01*
X158137750Y-85047581D01*
X158117538Y-85040349D01*
X158098132Y-85031170D01*
X158079719Y-85020134D01*
X158062476Y-85007346D01*
X158046570Y-84992930D01*
X158032154Y-84977024D01*
X158019366Y-84959781D01*
X158008330Y-84941368D01*
X157999151Y-84921962D01*
X157991919Y-84901750D01*
X157986703Y-84880926D01*
X157983553Y-84859691D01*
X157982500Y-84838250D01*
X157982500Y-84325750D01*
X157983553Y-84304309D01*
X157986703Y-84283074D01*
X157991919Y-84262250D01*
X157999151Y-84242038D01*
X158008330Y-84222632D01*
X158019366Y-84204219D01*
X158032154Y-84186976D01*
X158046570Y-84171070D01*
X158062476Y-84156654D01*
X158079719Y-84143866D01*
X158098132Y-84132830D01*
X158117538Y-84123651D01*
X158137750Y-84116419D01*
X158158574Y-84111203D01*
X158179809Y-84108053D01*
X158201250Y-84107000D01*
X158638750Y-84107000D01*
X158660191Y-84108053D01*
X158660191Y-84108053D01*
G37*
D11*
X158420000Y-84582000D03*
D10*
G36*
X157085191Y-84108053D02*
X157106426Y-84111203D01*
X157127250Y-84116419D01*
X157147462Y-84123651D01*
X157166868Y-84132830D01*
X157185281Y-84143866D01*
X157202524Y-84156654D01*
X157218430Y-84171070D01*
X157232846Y-84186976D01*
X157245634Y-84204219D01*
X157256670Y-84222632D01*
X157265849Y-84242038D01*
X157273081Y-84262250D01*
X157278297Y-84283074D01*
X157281447Y-84304309D01*
X157282500Y-84325750D01*
X157282500Y-84838250D01*
X157281447Y-84859691D01*
X157278297Y-84880926D01*
X157273081Y-84901750D01*
X157265849Y-84921962D01*
X157256670Y-84941368D01*
X157245634Y-84959781D01*
X157232846Y-84977024D01*
X157218430Y-84992930D01*
X157202524Y-85007346D01*
X157185281Y-85020134D01*
X157166868Y-85031170D01*
X157147462Y-85040349D01*
X157127250Y-85047581D01*
X157106426Y-85052797D01*
X157085191Y-85055947D01*
X157063750Y-85057000D01*
X156626250Y-85057000D01*
X156604809Y-85055947D01*
X156583574Y-85052797D01*
X156562750Y-85047581D01*
X156542538Y-85040349D01*
X156523132Y-85031170D01*
X156504719Y-85020134D01*
X156487476Y-85007346D01*
X156471570Y-84992930D01*
X156457154Y-84977024D01*
X156444366Y-84959781D01*
X156433330Y-84941368D01*
X156424151Y-84921962D01*
X156416919Y-84901750D01*
X156411703Y-84880926D01*
X156408553Y-84859691D01*
X156407500Y-84838250D01*
X156407500Y-84325750D01*
X156408553Y-84304309D01*
X156411703Y-84283074D01*
X156416919Y-84262250D01*
X156424151Y-84242038D01*
X156433330Y-84222632D01*
X156444366Y-84204219D01*
X156457154Y-84186976D01*
X156471570Y-84171070D01*
X156487476Y-84156654D01*
X156504719Y-84143866D01*
X156523132Y-84132830D01*
X156542538Y-84123651D01*
X156562750Y-84116419D01*
X156583574Y-84111203D01*
X156604809Y-84108053D01*
X156626250Y-84107000D01*
X157063750Y-84107000D01*
X157085191Y-84108053D01*
X157085191Y-84108053D01*
G37*
D11*
X156845000Y-84582000D03*
G04 #@! TD*
D13*
G04 #@! TO.C,J2*
X129286000Y-101408000D03*
X129286000Y-92648000D03*
D14*
X129286000Y-97028000D03*
G04 #@! TD*
D10*
G04 #@! TO.C,D2*
G36*
X145020191Y-66328053D02*
X145041426Y-66331203D01*
X145062250Y-66336419D01*
X145082462Y-66343651D01*
X145101868Y-66352830D01*
X145120281Y-66363866D01*
X145137524Y-66376654D01*
X145153430Y-66391070D01*
X145167846Y-66406976D01*
X145180634Y-66424219D01*
X145191670Y-66442632D01*
X145200849Y-66462038D01*
X145208081Y-66482250D01*
X145213297Y-66503074D01*
X145216447Y-66524309D01*
X145217500Y-66545750D01*
X145217500Y-67058250D01*
X145216447Y-67079691D01*
X145213297Y-67100926D01*
X145208081Y-67121750D01*
X145200849Y-67141962D01*
X145191670Y-67161368D01*
X145180634Y-67179781D01*
X145167846Y-67197024D01*
X145153430Y-67212930D01*
X145137524Y-67227346D01*
X145120281Y-67240134D01*
X145101868Y-67251170D01*
X145082462Y-67260349D01*
X145062250Y-67267581D01*
X145041426Y-67272797D01*
X145020191Y-67275947D01*
X144998750Y-67277000D01*
X144561250Y-67277000D01*
X144539809Y-67275947D01*
X144518574Y-67272797D01*
X144497750Y-67267581D01*
X144477538Y-67260349D01*
X144458132Y-67251170D01*
X144439719Y-67240134D01*
X144422476Y-67227346D01*
X144406570Y-67212930D01*
X144392154Y-67197024D01*
X144379366Y-67179781D01*
X144368330Y-67161368D01*
X144359151Y-67141962D01*
X144351919Y-67121750D01*
X144346703Y-67100926D01*
X144343553Y-67079691D01*
X144342500Y-67058250D01*
X144342500Y-66545750D01*
X144343553Y-66524309D01*
X144346703Y-66503074D01*
X144351919Y-66482250D01*
X144359151Y-66462038D01*
X144368330Y-66442632D01*
X144379366Y-66424219D01*
X144392154Y-66406976D01*
X144406570Y-66391070D01*
X144422476Y-66376654D01*
X144439719Y-66363866D01*
X144458132Y-66352830D01*
X144477538Y-66343651D01*
X144497750Y-66336419D01*
X144518574Y-66331203D01*
X144539809Y-66328053D01*
X144561250Y-66327000D01*
X144998750Y-66327000D01*
X145020191Y-66328053D01*
X145020191Y-66328053D01*
G37*
D11*
X144780000Y-66802000D03*
D10*
G36*
X143445191Y-66328053D02*
X143466426Y-66331203D01*
X143487250Y-66336419D01*
X143507462Y-66343651D01*
X143526868Y-66352830D01*
X143545281Y-66363866D01*
X143562524Y-66376654D01*
X143578430Y-66391070D01*
X143592846Y-66406976D01*
X143605634Y-66424219D01*
X143616670Y-66442632D01*
X143625849Y-66462038D01*
X143633081Y-66482250D01*
X143638297Y-66503074D01*
X143641447Y-66524309D01*
X143642500Y-66545750D01*
X143642500Y-67058250D01*
X143641447Y-67079691D01*
X143638297Y-67100926D01*
X143633081Y-67121750D01*
X143625849Y-67141962D01*
X143616670Y-67161368D01*
X143605634Y-67179781D01*
X143592846Y-67197024D01*
X143578430Y-67212930D01*
X143562524Y-67227346D01*
X143545281Y-67240134D01*
X143526868Y-67251170D01*
X143507462Y-67260349D01*
X143487250Y-67267581D01*
X143466426Y-67272797D01*
X143445191Y-67275947D01*
X143423750Y-67277000D01*
X142986250Y-67277000D01*
X142964809Y-67275947D01*
X142943574Y-67272797D01*
X142922750Y-67267581D01*
X142902538Y-67260349D01*
X142883132Y-67251170D01*
X142864719Y-67240134D01*
X142847476Y-67227346D01*
X142831570Y-67212930D01*
X142817154Y-67197024D01*
X142804366Y-67179781D01*
X142793330Y-67161368D01*
X142784151Y-67141962D01*
X142776919Y-67121750D01*
X142771703Y-67100926D01*
X142768553Y-67079691D01*
X142767500Y-67058250D01*
X142767500Y-66545750D01*
X142768553Y-66524309D01*
X142771703Y-66503074D01*
X142776919Y-66482250D01*
X142784151Y-66462038D01*
X142793330Y-66442632D01*
X142804366Y-66424219D01*
X142817154Y-66406976D01*
X142831570Y-66391070D01*
X142847476Y-66376654D01*
X142864719Y-66363866D01*
X142883132Y-66352830D01*
X142902538Y-66343651D01*
X142922750Y-66336419D01*
X142943574Y-66331203D01*
X142964809Y-66328053D01*
X142986250Y-66327000D01*
X143423750Y-66327000D01*
X143445191Y-66328053D01*
X143445191Y-66328053D01*
G37*
D11*
X143205000Y-66802000D03*
G04 #@! TD*
D10*
G04 #@! TO.C,D1*
G36*
X145045691Y-68106053D02*
X145066926Y-68109203D01*
X145087750Y-68114419D01*
X145107962Y-68121651D01*
X145127368Y-68130830D01*
X145145781Y-68141866D01*
X145163024Y-68154654D01*
X145178930Y-68169070D01*
X145193346Y-68184976D01*
X145206134Y-68202219D01*
X145217170Y-68220632D01*
X145226349Y-68240038D01*
X145233581Y-68260250D01*
X145238797Y-68281074D01*
X145241947Y-68302309D01*
X145243000Y-68323750D01*
X145243000Y-68836250D01*
X145241947Y-68857691D01*
X145238797Y-68878926D01*
X145233581Y-68899750D01*
X145226349Y-68919962D01*
X145217170Y-68939368D01*
X145206134Y-68957781D01*
X145193346Y-68975024D01*
X145178930Y-68990930D01*
X145163024Y-69005346D01*
X145145781Y-69018134D01*
X145127368Y-69029170D01*
X145107962Y-69038349D01*
X145087750Y-69045581D01*
X145066926Y-69050797D01*
X145045691Y-69053947D01*
X145024250Y-69055000D01*
X144586750Y-69055000D01*
X144565309Y-69053947D01*
X144544074Y-69050797D01*
X144523250Y-69045581D01*
X144503038Y-69038349D01*
X144483632Y-69029170D01*
X144465219Y-69018134D01*
X144447976Y-69005346D01*
X144432070Y-68990930D01*
X144417654Y-68975024D01*
X144404866Y-68957781D01*
X144393830Y-68939368D01*
X144384651Y-68919962D01*
X144377419Y-68899750D01*
X144372203Y-68878926D01*
X144369053Y-68857691D01*
X144368000Y-68836250D01*
X144368000Y-68323750D01*
X144369053Y-68302309D01*
X144372203Y-68281074D01*
X144377419Y-68260250D01*
X144384651Y-68240038D01*
X144393830Y-68220632D01*
X144404866Y-68202219D01*
X144417654Y-68184976D01*
X144432070Y-68169070D01*
X144447976Y-68154654D01*
X144465219Y-68141866D01*
X144483632Y-68130830D01*
X144503038Y-68121651D01*
X144523250Y-68114419D01*
X144544074Y-68109203D01*
X144565309Y-68106053D01*
X144586750Y-68105000D01*
X145024250Y-68105000D01*
X145045691Y-68106053D01*
X145045691Y-68106053D01*
G37*
D11*
X144805500Y-68580000D03*
D10*
G36*
X143470691Y-68106053D02*
X143491926Y-68109203D01*
X143512750Y-68114419D01*
X143532962Y-68121651D01*
X143552368Y-68130830D01*
X143570781Y-68141866D01*
X143588024Y-68154654D01*
X143603930Y-68169070D01*
X143618346Y-68184976D01*
X143631134Y-68202219D01*
X143642170Y-68220632D01*
X143651349Y-68240038D01*
X143658581Y-68260250D01*
X143663797Y-68281074D01*
X143666947Y-68302309D01*
X143668000Y-68323750D01*
X143668000Y-68836250D01*
X143666947Y-68857691D01*
X143663797Y-68878926D01*
X143658581Y-68899750D01*
X143651349Y-68919962D01*
X143642170Y-68939368D01*
X143631134Y-68957781D01*
X143618346Y-68975024D01*
X143603930Y-68990930D01*
X143588024Y-69005346D01*
X143570781Y-69018134D01*
X143552368Y-69029170D01*
X143532962Y-69038349D01*
X143512750Y-69045581D01*
X143491926Y-69050797D01*
X143470691Y-69053947D01*
X143449250Y-69055000D01*
X143011750Y-69055000D01*
X142990309Y-69053947D01*
X142969074Y-69050797D01*
X142948250Y-69045581D01*
X142928038Y-69038349D01*
X142908632Y-69029170D01*
X142890219Y-69018134D01*
X142872976Y-69005346D01*
X142857070Y-68990930D01*
X142842654Y-68975024D01*
X142829866Y-68957781D01*
X142818830Y-68939368D01*
X142809651Y-68919962D01*
X142802419Y-68899750D01*
X142797203Y-68878926D01*
X142794053Y-68857691D01*
X142793000Y-68836250D01*
X142793000Y-68323750D01*
X142794053Y-68302309D01*
X142797203Y-68281074D01*
X142802419Y-68260250D01*
X142809651Y-68240038D01*
X142818830Y-68220632D01*
X142829866Y-68202219D01*
X142842654Y-68184976D01*
X142857070Y-68169070D01*
X142872976Y-68154654D01*
X142890219Y-68141866D01*
X142908632Y-68130830D01*
X142928038Y-68121651D01*
X142948250Y-68114419D01*
X142969074Y-68109203D01*
X142990309Y-68106053D01*
X143011750Y-68105000D01*
X143449250Y-68105000D01*
X143470691Y-68106053D01*
X143470691Y-68106053D01*
G37*
D11*
X143230500Y-68580000D03*
G04 #@! TD*
D10*
G04 #@! TO.C,C14*
G36*
X155456505Y-74787204D02*
X155480773Y-74790804D01*
X155504572Y-74796765D01*
X155527671Y-74805030D01*
X155549850Y-74815520D01*
X155570893Y-74828132D01*
X155590599Y-74842747D01*
X155608777Y-74859223D01*
X155625253Y-74877401D01*
X155639868Y-74897107D01*
X155652480Y-74918150D01*
X155662970Y-74940329D01*
X155671235Y-74963428D01*
X155677196Y-74987227D01*
X155680796Y-75011495D01*
X155682000Y-75035999D01*
X155682000Y-75586001D01*
X155680796Y-75610505D01*
X155677196Y-75634773D01*
X155671235Y-75658572D01*
X155662970Y-75681671D01*
X155652480Y-75703850D01*
X155639868Y-75724893D01*
X155625253Y-75744599D01*
X155608777Y-75762777D01*
X155590599Y-75779253D01*
X155570893Y-75793868D01*
X155549850Y-75806480D01*
X155527671Y-75816970D01*
X155504572Y-75825235D01*
X155480773Y-75831196D01*
X155456505Y-75834796D01*
X155432001Y-75836000D01*
X154856999Y-75836000D01*
X154832495Y-75834796D01*
X154808227Y-75831196D01*
X154784428Y-75825235D01*
X154761329Y-75816970D01*
X154739150Y-75806480D01*
X154718107Y-75793868D01*
X154698401Y-75779253D01*
X154680223Y-75762777D01*
X154663747Y-75744599D01*
X154649132Y-75724893D01*
X154636520Y-75703850D01*
X154626030Y-75681671D01*
X154617765Y-75658572D01*
X154611804Y-75634773D01*
X154608204Y-75610505D01*
X154607000Y-75586001D01*
X154607000Y-75035999D01*
X154608204Y-75011495D01*
X154611804Y-74987227D01*
X154617765Y-74963428D01*
X154626030Y-74940329D01*
X154636520Y-74918150D01*
X154649132Y-74897107D01*
X154663747Y-74877401D01*
X154680223Y-74859223D01*
X154698401Y-74842747D01*
X154718107Y-74828132D01*
X154739150Y-74815520D01*
X154761329Y-74805030D01*
X154784428Y-74796765D01*
X154808227Y-74790804D01*
X154832495Y-74787204D01*
X154856999Y-74786000D01*
X155432001Y-74786000D01*
X155456505Y-74787204D01*
X155456505Y-74787204D01*
G37*
D12*
X155144500Y-75311000D03*
D10*
G36*
X154031505Y-74787204D02*
X154055773Y-74790804D01*
X154079572Y-74796765D01*
X154102671Y-74805030D01*
X154124850Y-74815520D01*
X154145893Y-74828132D01*
X154165599Y-74842747D01*
X154183777Y-74859223D01*
X154200253Y-74877401D01*
X154214868Y-74897107D01*
X154227480Y-74918150D01*
X154237970Y-74940329D01*
X154246235Y-74963428D01*
X154252196Y-74987227D01*
X154255796Y-75011495D01*
X154257000Y-75035999D01*
X154257000Y-75586001D01*
X154255796Y-75610505D01*
X154252196Y-75634773D01*
X154246235Y-75658572D01*
X154237970Y-75681671D01*
X154227480Y-75703850D01*
X154214868Y-75724893D01*
X154200253Y-75744599D01*
X154183777Y-75762777D01*
X154165599Y-75779253D01*
X154145893Y-75793868D01*
X154124850Y-75806480D01*
X154102671Y-75816970D01*
X154079572Y-75825235D01*
X154055773Y-75831196D01*
X154031505Y-75834796D01*
X154007001Y-75836000D01*
X153431999Y-75836000D01*
X153407495Y-75834796D01*
X153383227Y-75831196D01*
X153359428Y-75825235D01*
X153336329Y-75816970D01*
X153314150Y-75806480D01*
X153293107Y-75793868D01*
X153273401Y-75779253D01*
X153255223Y-75762777D01*
X153238747Y-75744599D01*
X153224132Y-75724893D01*
X153211520Y-75703850D01*
X153201030Y-75681671D01*
X153192765Y-75658572D01*
X153186804Y-75634773D01*
X153183204Y-75610505D01*
X153182000Y-75586001D01*
X153182000Y-75035999D01*
X153183204Y-75011495D01*
X153186804Y-74987227D01*
X153192765Y-74963428D01*
X153201030Y-74940329D01*
X153211520Y-74918150D01*
X153224132Y-74897107D01*
X153238747Y-74877401D01*
X153255223Y-74859223D01*
X153273401Y-74842747D01*
X153293107Y-74828132D01*
X153314150Y-74815520D01*
X153336329Y-74805030D01*
X153359428Y-74796765D01*
X153383227Y-74790804D01*
X153407495Y-74787204D01*
X153431999Y-74786000D01*
X154007001Y-74786000D01*
X154031505Y-74787204D01*
X154031505Y-74787204D01*
G37*
D12*
X153719500Y-75311000D03*
G04 #@! TD*
D10*
G04 #@! TO.C,C13*
G36*
X162392005Y-84058204D02*
X162416273Y-84061804D01*
X162440072Y-84067765D01*
X162463171Y-84076030D01*
X162485350Y-84086520D01*
X162506393Y-84099132D01*
X162526099Y-84113747D01*
X162544277Y-84130223D01*
X162560753Y-84148401D01*
X162575368Y-84168107D01*
X162587980Y-84189150D01*
X162598470Y-84211329D01*
X162606735Y-84234428D01*
X162612696Y-84258227D01*
X162616296Y-84282495D01*
X162617500Y-84306999D01*
X162617500Y-84857001D01*
X162616296Y-84881505D01*
X162612696Y-84905773D01*
X162606735Y-84929572D01*
X162598470Y-84952671D01*
X162587980Y-84974850D01*
X162575368Y-84995893D01*
X162560753Y-85015599D01*
X162544277Y-85033777D01*
X162526099Y-85050253D01*
X162506393Y-85064868D01*
X162485350Y-85077480D01*
X162463171Y-85087970D01*
X162440072Y-85096235D01*
X162416273Y-85102196D01*
X162392005Y-85105796D01*
X162367501Y-85107000D01*
X161792499Y-85107000D01*
X161767995Y-85105796D01*
X161743727Y-85102196D01*
X161719928Y-85096235D01*
X161696829Y-85087970D01*
X161674650Y-85077480D01*
X161653607Y-85064868D01*
X161633901Y-85050253D01*
X161615723Y-85033777D01*
X161599247Y-85015599D01*
X161584632Y-84995893D01*
X161572020Y-84974850D01*
X161561530Y-84952671D01*
X161553265Y-84929572D01*
X161547304Y-84905773D01*
X161543704Y-84881505D01*
X161542500Y-84857001D01*
X161542500Y-84306999D01*
X161543704Y-84282495D01*
X161547304Y-84258227D01*
X161553265Y-84234428D01*
X161561530Y-84211329D01*
X161572020Y-84189150D01*
X161584632Y-84168107D01*
X161599247Y-84148401D01*
X161615723Y-84130223D01*
X161633901Y-84113747D01*
X161653607Y-84099132D01*
X161674650Y-84086520D01*
X161696829Y-84076030D01*
X161719928Y-84067765D01*
X161743727Y-84061804D01*
X161767995Y-84058204D01*
X161792499Y-84057000D01*
X162367501Y-84057000D01*
X162392005Y-84058204D01*
X162392005Y-84058204D01*
G37*
D12*
X162080000Y-84582000D03*
D10*
G36*
X160967005Y-84058204D02*
X160991273Y-84061804D01*
X161015072Y-84067765D01*
X161038171Y-84076030D01*
X161060350Y-84086520D01*
X161081393Y-84099132D01*
X161101099Y-84113747D01*
X161119277Y-84130223D01*
X161135753Y-84148401D01*
X161150368Y-84168107D01*
X161162980Y-84189150D01*
X161173470Y-84211329D01*
X161181735Y-84234428D01*
X161187696Y-84258227D01*
X161191296Y-84282495D01*
X161192500Y-84306999D01*
X161192500Y-84857001D01*
X161191296Y-84881505D01*
X161187696Y-84905773D01*
X161181735Y-84929572D01*
X161173470Y-84952671D01*
X161162980Y-84974850D01*
X161150368Y-84995893D01*
X161135753Y-85015599D01*
X161119277Y-85033777D01*
X161101099Y-85050253D01*
X161081393Y-85064868D01*
X161060350Y-85077480D01*
X161038171Y-85087970D01*
X161015072Y-85096235D01*
X160991273Y-85102196D01*
X160967005Y-85105796D01*
X160942501Y-85107000D01*
X160367499Y-85107000D01*
X160342995Y-85105796D01*
X160318727Y-85102196D01*
X160294928Y-85096235D01*
X160271829Y-85087970D01*
X160249650Y-85077480D01*
X160228607Y-85064868D01*
X160208901Y-85050253D01*
X160190723Y-85033777D01*
X160174247Y-85015599D01*
X160159632Y-84995893D01*
X160147020Y-84974850D01*
X160136530Y-84952671D01*
X160128265Y-84929572D01*
X160122304Y-84905773D01*
X160118704Y-84881505D01*
X160117500Y-84857001D01*
X160117500Y-84306999D01*
X160118704Y-84282495D01*
X160122304Y-84258227D01*
X160128265Y-84234428D01*
X160136530Y-84211329D01*
X160147020Y-84189150D01*
X160159632Y-84168107D01*
X160174247Y-84148401D01*
X160190723Y-84130223D01*
X160208901Y-84113747D01*
X160228607Y-84099132D01*
X160249650Y-84086520D01*
X160271829Y-84076030D01*
X160294928Y-84067765D01*
X160318727Y-84061804D01*
X160342995Y-84058204D01*
X160367499Y-84057000D01*
X160942501Y-84057000D01*
X160967005Y-84058204D01*
X160967005Y-84058204D01*
G37*
D12*
X160655000Y-84582000D03*
G04 #@! TD*
D10*
G04 #@! TO.C,C12*
G36*
X157122691Y-78202053D02*
X157143926Y-78205203D01*
X157164750Y-78210419D01*
X157184962Y-78217651D01*
X157204368Y-78226830D01*
X157222781Y-78237866D01*
X157240024Y-78250654D01*
X157255930Y-78265070D01*
X157270346Y-78280976D01*
X157283134Y-78298219D01*
X157294170Y-78316632D01*
X157303349Y-78336038D01*
X157310581Y-78356250D01*
X157315797Y-78377074D01*
X157318947Y-78398309D01*
X157320000Y-78419750D01*
X157320000Y-78857250D01*
X157318947Y-78878691D01*
X157315797Y-78899926D01*
X157310581Y-78920750D01*
X157303349Y-78940962D01*
X157294170Y-78960368D01*
X157283134Y-78978781D01*
X157270346Y-78996024D01*
X157255930Y-79011930D01*
X157240024Y-79026346D01*
X157222781Y-79039134D01*
X157204368Y-79050170D01*
X157184962Y-79059349D01*
X157164750Y-79066581D01*
X157143926Y-79071797D01*
X157122691Y-79074947D01*
X157101250Y-79076000D01*
X156588750Y-79076000D01*
X156567309Y-79074947D01*
X156546074Y-79071797D01*
X156525250Y-79066581D01*
X156505038Y-79059349D01*
X156485632Y-79050170D01*
X156467219Y-79039134D01*
X156449976Y-79026346D01*
X156434070Y-79011930D01*
X156419654Y-78996024D01*
X156406866Y-78978781D01*
X156395830Y-78960368D01*
X156386651Y-78940962D01*
X156379419Y-78920750D01*
X156374203Y-78899926D01*
X156371053Y-78878691D01*
X156370000Y-78857250D01*
X156370000Y-78419750D01*
X156371053Y-78398309D01*
X156374203Y-78377074D01*
X156379419Y-78356250D01*
X156386651Y-78336038D01*
X156395830Y-78316632D01*
X156406866Y-78298219D01*
X156419654Y-78280976D01*
X156434070Y-78265070D01*
X156449976Y-78250654D01*
X156467219Y-78237866D01*
X156485632Y-78226830D01*
X156505038Y-78217651D01*
X156525250Y-78210419D01*
X156546074Y-78205203D01*
X156567309Y-78202053D01*
X156588750Y-78201000D01*
X157101250Y-78201000D01*
X157122691Y-78202053D01*
X157122691Y-78202053D01*
G37*
D11*
X156845000Y-78638500D03*
D10*
G36*
X157122691Y-76627053D02*
X157143926Y-76630203D01*
X157164750Y-76635419D01*
X157184962Y-76642651D01*
X157204368Y-76651830D01*
X157222781Y-76662866D01*
X157240024Y-76675654D01*
X157255930Y-76690070D01*
X157270346Y-76705976D01*
X157283134Y-76723219D01*
X157294170Y-76741632D01*
X157303349Y-76761038D01*
X157310581Y-76781250D01*
X157315797Y-76802074D01*
X157318947Y-76823309D01*
X157320000Y-76844750D01*
X157320000Y-77282250D01*
X157318947Y-77303691D01*
X157315797Y-77324926D01*
X157310581Y-77345750D01*
X157303349Y-77365962D01*
X157294170Y-77385368D01*
X157283134Y-77403781D01*
X157270346Y-77421024D01*
X157255930Y-77436930D01*
X157240024Y-77451346D01*
X157222781Y-77464134D01*
X157204368Y-77475170D01*
X157184962Y-77484349D01*
X157164750Y-77491581D01*
X157143926Y-77496797D01*
X157122691Y-77499947D01*
X157101250Y-77501000D01*
X156588750Y-77501000D01*
X156567309Y-77499947D01*
X156546074Y-77496797D01*
X156525250Y-77491581D01*
X156505038Y-77484349D01*
X156485632Y-77475170D01*
X156467219Y-77464134D01*
X156449976Y-77451346D01*
X156434070Y-77436930D01*
X156419654Y-77421024D01*
X156406866Y-77403781D01*
X156395830Y-77385368D01*
X156386651Y-77365962D01*
X156379419Y-77345750D01*
X156374203Y-77324926D01*
X156371053Y-77303691D01*
X156370000Y-77282250D01*
X156370000Y-76844750D01*
X156371053Y-76823309D01*
X156374203Y-76802074D01*
X156379419Y-76781250D01*
X156386651Y-76761038D01*
X156395830Y-76741632D01*
X156406866Y-76723219D01*
X156419654Y-76705976D01*
X156434070Y-76690070D01*
X156449976Y-76675654D01*
X156467219Y-76662866D01*
X156485632Y-76651830D01*
X156505038Y-76642651D01*
X156525250Y-76635419D01*
X156546074Y-76630203D01*
X156567309Y-76627053D01*
X156588750Y-76626000D01*
X157101250Y-76626000D01*
X157122691Y-76627053D01*
X157122691Y-76627053D01*
G37*
D11*
X156845000Y-77063500D03*
G04 #@! TD*
D10*
G04 #@! TO.C,C11*
G36*
X157085191Y-80806053D02*
X157106426Y-80809203D01*
X157127250Y-80814419D01*
X157147462Y-80821651D01*
X157166868Y-80830830D01*
X157185281Y-80841866D01*
X157202524Y-80854654D01*
X157218430Y-80869070D01*
X157232846Y-80884976D01*
X157245634Y-80902219D01*
X157256670Y-80920632D01*
X157265849Y-80940038D01*
X157273081Y-80960250D01*
X157278297Y-80981074D01*
X157281447Y-81002309D01*
X157282500Y-81023750D01*
X157282500Y-81536250D01*
X157281447Y-81557691D01*
X157278297Y-81578926D01*
X157273081Y-81599750D01*
X157265849Y-81619962D01*
X157256670Y-81639368D01*
X157245634Y-81657781D01*
X157232846Y-81675024D01*
X157218430Y-81690930D01*
X157202524Y-81705346D01*
X157185281Y-81718134D01*
X157166868Y-81729170D01*
X157147462Y-81738349D01*
X157127250Y-81745581D01*
X157106426Y-81750797D01*
X157085191Y-81753947D01*
X157063750Y-81755000D01*
X156626250Y-81755000D01*
X156604809Y-81753947D01*
X156583574Y-81750797D01*
X156562750Y-81745581D01*
X156542538Y-81738349D01*
X156523132Y-81729170D01*
X156504719Y-81718134D01*
X156487476Y-81705346D01*
X156471570Y-81690930D01*
X156457154Y-81675024D01*
X156444366Y-81657781D01*
X156433330Y-81639368D01*
X156424151Y-81619962D01*
X156416919Y-81599750D01*
X156411703Y-81578926D01*
X156408553Y-81557691D01*
X156407500Y-81536250D01*
X156407500Y-81023750D01*
X156408553Y-81002309D01*
X156411703Y-80981074D01*
X156416919Y-80960250D01*
X156424151Y-80940038D01*
X156433330Y-80920632D01*
X156444366Y-80902219D01*
X156457154Y-80884976D01*
X156471570Y-80869070D01*
X156487476Y-80854654D01*
X156504719Y-80841866D01*
X156523132Y-80830830D01*
X156542538Y-80821651D01*
X156562750Y-80814419D01*
X156583574Y-80809203D01*
X156604809Y-80806053D01*
X156626250Y-80805000D01*
X157063750Y-80805000D01*
X157085191Y-80806053D01*
X157085191Y-80806053D01*
G37*
D11*
X156845000Y-81280000D03*
D10*
G36*
X158660191Y-80806053D02*
X158681426Y-80809203D01*
X158702250Y-80814419D01*
X158722462Y-80821651D01*
X158741868Y-80830830D01*
X158760281Y-80841866D01*
X158777524Y-80854654D01*
X158793430Y-80869070D01*
X158807846Y-80884976D01*
X158820634Y-80902219D01*
X158831670Y-80920632D01*
X158840849Y-80940038D01*
X158848081Y-80960250D01*
X158853297Y-80981074D01*
X158856447Y-81002309D01*
X158857500Y-81023750D01*
X158857500Y-81536250D01*
X158856447Y-81557691D01*
X158853297Y-81578926D01*
X158848081Y-81599750D01*
X158840849Y-81619962D01*
X158831670Y-81639368D01*
X158820634Y-81657781D01*
X158807846Y-81675024D01*
X158793430Y-81690930D01*
X158777524Y-81705346D01*
X158760281Y-81718134D01*
X158741868Y-81729170D01*
X158722462Y-81738349D01*
X158702250Y-81745581D01*
X158681426Y-81750797D01*
X158660191Y-81753947D01*
X158638750Y-81755000D01*
X158201250Y-81755000D01*
X158179809Y-81753947D01*
X158158574Y-81750797D01*
X158137750Y-81745581D01*
X158117538Y-81738349D01*
X158098132Y-81729170D01*
X158079719Y-81718134D01*
X158062476Y-81705346D01*
X158046570Y-81690930D01*
X158032154Y-81675024D01*
X158019366Y-81657781D01*
X158008330Y-81639368D01*
X157999151Y-81619962D01*
X157991919Y-81599750D01*
X157986703Y-81578926D01*
X157983553Y-81557691D01*
X157982500Y-81536250D01*
X157982500Y-81023750D01*
X157983553Y-81002309D01*
X157986703Y-80981074D01*
X157991919Y-80960250D01*
X157999151Y-80940038D01*
X158008330Y-80920632D01*
X158019366Y-80902219D01*
X158032154Y-80884976D01*
X158046570Y-80869070D01*
X158062476Y-80854654D01*
X158079719Y-80841866D01*
X158098132Y-80830830D01*
X158117538Y-80821651D01*
X158137750Y-80814419D01*
X158158574Y-80809203D01*
X158179809Y-80806053D01*
X158201250Y-80805000D01*
X158638750Y-80805000D01*
X158660191Y-80806053D01*
X158660191Y-80806053D01*
G37*
D11*
X158420000Y-81280000D03*
G04 #@! TD*
D10*
G04 #@! TO.C,C10*
G36*
X149143505Y-81477704D02*
X149167773Y-81481304D01*
X149191572Y-81487265D01*
X149214671Y-81495530D01*
X149236850Y-81506020D01*
X149257893Y-81518632D01*
X149277599Y-81533247D01*
X149295777Y-81549723D01*
X149312253Y-81567901D01*
X149326868Y-81587607D01*
X149339480Y-81608650D01*
X149349970Y-81630829D01*
X149358235Y-81653928D01*
X149364196Y-81677727D01*
X149367796Y-81701995D01*
X149369000Y-81726499D01*
X149369000Y-82301501D01*
X149367796Y-82326005D01*
X149364196Y-82350273D01*
X149358235Y-82374072D01*
X149349970Y-82397171D01*
X149339480Y-82419350D01*
X149326868Y-82440393D01*
X149312253Y-82460099D01*
X149295777Y-82478277D01*
X149277599Y-82494753D01*
X149257893Y-82509368D01*
X149236850Y-82521980D01*
X149214671Y-82532470D01*
X149191572Y-82540735D01*
X149167773Y-82546696D01*
X149143505Y-82550296D01*
X149119001Y-82551500D01*
X148568999Y-82551500D01*
X148544495Y-82550296D01*
X148520227Y-82546696D01*
X148496428Y-82540735D01*
X148473329Y-82532470D01*
X148451150Y-82521980D01*
X148430107Y-82509368D01*
X148410401Y-82494753D01*
X148392223Y-82478277D01*
X148375747Y-82460099D01*
X148361132Y-82440393D01*
X148348520Y-82419350D01*
X148338030Y-82397171D01*
X148329765Y-82374072D01*
X148323804Y-82350273D01*
X148320204Y-82326005D01*
X148319000Y-82301501D01*
X148319000Y-81726499D01*
X148320204Y-81701995D01*
X148323804Y-81677727D01*
X148329765Y-81653928D01*
X148338030Y-81630829D01*
X148348520Y-81608650D01*
X148361132Y-81587607D01*
X148375747Y-81567901D01*
X148392223Y-81549723D01*
X148410401Y-81533247D01*
X148430107Y-81518632D01*
X148451150Y-81506020D01*
X148473329Y-81495530D01*
X148496428Y-81487265D01*
X148520227Y-81481304D01*
X148544495Y-81477704D01*
X148568999Y-81476500D01*
X149119001Y-81476500D01*
X149143505Y-81477704D01*
X149143505Y-81477704D01*
G37*
D12*
X148844000Y-82014000D03*
D10*
G36*
X149143505Y-82902704D02*
X149167773Y-82906304D01*
X149191572Y-82912265D01*
X149214671Y-82920530D01*
X149236850Y-82931020D01*
X149257893Y-82943632D01*
X149277599Y-82958247D01*
X149295777Y-82974723D01*
X149312253Y-82992901D01*
X149326868Y-83012607D01*
X149339480Y-83033650D01*
X149349970Y-83055829D01*
X149358235Y-83078928D01*
X149364196Y-83102727D01*
X149367796Y-83126995D01*
X149369000Y-83151499D01*
X149369000Y-83726501D01*
X149367796Y-83751005D01*
X149364196Y-83775273D01*
X149358235Y-83799072D01*
X149349970Y-83822171D01*
X149339480Y-83844350D01*
X149326868Y-83865393D01*
X149312253Y-83885099D01*
X149295777Y-83903277D01*
X149277599Y-83919753D01*
X149257893Y-83934368D01*
X149236850Y-83946980D01*
X149214671Y-83957470D01*
X149191572Y-83965735D01*
X149167773Y-83971696D01*
X149143505Y-83975296D01*
X149119001Y-83976500D01*
X148568999Y-83976500D01*
X148544495Y-83975296D01*
X148520227Y-83971696D01*
X148496428Y-83965735D01*
X148473329Y-83957470D01*
X148451150Y-83946980D01*
X148430107Y-83934368D01*
X148410401Y-83919753D01*
X148392223Y-83903277D01*
X148375747Y-83885099D01*
X148361132Y-83865393D01*
X148348520Y-83844350D01*
X148338030Y-83822171D01*
X148329765Y-83799072D01*
X148323804Y-83775273D01*
X148320204Y-83751005D01*
X148319000Y-83726501D01*
X148319000Y-83151499D01*
X148320204Y-83126995D01*
X148323804Y-83102727D01*
X148329765Y-83078928D01*
X148338030Y-83055829D01*
X148348520Y-83033650D01*
X148361132Y-83012607D01*
X148375747Y-82992901D01*
X148392223Y-82974723D01*
X148410401Y-82958247D01*
X148430107Y-82943632D01*
X148451150Y-82931020D01*
X148473329Y-82920530D01*
X148496428Y-82912265D01*
X148520227Y-82906304D01*
X148544495Y-82902704D01*
X148568999Y-82901500D01*
X149119001Y-82901500D01*
X149143505Y-82902704D01*
X149143505Y-82902704D01*
G37*
D12*
X148844000Y-83439000D03*
G04 #@! TD*
D10*
G04 #@! TO.C,C9*
G36*
X157996505Y-89011204D02*
X158020773Y-89014804D01*
X158044572Y-89020765D01*
X158067671Y-89029030D01*
X158089850Y-89039520D01*
X158110893Y-89052132D01*
X158130599Y-89066747D01*
X158148777Y-89083223D01*
X158165253Y-89101401D01*
X158179868Y-89121107D01*
X158192480Y-89142150D01*
X158202970Y-89164329D01*
X158211235Y-89187428D01*
X158217196Y-89211227D01*
X158220796Y-89235495D01*
X158222000Y-89259999D01*
X158222000Y-89810001D01*
X158220796Y-89834505D01*
X158217196Y-89858773D01*
X158211235Y-89882572D01*
X158202970Y-89905671D01*
X158192480Y-89927850D01*
X158179868Y-89948893D01*
X158165253Y-89968599D01*
X158148777Y-89986777D01*
X158130599Y-90003253D01*
X158110893Y-90017868D01*
X158089850Y-90030480D01*
X158067671Y-90040970D01*
X158044572Y-90049235D01*
X158020773Y-90055196D01*
X157996505Y-90058796D01*
X157972001Y-90060000D01*
X157396999Y-90060000D01*
X157372495Y-90058796D01*
X157348227Y-90055196D01*
X157324428Y-90049235D01*
X157301329Y-90040970D01*
X157279150Y-90030480D01*
X157258107Y-90017868D01*
X157238401Y-90003253D01*
X157220223Y-89986777D01*
X157203747Y-89968599D01*
X157189132Y-89948893D01*
X157176520Y-89927850D01*
X157166030Y-89905671D01*
X157157765Y-89882572D01*
X157151804Y-89858773D01*
X157148204Y-89834505D01*
X157147000Y-89810001D01*
X157147000Y-89259999D01*
X157148204Y-89235495D01*
X157151804Y-89211227D01*
X157157765Y-89187428D01*
X157166030Y-89164329D01*
X157176520Y-89142150D01*
X157189132Y-89121107D01*
X157203747Y-89101401D01*
X157220223Y-89083223D01*
X157238401Y-89066747D01*
X157258107Y-89052132D01*
X157279150Y-89039520D01*
X157301329Y-89029030D01*
X157324428Y-89020765D01*
X157348227Y-89014804D01*
X157372495Y-89011204D01*
X157396999Y-89010000D01*
X157972001Y-89010000D01*
X157996505Y-89011204D01*
X157996505Y-89011204D01*
G37*
D12*
X157684500Y-89535000D03*
D10*
G36*
X156571505Y-89011204D02*
X156595773Y-89014804D01*
X156619572Y-89020765D01*
X156642671Y-89029030D01*
X156664850Y-89039520D01*
X156685893Y-89052132D01*
X156705599Y-89066747D01*
X156723777Y-89083223D01*
X156740253Y-89101401D01*
X156754868Y-89121107D01*
X156767480Y-89142150D01*
X156777970Y-89164329D01*
X156786235Y-89187428D01*
X156792196Y-89211227D01*
X156795796Y-89235495D01*
X156797000Y-89259999D01*
X156797000Y-89810001D01*
X156795796Y-89834505D01*
X156792196Y-89858773D01*
X156786235Y-89882572D01*
X156777970Y-89905671D01*
X156767480Y-89927850D01*
X156754868Y-89948893D01*
X156740253Y-89968599D01*
X156723777Y-89986777D01*
X156705599Y-90003253D01*
X156685893Y-90017868D01*
X156664850Y-90030480D01*
X156642671Y-90040970D01*
X156619572Y-90049235D01*
X156595773Y-90055196D01*
X156571505Y-90058796D01*
X156547001Y-90060000D01*
X155971999Y-90060000D01*
X155947495Y-90058796D01*
X155923227Y-90055196D01*
X155899428Y-90049235D01*
X155876329Y-90040970D01*
X155854150Y-90030480D01*
X155833107Y-90017868D01*
X155813401Y-90003253D01*
X155795223Y-89986777D01*
X155778747Y-89968599D01*
X155764132Y-89948893D01*
X155751520Y-89927850D01*
X155741030Y-89905671D01*
X155732765Y-89882572D01*
X155726804Y-89858773D01*
X155723204Y-89834505D01*
X155722000Y-89810001D01*
X155722000Y-89259999D01*
X155723204Y-89235495D01*
X155726804Y-89211227D01*
X155732765Y-89187428D01*
X155741030Y-89164329D01*
X155751520Y-89142150D01*
X155764132Y-89121107D01*
X155778747Y-89101401D01*
X155795223Y-89083223D01*
X155813401Y-89066747D01*
X155833107Y-89052132D01*
X155854150Y-89039520D01*
X155876329Y-89029030D01*
X155899428Y-89020765D01*
X155923227Y-89014804D01*
X155947495Y-89011204D01*
X155971999Y-89010000D01*
X156547001Y-89010000D01*
X156571505Y-89011204D01*
X156571505Y-89011204D01*
G37*
D12*
X156259500Y-89535000D03*
G04 #@! TD*
D10*
G04 #@! TO.C,C8*
G36*
X151788691Y-77643053D02*
X151809926Y-77646203D01*
X151830750Y-77651419D01*
X151850962Y-77658651D01*
X151870368Y-77667830D01*
X151888781Y-77678866D01*
X151906024Y-77691654D01*
X151921930Y-77706070D01*
X151936346Y-77721976D01*
X151949134Y-77739219D01*
X151960170Y-77757632D01*
X151969349Y-77777038D01*
X151976581Y-77797250D01*
X151981797Y-77818074D01*
X151984947Y-77839309D01*
X151986000Y-77860750D01*
X151986000Y-78298250D01*
X151984947Y-78319691D01*
X151981797Y-78340926D01*
X151976581Y-78361750D01*
X151969349Y-78381962D01*
X151960170Y-78401368D01*
X151949134Y-78419781D01*
X151936346Y-78437024D01*
X151921930Y-78452930D01*
X151906024Y-78467346D01*
X151888781Y-78480134D01*
X151870368Y-78491170D01*
X151850962Y-78500349D01*
X151830750Y-78507581D01*
X151809926Y-78512797D01*
X151788691Y-78515947D01*
X151767250Y-78517000D01*
X151254750Y-78517000D01*
X151233309Y-78515947D01*
X151212074Y-78512797D01*
X151191250Y-78507581D01*
X151171038Y-78500349D01*
X151151632Y-78491170D01*
X151133219Y-78480134D01*
X151115976Y-78467346D01*
X151100070Y-78452930D01*
X151085654Y-78437024D01*
X151072866Y-78419781D01*
X151061830Y-78401368D01*
X151052651Y-78381962D01*
X151045419Y-78361750D01*
X151040203Y-78340926D01*
X151037053Y-78319691D01*
X151036000Y-78298250D01*
X151036000Y-77860750D01*
X151037053Y-77839309D01*
X151040203Y-77818074D01*
X151045419Y-77797250D01*
X151052651Y-77777038D01*
X151061830Y-77757632D01*
X151072866Y-77739219D01*
X151085654Y-77721976D01*
X151100070Y-77706070D01*
X151115976Y-77691654D01*
X151133219Y-77678866D01*
X151151632Y-77667830D01*
X151171038Y-77658651D01*
X151191250Y-77651419D01*
X151212074Y-77646203D01*
X151233309Y-77643053D01*
X151254750Y-77642000D01*
X151767250Y-77642000D01*
X151788691Y-77643053D01*
X151788691Y-77643053D01*
G37*
D11*
X151511000Y-78079500D03*
D10*
G36*
X151788691Y-79218053D02*
X151809926Y-79221203D01*
X151830750Y-79226419D01*
X151850962Y-79233651D01*
X151870368Y-79242830D01*
X151888781Y-79253866D01*
X151906024Y-79266654D01*
X151921930Y-79281070D01*
X151936346Y-79296976D01*
X151949134Y-79314219D01*
X151960170Y-79332632D01*
X151969349Y-79352038D01*
X151976581Y-79372250D01*
X151981797Y-79393074D01*
X151984947Y-79414309D01*
X151986000Y-79435750D01*
X151986000Y-79873250D01*
X151984947Y-79894691D01*
X151981797Y-79915926D01*
X151976581Y-79936750D01*
X151969349Y-79956962D01*
X151960170Y-79976368D01*
X151949134Y-79994781D01*
X151936346Y-80012024D01*
X151921930Y-80027930D01*
X151906024Y-80042346D01*
X151888781Y-80055134D01*
X151870368Y-80066170D01*
X151850962Y-80075349D01*
X151830750Y-80082581D01*
X151809926Y-80087797D01*
X151788691Y-80090947D01*
X151767250Y-80092000D01*
X151254750Y-80092000D01*
X151233309Y-80090947D01*
X151212074Y-80087797D01*
X151191250Y-80082581D01*
X151171038Y-80075349D01*
X151151632Y-80066170D01*
X151133219Y-80055134D01*
X151115976Y-80042346D01*
X151100070Y-80027930D01*
X151085654Y-80012024D01*
X151072866Y-79994781D01*
X151061830Y-79976368D01*
X151052651Y-79956962D01*
X151045419Y-79936750D01*
X151040203Y-79915926D01*
X151037053Y-79894691D01*
X151036000Y-79873250D01*
X151036000Y-79435750D01*
X151037053Y-79414309D01*
X151040203Y-79393074D01*
X151045419Y-79372250D01*
X151052651Y-79352038D01*
X151061830Y-79332632D01*
X151072866Y-79314219D01*
X151085654Y-79296976D01*
X151100070Y-79281070D01*
X151115976Y-79266654D01*
X151133219Y-79253866D01*
X151151632Y-79242830D01*
X151171038Y-79233651D01*
X151191250Y-79226419D01*
X151212074Y-79221203D01*
X151233309Y-79218053D01*
X151254750Y-79217000D01*
X151767250Y-79217000D01*
X151788691Y-79218053D01*
X151788691Y-79218053D01*
G37*
D11*
X151511000Y-79654500D03*
G04 #@! TD*
D10*
G04 #@! TO.C,C7*
G36*
X160260191Y-86521053D02*
X160281426Y-86524203D01*
X160302250Y-86529419D01*
X160322462Y-86536651D01*
X160341868Y-86545830D01*
X160360281Y-86556866D01*
X160377524Y-86569654D01*
X160393430Y-86584070D01*
X160407846Y-86599976D01*
X160420634Y-86617219D01*
X160431670Y-86635632D01*
X160440849Y-86655038D01*
X160448081Y-86675250D01*
X160453297Y-86696074D01*
X160456447Y-86717309D01*
X160457500Y-86738750D01*
X160457500Y-87251250D01*
X160456447Y-87272691D01*
X160453297Y-87293926D01*
X160448081Y-87314750D01*
X160440849Y-87334962D01*
X160431670Y-87354368D01*
X160420634Y-87372781D01*
X160407846Y-87390024D01*
X160393430Y-87405930D01*
X160377524Y-87420346D01*
X160360281Y-87433134D01*
X160341868Y-87444170D01*
X160322462Y-87453349D01*
X160302250Y-87460581D01*
X160281426Y-87465797D01*
X160260191Y-87468947D01*
X160238750Y-87470000D01*
X159801250Y-87470000D01*
X159779809Y-87468947D01*
X159758574Y-87465797D01*
X159737750Y-87460581D01*
X159717538Y-87453349D01*
X159698132Y-87444170D01*
X159679719Y-87433134D01*
X159662476Y-87420346D01*
X159646570Y-87405930D01*
X159632154Y-87390024D01*
X159619366Y-87372781D01*
X159608330Y-87354368D01*
X159599151Y-87334962D01*
X159591919Y-87314750D01*
X159586703Y-87293926D01*
X159583553Y-87272691D01*
X159582500Y-87251250D01*
X159582500Y-86738750D01*
X159583553Y-86717309D01*
X159586703Y-86696074D01*
X159591919Y-86675250D01*
X159599151Y-86655038D01*
X159608330Y-86635632D01*
X159619366Y-86617219D01*
X159632154Y-86599976D01*
X159646570Y-86584070D01*
X159662476Y-86569654D01*
X159679719Y-86556866D01*
X159698132Y-86545830D01*
X159717538Y-86536651D01*
X159737750Y-86529419D01*
X159758574Y-86524203D01*
X159779809Y-86521053D01*
X159801250Y-86520000D01*
X160238750Y-86520000D01*
X160260191Y-86521053D01*
X160260191Y-86521053D01*
G37*
D11*
X160020000Y-86995000D03*
D10*
G36*
X161835191Y-86521053D02*
X161856426Y-86524203D01*
X161877250Y-86529419D01*
X161897462Y-86536651D01*
X161916868Y-86545830D01*
X161935281Y-86556866D01*
X161952524Y-86569654D01*
X161968430Y-86584070D01*
X161982846Y-86599976D01*
X161995634Y-86617219D01*
X162006670Y-86635632D01*
X162015849Y-86655038D01*
X162023081Y-86675250D01*
X162028297Y-86696074D01*
X162031447Y-86717309D01*
X162032500Y-86738750D01*
X162032500Y-87251250D01*
X162031447Y-87272691D01*
X162028297Y-87293926D01*
X162023081Y-87314750D01*
X162015849Y-87334962D01*
X162006670Y-87354368D01*
X161995634Y-87372781D01*
X161982846Y-87390024D01*
X161968430Y-87405930D01*
X161952524Y-87420346D01*
X161935281Y-87433134D01*
X161916868Y-87444170D01*
X161897462Y-87453349D01*
X161877250Y-87460581D01*
X161856426Y-87465797D01*
X161835191Y-87468947D01*
X161813750Y-87470000D01*
X161376250Y-87470000D01*
X161354809Y-87468947D01*
X161333574Y-87465797D01*
X161312750Y-87460581D01*
X161292538Y-87453349D01*
X161273132Y-87444170D01*
X161254719Y-87433134D01*
X161237476Y-87420346D01*
X161221570Y-87405930D01*
X161207154Y-87390024D01*
X161194366Y-87372781D01*
X161183330Y-87354368D01*
X161174151Y-87334962D01*
X161166919Y-87314750D01*
X161161703Y-87293926D01*
X161158553Y-87272691D01*
X161157500Y-87251250D01*
X161157500Y-86738750D01*
X161158553Y-86717309D01*
X161161703Y-86696074D01*
X161166919Y-86675250D01*
X161174151Y-86655038D01*
X161183330Y-86635632D01*
X161194366Y-86617219D01*
X161207154Y-86599976D01*
X161221570Y-86584070D01*
X161237476Y-86569654D01*
X161254719Y-86556866D01*
X161273132Y-86545830D01*
X161292538Y-86536651D01*
X161312750Y-86529419D01*
X161333574Y-86524203D01*
X161354809Y-86521053D01*
X161376250Y-86520000D01*
X161813750Y-86520000D01*
X161835191Y-86521053D01*
X161835191Y-86521053D01*
G37*
D11*
X161595000Y-86995000D03*
G04 #@! TD*
D10*
G04 #@! TO.C,C6*
G36*
X145057691Y-87498553D02*
X145078926Y-87501703D01*
X145099750Y-87506919D01*
X145119962Y-87514151D01*
X145139368Y-87523330D01*
X145157781Y-87534366D01*
X145175024Y-87547154D01*
X145190930Y-87561570D01*
X145205346Y-87577476D01*
X145218134Y-87594719D01*
X145229170Y-87613132D01*
X145238349Y-87632538D01*
X145245581Y-87652750D01*
X145250797Y-87673574D01*
X145253947Y-87694809D01*
X145255000Y-87716250D01*
X145255000Y-88153750D01*
X145253947Y-88175191D01*
X145250797Y-88196426D01*
X145245581Y-88217250D01*
X145238349Y-88237462D01*
X145229170Y-88256868D01*
X145218134Y-88275281D01*
X145205346Y-88292524D01*
X145190930Y-88308430D01*
X145175024Y-88322846D01*
X145157781Y-88335634D01*
X145139368Y-88346670D01*
X145119962Y-88355849D01*
X145099750Y-88363081D01*
X145078926Y-88368297D01*
X145057691Y-88371447D01*
X145036250Y-88372500D01*
X144523750Y-88372500D01*
X144502309Y-88371447D01*
X144481074Y-88368297D01*
X144460250Y-88363081D01*
X144440038Y-88355849D01*
X144420632Y-88346670D01*
X144402219Y-88335634D01*
X144384976Y-88322846D01*
X144369070Y-88308430D01*
X144354654Y-88292524D01*
X144341866Y-88275281D01*
X144330830Y-88256868D01*
X144321651Y-88237462D01*
X144314419Y-88217250D01*
X144309203Y-88196426D01*
X144306053Y-88175191D01*
X144305000Y-88153750D01*
X144305000Y-87716250D01*
X144306053Y-87694809D01*
X144309203Y-87673574D01*
X144314419Y-87652750D01*
X144321651Y-87632538D01*
X144330830Y-87613132D01*
X144341866Y-87594719D01*
X144354654Y-87577476D01*
X144369070Y-87561570D01*
X144384976Y-87547154D01*
X144402219Y-87534366D01*
X144420632Y-87523330D01*
X144440038Y-87514151D01*
X144460250Y-87506919D01*
X144481074Y-87501703D01*
X144502309Y-87498553D01*
X144523750Y-87497500D01*
X145036250Y-87497500D01*
X145057691Y-87498553D01*
X145057691Y-87498553D01*
G37*
D11*
X144780000Y-87935000D03*
D10*
G36*
X145057691Y-85923553D02*
X145078926Y-85926703D01*
X145099750Y-85931919D01*
X145119962Y-85939151D01*
X145139368Y-85948330D01*
X145157781Y-85959366D01*
X145175024Y-85972154D01*
X145190930Y-85986570D01*
X145205346Y-86002476D01*
X145218134Y-86019719D01*
X145229170Y-86038132D01*
X145238349Y-86057538D01*
X145245581Y-86077750D01*
X145250797Y-86098574D01*
X145253947Y-86119809D01*
X145255000Y-86141250D01*
X145255000Y-86578750D01*
X145253947Y-86600191D01*
X145250797Y-86621426D01*
X145245581Y-86642250D01*
X145238349Y-86662462D01*
X145229170Y-86681868D01*
X145218134Y-86700281D01*
X145205346Y-86717524D01*
X145190930Y-86733430D01*
X145175024Y-86747846D01*
X145157781Y-86760634D01*
X145139368Y-86771670D01*
X145119962Y-86780849D01*
X145099750Y-86788081D01*
X145078926Y-86793297D01*
X145057691Y-86796447D01*
X145036250Y-86797500D01*
X144523750Y-86797500D01*
X144502309Y-86796447D01*
X144481074Y-86793297D01*
X144460250Y-86788081D01*
X144440038Y-86780849D01*
X144420632Y-86771670D01*
X144402219Y-86760634D01*
X144384976Y-86747846D01*
X144369070Y-86733430D01*
X144354654Y-86717524D01*
X144341866Y-86700281D01*
X144330830Y-86681868D01*
X144321651Y-86662462D01*
X144314419Y-86642250D01*
X144309203Y-86621426D01*
X144306053Y-86600191D01*
X144305000Y-86578750D01*
X144305000Y-86141250D01*
X144306053Y-86119809D01*
X144309203Y-86098574D01*
X144314419Y-86077750D01*
X144321651Y-86057538D01*
X144330830Y-86038132D01*
X144341866Y-86019719D01*
X144354654Y-86002476D01*
X144369070Y-85986570D01*
X144384976Y-85972154D01*
X144402219Y-85959366D01*
X144420632Y-85948330D01*
X144440038Y-85939151D01*
X144460250Y-85931919D01*
X144481074Y-85926703D01*
X144502309Y-85923553D01*
X144523750Y-85922500D01*
X145036250Y-85922500D01*
X145057691Y-85923553D01*
X145057691Y-85923553D01*
G37*
D11*
X144780000Y-86360000D03*
G04 #@! TD*
D10*
G04 #@! TO.C,C3*
G36*
X135300505Y-77745204D02*
X135324773Y-77748804D01*
X135348572Y-77754765D01*
X135371671Y-77763030D01*
X135393850Y-77773520D01*
X135414893Y-77786132D01*
X135434599Y-77800747D01*
X135452777Y-77817223D01*
X135469253Y-77835401D01*
X135483868Y-77855107D01*
X135496480Y-77876150D01*
X135506970Y-77898329D01*
X135515235Y-77921428D01*
X135521196Y-77945227D01*
X135524796Y-77969495D01*
X135526000Y-77993999D01*
X135526000Y-78569001D01*
X135524796Y-78593505D01*
X135521196Y-78617773D01*
X135515235Y-78641572D01*
X135506970Y-78664671D01*
X135496480Y-78686850D01*
X135483868Y-78707893D01*
X135469253Y-78727599D01*
X135452777Y-78745777D01*
X135434599Y-78762253D01*
X135414893Y-78776868D01*
X135393850Y-78789480D01*
X135371671Y-78799970D01*
X135348572Y-78808235D01*
X135324773Y-78814196D01*
X135300505Y-78817796D01*
X135276001Y-78819000D01*
X134725999Y-78819000D01*
X134701495Y-78817796D01*
X134677227Y-78814196D01*
X134653428Y-78808235D01*
X134630329Y-78799970D01*
X134608150Y-78789480D01*
X134587107Y-78776868D01*
X134567401Y-78762253D01*
X134549223Y-78745777D01*
X134532747Y-78727599D01*
X134518132Y-78707893D01*
X134505520Y-78686850D01*
X134495030Y-78664671D01*
X134486765Y-78641572D01*
X134480804Y-78617773D01*
X134477204Y-78593505D01*
X134476000Y-78569001D01*
X134476000Y-77993999D01*
X134477204Y-77969495D01*
X134480804Y-77945227D01*
X134486765Y-77921428D01*
X134495030Y-77898329D01*
X134505520Y-77876150D01*
X134518132Y-77855107D01*
X134532747Y-77835401D01*
X134549223Y-77817223D01*
X134567401Y-77800747D01*
X134587107Y-77786132D01*
X134608150Y-77773520D01*
X134630329Y-77763030D01*
X134653428Y-77754765D01*
X134677227Y-77748804D01*
X134701495Y-77745204D01*
X134725999Y-77744000D01*
X135276001Y-77744000D01*
X135300505Y-77745204D01*
X135300505Y-77745204D01*
G37*
D12*
X135001000Y-78281500D03*
D10*
G36*
X135300505Y-79170204D02*
X135324773Y-79173804D01*
X135348572Y-79179765D01*
X135371671Y-79188030D01*
X135393850Y-79198520D01*
X135414893Y-79211132D01*
X135434599Y-79225747D01*
X135452777Y-79242223D01*
X135469253Y-79260401D01*
X135483868Y-79280107D01*
X135496480Y-79301150D01*
X135506970Y-79323329D01*
X135515235Y-79346428D01*
X135521196Y-79370227D01*
X135524796Y-79394495D01*
X135526000Y-79418999D01*
X135526000Y-79994001D01*
X135524796Y-80018505D01*
X135521196Y-80042773D01*
X135515235Y-80066572D01*
X135506970Y-80089671D01*
X135496480Y-80111850D01*
X135483868Y-80132893D01*
X135469253Y-80152599D01*
X135452777Y-80170777D01*
X135434599Y-80187253D01*
X135414893Y-80201868D01*
X135393850Y-80214480D01*
X135371671Y-80224970D01*
X135348572Y-80233235D01*
X135324773Y-80239196D01*
X135300505Y-80242796D01*
X135276001Y-80244000D01*
X134725999Y-80244000D01*
X134701495Y-80242796D01*
X134677227Y-80239196D01*
X134653428Y-80233235D01*
X134630329Y-80224970D01*
X134608150Y-80214480D01*
X134587107Y-80201868D01*
X134567401Y-80187253D01*
X134549223Y-80170777D01*
X134532747Y-80152599D01*
X134518132Y-80132893D01*
X134505520Y-80111850D01*
X134495030Y-80089671D01*
X134486765Y-80066572D01*
X134480804Y-80042773D01*
X134477204Y-80018505D01*
X134476000Y-79994001D01*
X134476000Y-79418999D01*
X134477204Y-79394495D01*
X134480804Y-79370227D01*
X134486765Y-79346428D01*
X134495030Y-79323329D01*
X134505520Y-79301150D01*
X134518132Y-79280107D01*
X134532747Y-79260401D01*
X134549223Y-79242223D01*
X134567401Y-79225747D01*
X134587107Y-79211132D01*
X134608150Y-79198520D01*
X134630329Y-79188030D01*
X134653428Y-79179765D01*
X134677227Y-79173804D01*
X134701495Y-79170204D01*
X134725999Y-79169000D01*
X135276001Y-79169000D01*
X135300505Y-79170204D01*
X135300505Y-79170204D01*
G37*
D12*
X135001000Y-79706500D03*
G04 #@! TD*
M02*
